v -2.500000 0.000000 -0.747147
v -2.500000 0.000000 -3.747147
v 4.500000 0.000000 -3.747147
v 4.500000 0.000000 -0.747147
v -2.500000 2.989971 -0.747147
v -2.500000 2.989971 -3.747147
v 4.500000 2.989971 -3.747147
v 4.500000 2.989971 -0.747147
v 0.499999 0.010029 -0.752851
v 0.499999 0.010029 5.247146
v -2.500000 0.010029 5.247145
v -2.499999 0.010029 -0.752853
v 0.500000 3.000000 -0.752850
v 0.499998 3.000000 5.247148
v -2.500000 3.000000 5.247145
v -2.499999 3.000000 -0.752852
vt 0.000277 0.499582
vt 0.249653 0.499582
vt 0.249653 0.748958
vt 0.250206 0.250206
vt 0.499582 0.250206
vt 0.499582 0.499582
vt 0.250206 0.500135
vt 0.499582 0.500135
vt 0.499582 0.749511
vt 0.749511 0.500135
vt 0.749511 0.749511
vt 0.500135 0.749511
vt 0.749511 0.499582
vt 0.500135 0.499582
vt 0.500135 0.250206
vt 0.748958 0.964368
vt 0.250206 0.964368
vt 0.250206 0.857493
vt 0.250206 0.856940
vt 0.250206 0.750064
vt 0.748958 0.750064
vt 0.249653 0.000277
vt 0.249653 0.499028
vt 0.000277 0.499029
vt 0.749511 0.000277
vt 0.856386 0.000277
vt 0.856386 0.249653
vt 0.748958 0.000277
vt 0.748958 0.249653
vt 0.250206 0.249653
vt 0.999723 0.750064
vt 0.998887 0.892566
vt 0.749511 0.892566
vt 0.000277 0.748958
vt 0.250206 0.499582
vt 0.250206 0.749511
vt 0.500135 0.500135
vt 0.749511 0.250206
vt 0.748958 0.857493
vt 0.748958 0.856940
vt 0.000277 0.000277
vt 0.749511 0.249653
vt 0.250206 0.000277
vt 0.750347 0.750064
vn 1.000000 0.000000 0.000000
vn 0.000000 0.000000 1.000000
vn -1.000000 0.000000 0.000000
vn 0.000000 1.000000 0.000000
vn 0.000000 -1.000000 0.000000
vn 0.000000 0.000000 -1.000000
vn 0.001426 0.000000 -0.999999
vn 0.000001 0.000001 -1.000000
s off
f 1/1/1 2/2/1 6/3/1
f 2/4/2 3/5/2 7/6/2
f 3/7/3 4/8/3 8/9/3
f 4/10/4 3/11/4 2/12/4
f 5/13/5 6/14/5 7/15/5
f 12/16/4 11/17/4 10/18/4
f 14/19/5 15/20/5 16/21/5
f 9/22/3 10/23/3 14/24/3
f 10/25/6 11/26/6 15/27/6
f 12/28/1 16/29/1 15/30/1
f 4/31/7 9/32/7 13/33/7
f 5/34/1 1/1/1 6/3/1
f 6/35/2 2/4/2 7/6/2
f 7/36/3 3/7/3 8/9/3
f 1/37/4 4/10/4 2/12/4
f 8/38/5 5/13/5 7/15/5
f 9/39/4 12/16/4 10/18/4
f 13/40/5 14/19/5 16/21/5
f 13/41/3 9/22/3 14/24/3
f 14/42/8 10/25/8 15/27/8
f 11/43/1 12/28/1 15/30/1
f 8/44/7 4/31/7 13/33/7
