# Blender v2.70 (sub 0) OBJ File: 'SallePente.blend'
# www.blender.org
o SalleCarree4x4
v -3.000000 0.000001 -5.000000
v -2.996928 2.129131 4.579682
v 2.996928 2.129131 4.579683
v 2.996927 7.005349 4.579685
v -2.996929 7.005349 4.579683
v -3.000000 5.000001 -4.999999
v 3.000000 0.000001 -5.000000
v 3.000000 5.000001 -4.999999
v -3.000000 0.000002 -10.000000
v -3.000000 5.000001 -9.999999
v 3.000000 0.000002 -10.000000
v 3.000000 5.000001 -9.999999
v -2.996929 2.129130 9.523666
v 2.996927 2.129130 9.523668
v 2.996927 7.005349 9.523671
v -2.996930 7.005349 9.523669
vt 0.666467 0.333533
vt 0.333533 0.333533
vt 0.333533 0.666467
vt 0.333133 0.000200
vt 0.000200 0.000200
vt 0.000200 0.333134
vt 0.666467 0.000200
vt 0.333533 0.000200
vt 0.333533 0.333134
vt 0.666467 0.999800
vt 0.666467 0.666867
vt 0.333533 0.666867
vt 0.666467 0.333134
vt 0.666467 0.666467
vt 0.333134 0.333134
vt 0.333533 0.999800
vt 0.000200 0.333533
vt 0.000200 0.666467
vt 0.333134 0.333533
vt 0.333134 0.666467
vt 0.333134 0.666866
vt 0.000200 0.666867
vt 0.000200 0.999800
vt 0.333134 0.999800
vn 0.000000 0.976180 -0.216961
vn -0.000000 -0.978784 0.204892
vn -1.000000 -0.000000 -0.000321
vn -1.000000 -0.000000 -0.000000
vn 1.000000 0.000000 -0.000321
vn 0.000000 -0.978785 0.204892
vn 0.000000 -1.000000 -0.000000
vn 0.000000 1.000000 0.000000
vn 0.000000 -0.000000 1.000000
vn 1.000000 0.000000 0.000000
vn 0.000000 0.000001 -1.000000
vn 0.000001 0.000001 -1.000000
s off
f 1/1/1 2/2/1 3/3/1
f 4/4/2 5/5/2 6/6/2
f 7/7/3 3/8/3 4/9/3
f 3/8/4 14/8/4 15/9/4
f 1/10/5 6/11/5 5/12/5
f 7/7/4 8/13/4 12/13/4
f 7/14/1 1/1/1 3/3/1
f 8/15/6 4/4/6 6/6/6
f 8/13/3 7/7/3 4/9/3
f 5/5/7 4/4/7 15/4/7
f 2/16/5 1/10/5 5/12/5
f 7/14/8 11/14/8 9/1/8
f 10/17/9 9/18/9 12/19/9
f 12/19/9 9/18/9 11/20/9
f 6/6/7 10/6/7 12/15/7
f 1/10/10 9/10/10 10/11/10
f 14/21/11 13/22/11 16/23/11
f 15/24/12 14/21/12 16/23/12
f 2/2/8 13/2/8 14/3/8
f 2/16/10 5/12/10 16/12/10
f 4/9/4 3/8/4 15/9/4
f 11/7/4 7/7/4 12/13/4
f 16/5/7 5/5/7 15/4/7
f 1/1/8 7/14/8 9/1/8
f 8/15/7 6/6/7 12/15/7
f 6/11/10 1/10/10 10/11/10
f 3/3/8 2/2/8 14/3/8
f 13/16/10 2/16/10 16/12/10
