v 1.731455 -0.161542 -4.441682
v 1.731455 -0.161542 -0.441682
v -2.268546 -0.161542 -0.441683
v -2.268545 -0.161542 -4.441683
v 1.731456 3.838458 -4.441681
v 1.731453 3.838458 -0.441681
v -2.268546 3.838458 -0.441683
v -2.268545 3.838458 -4.441682
v 1.731454 1.385226 3.023651
v -2.268547 1.385226 3.023650
v 1.731452 5.385225 3.023652
v -2.268547 5.385225 3.023650
v 5.992182 -1.251563 -0.441682
v 5.992180 2.748437 -0.441681
v 5.992181 0.295205 3.023651
v 5.992179 4.295204 3.023652
v 1.731453 -0.284631 5.838896
v 1.731452 3.715369 5.838896
v 5.992180 -1.374652 5.838896
v 5.992179 2.625347 5.838897
v -8.245807 -2.181390 -0.441684
v -8.245807 1.818610 -0.441684
v -8.245808 -0.634622 3.023649
v -8.245808 3.365378 3.023648
v -2.268548 -0.217302 7.224531
v -2.268548 3.782698 7.224530
v -8.245809 -2.237149 7.224530
v -8.245809 1.762851 7.224529
v -12.298921 0.457157 3.023648
v -12.298921 4.457157 3.023647
v -12.298922 -1.145370 7.224529
v -12.298922 2.854630 7.224528
v 1.731456 -0.161541 -9.640747
v -2.268543 -0.161541 -9.640749
v 1.731457 3.838459 -9.640747
v -2.268544 3.838459 -9.640747
v 1.731457 -2.915234 -15.200380
v -2.268542 -2.915234 -15.200380
v 1.731458 1.084766 -15.200380
v -2.268543 1.084766 -15.200380
v 9.867735 -3.934139 -4.441680
v 9.867736 0.065861 -4.441679
v 9.867736 -5.525559 -9.640745
v 9.867737 -1.525559 -9.640745
v 13.198274 -3.934140 -4.441679
v 13.198275 0.065860 -4.441679
v 13.198275 -5.525560 -9.640745
v 13.198276 -1.525560 -9.640743
v 9.867733 -2.185702 0.329382
v 9.867734 1.814299 0.329383
v 13.198272 -2.185703 0.329383
v 13.198273 1.814298 0.329384
v 9.867730 -3.761320 5.332354
v 9.867731 0.238680 5.332355
v 13.198269 -3.761321 5.332355
v 13.198270 0.238679 5.332355
v 9.867728 -2.321840 8.577723
v 9.867729 1.678160 8.577723
v 13.198267 -2.321841 8.577723
v 13.198268 1.678159 8.577724
v 9.867730 -3.761320 5.332354
v 9.867731 0.238680 5.332355
v 9.867728 -2.321840 8.577723
v 9.867729 1.678160 8.577723
v 9.867726 -2.321841 11.986389
v 9.867727 1.678159 11.986391
v 13.198265 -2.321842 11.986391
v 13.198266 1.678158 11.986391
v 2.706746 -0.318497 8.577719
v 2.706747 3.681503 8.577719
v 2.706744 -0.318498 11.986385
v 2.706745 3.681502 11.986387
v -2.893009 -2.514452 8.577715
v -2.893008 1.485547 8.577717
v -2.893011 -2.514453 11.986383
v -2.893010 1.485547 11.986383
v -9.570816 -2.514451 8.577713
v -9.570814 1.485549 8.577713
v -9.570818 -2.514452 11.986380
v -9.570816 1.485548 11.986382
v -13.918434 -2.514449 8.577711
v -13.918432 1.485551 8.577711
v -13.918436 -2.514450 11.986378
v -13.918434 1.485550 11.986380
v -16.642563 -2.514447 8.577709
v -16.642561 1.485552 8.577711
v -16.642565 -2.514448 11.986378
v -16.642563 1.485552 11.986378
v -13.918427 -2.514445 -8.418663
v -13.918425 1.485555 -8.418663
v -16.642555 -2.514444 -8.418665
v -16.642553 1.485556 -8.418663
vt 0.937773 0.520907
vt 0.858533 0.520907
vt 0.858534 0.600147
vt 0.909833 0.212543
vt 0.830593 0.212543
vt 0.830594 0.291783
vt 0.831099 0.761927
vt 0.831099 0.841167
vt 0.910339 0.841167
vt 0.958732 0.102449
vt 0.879492 0.102449
vt 0.879492 0.177625
vt 0.142587 0.941214
vt 0.142587 0.861974
vt 0.063347 0.861974
vt 0.791031 0.520907
vt 0.711791 0.520907
vt 0.711792 0.623901
vt 0.256717 0.860506
vt 0.177477 0.860506
vt 0.177477 0.939746
vt 0.649799 0.299250
vt 0.575266 0.309060
vt 0.575266 0.434047
vt 0.754702 0.761927
vt 0.754702 0.849050
vt 0.829494 0.856645
vt 0.868627 0.858250
vt 0.868627 0.937490
vt 0.943804 0.937490
vt 0.823350 0.650440
vt 0.754702 0.681081
vt 0.754702 0.760321
vt 0.730502 0.878991
vt 0.722908 0.804200
vt 0.635785 0.804200
vt 0.730502 0.880597
vt 0.643379 0.880597
vt 0.635180 0.944919
vt 0.750869 0.188019
vt 0.674102 0.207658
vt 0.674102 0.294781
vt 0.501892 0.759366
vt 0.589015 0.759366
vt 0.608654 0.682598
vt 0.930066 0.423127
vt 0.865744 0.431326
vt 0.865744 0.518449
vt 0.177477 0.790748
vt 0.217901 0.858900
vt 0.282744 0.858900
vt 0.867022 0.914020
vt 0.833942 0.858250
vt 0.754702 0.858250
vt 0.498773 0.829620
vt 0.578013 0.829620
vt 0.608654 0.760972
vt 0.137870 0.560219
vt 0.012882 0.560219
vt 0.003073 0.634753
vt 0.135953 0.406562
vt 0.125790 0.318075
vt 0.000803 0.318075
vt 0.501047 0.449605
vt 0.501047 0.324618
vt 0.425977 0.299250
vt 0.000803 0.408168
vt 0.026170 0.483237
vt 0.151158 0.483237
vt 0.425977 0.162494
vt 0.425977 0.287481
vt 0.514465 0.297645
vt 0.796555 0.435653
vt 0.707486 0.435653
vt 0.699777 0.518449
vt 0.635785 0.650440
vt 0.664027 0.724476
vt 0.753096 0.724476
vt 0.727909 0.127965
vt 0.727909 0.038896
vt 0.653873 0.010653
vt 0.361991 0.819762
vt 0.444787 0.812054
vt 0.444787 0.722985
vt 0.739549 0.726081
vt 0.656395 0.726081
vt 0.635785 0.802594
vt 0.752475 0.291783
vt 0.828988 0.271173
vt 0.828988 0.188019
vt 0.501892 0.680993
vt 0.624797 0.680993
vt 0.624797 0.601753
vt 0.799776 0.299250
vt 0.720536 0.299250
vt 0.720536 0.402244
vt 0.163588 0.269104
vt 0.341251 0.269104
vt 0.356609 0.162494
vt 0.034876 0.792784
vt 0.137870 0.792784
vt 0.137870 0.713544
vt 0.258322 0.860506
vt 0.258322 0.939746
vt 0.337562 0.939746
vt 0.573660 0.299250
vt 0.502653 0.334420
vt 0.502653 0.457326
vt 0.339106 0.080043
vt 0.462012 0.080043
vt 0.497182 0.009035
vt 0.698171 0.514893
vt 0.698171 0.435653
vt 0.575266 0.435653
vt 0.034876 0.860368
vt 0.142587 0.860368
vt 0.142587 0.794390
vt 0.270198 0.270710
vt 0.163588 0.286068
vt 0.163588 0.463731
vt 0.424372 0.162494
vt 0.358215 0.206109
vt 0.358215 0.399164
vt 0.000803 0.316469
vt 0.161982 0.241734
vt 0.161982 0.162494
vt 0.312499 0.652248
vt 0.420210 0.652248
vt 0.443403 0.576478
vt 0.360385 0.722985
vt 0.294407 0.722985
vt 0.294407 0.830695
vt 0.971779 0.604278
vt 0.892539 0.604278
vt 0.892539 0.670256
vt 0.824956 0.751101
vt 0.890934 0.751101
vt 0.890934 0.650440
vt 0.798160 0.414541
vt 0.798160 0.518449
vt 0.864138 0.518449
vt 0.801382 0.299250
vt 0.801382 0.365228
vt 0.902043 0.365228
vt 0.291515 0.645609
vt 0.190854 0.645609
vt 0.163588 0.720010
vt 0.635785 0.648834
vt 0.710186 0.621569
vt 0.710186 0.520907
vt 0.977417 0.212543
vt 0.911439 0.212543
vt 0.911439 0.282874
vt 0.498773 0.831225
vt 0.498773 0.897203
vt 0.602681 0.897204
vt 0.010159 0.636358
vt 0.033962 0.711939
vt 0.137870 0.711939
vt 0.672496 0.294781
vt 0.672496 0.190874
vt 0.596916 0.167071
vt 0.911945 0.773641
vt 0.911945 0.841167
vt 0.977923 0.841167
vt 0.754702 0.915626
vt 0.754702 0.981604
vt 0.825033 0.981604
vt 0.856928 0.520907
vt 0.792637 0.549423
vt 0.792637 0.628663
vt 0.410728 0.000803
vt 0.339106 0.000803
vt 0.339106 0.002053
vt 0.361991 0.885659
vt 0.441231 0.885659
vt 0.469747 0.821368
vt 0.339117 0.160814
vt 0.410739 0.160814
vt 0.410739 0.159564
vt 0.277285 0.270710
vt 0.277285 0.351403
vt 0.278694 0.351403
vt 0.273212 0.351403
vt 0.273212 0.270710
vt 0.271804 0.270710
vt 0.969627 0.378490
vt 0.969627 0.299250
vt 0.903649 0.299250
vt 0.931672 0.452471
vt 0.931672 0.518449
vt 0.999197 0.518449
vt 0.892539 0.671861
vt 0.892539 0.751101
vt 0.960065 0.751101
vt 0.652268 0.157958
vt 0.652268 0.010653
vt 0.584742 0.010653
vt 0.797041 0.129809
vt 0.797041 0.010653
vt 0.729515 0.010653
vt 0.163588 0.576478
vt 0.163588 0.644004
vt 0.310894 0.644004
vt 0.507760 0.081648
vt 0.360455 0.081648
vt 0.339106 0.157958
vt 0.356609 0.270710
vt 0.280299 0.292058
vt 0.280299 0.439364
vt 0.718930 0.299250
vt 0.651405 0.299250
vt 0.651405 0.431538
vt 0.163588 0.721616
vt 0.163588 0.789142
vt 0.282744 0.789142
vt 0.003073 0.484843
vt 0.032002 0.558613
vt 0.151158 0.558613
vt 0.583136 0.157959
vt 0.583136 0.038803
vt 0.509366 0.009873
vt 0.953904 0.089893
vt 0.953904 0.003767
vt 0.886378 0.003767
vt 0.312499 0.653853
vt 0.312499 0.721379
vt 0.444787 0.721379
vt 0.634179 0.520907
vt 0.501892 0.520907
vt 0.501892 0.600147
vt 0.595310 0.162494
vt 0.516070 0.162494
vt 0.516070 0.294781
vt 0.569417 0.519301
vt 0.569417 0.465336
vt 0.501892 0.465336
vt 0.383620 0.887264
vt 0.383620 0.954790
vt 0.469747 0.954790
vt 0.798646 0.010653
vt 0.798646 0.089893
vt 0.884773 0.089893
vt 0.877886 0.091499
vt 0.798646 0.091499
vt 0.798646 0.177625
vt 0.578013 0.898809
vt 0.498773 0.898809
vt 0.498773 0.966335
vt 0.498973 0.644004
vt 0.498973 0.576478
vt 0.445008 0.576478
vt 0.061741 0.861974
vt 0.007776 0.861974
vt 0.007776 0.941214
vt 0.163588 0.519301
vt 0.500286 0.519301
vt 0.500286 0.465336
vt 0.674102 0.186413
vt 0.753342 0.186413
vt 0.753342 0.132448
vt 0.500286 0.574872
vt 0.500286 0.520907
vt 0.163588 0.520907
vt 0.337501 0.080043
vt 0.337501 0.000803
vt 0.000803 0.000803
vt 0.337501 0.160888
vt 0.337501 0.081648
vt 0.000803 0.081648
vt 0.937773 0.600147
vt 0.909833 0.291783
vt 0.910339 0.761927
vt 0.958732 0.177625
vt 0.063347 0.941214
vt 0.791031 0.623901
vt 0.256716 0.939746
vt 0.649799 0.424238
vt 0.829494 0.769521
vt 0.943804 0.858250
vt 0.823350 0.729680
vt 0.643379 0.878991
vt 0.722303 0.944919
vt 0.750869 0.275142
vt 0.521531 0.682598
vt 0.930066 0.510250
vt 0.242319 0.790747
vt 0.787782 0.914020
vt 0.529414 0.760972
vt 0.128060 0.634753
vt 0.010966 0.406562
vt 0.425977 0.424238
vt 0.125790 0.408168
vt 0.514465 0.172657
vt 0.788846 0.518449
vt 0.724854 0.650440
vt 0.653873 0.099722
vt 0.361991 0.730693
vt 0.718939 0.802594
vt 0.752475 0.208629
vt 0.501892 0.601753
vt 0.799776 0.402244
vt 0.163588 0.166110
vt 0.034876 0.713544
vt 0.337562 0.860506
vt 0.573660 0.422156
vt 0.374277 0.009035
vt 0.575266 0.514893
vt 0.034876 0.794390
vt 0.266582 0.463731
vt 0.424372 0.355549
vt 0.000803 0.237229
vt 0.335692 0.576478
vt 0.360385 0.830695
vt 0.971779 0.670256
vt 0.824956 0.650440
vt 0.864138 0.414541
vt 0.902043 0.299250
vt 0.264249 0.720010
vt 0.635785 0.548173
vt 0.977417 0.282874
vt 0.602681 0.831226
vt 0.114067 0.636358
vt 0.596916 0.270978
vt 0.977923 0.773641
vt 0.825033 0.915626
vt 0.856928 0.600147
vt 0.410728 0.002053
vt 0.390507 0.821368
vt 0.339106 0.159564
vt 0.278694 0.270710
vt 0.271804 0.351403
vt 0.903649 0.378490
vt 0.999197 0.452471
vt 0.960065 0.671861
vt 0.584742 0.157959
vt 0.729515 0.129809
vt 0.310894 0.576478
vt 0.486412 0.157958
vt 0.356609 0.418015
vt 0.718930 0.431538
vt 0.282744 0.721616
vt 0.122229 0.484843
vt 0.509366 0.129029
vt 0.886378 0.089893
vt 0.444787 0.653853
vt 0.634179 0.600147
vt 0.595310 0.294781
vt 0.501892 0.519301
vt 0.469747 0.887264
vt 0.884773 0.010653
vt 0.877886 0.177625
vt 0.578013 0.966335
vt 0.445008 0.644004
vt 0.061741 0.941214
vt 0.163588 0.465337
vt 0.674102 0.132448
vt 0.163588 0.574872
vt 0.000803 0.080043
vt 0.000803 0.160888
vn 0.000000 1.000000 -0.000000
vn 0.000000 -1.000000 0.000000
vn -1.000000 -0.000000 -0.000001
vn -0.000000 -0.913163 0.407595
vn 1.000000 0.000000 0.000000
vn 0.000000 -0.000000 -1.000000
vn -0.294859 0.872564 -0.389473
vn 0.227489 0.889221 -0.396908
vn 0.000000 0.913163 -0.407595
vn -1.000000 -0.000000 -0.000000
vn -0.227489 -0.889220 0.396908
vn -0.214894 -0.839988 -0.498237
vn -0.000000 -0.000000 1.000000
vn 0.214894 0.839988 0.498237
vn 0.294859 -0.872565 0.389473
vn 0.301079 -0.890972 -0.339883
vn -0.301079 0.890972 0.339883
vn 0.244066 0.906070 0.345642
vn -0.244066 -0.906070 -0.345642
vn 0.000000 -0.896105 0.443842
vn 0.405318 0.874141 -0.267572
vn 0.000000 0.896105 -0.443842
vn 0.000000 0.956207 -0.292692
vn -0.405318 -0.874141 0.267572
vn -0.000000 -0.956207 0.292692
vn -0.000001 -0.000000 1.000000
vn -0.000000 -0.938937 0.344089
vn -0.000000 -0.953816 -0.300392
vn 0.000000 0.938937 -0.344089
vn 1.000000 -0.000001 0.000000
vn -0.000000 -0.914115 0.405455
vn 0.000000 0.953816 0.300391
vn -1.000000 -0.000001 -0.000000
vn 0.000000 0.914115 -0.405455
vn 1.000000 0.000000 0.000001
vn 0.269414 0.963024 0.000000
vn -0.365084 0.930975 0.000000
vn -0.269414 -0.963024 -0.000000
vn 0.000001 0.000000 -1.000000
vn 0.365084 -0.930975 0.000000
vn 0.000001 1.000000 0.000000
vn 0.227489 0.889220 -0.396908
vn 0.294859 -0.872564 0.389473
vn 0.550418 0.834889 0.000000
vn -0.550418 -0.834889 -0.000000
vn -0.000000 -0.938937 0.344090
vn 0.000000 0.938937 -0.344090
vn -1.000000 0.000001 -0.000000
vn -1.000000 0.000001 -0.000001
vn 1.000000 -0.000001 0.000001
vn -0.000001 -1.000000 -0.000000
s off
f 4/1/1 3/2/1 2/3/1
f 6/4/2 7/5/2 8/6/2
f 2/7/3 6/8/3 5/9/3
f 11/10/4 12/11/4 7/12/4
f 4/13/5 8/14/5 7/15/5
f 36/16/2 35/17/2 5/18/2
f 9/19/6 10/20/6 12/21/6
f 21/22/7 23/23/7 10/24/7
f 9/25/8 15/26/8 13/27/8
f 10/28/9 9/29/9 2/30/9
f 13/31/10 15/32/10 16/33/10
f 14/34/11 16/35/11 11/36/11
f 20/37/12 18/38/12 11/39/12
f 13/40/13 14/41/13 6/42/13
f 18/43/6 20/44/6 19/45/6
f 9/46/14 17/47/14 19/48/14
f 19/49/10 20/50/10 16/51/10
f 11/52/5 18/53/5 17/54/5
f 24/55/5 23/56/5 21/57/5
f 12/58/15 24/59/15 22/60/15
f 12/61/16 26/62/16 28/63/16
f 7/64/13 22/65/13 21/66/13
f 27/67/6 28/68/6 26/69/6
f 27/70/17 25/71/17 10/72/17
f 29/73/18 31/74/18 27/75/18
f 25/76/10 26/77/10 12/78/10
f 30/79/5 32/80/5 31/81/5
f 28/82/19 32/83/19 30/84/19
f 27/85/6 31/86/6 32/87/6
f 30/88/13 29/89/13 23/90/13
f 36/91/20 40/92/20 39/93/20
f 34/94/5 36/95/5 8/96/5
f 1/97/21 41/98/21 43/99/21
f 1/100/1 33/101/1 34/102/1
f 40/103/13 38/104/13 37/105/13
f 38/106/5 40/107/5 36/108/5
f 35/109/10 39/110/10 37/111/10
f 37/112/22 38/113/22 34/114/22
f 45/115/23 47/116/23 43/117/23
f 44/118/24 42/119/24 5/120/24
f 43/121/13 44/122/13 35/123/13
f 5/124/6 42/125/6 41/126/6
f 46/127/10 48/128/10 47/129/10
f 44/130/25 48/131/25 46/132/25
f 47/133/26 48/134/26 44/135/26
f 52/136/27 50/137/27 42/138/27
f 52/139/28 56/140/28 54/141/28
f 49/142/29 51/143/29 45/144/29
f 45/145/10 51/146/10 52/147/10
f 50/148/30 49/149/30 41/150/30
f 60/151/31 58/152/31 54/153/31
f 53/154/32 55/155/32 51/156/32
f 55/157/33 56/158/33 52/159/33
f 50/160/30 54/161/30 53/162/30
f 60/163/2 68/164/2 66/165/2
f 57/166/34 59/167/34 55/168/34
f 55/169/3 59/170/3 60/171/3
f 61/172/13 63/173/13 57/174/13
f 64/175/35 63/176/35 61/177/35
f 64/178/13 62/179/13 54/180/13
f 63/181/13 64/182/13 58/183/13
f 62/184/13 61/185/13 53/186/13
f 68/187/6 67/188/6 65/189/6
f 65/190/1 67/191/1 59/192/1
f 67/193/3 68/194/3 60/195/3
f 57/196/36 69/197/36 71/198/36
f 69/199/37 73/200/37 75/201/37
f 72/202/38 70/203/38 58/204/38
f 65/205/39 71/206/39 72/207/39
f 70/208/13 69/209/13 57/210/13
f 77/211/1 79/212/1 75/213/1
f 76/214/40 74/215/40 70/216/40
f 75/217/39 76/218/39 72/219/39
f 70/220/13 74/221/13 73/222/13
f 77/223/1 81/224/1 83/225/1
f 80/226/2 78/227/2 74/228/2
f 75/229/39 79/230/39 80/231/39
f 78/232/13 77/233/13 73/234/13
f 81/235/41 85/236/41 87/237/41
f 84/238/2 82/239/2 78/240/2
f 83/241/6 84/242/6 80/243/6
f 82/244/13 81/245/13 77/246/13
f 88/247/35 87/248/35 85/249/35
f 88/250/2 86/251/2 82/252/2
f 83/253/6 87/254/6 88/255/6
f 86/256/2 92/257/2 90/258/2
f 92/259/26 91/260/26 89/261/26
f 89/262/1 91/263/1 85/264/1
f 91/265/30 92/266/30 86/267/30
f 90/268/10 89/269/10 81/270/10
f 1/271/1 4/1/1 2/3/1
f 5/272/2 6/4/2 8/6/2
f 1/273/10 2/7/10 5/9/10
f 6/274/4 11/10/4 7/12/4
f 3/275/5 4/13/5 7/15/5
f 8/276/2 36/16/2 5/18/2
f 11/277/6 9/19/6 12/21/6
f 3/278/7 21/22/7 10/24/7
f 2/279/42 9/25/42 13/27/42
f 3/280/9 10/28/9 2/30/9
f 14/281/33 13/31/33 16/33/33
f 6/282/11 14/34/11 11/36/11
f 16/283/12 20/37/12 11/39/12
f 2/284/13 13/40/13 6/42/13
f 17/285/6 18/43/6 19/45/6
f 15/286/14 9/46/14 19/48/14
f 15/287/10 19/49/10 16/51/10
f 9/288/5 11/52/5 17/54/5
f 22/289/5 24/55/5 21/57/5
f 7/290/43 12/58/43 22/60/43
f 24/291/16 12/61/16 28/63/16
f 3/292/13 7/64/13 21/66/13
f 25/293/6 27/67/6 26/69/6
f 23/294/17 27/70/17 10/72/17
f 23/295/18 29/73/18 27/75/18
f 10/296/10 25/76/10 12/78/10
f 29/297/5 30/79/5 31/81/5
f 24/298/19 28/82/19 30/84/19
f 28/299/6 27/85/6 32/87/6
f 24/300/13 30/88/13 23/90/13
f 35/301/20 36/91/20 39/93/20
f 4/302/5 34/94/5 8/96/5
f 33/303/44 1/97/44 43/99/44
f 4/304/1 1/100/1 34/102/1
f 39/305/13 40/103/13 37/105/13
f 34/306/5 38/106/5 36/108/5
f 33/307/10 35/109/10 37/111/10
f 33/308/22 37/112/22 34/114/22
f 41/309/23 45/115/23 43/117/23
f 35/310/45 44/118/45 5/120/45
f 33/311/13 43/121/13 35/123/13
f 1/312/6 5/124/6 41/126/6
f 45/313/33 46/127/33 47/129/33
f 42/314/25 44/130/25 46/132/25
f 43/315/13 47/133/13 44/135/13
f 46/316/46 52/136/46 42/138/46
f 50/317/28 52/139/28 54/141/28
f 41/318/47 49/142/47 45/144/47
f 46/319/10 45/145/10 52/147/10
f 42/320/5 50/148/5 41/150/5
f 56/321/31 60/151/31 54/153/31
f 49/322/32 53/154/32 51/156/32
f 51/323/48 55/157/48 52/159/48
f 49/324/5 50/160/5 53/162/5
f 58/325/2 60/163/2 66/165/2
f 53/326/34 57/166/34 55/168/34
f 56/327/3 55/169/3 60/171/3
f 53/328/13 61/172/13 57/174/13
f 62/329/35 64/175/35 61/177/35
f 58/330/13 64/178/13 54/180/13
f 57/331/13 63/181/13 58/183/13
f 54/332/13 62/184/13 53/186/13
f 66/333/6 68/187/6 65/189/6
f 57/334/1 65/190/1 59/192/1
f 59/335/49 67/193/49 60/195/49
f 65/336/36 57/196/36 71/198/36
f 71/337/37 69/199/37 75/201/37
f 66/338/38 72/202/38 58/204/38
f 66/339/39 65/205/39 72/207/39
f 58/340/26 70/208/26 57/210/26
f 73/341/1 77/211/1 75/213/1
f 72/342/40 76/214/40 70/216/40
f 71/343/6 75/217/6 72/219/6
f 69/344/26 70/220/26 73/222/26
f 79/345/1 77/223/1 83/225/1
f 76/346/2 80/226/2 74/228/2
f 76/347/6 75/229/6 80/231/6
f 74/348/26 78/232/26 73/234/26
f 83/349/41 81/235/41 87/237/41
f 80/350/2 84/238/2 78/240/2
f 79/351/6 83/241/6 80/243/6
f 78/352/13 82/244/13 77/246/13
f 86/353/50 88/247/50 85/249/50
f 84/354/51 88/250/51 82/252/51
f 84/355/39 83/253/39 88/255/39
f 82/356/2 86/256/2 90/258/2
f 90/357/13 92/259/13 89/261/13
f 81/358/41 89/262/41 85/264/41
f 85/359/5 91/265/5 86/267/5
f 82/360/10 90/268/10 81/270/10
