v 0.000000 0.226420 -0.056464
v 0.000000 0.238268 -0.063864
v 0.002694 0.226561 -0.056239
v 0.002694 0.238408 -0.063639
v 0.005284 0.226977 -0.055573
v 0.005284 0.238824 -0.062972
v 0.007672 0.227653 -0.054490
v 0.007672 0.239500 -0.061890
v 0.009764 0.228563 -0.053034
v 0.009764 0.240410 -0.060434
v 0.011482 0.229671 -0.051259
v 0.011482 0.241519 -0.058659
v 0.012758 0.230936 -0.049234
v 0.012758 0.242783 -0.056634
v 0.013543 0.232308 -0.047037
v 0.013543 0.244156 -0.054437
v 0.013809 0.233735 -0.044752
v 0.013809 0.245583 -0.052152
v 0.013543 0.235162 -0.042467
v 0.013543 0.247010 -0.049867
v 0.012758 0.236534 -0.040270
v 0.012758 0.248382 -0.047670
v 0.011482 0.237799 -0.038245
v 0.011482 0.249647 -0.045645
v 0.009764 0.238908 -0.036470
v 0.009764 0.250755 -0.043870
v 0.007672 0.239817 -0.035014
v 0.007672 0.251665 -0.042414
v 0.005284 0.240493 -0.033931
v 0.005284 0.252341 -0.041331
v 0.002694 0.240910 -0.033265
v 0.002694 0.252757 -0.040665
v 0.000000 0.241050 -0.033040
v 0.000000 0.252898 -0.040440
v -0.002694 0.240910 -0.033265
v -0.002694 0.252757 -0.040665
v -0.005284 0.240493 -0.033931
v -0.005284 0.252341 -0.041331
v -0.007672 0.239817 -0.035014
v -0.007672 0.251665 -0.042414
v -0.009764 0.238908 -0.036470
v -0.009764 0.250755 -0.043870
v -0.011482 0.237799 -0.038245
v -0.011482 0.249647 -0.045645
v -0.012758 0.236534 -0.040270
v -0.012758 0.248382 -0.047670
v -0.013543 0.235162 -0.042467
v -0.013543 0.247010 -0.049867
v -0.013809 0.233735 -0.044752
v -0.013809 0.245583 -0.052152
v -0.013543 0.232308 -0.047037
v -0.013543 0.244156 -0.054437
v -0.012758 0.230936 -0.049234
v -0.012758 0.242783 -0.056634
v -0.011482 0.229671 -0.051259
v -0.011482 0.241519 -0.058659
v -0.009764 0.228563 -0.053034
v -0.009764 0.240410 -0.060434
v -0.007672 0.227653 -0.054490
v -0.007672 0.239500 -0.061890
v -0.005284 0.226977 -0.055573
v -0.005284 0.238824 -0.062972
v -0.002694 0.226561 -0.056239
v -0.002694 0.238408 -0.063639
v 0.064542 0.007484 -0.076872
v 0.064542 0.007484 0.052213
v -0.064542 0.007484 0.052213
v -0.064542 0.007484 -0.076872
v 0.064542 0.223247 -0.076872
v 0.064542 0.223247 0.052213
v -0.064542 0.223247 0.052213
v -0.064542 0.223247 -0.076872
v 0.064542 0.248530 -0.028465
v 0.064542 0.265655 -0.012330
v 0.064542 0.248530 0.003806
v -0.064542 0.248530 0.003806
v -0.064542 0.265655 -0.012330
v -0.064542 0.248530 -0.028465
v 0.064542 0.005974 -0.076872
v -0.064542 0.005974 -0.076872
v 0.064542 0.223247 -0.076872
v -0.064542 0.223247 -0.076872
v 0.064542 0.248530 -0.028465
v 0.064542 0.265655 -0.012330
v -0.064542 0.265655 -0.012330
v -0.064542 0.248530 -0.028465
vt 0.851295 0.804287
vt 0.846668 0.874655
vt 0.841763 0.874675
vt 0.830076 0.804285
vt 0.836964 0.875370
vt 0.808908 0.807085
vt 0.832430 0.876718
vt 0.788024 0.812695
vt 0.828317 0.878678
vt 0.767663 0.821117
vt 0.824783 0.881185
vt 0.748063 0.832350
vt 0.821984 0.884154
vt 0.729466 0.846389
vt 0.820042 0.887463
vt 0.712118 0.863226
vt 0.819152 0.890997
vt 0.696269 0.882850
vt 0.819461 0.894595
vt 0.709389 0.904390
vt 0.820882 0.898102
vt 0.724365 0.923363
vt 0.823316 0.901411
vt 0.740951 0.939729
vt 0.826531 0.904363
vt 0.758902 0.953445
vt 0.830368 0.906846
vt 0.777979 0.964476
vt 0.834702 0.908785
vt 0.797946 0.972786
vt 0.839384 0.910114
vt 0.818566 0.978349
vt 0.844256 0.910761
vt 0.839605 0.981138
vt 0.849184 0.910728
vt 0.860827 0.981138
vt 0.854005 0.910025
vt 0.881999 0.978336
vt 0.858568 0.908669
vt 0.902884 0.972724
vt 0.862705 0.906713
vt 0.923245 0.964300
vt 0.866269 0.904215
vt 0.942842 0.953065
vt 0.869029 0.901296
vt 0.961433 0.939027
vt 0.870858 0.898019
vt 0.978774 0.922191
vt 0.871652 0.894487
vt 0.994614 0.902568
vt 0.871265 0.890856
vt 0.981488 0.881029
vt 0.869822 0.887308
vt 0.966509 0.862057
vt 0.867450 0.883995
vt 0.949924 0.845694
vt 0.864288 0.881045
vt 0.931976 0.831979
vt 0.860481 0.878563
vt 0.912903 0.820950
vt 0.856175 0.876631
vt 0.892942 0.812640
vt 0.924551 0.786537
vt 0.911838 0.787599
vt 0.899126 0.786537
vt 0.886901 0.783392
vt 0.936775 0.783392
vt 0.875636 0.778284
vt 0.948040 0.778284
vt 0.865761 0.771411
vt 0.957915 0.771411
vt 0.857657 0.763036
vt 0.966019 0.763036
vt 0.851636 0.753481
vt 0.972040 0.753481
vt 0.847928 0.743113
vt 0.975749 0.743113
vt 0.846676 0.732331
vt 0.977001 0.732331
vt 0.847927 0.721548
vt 0.975749 0.721548
vt 0.851636 0.711180
vt 0.972040 0.711180
vt 0.857657 0.701625
vt 0.966019 0.701625
vt 0.865761 0.693250
vt 0.957915 0.693250
vt 0.875636 0.686377
vt 0.948040 0.686377
vt 0.886901 0.681269
vt 0.936775 0.681269
vt 0.899125 0.678124
vt 0.924551 0.678124
vt 0.911838 0.677062
vt 0.872328 0.807078
vt 0.851521 0.875315
vt 0.003959 0.991588
vt 0.003959 0.679830
vt 0.315717 0.679830
vt 0.315717 0.991588
vt 0.597522 0.462472
vt 0.356608 0.462472
vt 0.356608 0.494433
vt 0.597522 0.494433
vt 0.210106 0.615234
vt 0.169576 0.658250
vt 0.129046 0.615234
vt 0.331697 0.005964
vt 0.331697 0.551726
vt 0.007455 0.551726
vt 0.007455 0.005964
vt 0.605141 0.500111
vt 0.605141 0.915103
vt 0.358590 0.915103
vt 0.358590 0.500111
vt 0.854882 0.689862
vt 0.809624 0.737895
vt 0.764366 0.689862
vt 0.628591 0.618944
vt 0.628591 0.009519
vt 0.990657 0.618944
vt 0.990657 0.009519
vt 0.358264 0.412355
vt 0.359397 0.009782
vt 0.595983 0.011032
vt 0.598796 0.422120
vt 0.356608 0.415284
vt 0.597522 0.415285
vt 0.605141 0.963394
vt 0.358590 0.963394
vt 0.605141 0.996103
vt 0.358590 0.996103
vn 0.098022 -0.527192 -0.844073
vn 0.290273 -0.506938 -0.811637
vn 0.471383 -0.467199 -0.748013
vn 0.634393 -0.409500 -0.655633
vn 0.773025 -0.336056 -0.538050
vn 0.881919 -0.249722 -0.399823
vn 0.956939 -0.153778 -0.246210
vn 0.995185 -0.051922 -0.083132
vn 0.995185 0.051925 0.083135
vn 0.956941 0.153775 0.246206
vn 0.881924 0.249715 0.399815
vn 0.773000 0.336070 0.538078
vn 0.634405 0.409489 0.655629
vn 0.471383 0.467193 0.748017
vn 0.290329 0.506926 0.811625
vn 0.097962 0.527199 0.844076
vn -0.097962 0.527199 0.844076
vn -0.290329 0.506926 0.811625
vn -0.471383 0.467193 0.748017
vn -0.634405 0.409489 0.655629
vn -0.773001 0.336070 0.538077
vn -0.881924 0.249715 0.399815
vn -0.956941 0.153776 0.246207
vn -0.995185 0.051924 0.083134
vn -0.995185 -0.051923 -0.083134
vn -0.956939 -0.153779 -0.246212
vn -0.881919 -0.249722 -0.399823
vn -0.773024 -0.336057 -0.538052
vn -0.634393 -0.409500 -0.655633
vn -0.471382 -0.467199 -0.748013
vn 0.000000 0.848402 -0.529353
vn 0.000000 0.848139 -0.529774
vn 0.000000 0.848182 -0.529705
vn 0.000000 0.848131 -0.529787
vn 0.000000 0.848142 -0.529769
vn 0.000000 0.848176 -0.529714
vn 0.000000 0.848144 -0.529765
vn 0.000000 0.848151 -0.529754
vn 0.000000 0.848185 -0.529701
vn 0.000000 0.848151 -0.529755
vn 0.000000 0.848131 -0.529786
vn 0.000000 0.848132 -0.529786
vn 0.000000 0.848177 -0.529712
vn 0.000000 0.848178 -0.529712
vn 0.000000 0.848141 -0.529771
vn 0.000000 0.848182 -0.529706
vn 0.000000 0.848181 -0.529706
vn 0.000000 0.848276 -0.529554
vn -0.098023 -0.527192 -0.844073
vn -0.290273 -0.506938 -0.811637
vn 0.000000 -1.000000 0.000002
vn 0.000000 0.685771 -0.727817
vn 1.000000 0.000001 0.000001
vn 1.000000 -0.000000 0.000001
vn 1.000000 0.000000 -0.000000
vn -0.000000 -0.000000 1.000000
vn -1.000000 0.000000 0.000000
vn 0.000000 0.000000 -1.000000
vn 0.000000 0.886374 -0.462969
vn -0.000000 0.886377 0.462965
vn -0.000000 0.685765 0.727823
s off
f 1/1/1 2/2/1 4/3/1
f 1/1/1 4/3/1 3/4/1
f 3/4/2 4/3/2 6/5/2
f 3/4/2 6/5/2 5/6/2
f 5/6/3 6/5/3 8/7/3
f 5/6/3 8/7/3 7/8/3
f 7/8/4 8/7/4 10/9/4
f 7/8/4 10/9/4 9/10/4
f 9/10/5 10/9/5 12/11/5
f 9/10/5 12/11/5 11/12/5
f 11/12/6 12/11/6 14/13/6
f 11/12/6 14/13/6 13/14/6
f 13/14/7 14/13/7 16/15/7
f 13/14/7 16/15/7 15/16/7
f 15/16/8 16/15/8 18/17/8
f 15/16/8 18/17/8 17/18/8
f 17/18/9 18/17/9 20/19/9
f 17/18/9 20/19/9 19/20/9
f 19/20/10 20/19/10 22/21/10
f 19/20/10 22/21/10 21/22/10
f 21/22/11 22/21/11 24/23/11
f 21/22/11 24/23/11 23/24/11
f 23/24/12 24/23/12 26/25/12
f 23/24/12 26/25/12 25/26/12
f 25/26/13 26/25/13 28/27/13
f 25/26/13 28/27/13 27/28/13
f 27/28/14 28/27/14 30/29/14
f 27/28/14 30/29/14 29/30/14
f 29/30/15 30/29/15 32/31/15
f 29/30/15 32/31/15 31/32/15
f 31/32/16 32/31/16 34/33/16
f 31/32/16 34/33/16 33/34/16
f 33/34/17 34/33/17 36/35/17
f 33/34/17 36/35/17 35/36/17
f 35/36/18 36/35/18 38/37/18
f 35/36/18 38/37/18 37/38/18
f 37/38/19 38/37/19 40/39/19
f 37/38/19 40/39/19 39/40/19
f 39/40/20 40/39/20 42/41/20
f 39/40/20 42/41/20 41/42/20
f 41/42/21 42/41/21 44/43/21
f 41/42/21 44/43/21 43/44/21
f 43/44/22 44/43/22 46/45/22
f 43/44/22 46/45/22 45/46/22
f 45/46/23 46/45/23 48/47/23
f 45/46/23 48/47/23 47/48/23
f 47/48/24 48/47/24 50/49/24
f 47/48/24 50/49/24 49/50/24
f 49/50/25 50/49/25 52/51/25
f 49/50/25 52/51/25 51/52/25
f 51/52/26 52/51/26 54/53/26
f 51/52/26 54/53/26 53/54/26
f 53/54/27 54/53/27 56/55/27
f 53/54/27 56/55/27 55/56/27
f 55/56/28 56/55/28 58/57/28
f 55/56/28 58/57/28 57/58/28
f 57/58/29 58/57/29 60/59/29
f 57/58/29 60/59/29 59/60/29
f 59/60/30 60/59/30 62/61/30
f 59/60/30 62/61/30 61/62/30
f 4/63/31 2/64/31 64/65/31
f 4/63/32 64/65/32 62/66/32
f 4/63/32 62/66/32 6/67/32
f 62/66/33 60/68/33 6/67/33
f 60/68/33 8/69/33 6/67/33
f 60/68/34 58/70/34 8/69/34
f 58/70/34 10/71/34 8/69/34
f 58/70/35 56/72/35 10/71/35
f 56/72/35 12/73/35 10/71/35
f 56/72/36 54/74/36 12/73/36
f 54/74/36 14/75/36 12/73/36
f 54/74/37 52/76/37 14/75/37
f 52/76/37 16/77/37 14/75/37
f 52/76/38 50/78/38 16/77/38
f 50/78/38 18/79/38 16/77/38
f 50/78/39 48/80/39 18/79/39
f 48/80/39 20/81/39 18/79/39
f 48/80/40 46/82/40 20/81/40
f 46/82/40 22/83/40 20/81/40
f 46/82/41 44/84/41 22/83/41
f 44/84/42 24/85/42 22/83/42
f 44/84/43 42/86/43 24/85/43
f 42/86/44 26/87/44 24/85/44
f 42/86/45 40/88/45 26/87/45
f 40/88/45 28/89/45 26/87/45
f 40/88/33 38/90/33 28/89/33
f 38/90/33 30/91/33 28/89/33
f 38/90/46 36/92/46 30/91/46
f 36/92/47 32/93/47 30/91/47
f 36/92/48 34/94/48 32/93/48
f 2/2/49 1/1/49 63/95/49
f 2/2/49 63/95/49 64/96/49
f 61/62/50 62/61/50 64/96/50
f 61/62/50 64/96/50 63/95/50
f 65/97/51 66/98/51 67/99/51
f 65/97/51 67/99/51 68/100/51
f 83/101/52 86/102/52 85/103/52
f 83/101/52 85/103/52 84/104/52
f 73/105/53 74/106/53 75/107/53
f 65/108/54 69/109/54 73/105/54
f 65/108/54 73/105/54 75/107/54
f 65/108/54 75/107/54 70/110/54
f 65/108/55 70/110/55 66/111/55
f 66/112/56 70/113/56 71/114/56
f 66/112/56 71/114/56 67/115/56
f 76/116/57 77/117/57 78/118/57
f 78/118/57 72/119/57 68/120/57
f 76/116/57 78/118/57 68/120/57
f 71/121/57 76/116/57 68/120/57
f 67/122/57 71/121/57 68/120/57
f 81/123/58 79/124/58 80/125/58
f 81/123/58 80/125/58 82/126/58
f 82/127/59 86/102/59 83/101/59
f 82/127/59 83/101/59 81/128/59
f 71/114/60 70/113/60 75/129/60
f 71/114/60 75/129/60 76/130/60
f 74/131/61 77/132/61 76/130/61
f 74/131/61 76/130/61 75/129/61
