v 0.110058 1.475623 -1.226404
v 0.110058 1.471733 -1.228714
v 0.110058 1.468324 -1.231823
v 0.110058 1.465526 -1.235612
v 0.110058 1.463446 -1.239934
v 0.110058 1.462166 -1.244624
v 0.110058 1.461734 -1.249501
v 0.112754 1.476867 -1.218716
v 0.112754 1.484233 -1.218112
v 0.112754 1.484233 -1.280889
v 0.112754 1.476867 -1.280286
v 0.112754 1.469784 -1.278500
v 0.112754 1.463256 -1.275599
v 0.112754 1.457535 -1.271696
v -0.059511 0.000003 -1.465687
v 0.059511 0.000003 -1.465687
v 0.059511 0.000003 -0.000000
v -0.059511 0.000003 -0.000001
v -0.059511 2.638238 -1.465688
v -0.059503 2.638238 -0.000001
v 0.059511 2.638238 -1.465686
v 0.059511 2.638238 -0.000000
v 0.059511 1.461734 -1.249501
v 0.059511 1.462166 -1.244624
v 0.059511 1.463446 -1.239934
v 0.059511 1.465526 -1.235612
v 0.059511 1.468324 -1.231823
v 0.059511 1.471733 -1.228714
v 0.059511 1.475623 -1.226404
v 0.059511 1.479844 -1.224981
v 0.059511 1.484233 -1.224501
v 0.059511 1.484233 -1.274501
v 0.059511 1.479844 -1.274021
v 0.059511 1.475623 -1.272598
v 0.059511 1.471733 -1.270288
v 0.059511 1.468324 -1.267179
v 0.059511 1.465526 -1.263390
v 0.059511 1.463446 -1.259068
v 0.059511 1.462166 -1.254378
v 0.059511 1.488623 -1.224981
v 0.059511 1.496734 -1.228714
v 0.059511 1.500143 -1.231823
v 0.059511 1.502941 -1.235612
v 0.059511 1.505021 -1.239934
v 0.059511 1.506301 -1.244624
v 0.059511 1.506734 -1.249501
v 0.059511 1.506301 -1.254378
v 0.059511 1.505021 -1.259068
v 0.059511 1.502941 -1.263390
v 0.059511 1.500143 -1.267179
v 0.059511 1.496734 -1.270288
v 0.059511 1.492844 -1.272598
v 0.059511 1.488623 -1.274021
v 0.112754 1.452839 -1.266939
v 0.112754 1.449350 -1.261513
v 0.112754 1.447201 -1.255624
v 0.112754 1.521266 -1.255625
v 0.112754 1.519117 -1.261513
v 0.112754 1.515628 -1.266939
v 0.112754 1.510932 -1.271696
v 0.112754 1.505211 -1.275599
v 0.112754 1.498683 -1.278500
v 0.112754 1.491600 -1.280286
v 0.113057 1.492437 -1.218212
v 0.113057 1.505221 -1.225520
v 0.113057 1.510946 -1.229107
v 0.113057 1.515644 -1.233478
v 0.113057 1.519135 -1.238464
v 0.113057 1.521284 -1.243874
v 0.113057 1.522010 -1.249501
v 0.112754 1.446476 -1.249501
v 0.112754 1.447201 -1.243377
v 0.112754 1.449350 -1.237489
v 0.112754 1.452839 -1.232062
v 0.112754 1.457535 -1.227306
v 0.112754 1.463256 -1.223403
v 0.112754 1.469784 -1.220502
v 0.110058 1.488623 -1.274021
v 0.110058 1.492844 -1.272598
v 0.110058 1.496734 -1.270288
v 0.110058 1.500143 -1.267179
v 0.110058 1.502941 -1.263390
v 0.110058 1.505021 -1.259068
v 0.110058 1.506301 -1.254378
v 0.110058 1.506734 -1.249501
v 0.110058 1.506301 -1.244624
v 0.110058 1.505021 -1.239934
v 0.110058 1.502941 -1.235612
v 0.110058 1.500143 -1.231823
v 0.110058 1.496734 -1.228714
v 0.110058 1.492844 -1.226404
v 0.110058 1.488623 -1.224981
v 0.110058 1.462166 -1.254378
v 0.110058 1.463446 -1.259068
v 0.110058 1.465526 -1.263390
v 0.148302 1.492437 -1.218212
v 0.148302 1.522010 -1.249501
v 0.110058 1.468324 -1.267179
v 0.110058 1.471733 -1.270288
v 0.110058 1.475623 -1.272598
v 0.110058 1.479844 -1.274021
v 0.110058 1.484233 -1.274501
v 0.110058 1.484233 -1.224501
v 0.110058 1.479844 -1.224981
v 0.113057 1.519916 -1.137296
v 0.148302 1.519916 -1.137296
v 0.113057 1.514531 -1.080818
v 0.148302 1.514531 -1.080818
v 0.113057 1.515428 -1.047137
v 0.148302 1.515428 -1.047137
v 0.113057 1.502105 -1.206096
v 0.148302 1.502105 -1.206096
v 0.113057 1.493905 -1.101472
v 0.148302 1.493905 -1.101472
v 0.113057 1.504034 -1.066511
v 0.148302 1.504034 -1.066511
v 0.113057 1.494128 -1.136347
v 0.113057 1.503252 -1.184558
v 0.148302 1.503252 -1.184558
v 0.148302 1.494128 -1.136347
v 0.148338 1.476867 -1.218716
v 0.148338 1.484233 -1.218112
v 0.148338 1.484233 -1.280889
v 0.148338 1.476867 -1.280286
v 0.148338 1.469784 -1.278500
v 0.148338 1.463256 -1.275599
v 0.148338 1.457535 -1.271696
v 0.148338 1.452839 -1.266939
v 0.148338 1.449350 -1.261513
v 0.148338 1.447201 -1.255624
v 0.148338 1.521266 -1.255625
v 0.148338 1.519117 -1.261513
v 0.148338 1.515628 -1.266939
v 0.148338 1.510932 -1.271696
v 0.148338 1.505211 -1.275599
v 0.148338 1.498683 -1.278500
v 0.148338 1.491600 -1.280286
v 0.148338 1.446476 -1.249501
v 0.148338 1.447201 -1.243377
v 0.148338 1.449350 -1.237489
v 0.148338 1.452839 -1.232062
v 0.148338 1.457535 -1.227306
v 0.148338 1.463256 -1.223403
v 0.148338 1.469784 -1.220502
vt 0.441025 0.999792
vt 0.000208 0.999792
vt 0.000208 0.961030
vt 0.881840 0.441024
vt 0.881840 0.000208
vt 0.000208 0.000208
vt 0.881831 0.921434
vt 0.000208 0.921435
vt 0.000208 0.882670
vt 0.000208 0.921851
vt 0.881831 0.921850
vt 0.881831 0.960614
vt 0.441440 0.999792
vt 0.441440 0.961029
vt 0.882255 0.961029
vt 0.912833 0.471892
vt 0.919281 0.471892
vt 0.916057 0.508394
vt 0.993905 0.349701
vt 0.935366 0.349701
vt 0.935366 0.329794
vt 0.905742 0.349701
vt 0.905742 0.329794
vt 0.888166 0.349701
vt 0.888166 0.329794
vt 0.996723 0.453030
vt 0.987089 0.453030
vt 0.987089 0.430322
vt 0.944940 0.453030
vt 0.924190 0.453030
vt 0.924190 0.430322
vt 0.902337 0.453030
vt 0.902337 0.430322
vt 0.888567 0.453030
vt 0.974252 0.453030
vt 0.974252 0.430322
vt 0.944940 0.430322
vt 0.892011 0.168802
vt 0.927376 0.215707
vt 0.897278 0.241092
vt 0.925761 0.471892
vt 0.925761 0.508076
vt 0.922521 0.508076
vt 0.909593 0.471892
vt 0.909593 0.508076
vt 0.906353 0.508076
vt 0.961399 0.471892
vt 0.961399 0.508076
vt 0.958160 0.508076
vt 0.954919 0.471892
vt 0.958159 0.471892
vt 0.941960 0.471892
vt 0.941960 0.508076
vt 0.938720 0.508076
vt 0.922521 0.471892
vt 0.919281 0.508076
vt 0.977598 0.471891
vt 0.977598 0.508076
vt 0.974359 0.508076
vt 0.906353 0.471892
vt 0.903114 0.508076
vt 0.951680 0.471892
vt 0.951680 0.508076
vt 0.948440 0.508076
vt 0.967879 0.471892
vt 0.967879 0.508076
vt 0.964639 0.508076
vt 0.984078 0.471891
vt 0.984078 0.508076
vt 0.980838 0.508076
vt 0.899873 0.471892
vt 0.899874 0.508076
vt 0.896634 0.508076
vt 0.912833 0.508076
vt 0.896634 0.471892
vt 0.893394 0.508076
vt 0.945200 0.471892
vt 0.945200 0.508076
vt 0.893394 0.471892
vt 0.890154 0.508076
vt 0.993797 0.471891
vt 0.993797 0.508076
vt 0.990558 0.508076
vt 0.938720 0.471892
vt 0.935481 0.508076
vt 0.990558 0.471891
vt 0.987318 0.508076
vt 0.903113 0.471892
vt 0.954920 0.508076
vt 0.935480 0.471892
vt 0.932241 0.508076
vt 0.974358 0.471891
vt 0.971119 0.508076
vt 0.987318 0.471891
vt 0.932240 0.471892
vt 0.929001 0.508076
vt 0.971119 0.471892
vt 0.948440 0.471892
vt 0.929001 0.471892
vt 0.964639 0.471892
vt 0.980838 0.471891
vt 0.985200 0.256325
vt 0.993219 0.245839
vt 0.995661 0.254715
vt 0.968257 0.241406
vt 0.972550 0.221923
vt 0.979040 0.225659
vt 0.985462 0.284270
vt 0.987448 0.278847
vt 0.995251 0.283394
vt 0.962647 0.240034
vt 0.956877 0.239766
vt 0.958260 0.219863
vt 0.978687 0.293564
vt 0.982513 0.289237
vt 0.988726 0.300885
vt 0.951163 0.240612
vt 0.945718 0.242539
vt 0.943960 0.225153
vt 0.968942 0.299668
vt 0.974109 0.297086
vt 0.977992 0.314123
vt 0.930235 0.258999
vt 0.928561 0.264527
vt 0.920456 0.262843
vt 0.940741 0.245471
vt 0.936411 0.249294
vt 0.931679 0.236970
vt 0.994854 0.403249
vt 0.989429 0.403445
vt 0.989429 0.380515
vt 0.988384 0.267378
vt 0.996821 0.264157
vt 0.996680 0.273828
vt 0.988429 0.273154
vt 0.973500 0.243831
vt 0.984774 0.231035
vt 0.982126 0.251435
vt 0.989553 0.237847
vt 0.965539 0.219966
vt 0.992576 0.292522
vt 0.950979 0.221615
vt 0.983812 0.308177
vt 0.937452 0.230339
vt 0.963376 0.301211
vt 0.971461 0.318498
vt 0.932874 0.253860
vt 0.926829 0.244796
vt 0.923051 0.253525
vt 0.918215 0.273358
vt 0.922506 0.291690
vt 0.929663 0.281633
vt 0.987304 0.261704
vt 0.978179 0.247217
vt 0.920628 0.403446
vt 0.920628 0.380516
vt 0.915744 0.380516
vt 0.947572 0.403446
vt 0.947572 0.380515
vt 0.943603 0.380516
vt 0.934963 0.403446
vt 0.939402 0.403446
vt 0.939402 0.380516
vt 0.955029 0.403445
vt 0.955028 0.380515
vt 0.951353 0.380515
vt 0.915745 0.403446
vt 0.910942 0.380516
vt 0.962485 0.403445
vt 0.962485 0.380515
vt 0.958704 0.380515
vt 0.906293 0.403446
vt 0.906293 0.380516
vt 0.901854 0.380516
vt 0.970655 0.403445
vt 0.970655 0.380515
vt 0.966453 0.380515
vt 0.897653 0.403446
vt 0.897652 0.380516
vt 0.893684 0.380516
vt 0.984545 0.380515
vt 0.979743 0.403445
vt 0.979743 0.380515
vt 0.975094 0.380515
vt 0.927895 0.270265
vt 0.930314 0.403446
vt 0.930314 0.380516
vt 0.925511 0.380516
vt 0.943604 0.403446
vt 0.934963 0.380516
vt 0.951353 0.403445
vt 0.958704 0.403445
vt 0.910942 0.403446
vt 0.966454 0.403445
vt 0.901854 0.403446
vt 0.975094 0.403445
vt 0.893684 0.403446
vt 0.889903 0.380516
vt 0.925512 0.403446
vt 0.984546 0.403445
vt 0.924716 0.300008
vt 0.935352 0.291632
vt 0.928080 0.307292
vt 0.939503 0.295649
vt 0.932512 0.313274
vt 0.944348 0.298793
vt 0.937875 0.317727
vt 0.949709 0.300945
vt 0.943978 0.320490
vt 0.955382 0.302029
vt 0.889903 0.403446
vt 0.886226 0.403251
vt 0.951196 0.321536
vt 0.000208 0.441439
vt 0.881840 0.441439
vt 0.881840 0.882255
vt 0.983239 0.029961
vt 0.956705 0.059369
vt 0.971057 0.011454
vt 0.441025 0.961029
vt 0.000208 0.441024
vt 0.881831 0.882671
vt 0.000208 0.960614
vt 0.882256 0.999792
vt 0.993905 0.329794
vt 0.996723 0.430322
vt 0.888567 0.430322
vt 0.892170 0.025579
vt 0.894535 0.032797
vt 0.916532 0.056954
vt 0.934344 0.066871
vt 0.946794 0.083363
vt 0.897355 0.039797
vt 0.908569 0.052112
vt 0.946255 0.110893
vt 0.902093 0.046319
vt 0.928520 0.171213
vt 0.911555 0.259830
vt 0.894596 0.284012
vt 0.890154 0.471892
vt 0.994853 0.380538
vt 0.964452 0.321133
vt 0.928267 0.276029
vt 0.932049 0.286894
vt 0.886226 0.380540
vt 0.000208 0.882255
vt 0.979647 0.019717
vt 0.982114 0.024685
vt 0.975913 0.015249
vt 0.965265 0.008476
vt 0.948776 0.060058
vt 0.958759 0.006431
vt 0.941612 0.060074
vt 0.944626 0.005413
vt 0.934643 0.059040
vt 0.924687 0.011558
vt 0.930809 0.008554
vt 0.922346 0.054017
vt 0.915184 0.019862
vt 0.919411 0.015377
vt 0.913755 0.045754
vt 0.910478 0.030126
vt 0.912167 0.024842
vt 0.911288 0.040786
vt 0.910182 0.035509
vt 0.928137 0.056995
vt 0.988631 0.127786
vt 0.963751 0.130507
vt 0.969389 0.087870
vt 0.965841 0.160881
vt 0.987156 0.177345
vt 0.977950 0.190570
vt 0.917489 0.050221
vt 0.966856 0.069206
vt 0.990251 0.206598
vt 0.937542 0.006478
vt 0.951790 0.005397
vn -0.000000 -1.000000 -0.000000
vn -1.000000 0.000000 0.000000
vn 0.000000 -0.000000 -1.000000
vn -0.000000 -0.000000 1.000000
vn -0.000000 1.000000 0.000000
vn 0.009300 -0.418100 -0.908400
vn 0.000000 0.999800 0.018700
vn 0.000000 0.995500 0.094900
vn 0.000000 0.999600 -0.026600
vn 0.000000 -0.781700 0.623700
vn 0.000000 -1.000000 -0.006400
vn 0.000000 -0.960500 0.278300
vn 0.000000 -0.862000 0.507000
vn 0.000000 -0.998600 0.053200
vn 0.000000 -0.982600 -0.186000
vn 0.000000 -0.804400 -0.594100
vn 0.000000 0.108800 -0.994100
vn 0.000000 -0.108800 0.994100
vn 0.000000 -0.319400 0.947600
vn 0.000000 -0.964700 0.263400
vn 0.000000 -0.673800 -0.738900
vn 0.000000 0.804300 0.594200
vn 0.000000 0.319400 -0.947600
vn 0.000000 -0.673800 0.738900
vn 0.000000 0.319400 0.947600
vn 0.000000 0.964700 0.263300
vn 0.000000 0.673800 -0.738900
vn 0.000000 -0.108800 -0.994100
vn 0.000000 0.804400 -0.594100
vn 0.000000 -0.901100 0.433500
vn 0.000000 0.901200 -0.433500
vn 0.000000 0.964700 -0.263400
vn 0.000000 -0.996100 0.088300
vn 0.000000 0.996100 -0.088300
vn 0.000000 0.510600 -0.859800
vn 0.000000 -0.510600 0.859800
vn 0.000000 -0.996100 -0.088300
vn 0.000000 0.673800 0.738900
vn 0.000000 0.996100 0.088300
vn 0.000000 -0.964700 -0.263400
vn 0.000000 0.510600 0.859800
vn 0.000000 -0.804400 0.594100
vn 0.000000 -0.901100 -0.433600
vn 0.000000 0.108800 0.994100
vn 0.000000 0.901100 0.433600
vn 0.951000 0.125500 0.282400
vn 0.983100 0.171900 0.062700
vn 0.931200 -0.116400 0.345400
vn 0.984300 0.176000 -0.015600
vn 0.963000 -0.181500 0.199100
vn 0.979100 0.183400 -0.088200
vn 0.979100 -0.183400 0.088200
vn 0.920500 0.042500 -0.388400
vn 0.963000 0.181500 -0.199100
vn 0.000000 0.012100 0.999900
vn 0.923400 0.031300 0.382500
vn 0.920500 -0.042500 0.388400
vn 0.979700 0.168600 0.108400
vn 0.964300 0.149300 0.218800
vn 0.984500 0.174000 0.020600
vn 0.948300 -0.162000 0.272800
vn 0.982600 0.179400 -0.049000
vn 0.973000 -0.185700 0.137100
vn 0.973000 0.185700 -0.137200
vn 0.982600 -0.179400 0.049000
vn 0.948300 0.162000 -0.272800
vn 0.931200 0.116400 -0.345400
vn -0.918900 0.195800 0.342600
vn 0.935700 0.086300 0.342100
vn 0.973700 0.162100 0.160100
vn 0.000000 -0.081600 0.996700
vn 0.000000 0.841100 0.540800
vn -0.000000 0.563600 0.826000
vn 0.000000 0.993100 0.117600
vn 0.000000 -0.244500 0.969600
vn 0.000000 0.939400 -0.342700
vn 0.000000 -0.563600 0.826100
vn -0.000000 0.711600 -0.702600
vn 0.000000 -0.841100 0.540900
vn 0.000000 0.081600 -0.996700
vn 0.000000 0.406100 -0.913900
vn 0.921500 -0.038800 -0.386400
vn 0.000000 0.244500 0.969600
vn 0.000000 0.711600 0.702600
vn 0.000000 0.406100 0.913800
vn 0.000000 0.939400 0.342800
vn 0.000000 0.993100 -0.117600
vn 0.000000 -0.406000 0.913900
vn 0.000000 0.841100 -0.540900
vn 0.000000 -0.711600 0.702500
vn 0.000000 0.563600 -0.826100
vn 0.000000 -0.939400 0.342800
vn 0.000000 0.081600 0.996700
vn 0.000000 0.244500 -0.969600
vn -0.955900 0.156000 0.248900
vn -0.970000 0.165700 0.178100
vn -0.977800 0.202100 0.055200
vn -0.980600 0.195400 0.017300
vn -0.981100 0.192700 -0.017100
vn 0.000000 0.992700 -0.120600
vn 0.983400 -0.179400 -0.027000
vn 1.000000 0.000000 -0.000000
vn 1.000000 0.001100 0.001100
vn 0.000000 -0.319400 -0.947600
vn 0.000000 -0.510600 -0.859800
vn 0.000000 0.804400 0.594100
vn 0.000000 0.964700 0.263400
vn 0.000000 0.804300 -0.594200
vn 0.000000 -0.901100 0.433600
vn 0.000000 0.901100 -0.433500
vn 0.000000 0.964700 -0.263300
vn 0.000000 -0.901200 -0.433500
vn 0.000000 0.901200 0.433500
vn 0.948300 0.162000 0.272800
vn 0.982600 0.179400 0.049000
vn 0.935700 -0.086300 0.342100
vn 0.984500 0.174000 -0.020600
vn 0.964300 -0.149300 0.218900
vn 0.979700 0.168600 -0.108400
vn 0.979700 -0.168600 0.108400
vn 0.923400 0.031300 -0.382500
vn 0.964300 0.149300 -0.218800
vn 0.920500 0.042500 0.388400
vn 0.923400 -0.031300 0.382500
vn 0.979100 0.183400 0.088200
vn 0.963000 0.181500 0.199100
vn 0.984300 0.176000 0.015600
vn 0.951000 -0.125500 0.282400
vn 0.983100 0.171900 -0.062700
vn 0.973700 -0.162100 0.160100
vn 0.973700 0.162100 -0.160100
vn 0.983100 -0.171900 0.062700
vn 0.951000 0.125500 -0.282400
vn 0.935700 0.086300 -0.342100
vn -0.930700 0.116800 0.346600
vn -0.937500 0.234600 0.257200
vn -0.915700 0.205200 0.345500
vn 0.931200 0.116400 0.345300
vn 0.973000 0.185700 0.137200
vn 0.000000 0.841100 0.540900
vn 0.000000 0.563600 0.826100
vn 0.000000 0.939400 -0.342800
vn 0.000000 -0.841100 0.540800
vn 0.000000 0.406100 -0.913800
vn 0.920500 -0.042500 -0.388400
vn 0.000000 0.406100 0.913900
vn 0.000000 0.939400 0.342700
vn 0.000000 0.841100 -0.540800
vn 0.000000 -0.711700 0.702500
vn 0.000000 0.563600 -0.826000
vn -0.933800 0.287800 0.212600
vn -0.958100 0.258100 0.124200
vn -0.972000 0.192500 0.134800
vn -0.978400 0.192100 0.076300
vn -0.981000 0.192600 0.024900
vn 0.999700 -0.024200 0.008800
vn 1.000000 -0.007500 0.004800
vn 1.000000 -0.000400 0.000500
vn 1.000000 0.004400 0.001100
vn 1.000000 -0.000300 0.000600
vn 1.000000 -0.003300 0.003300
f 16/1/1 17/2/1 18/3/1
f 15/4/2 18/5/2 20/6/2
f 15/7/3 19/8/3 21/9/3
f 20/10/4 18/11/4 17/12/4
f 20/13/5 22/14/5 21/15/5
f 40/16/6 41/17/6 91/18/6
f 70/19/7 105/20/7 106/21/7
f 105/20/8 107/22/8 108/23/8
f 107/22/9 109/24/9 110/25/9
f 96/26/10 112/27/10 111/28/10
f 120/29/11 114/30/11 113/31/11
f 114/30/12 116/32/12 115/33/12
f 115/33/13 116/32/13 110/34/13
f 112/27/14 119/35/14 118/36/14
f 119/35/15 120/29/15 117/37/15
f 105/38/2 113/39/2 107/40/2
f 43/41/16 88/42/16 89/43/16
f 31/44/17 103/45/17 104/46/17
f 32/47/18 102/48/18 78/49/18
f 52/50/19 53/51/19 78/49/19
f 48/52/20 83/53/20 84/54/20
f 42/55/21 89/43/21 90/56/21
f 37/57/22 95/58/22 98/59/22
f 30/60/23 104/46/23 1/61/23
f 51/62/24 80/63/24 81/64/24
f 34/65/25 100/66/25 101/67/25
f 39/68/26 93/69/26 94/70/26
f 28/71/27 2/72/27 3/73/27
f 40/16/28 92/74/28 103/45/28
f 27/75/29 3/73/29 4/76/29
f 49/77/30 82/78/30 83/53/30
f 26/79/31 4/76/31 5/80/31
f 25/81/32 5/82/32 6/83/32
f 47/84/33 84/54/33 85/85/33
f 24/86/34 6/83/34 7/87/34
f 29/88/35 1/61/35 2/72/35
f 52/50/36 79/89/36 80/63/36
f 46/90/37 85/85/37 86/91/37
f 36/92/38 98/59/38 99/93/38
f 23/94/39 7/87/39 93/69/39
f 45/95/40 86/91/40 87/96/40
f 35/97/41 99/93/41 100/66/41
f 50/98/42 81/64/42 82/78/42
f 44/99/43 87/96/43 88/42/43
f 33/100/44 101/67/44 102/48/44
f 38/101/45 94/70/45 95/58/45
f 99/102/46 13/103/46 12/104/46
f 93/105/47 56/106/47 55/107/47
f 79/108/48 78/109/48 63/110/48
f 7/111/49 6/112/49 72/113/49
f 81/114/50 80/115/50 61/116/50
f 5/117/51 4/118/51 74/119/51
f 83/120/52 82/121/52 59/122/52
f 104/123/53 103/124/53 9/125/53
f 3/126/54 2/127/54 76/128/54
f 64/129/55 9/130/55 122/131/55
f 101/132/56 11/133/56 10/134/56
f 78/109/57 102/135/57 10/134/57
f 94/136/58 55/107/58 54/137/58
f 98/138/59 14/139/59 13/103/59
f 7/111/60 71/140/60 56/106/60
f 80/115/61 79/108/61 62/141/61
f 6/112/62 5/117/62 73/142/62
f 82/121/63 81/114/63 60/143/63
f 4/118/64 3/126/64 75/144/64
f 84/145/65 83/120/65 58/146/65
f 2/127/66 1/147/66 77/148/66
f 1/147/67 104/123/67 8/149/67
f 64/150/68 65/151/68 90/152/68
f 100/153/69 12/104/69 11/133/69
f 95/154/70 54/137/70 14/139/70
f 10/155/71 123/156/71 137/157/71
f 55/158/72 129/159/72 128/160/72
f 13/161/73 14/162/73 127/163/73
f 71/164/74 138/165/74 130/166/74
f 63/167/75 137/157/75 136/168/75
f 73/169/76 140/170/76 139/171/76
f 61/172/77 135/173/77 134/174/77
f 75/175/78 142/176/78 141/177/78
f 59/178/79 133/179/79 132/180/79
f 9/130/80 122/131/80 121/181/80
f 77/182/81 144/183/81 143/184/81
f 92/185/82 64/150/82 9/125/82
f 12/186/83 125/187/83 124/188/83
f 14/162/84 54/189/84 128/160/84
f 13/161/85 126/190/85 125/187/85
f 55/158/86 56/191/86 130/166/86
f 72/192/87 139/171/87 138/165/87
f 62/193/88 136/168/88 135/173/88
f 74/194/89 141/177/89 140/170/89
f 60/195/90 134/174/90 133/179/90
f 75/175/91 76/196/91 143/184/91
f 58/197/92 132/180/92 131/198/92
f 11/199/93 124/188/93 123/156/93
f 8/200/94 121/181/94 144/183/94
f 65/151/95 66/201/95 88/202/95
f 66/201/96 67/203/96 87/204/96
f 68/205/97 86/206/97 87/204/97
f 69/207/98 85/208/98 86/206/98
f 70/209/99 84/210/99 85/208/99
f 131/198/100 57/211/100 70/212/100
f 84/210/101 57/213/101 70/209/101
f 22/214/102 17/215/102 16/216/102
f 97/217/103 96/218/103 134/219/103
f 15/220/1 16/1/1 18/3/1
f 19/221/2 15/4/2 20/6/2
f 16/222/3 15/7/3 21/9/3
f 22/223/4 20/10/4 17/12/4
f 19/224/5 20/13/5 21/15/5
f 91/18/104 92/74/104 40/16/104
f 41/17/105 90/56/105 91/18/105
f 97/225/7 70/19/7 106/21/7
f 106/21/8 105/20/8 108/23/8
f 108/23/9 107/22/9 110/25/9
f 64/226/10 96/26/10 111/28/10
f 117/37/11 120/29/11 113/31/11
f 113/31/12 114/30/12 115/33/12
f 109/227/13 115/33/13 110/34/13
f 111/28/14 112/27/14 118/36/14
f 118/36/15 119/35/15 117/37/15
f 105/38/2 70/228/2 69/229/2
f 65/230/2 64/231/2 111/232/2
f 105/38/2 69/229/2 68/233/2
f 66/234/2 65/230/2 111/232/2
f 118/235/2 68/233/2 67/236/2
f 67/236/2 66/234/2 111/232/2
f 105/38/2 117/237/2 113/39/2
f 67/236/2 111/232/2 118/235/2
f 118/235/2 105/38/2 68/233/2
f 115/238/2 109/239/2 107/40/2
f 107/40/2 113/39/2 115/238/2
f 117/237/2 105/38/2 118/235/2
f 42/55/16 43/41/16 89/43/16
f 30/60/17 31/44/17 104/46/17
f 53/51/18 32/47/18 78/49/18
f 79/89/19 52/50/19 78/49/19
f 47/84/20 48/52/20 84/54/20
f 41/17/21 42/55/21 90/56/21
f 36/92/106 37/57/106 98/59/106
f 29/88/23 30/60/23 1/61/23
f 50/98/24 51/62/24 81/64/24
f 33/100/25 34/65/25 101/67/25
f 38/101/107 39/68/107 94/70/107
f 27/75/27 28/71/27 3/73/27
f 31/44/28 40/16/28 103/45/28
f 26/79/108 27/75/108 4/76/108
f 48/52/109 49/77/109 83/53/109
f 25/240/110 26/79/110 5/80/110
f 24/86/111 25/81/111 6/83/111
f 46/90/33 47/84/33 85/85/33
f 23/94/34 24/86/34 7/87/34
f 28/71/35 29/88/35 2/72/35
f 51/62/36 52/50/36 80/63/36
f 45/95/37 46/90/37 86/91/37
f 35/97/38 36/92/38 99/93/38
f 39/68/39 23/94/39 93/69/39
f 44/99/40 45/95/40 87/96/40
f 34/65/41 35/97/41 100/66/41
f 49/77/42 50/98/42 82/78/42
f 43/41/112 44/99/112 88/42/112
f 32/47/44 33/100/44 102/48/44
f 37/57/113 38/101/113 95/58/113
f 100/153/114 99/102/114 12/104/114
f 94/136/115 93/105/115 55/107/115
f 62/141/116 79/108/116 63/110/116
f 71/140/117 7/111/117 72/113/117
f 60/143/118 81/114/118 61/116/118
f 73/142/119 5/117/119 74/119/119
f 58/146/120 83/120/120 59/122/120
f 8/149/121 104/123/121 9/125/121
f 75/144/122 3/126/122 76/128/122
f 96/241/55 64/129/55 122/131/55
f 102/135/123 101/132/123 10/134/123
f 63/110/124 78/109/124 10/134/124
f 95/154/125 94/136/125 54/137/125
f 99/102/126 98/138/126 13/103/126
f 93/105/127 7/111/127 56/106/127
f 61/116/128 80/115/128 62/141/128
f 72/113/129 6/112/129 73/142/129
f 59/122/130 82/121/130 60/143/130
f 74/119/131 4/118/131 75/144/131
f 57/242/132 84/145/132 58/146/132
f 76/128/133 2/127/133 77/148/133
f 77/148/134 1/147/134 8/149/134
f 91/243/135 92/185/135 64/150/135
f 65/151/136 89/244/136 90/152/136
f 90/152/137 91/243/137 64/150/137
f 101/132/138 100/153/138 11/133/138
f 98/138/139 95/154/139 14/139/139
f 63/167/71 10/155/71 137/157/71
f 54/189/140 55/158/140 128/160/140
f 126/190/141 13/161/141 127/163/141
f 56/191/74 71/164/74 130/166/74
f 62/193/75 63/167/75 136/168/75
f 72/192/142 73/169/142 139/171/142
f 60/195/77 61/172/77 134/174/77
f 74/194/78 75/175/78 141/177/78
f 58/197/143 59/178/143 132/180/143
f 8/200/80 9/130/80 121/181/80
f 76/196/144 77/182/144 143/184/144
f 103/124/145 92/185/145 9/125/145
f 11/199/83 12/186/83 124/188/83
f 127/163/84 14/162/84 128/160/84
f 12/186/146 13/161/146 125/187/146
f 129/159/147 55/158/147 130/166/147
f 71/164/87 72/192/87 138/165/87
f 61/172/88 62/193/88 135/173/88
f 73/169/148 74/194/148 140/170/148
f 59/178/149 60/195/149 133/179/149
f 142/176/150 75/175/150 143/184/150
f 57/211/92 58/197/92 131/198/92
f 10/155/93 11/199/93 123/156/93
f 77/182/94 8/200/94 144/183/94
f 89/244/151 65/151/151 88/202/151
f 88/202/152 66/201/152 87/204/152
f 67/203/153 68/205/153 87/204/153
f 68/205/154 69/207/154 86/206/154
f 69/207/155 70/209/155 85/208/155
f 97/245/100 131/198/100 70/212/100
f 21/246/102 22/214/102 16/216/102
f 132/247/156 131/248/156 97/217/156
f 97/217/157 133/249/157 132/247/157
f 96/218/158 135/250/158 134/219/158
f 96/218/159 122/251/159 136/252/159
f 122/251/102 121/253/102 123/254/102
f 144/255/102 126/256/102 125/257/102
f 142/258/102 128/259/102 127/260/102
f 140/261/102 130/262/102 129/263/102
f 130/262/102 139/264/102 138/265/102
f 129/263/102 128/259/102 140/261/102
f 127/260/102 143/266/102 142/258/102
f 125/257/102 121/253/102 144/255/102
f 106/267/102 120/268/102 119/269/102
f 143/266/102 126/256/102 144/255/102
f 106/267/102 114/270/102 120/268/102
f 127/260/102 126/256/102 143/266/102
f 108/271/102 116/272/102 114/270/102
f 140/261/102 128/259/102 141/273/102
f 97/217/102 119/269/102 112/274/102
f 130/262/102 140/261/102 139/264/102
f 108/271/102 110/275/102 116/272/102
f 128/259/102 142/258/102 141/273/102
f 106/267/102 108/271/102 114/270/102
f 125/257/102 124/276/102 121/253/102
f 97/217/102 106/267/102 119/269/102
f 121/253/102 124/276/102 123/254/102
f 137/277/102 122/251/102 123/254/102
f 96/218/160 136/252/160 135/250/160
f 134/219/161 133/249/161 97/217/161
f 97/217/102 112/274/102 96/218/102
f 136/252/102 122/251/102 137/277/102
