v 0.000000 1.929389 -3.166704
v 0.000000 9.818190 -3.166704
v 2.239198 1.929389 -2.239198
v 2.239198 9.818190 -2.239198
v 3.166704 1.929389 0.000000
v 3.166704 9.818190 0.000000
v 2.239198 1.929389 2.239198
v 2.239198 9.818190 2.239198
v -0.000000 1.929389 3.166704
v -0.000000 9.818190 3.166704
v -2.239198 1.929389 2.239198
v -2.239198 9.818190 2.239198
v -3.166704 1.929389 -0.000000
v -3.166704 9.818190 -0.000000
v -2.239198 1.929389 -2.239198
v -2.239198 9.818190 -2.239198
v -8.090506 0.041835 4.662888
v -8.090506 11.114008 4.662888
v -9.018012 0.041835 2.423690
v -9.018012 11.114008 2.423690
v -9.018012 0.041835 -2.423690
v -9.018012 11.114008 -2.423690
v -8.090506 0.041835 -4.662888
v -8.090506 11.114008 -4.662888
v -2.423691 0.041835 -9.018012
v -2.423691 11.114008 -9.018012
v -4.662890 0.041835 -8.090505
v -4.662890 11.114008 -8.090505
v 2.423691 0.041835 -9.018012
v 2.423691 11.114008 -9.018012
v 4.662889 0.041835 -8.090505
v 4.662889 11.114008 -8.090505
v 8.090505 0.041835 -4.662889
v 8.090505 11.114008 -4.662889
v 9.018012 0.041835 -2.423690
v 9.018012 11.114008 -2.423690
v 9.018012 0.041835 2.423691
v 9.018012 11.114008 2.423691
v 8.090505 0.041835 4.662889
v 8.090505 11.114008 4.662889
v 4.662889 0.041835 8.090505
v 4.662889 11.114008 8.090505
v 2.423691 0.041835 9.018012
v 2.423691 11.114008 9.018012
v -2.423692 0.041835 9.018012
v -2.423692 11.114008 9.018012
v -4.662890 0.041835 8.090505
v -4.662890 11.114008 8.090505
v -2.702951 1.929389 1.119599
v -8.554258 0.041835 3.543289
v -6.092358 0.041835 1.211845
v -5.164852 0.041835 3.451043
v -5.628605 0.041835 2.331444
v -2.702951 9.818190 1.119599
v -8.554258 11.114008 3.543289
v -6.092358 11.114008 1.211845
v -5.164852 11.114008 3.451043
v -5.628605 11.114008 2.331444
v -2.702951 1.929389 -1.119599
v -8.554258 0.041835 -3.543289
v -5.164852 0.041835 -3.451043
v -6.092358 0.041835 -1.211845
v -5.628605 0.041835 -2.331444
v -2.702951 9.818190 -1.119599
v -8.554258 11.114008 -3.543289
v -5.164852 11.114008 -3.451043
v -6.092358 11.114008 -1.211845
v -5.628605 11.114008 -2.331444
v 1.119599 1.929389 -2.702951
v 2.702952 1.929389 -1.119599
v 2.702952 1.929389 1.119599
v 1.119599 1.929389 2.702951
v -1.119599 1.929389 2.702951
v -1.119599 1.929389 -2.702951
v -3.543291 0.041835 -8.554258
v -1.211846 0.041835 -6.092358
v -3.451044 0.041835 -5.164851
v 3.543290 0.041835 -8.554258
v 3.451044 0.041835 -5.164851
v 1.211845 0.041835 -6.092358
v 8.554258 0.041835 -3.543290
v 6.092358 0.041835 -1.211845
v 5.164851 0.041835 -3.451044
v 8.554258 0.041835 3.543290
v 5.164851 0.041835 3.451044
v 6.092358 0.041835 1.211846
v 3.543290 0.041835 8.554258
v 1.211845 0.041835 6.092358
v 3.451044 0.041835 5.164851
v -3.543291 0.041835 8.554258
v -3.451044 0.041835 5.164851
v -1.211846 0.041835 6.092358
v -2.331445 0.041835 -5.628605
v 2.331445 0.041835 -5.628605
v 5.628605 0.041835 -2.331444
v 5.628605 0.041835 2.331444
v 2.331445 0.041835 5.628605
v -2.331445 0.041835 5.628605
v 1.119599 9.818190 -2.702951
v 2.702952 9.818190 -1.119599
v 2.702952 9.818190 1.119599
v 1.119599 9.818190 2.702951
v -1.119599 9.818190 2.702951
v -1.119599 9.818190 -2.702951
v -3.543291 11.114008 -8.554258
v -3.451044 11.114008 -5.164851
v -1.211846 11.114008 -6.092358
v 3.543290 11.114008 -8.554258
v 3.451044 11.114008 -5.164852
v 1.211845 11.114008 -6.092358
v 8.554258 11.114008 -3.543290
v 6.092358 11.114008 -1.211845
v 5.164852 11.114008 -3.451044
v 8.554258 11.114008 3.543290
v 5.164852 11.114008 3.451044
v 6.092358 11.114008 1.211846
v 3.543290 11.114008 8.554258
v 1.211845 11.114008 6.092358
v 3.451044 11.114008 5.164852
v -3.543291 11.114008 8.554258
v -3.451044 11.114008 5.164851
v -1.211846 11.114008 6.092358
v -2.331445 11.114008 -5.628605
v 2.331445 11.114008 -5.628605
v 5.628605 11.114008 -2.331444
v 5.628605 11.114008 2.331445
v 2.331445 11.114008 5.628605
v -2.331445 11.114008 5.628605
vt 0.129573 0.108341
vt 0.106341 0.164428
vt 0.185660 0.131573
vt 0.094011 0.273515
vt 0.110438 0.280319
vt 0.128219 0.237392
vt 0.217584 0.814290
vt 0.189710 0.881583
vt 0.122417 0.853709
vt 0.515256 0.022884
vt 0.505457 0.022884
vt 0.505457 0.256830
vt 0.063413 0.113792
vt 0.020486 0.096011
vt 0.013682 0.112438
vt 0.070913 0.792957
vt 0.019410 0.771623
vt 0.027574 0.751913
vt 0.879519 0.282614
vt 0.872714 0.282614
vt 0.872714 0.445079
vt 0.063413 0.182209
vt 0.020486 0.199990
vt 0.027291 0.216418
vt 0.070913 0.875043
vt 0.019410 0.896376
vt 0.011246 0.876667
vt 0.805991 0.282614
vt 0.789563 0.282614
vt 0.789563 0.445079
vt 0.107624 0.984590
vt 0.087914 0.976426
vt 0.109248 0.924923
vt 0.702008 0.282614
vt 0.685580 0.282614
vt 0.685580 0.445079
vt 0.197990 0.273515
vt 0.214418 0.266710
vt 0.196637 0.223783
vt 0.211043 0.933087
vt 0.232377 0.984590
vt 0.212667 0.992754
vt 0.628481 0.282614
vt 0.621676 0.282614
vt 0.621676 0.445079
vt 0.228587 0.182209
vt 0.271515 0.199990
vt 0.278319 0.183562
vt 0.320591 0.896376
vt 0.312427 0.916086
vt 0.260923 0.894752
vt 0.876744 0.022884
vt 0.866945 0.022884
vt 0.866945 0.256830
vt 0.271515 0.096011
vt 0.264710 0.079583
vt 0.221783 0.097364
vt 0.269087 0.792957
vt 0.320591 0.771623
vt 0.328755 0.791333
vt 0.770867 0.022884
vt 0.747210 0.022884
vt 0.747210 0.256830
vt 0.180209 0.065413
vt 0.197990 0.022486
vt 0.181562 0.015682
vt 0.232377 0.683409
vt 0.252087 0.691573
vt 0.230753 0.743077
vt 0.621133 0.022884
vt 0.597477 0.022884
vt 0.597477 0.256830
vt 0.094011 0.022486
vt 0.077583 0.029291
vt 0.095364 0.072218
vt 0.128957 0.734913
vt 0.107624 0.683409
vt 0.127333 0.675245
vt 0.011246 0.791333
vt 0.062749 0.812666
vt 0.122417 0.814290
vt 0.079077 0.773247
vt 0.130581 0.794580
vt 0.027291 0.079583
vt 0.070218 0.097364
vt 0.106341 0.131573
vt 0.056609 0.130219
vt 0.099536 0.148000
vt 0.027574 0.916086
vt 0.079077 0.894752
vt 0.062749 0.855333
vt 0.013682 0.183562
vt 0.056609 0.165781
vt 0.070218 0.198637
vt 0.113145 0.180855
vt 0.127333 0.992754
vt 0.128957 0.933087
vt 0.148667 0.941251
vt 0.150291 0.881583
vt 0.130581 0.873419
vt 0.230753 0.924923
vt 0.252087 0.976426
vt 0.209420 0.873419
vt 0.191334 0.941251
vt 0.170000 0.889747
vt 0.328755 0.876667
vt 0.269087 0.875043
vt 0.277251 0.855333
vt 0.217584 0.853709
vt 0.312427 0.751913
vt 0.209420 0.794580
vt 0.260923 0.773247
vt 0.277251 0.812666
vt 0.225747 0.834000
vt 0.212667 0.675245
vt 0.211043 0.734913
vt 0.170000 0.778252
vt 0.191334 0.726749
vt 0.087914 0.691573
vt 0.109248 0.743077
vt 0.150291 0.786416
vt 0.148667 0.726749
vt 0.095364 0.223783
vt 0.077583 0.266710
vt 0.111792 0.230587
vt 0.129573 0.187660
vt 0.146000 0.194464
vt 0.181562 0.280319
vt 0.180209 0.230587
vt 0.163781 0.237392
vt 0.162428 0.187660
vt 0.178855 0.180855
vt 0.264710 0.216418
vt 0.221783 0.198637
vt 0.185660 0.164428
vt 0.235392 0.165781
vt 0.192464 0.148000
vt 0.278319 0.112438
vt 0.228587 0.113792
vt 0.235392 0.130219
vt 0.178855 0.115145
vt 0.196637 0.072218
vt 0.214418 0.029291
vt 0.162428 0.108341
vt 0.163781 0.058609
vt 0.146000 0.101536
vt 0.110438 0.015682
vt 0.111792 0.065413
vt 0.128219 0.058609
vt 0.113145 0.115145
vt 0.114253 0.834000
vt 0.635286 0.282614
vt 0.635286 0.445079
vt 0.534437 0.282614
vt 0.534437 0.445079
vt 0.605563 0.445079
vt 0.794523 0.022884
vt 0.794523 0.256830
vt 0.644789 0.022884
vt 0.644789 0.256830
vt 0.525054 0.022884
vt 0.525054 0.256830
vt 0.873563 0.470614
vt 0.873563 0.633079
vt 0.802436 0.633079
vt 0.822420 0.282614
vt 0.822420 0.445079
vt 0.718436 0.282614
vt 0.718436 0.445079
vt 0.189710 0.786416
vt 0.515256 0.256830
vt 0.886323 0.445079
vt 0.886323 0.282614
vt 0.879519 0.445079
vt 0.805991 0.445079
vt 0.702008 0.445079
vt 0.628481 0.445079
vt 0.886543 0.256830
vt 0.886543 0.022884
vt 0.876744 0.256830
vt 0.770867 0.256830
vt 0.621133 0.256830
vt 0.605563 0.282614
vt 0.802436 0.470614
vn 0.000000 -1.000000 -0.000000
vn 0.000000 1.000000 -0.000000
vn 0.923879 0.000000 -0.382684
vn 0.923880 0.000000 0.382683
vn 0.382685 0.000000 0.923879
vn -0.382684 0.000000 0.923879
vn -0.923879 0.000000 0.382684
vn -0.923879 0.000000 -0.382684
vn 0.000000 -1.000000 0.000002
vn -0.382685 0.000000 -0.923879
vn 0.382684 0.000000 -0.923879
vn -0.473032 0.858981 0.195936
vn -0.473032 0.858982 0.195936
vn -0.349891 -0.925511 0.144929
vn -0.349892 -0.925511 0.144930
vn -0.473032 0.858982 -0.195936
vn -0.473032 0.858981 -0.195937
vn -0.349892 -0.925511 -0.144931
vn -0.349892 -0.925511 -0.144930
vn -0.195936 0.858982 -0.473032
vn -0.195937 0.858982 -0.473032
vn 0.195937 0.858981 -0.473032
vn 0.195936 0.858982 -0.473032
vn 0.473032 0.858981 -0.195936
vn 0.473032 0.858981 -0.195937
vn 0.473032 0.858981 0.195937
vn 0.195936 0.858982 0.473032
vn 0.195937 0.858981 0.473032
vn -0.195937 0.858982 0.473032
vn -0.195936 0.858982 0.473032
vn -0.144930 -0.925512 -0.349891
vn -0.144930 -0.925511 -0.349893
vn 0.144930 -0.925511 -0.349891
vn 0.144930 -0.925511 -0.349892
vn 0.349892 -0.925511 -0.144930
vn 0.349892 -0.925511 0.144931
vn 0.144930 -0.925511 0.349892
vn -0.144930 -0.925511 0.349892
vn 0.000000 0.840292 0.542134
vn -0.383347 0.840292 0.383346
vn -0.542134 0.840292 0.000000
vn -0.383347 0.840292 -0.383346
vn 0.000000 0.840292 -0.542134
vn 0.383347 0.840292 -0.383347
vn 0.542134 0.840292 0.000000
vn 0.383347 0.840292 0.383347
vn 0.000000 -0.914330 -0.404971
vn 0.286358 -0.914330 -0.286357
vn 0.000000 -1.000000 -0.000001
vn 0.404971 -0.914330 0.000000
vn -0.286358 -0.914329 0.286358
vn -0.286358 -0.914329 -0.286358
vn -0.404971 -0.914330 0.000000
vn 0.000000 -0.914330 0.404971
vn 0.286358 -0.914330 0.286357
vn -0.707107 0.000000 0.707107
vn -1.000000 0.000000 0.000000
vn -0.707107 0.000000 -0.707107
vn 0.000000 0.000000 -1.000000
vn 0.707107 0.000000 -0.707107
vn 1.000000 0.000000 0.000000
vn 0.707107 0.000000 0.707107
vn 0.000000 0.000000 1.000000
vn 0.000000 -1.000000 -0.000002
vn 0.000000 -1.000000 0.000001
vn 0.923880 0.000000 -0.382683
vn 0.923879 0.000000 0.382684
vn 0.382684 0.000000 0.923879
vn 0.382683 0.000000 0.923880
vn -0.382685 0.000000 0.923879
vn -0.382683 0.000000 0.923880
vn -0.923880 0.000000 -0.382683
vn -0.382684 0.000000 -0.923879
vn -0.382683 0.000000 -0.923880
vn 0.382685 0.000000 -0.923879
vn 0.382683 0.000000 -0.923880
vn -0.473032 0.858981 -0.195936
vn -0.349892 -0.925511 -0.144929
vn 0.195937 0.858982 -0.473032
vn 0.473032 0.858982 -0.195936
vn 0.473032 0.858982 0.195936
vn 0.195937 0.858982 0.473032
vn 0.349892 -0.925511 0.144929
s off
f 103/1/1 64/2/1 101/3/1
f 105/4/1 26/5/1 107/6/1
f 71/7/2 69/8/2 59/9/2
f 50/10/3 19/11/3 20/12/3
f 58/13/1 55/14/1 20/15/1
f 53/16/2 50/17/2 17/18/2
f 60/19/4 23/20/4 24/21/4
f 68/22/1 65/23/1 24/24/1
f 63/25/2 60/26/2 21/27/2
f 75/28/5 25/29/5 26/30/5
f 75/31/2 27/32/2 77/33/2
f 78/34/6 31/35/6 32/36/6
f 108/37/1 32/38/1 109/39/1
f 94/40/2 78/41/2 29/42/2
f 81/43/7 35/44/7 36/45/7
f 125/46/1 111/47/1 36/48/1
f 81/49/2 33/50/2 83/51/2
f 84/52/8 39/53/8 40/54/8
f 114/55/9 40/56/9 115/57/9
f 96/58/2 84/59/2 37/60/2
f 87/61/10 43/62/10 44/63/10
f 127/64/1 117/65/1 44/66/1
f 87/67/2 41/68/2 89/69/2
f 90/70/11 47/71/11 48/72/11
f 120/73/1 48/74/1 121/75/1
f 98/76/2 90/77/2 45/78/2
f 19/79/2 50/17/2 53/16/2
f 51/80/12 53/16/12 49/81/12
f 53/16/13 52/82/13 11/83/13
f 18/84/1 55/14/1 58/13/1
f 57/85/14 58/13/14 54/86/14
f 58/13/15 56/87/15 14/88/15
f 23/89/2 60/26/2 63/25/2
f 61/90/16 63/25/16 59/9/16
f 59/9/17 63/25/17 62/91/17
f 22/92/1 65/23/1 68/22/1
f 67/93/18 68/22/18 64/2/18
f 68/22/19 66/94/19 16/95/19
f 25/96/2 75/31/2 93/97/2
f 76/98/20 93/97/20 74/99/20
f 93/97/21 77/33/21 15/100/21
f 79/101/2 31/102/2 78/41/2
f 3/103/22 79/101/22 94/40/22
f 94/40/23 80/104/23 1/105/23
f 35/106/2 81/49/2 95/107/2
f 82/108/24 95/107/24 70/109/24
f 95/107/25 83/51/25 3/103/25
f 39/110/2 84/59/2 96/58/2
f 7/111/26 85/112/26 96/58/26
f 96/58/26 86/113/26 5/114/26
f 43/115/2 87/67/2 97/116/2
f 9/117/27 88/118/27 97/116/27
f 97/116/28 89/69/28 7/111/28
f 47/119/2 90/77/2 98/76/2
f 91/120/29 98/76/29 73/121/29
f 98/76/30 92/122/30 9/117/30
f 106/123/1 28/124/1 105/4/1
f 106/123/31 123/125/31 104/126/31
f 123/125/32 107/6/32 2/127/32
f 30/128/1 108/37/1 124/129/1
f 110/130/33 124/129/33 99/131/33
f 124/129/34 109/39/34 4/132/34
f 34/133/1 111/47/1 125/46/1
f 113/134/35 125/46/35 100/135/35
f 125/46/35 112/136/35 6/137/35
f 38/138/1 114/55/1 126/139/1
f 116/140/36 126/139/36 101/3/36
f 126/139/36 115/57/36 8/141/36
f 119/142/1 42/143/1 117/65/1
f 119/142/37 127/64/37 102/144/37
f 127/64/37 118/145/37 10/146/37
f 46/147/1 120/73/1 128/148/1
f 10/146/38 122/149/38 128/148/38
f 128/148/38 121/75/38 12/150/38
f 43/115/2 88/118/2 92/122/2
f 9/117/39 92/122/39 88/118/39
f 47/119/2 91/120/2 52/82/2
f 52/82/40 91/120/40 11/83/40
f 19/79/2 51/80/2 62/91/2
f 62/91/41 51/80/41 13/151/41
f 27/32/2 23/89/2 61/90/2
f 77/33/42 61/90/42 15/100/42
f 25/96/2 76/98/2 80/104/2
f 80/104/43 76/98/43 1/105/43
f 83/51/44 79/101/44 3/103/44
f 31/102/2 79/101/2 83/51/2
f 37/60/2 35/106/2 82/108/2
f 86/113/45 82/108/45 5/114/45
f 89/69/46 85/112/46 7/111/46
f 41/68/2 39/110/2 85/112/2
f 2/127/47 107/6/47 110/130/47
f 4/132/48 109/39/48 113/134/48
f 112/136/1 36/48/1 38/138/1
f 115/57/49 40/56/49 42/143/49
f 6/137/50 112/136/50 116/140/50
f 122/149/1 118/145/1 44/66/1
f 57/85/1 121/75/1 48/74/1
f 12/150/51 121/75/51 57/85/51
f 107/6/1 26/5/1 30/128/1
f 66/94/1 24/24/1 28/124/1
f 16/95/52 66/94/52 106/123/52
f 56/87/1 20/15/1 22/92/1
f 14/88/53 56/87/53 67/93/53
f 113/134/1 109/39/1 32/38/1
f 10/146/54 118/145/54 122/149/54
f 8/141/55 115/57/55 119/142/55
f 33/152/56 34/153/56 32/36/56
f 37/154/57 38/155/57 36/156/57
f 41/157/58 42/158/58 40/54/58
f 45/159/59 46/160/59 44/63/59
f 17/161/60 18/162/60 48/72/60
f 21/163/61 22/164/61 20/165/61
f 27/166/62 28/167/62 24/21/62
f 25/29/63 29/168/63 30/169/63
f 99/131/1 4/132/1 100/135/1
f 100/135/1 6/137/1 101/3/1
f 101/3/1 8/141/1 102/144/1
f 102/144/1 10/146/1 103/1/1
f 103/1/64 12/150/64 54/86/64
f 54/86/1 14/88/1 64/2/1
f 64/2/1 16/95/1 104/126/1
f 104/126/9 2/127/9 99/131/9
f 101/3/1 64/2/1 100/135/1
f 101/3/65 102/144/65 103/1/65
f 103/1/1 54/86/1 64/2/1
f 64/2/49 104/126/49 99/131/49
f 123/125/1 105/4/1 107/6/1
f 64/2/65 99/131/65 100/135/65
f 69/8/2 1/105/2 74/99/2
f 74/99/2 15/100/2 59/9/2
f 59/9/2 13/151/2 49/81/2
f 49/81/2 11/83/2 73/121/2
f 73/121/2 9/117/2 72/170/2
f 72/170/2 7/111/2 71/7/2
f 71/7/2 5/114/2 70/109/2
f 70/109/2 3/103/2 69/8/2
f 69/8/2 74/99/2 59/9/2
f 73/121/2 72/170/2 49/81/2
f 71/7/2 59/9/2 72/170/2
f 71/7/2 70/109/2 69/8/2
f 72/170/2 59/9/2 49/81/2
f 56/87/9 58/13/9 20/15/9
f 18/162/66 17/161/66 50/10/66
f 55/171/66 18/162/66 50/10/66
f 50/10/3 20/12/3 55/171/3
f 52/82/2 53/16/2 17/18/2
f 22/172/67 21/173/67 60/19/67
f 66/94/1 68/22/1 24/24/1
f 22/172/67 60/19/67 65/174/67
f 62/91/2 63/25/2 21/27/2
f 60/19/4 24/21/4 65/174/4
f 28/167/68 27/166/68 75/28/68
f 93/97/2 75/31/2 77/33/2
f 28/167/69 75/28/69 105/175/69
f 30/169/70 29/168/70 78/34/70
f 75/28/69 26/30/69 105/175/69
f 124/129/1 108/37/1 109/39/1
f 30/169/71 78/34/71 108/176/71
f 80/104/2 94/40/2 29/42/2
f 78/34/71 32/36/71 108/176/71
f 34/153/7 33/152/7 81/43/7
f 112/136/64 125/46/64 36/48/64
f 34/153/7 81/43/7 111/177/7
f 95/107/2 81/49/2 83/51/2
f 81/43/7 36/45/7 111/177/7
f 38/178/8 37/179/8 84/52/8
f 126/139/1 114/55/1 115/57/1
f 38/178/8 84/52/8 114/180/8
f 86/113/2 96/58/2 37/60/2
f 84/52/72 40/54/72 114/180/72
f 42/158/73 41/157/73 87/61/73
f 118/145/1 127/64/1 44/66/1
f 42/158/74 87/61/74 117/181/74
f 97/116/2 87/67/2 89/69/2
f 87/61/74 44/63/74 117/181/74
f 46/160/75 45/159/75 90/70/75
f 128/148/1 120/73/1 121/75/1
f 46/160/76 90/70/76 120/182/76
f 92/122/2 98/76/2 45/78/2
f 90/70/76 48/72/76 120/182/76
f 51/80/2 19/79/2 53/16/2
f 13/151/13 51/80/13 49/81/13
f 49/81/13 53/16/13 11/83/13
f 57/85/1 18/84/1 58/13/1
f 12/150/15 57/85/15 54/86/15
f 54/86/15 58/13/15 14/88/15
f 61/90/2 23/89/2 63/25/2
f 15/100/16 61/90/16 59/9/16
f 13/151/77 59/9/77 62/91/77
f 67/93/64 22/92/64 68/22/64
f 14/88/78 67/93/78 64/2/78
f 64/2/78 68/22/78 16/95/78
f 76/98/2 25/96/2 93/97/2
f 1/105/20 76/98/20 74/99/20
f 74/99/21 93/97/21 15/100/21
f 94/40/2 79/101/2 78/41/2
f 69/8/79 3/103/79 94/40/79
f 69/8/23 94/40/23 1/105/23
f 82/108/2 35/106/2 95/107/2
f 5/114/80 82/108/80 70/109/80
f 70/109/24 95/107/24 3/103/24
f 85/112/2 39/110/2 96/58/2
f 71/7/26 7/111/26 96/58/26
f 71/7/81 96/58/81 5/114/81
f 88/118/2 43/115/2 97/116/2
f 72/170/27 9/117/27 97/116/27
f 72/170/82 97/116/82 7/111/82
f 91/120/2 47/119/2 98/76/2
f 11/83/30 91/120/30 73/121/30
f 73/121/30 98/76/30 9/117/30
f 123/125/1 106/123/1 105/4/1
f 16/95/32 106/123/32 104/126/32
f 104/126/31 123/125/31 2/127/31
f 110/130/1 30/128/1 124/129/1
f 2/127/34 110/130/34 99/131/34
f 99/131/34 124/129/34 4/132/34
f 113/134/1 34/133/1 125/46/1
f 4/132/35 113/134/35 100/135/35
f 100/135/35 125/46/35 6/137/35
f 116/140/9 38/138/9 126/139/9
f 6/137/83 116/140/83 101/3/83
f 101/3/83 126/139/83 8/141/83
f 127/64/1 119/142/1 117/65/1
f 8/141/37 119/142/37 102/144/37
f 102/144/37 127/64/37 10/146/37
f 122/149/1 46/147/1 128/148/1
f 103/1/38 10/146/38 128/148/38
f 103/1/38 128/148/38 12/150/38
f 45/78/2 43/115/2 92/122/2
f 17/18/2 47/119/2 52/82/2
f 21/27/2 19/79/2 62/91/2
f 77/33/2 27/32/2 61/90/2
f 29/42/2 25/96/2 80/104/2
f 33/50/2 31/102/2 83/51/2
f 86/113/2 37/60/2 82/108/2
f 89/69/2 41/68/2 85/112/2
f 116/140/1 112/136/1 38/138/1
f 119/142/1 115/57/1 42/143/1
f 46/147/1 122/149/1 44/66/1
f 18/84/1 57/85/1 48/74/1
f 110/130/1 107/6/1 30/128/1
f 106/123/1 66/94/1 28/124/1
f 67/93/1 56/87/1 22/92/1
f 34/133/1 113/134/1 32/38/1
f 31/35/56 33/152/56 32/36/56
f 35/183/57 37/154/57 36/156/57
f 39/53/58 41/157/58 40/54/58
f 43/62/59 45/159/59 44/63/59
f 47/71/60 17/161/60 48/72/60
f 19/184/61 21/163/61 20/165/61
f 23/20/62 27/166/62 24/21/62
f 26/30/63 25/29/63 30/169/63
