v -3.263889 -0.000001 5.499893
v 4.736111 0.000001 -4.999903
v -3.263889 -0.000001 -4.999903
v -3.263889 -0.000001 0.163967
v 1.546027 0.000000 1.172008
v -0.047963 -0.000000 0.163967
v 1.546027 0.000000 0.163967
v -3.263889 -0.000001 0.315127
v 1.423610 0.000000 5.499893
v -1.076390 -0.000000 0.163967
v 1.546020 0.000000 2.749947
v -0.047963 -0.000000 0.315127
v 1.423611 0.000000 1.172009
v -1.076389 -0.000000 0.315127
v 1.423611 0.000000 0.315128
v 1.423610 0.000000 2.749947
v -3.263889 2.739999 5.499893
v 4.736111 2.740001 -4.999903
v -3.263889 2.739999 -4.999903
v -3.263889 2.739999 0.163967
v -3.263889 2.739999 0.315127
v 1.423610 2.740000 5.499893
v -1.076390 2.740000 0.163967
v 1.546020 2.740000 2.749947
v 1.423610 2.740000 2.749947
v 1.546027 2.740000 0.163967
v 1.423611 2.740000 0.315128
v 1.546027 2.000000 2.749947
v 1.423611 2.740000 2.751608
v 1.546027 2.000000 1.172008
v 1.423611 2.000000 1.172009
v 1.423611 2.000000 2.751608
v -0.047963 2.000000 0.315127
v -0.047963 2.000000 0.163967
v -1.076390 2.740000 0.315127
v -1.076390 2.000000 0.315127
v -1.076390 2.000000 0.163967
v 0.525812 0.000000 3.262667
v 0.237616 0.000000 3.262667
v 0.525812 0.500000 4.889237
v 0.237616 0.500000 3.262667
v 0.525812 0.500000 3.262667
v 0.737615 0.000000 3.044895
v 0.737616 0.000000 2.790464
v 0.737615 0.500000 3.044895
v 0.737616 0.500000 2.790464
v 1.423609 0.000000 3.044898
v 1.423611 0.000000 2.790467
v 1.423609 0.500000 3.044898
v 1.423611 0.500000 2.790467
v 0.525812 0.000000 4.889237
v 0.237616 0.000000 4.889237
v 0.237616 0.500000 4.889237
v -1.950186 0.000000 0.315127
v -1.950186 0.000000 4.844458
v -1.950186 0.500000 4.844458
v -2.238381 0.000000 4.844458
v -2.238381 0.000000 0.315127
v -1.950186 0.500000 0.315127
v -2.238381 0.500000 4.844458
v -2.238381 0.500000 0.315127
v -1.899654 0.493844 4.896149
v -1.899654 0.493844 0.315127
v -2.288913 0.493844 4.896149
v -2.288913 0.493844 0.315127
v -1.899654 0.558278 4.896149
v -1.899654 0.558278 0.315127
v -2.288913 0.558278 4.896149
v -2.288913 0.558278 0.315127
v 0.538518 0.503877 4.948528
v 0.212072 0.503877 3.255287
v 0.538518 0.503877 3.308665
v 0.761284 0.503877 3.079621
v 0.737950 0.503877 2.754061
v 1.425101 0.503877 3.080041
v 1.424953 0.503877 2.753646
v 0.212072 0.503877 4.948528
v 0.538518 0.565550 4.948528
v 0.212072 0.565550 3.255287
v 0.538518 0.565550 3.308665
v 0.761284 0.565550 3.079621
v 0.737950 0.565550 2.754061
v 1.425101 0.565550 3.080041
v 1.424953 0.565550 2.753646
v 0.212072 0.565550 4.948528
v 1.546020 0.000000 5.746304
v 1.546020 2.740000 5.746304
v 4.736111 0.000001 6.732098
v 4.736111 2.740001 6.732098
v -0.045063 0.000000 5.746304
v -0.045063 2.740000 5.746304
v -0.045063 0.000000 6.732098
v -0.045063 2.740000 6.732098
vt 0.081760 0.379986
vt 0.091582 0.380321
vt 0.092631 0.344020
vt 0.845953 0.225579
vt 0.845953 0.052230
vt 0.751398 0.052230
vt 0.398833 0.655801
vt 0.391116 0.655801
vt 0.391116 0.750355
vt 0.832279 0.670443
vt 0.505445 0.670443
vt 0.505445 0.764997
vt 0.505445 0.861093
vt 0.505445 0.955648
vt 0.800927 0.955648
vt 0.893401 0.823813
vt 0.987955 0.823813
vt 0.987955 0.685922
vt 0.504674 0.670443
vt 0.000385 0.670443
vt 0.000385 0.764998
vt 0.830962 0.765768
vt 0.505445 0.765768
vt 0.505445 0.860322
vt 0.967189 0.482113
vt 0.966420 0.561009
vt 0.990057 0.561239
vt 0.776713 0.638154
vt 0.740709 0.638154
vt 0.740709 0.669672
vt 0.625910 0.761887
vt 0.625911 0.769604
vt 0.696826 0.769604
vt 0.547115 0.761890
vt 0.547010 0.769606
vt 0.458096 0.037351
vt 0.542314 0.013712
vt 0.379301 0.013712
vt 0.183775 0.633679
vt 0.174247 0.633679
vt 0.174247 0.669683
vt 0.202517 0.860323
vt 0.202517 0.765768
vt 0.192988 0.765768
vt 0.214503 0.042876
vt 0.336089 0.011358
vt 0.178499 0.011358
vt 0.183775 0.669683
vt 0.174247 0.732719
vt 0.939589 0.861093
vt 0.801698 0.861093
vt 0.801698 0.955648
vt 0.421562 0.976404
vt 0.486302 0.963296
vt 0.467860 0.908276
vt 0.979746 0.195238
vt 0.969651 0.158234
vt 0.918657 0.177488
vt 0.934459 0.082409
vt 0.885274 0.111441
vt 0.878135 0.816739
vt 0.878936 0.812993
vt 0.858358 0.812993
vt 0.077866 0.022764
vt 0.072423 0.298422
vt 0.102853 0.299022
vt 0.922823 0.361612
vt 0.974464 0.363236
vt 0.859968 0.816739
vt 0.859968 0.848257
vt 0.878135 0.848257
vt 0.352139 0.987848
vt 0.350113 0.939234
vt 0.208297 0.925630
vt 0.410458 0.929888
vt 0.203642 0.965781
vt 0.196366 0.967768
vt 0.351774 0.990224
vt 0.424072 0.979167
vt 0.037171 0.243136
vt 0.040363 0.014857
vt 0.015163 0.014505
vt 0.017035 0.264449
vt 0.017035 0.295967
vt 0.035202 0.295967
vt 0.035202 0.264449
vt 0.038387 0.261167
vt 0.038387 0.257106
vt 0.013850 0.257106
vt 0.041156 0.243171
vt 0.044429 0.010842
vt 0.073117 0.019498
vt 0.149544 0.261349
vt 0.125011 0.260899
vt 0.119721 0.549626
vt 0.045211 0.243242
vt 0.048484 0.010913
vt 0.068251 0.019385
vt 0.062747 0.298184
vt 0.878936 0.809106
vt 0.858358 0.809106
vt 0.195536 0.973459
vt 0.351819 0.996256
vt 0.926339 0.206929
vt 0.923817 0.213322
vt 0.920290 0.371855
vt 0.875889 0.109734
vt 0.491605 0.971080
vt 0.913984 0.178188
vt 0.008655 0.954153
vt 0.029200 0.953036
vt 0.029948 0.911199
vt 0.039674 0.987843
vt 0.146396 0.989685
vt 0.146751 0.969110
vt 0.043393 0.967326
vt 0.917748 0.214216
vt 0.914994 0.371751
vt 0.869595 0.113251
vt 0.470951 0.984333
vt 0.469948 0.990934
vt 0.539172 0.990265
vt 0.907454 0.180996
vt 0.578287 0.378075
vt 0.510508 0.378244
vt 0.510492 0.371607
vt 0.189268 0.765768
vt 0.000385 0.765768
vt 0.000386 0.860323
vt 0.203288 0.765768
vt 0.203288 0.860323
vt 0.504674 0.860323
vt 0.906787 0.575118
vt 0.906787 0.669672
vt 0.968929 0.669672
vt 0.685258 0.009612
vt 0.584962 0.009612
vt 0.584962 0.104166
vt 0.739938 0.575118
vt 0.000385 0.575118
vt 0.000385 0.669672
vt 0.083182 0.343707
vt 0.751398 0.225579
vt 0.398833 0.750355
vt 0.832279 0.764997
vt 0.800927 0.861093
vt 0.893401 0.685922
vt 0.504674 0.764997
vt 0.830962 0.860322
vt 0.897005 0.406736
vt 0.896277 0.481421
vt 0.906016 0.575118
vt 0.776713 0.575118
vt 0.991554 0.407657
vt 0.696826 0.761888
vt 0.906016 0.669672
vt 0.542314 0.108266
vt 0.379301 0.037351
vt 0.192988 0.860323
vt 0.458096 0.108266
vt 0.336089 0.105912
vt 0.178499 0.042876
vt 0.939589 0.955648
vt 0.214503 0.105912
vt 0.183775 0.732719
vt 0.108296 0.023365
vt 0.011972 0.242783
vt 0.013850 0.261167
vt 0.067613 0.298297
vt 0.144254 0.550075
vt 0.425783 0.985621
vt 0.009376 0.910853
vt 0.536039 0.982292
vt 0.578271 0.371438
vt 0.445984 0.267179
vt 0.437787 0.267199
vt 0.157407 0.118313
vt 0.437710 0.236229
vt 0.446245 0.371767
vt 0.445907 0.236209
vt 0.445611 0.117595
vt 0.726752 0.116895
vt 0.727385 0.371066
vt 0.740763 0.377670
vt 0.740548 0.291397
vt 0.794002 0.291263
vt 0.437415 0.117616
vt 0.794648 0.550514
vt 0.158488 0.552099
vt 0.438065 0.378425
vt 0.189268 0.860323
vt 0.504674 0.765768
vt 0.968929 0.575118
vt 0.685258 0.104166
vt 0.739938 0.669672
vt 0.532401 0.702222
vt 0.700951 0.633949
vt 0.446384 0.632517
vt 0.588193 0.759439
vt 0.699975 0.807534
vt 0.467190 0.736380
vt 0.467385 0.701856
vt 0.445800 0.736260
vt 0.532386 0.704878
vt 0.472716 0.704543
vt 0.472145 0.806253
vt 0.584646 0.806885
vt 0.584913 0.759420
vt 0.587926 0.806904
vn -0.000000 1.000000 0.000000
vn -1.000000 0.000000 0.000000
vn 0.000000 0.000000 -1.000000
vn 1.000000 0.000000 0.000000
vn 0.000000 0.000000 1.000000
vn 0.000010 0.000000 1.000000
vn 0.000000 -1.000000 0.000000
vn 1.000000 0.000003 0.000002
vn -0.000000 -0.000001 1.000000
vn 0.000004 0.000000 -1.000000
vn 0.716863 0.000000 0.697214
vn -0.000004 0.000000 1.000000
vn 0.000000 -0.997868 0.065260
vn -0.686609 0.000000 -0.727027
vn -0.150082 -0.988674 0.000000
vn -0.114863 -0.986044 -0.120513
vn 0.000000 -0.992983 -0.118258
vn -0.120930 -0.992661 0.000000
vn 0.120930 -0.992661 0.000000
vn -0.689936 0.000000 -0.723870
vn 0.291888 -0.956453 0.000000
vn -0.000000 -0.993968 0.109674
vn -0.000064 -0.994375 -0.105919
vn 0.067208 -0.995595 0.065365
vn -0.000633 0.000000 1.000000
vn -0.000603 0.000000 -1.000000
vn 0.716864 0.000000 0.697213
vn 1.000000 0.000009 0.000000
vn 1.000000 0.000000 -0.000008
vn -0.000001 0.000000 1.000000
vn 0.716862 0.000000 0.697215
vn 0.000000 -0.997868 0.065261
vn -0.686608 0.000000 -0.727027
vn -0.100385 -0.989254 -0.106297
vn 0.120931 -0.992661 0.000000
vn -0.689937 0.000000 -0.723869
vn 0.291884 -0.956454 0.000000
vn -0.000070 -0.993818 0.111024
vn 0.000000 -0.994500 -0.104733
vn 0.067208 -0.995596 0.065366
vn -0.000604 0.000000 -1.000000
vn 0.716863 0.000000 0.697215
vn 0.000000 -1.000000 0.000003
f 12/1/1 6/2/1 10/3/1
f 22/4/2 25/5/2 16/6/2
f 25/7/3 24/8/3 11/9/3
f 21/10/4 17/11/4 1/12/4
f 1/13/3 17/14/3 22/15/3
f 4/16/3 20/17/3 23/18/3
f 18/19/5 19/20/5 3/21/5
f 19/22/4 20/23/4 4/24/4
f 31/25/2 32/26/2 29/27/2
f 34/28/3 37/29/3 23/30/3
f 30/31/6 31/32/6 13/33/6
f 30/31/7 28/34/7 32/35/7
f 30/36/8 26/37/8 24/38/8
f 36/39/7 37/40/7 34/41/7
f 10/42/4 23/43/4 35/44/4
f 33/45/9 27/46/9 35/47/9
f 33/48/2 34/41/2 6/49/2
f 35/50/5 21/51/5 8/52/5
f 46/53/10 50/54/10 48/55/10
f 38/56/11 43/57/11 45/58/11
f 43/57/12 47/59/12 49/60/12
f 40/61/13 70/62/13 77/63/13
f 60/64/2 61/65/2 58/66/2
f 40/67/4 51/68/4 38/56/4
f 53/69/5 52/70/5 51/71/5
f 41/72/2 39/73/2 52/74/2
f 41/72/14 46/53/14 44/75/14
f 41/72/15 53/76/15 77/77/15
f 41/72/16 71/78/16 74/79/16
f 59/80/4 56/81/4 55/82/4
f 60/83/5 57/84/5 55/85/5
f 60/83/17 56/86/17 62/87/17
f 62/87/5 66/88/5 68/89/5
f 59/80/18 63/90/18 62/91/18
f 61/65/19 60/64/19 64/92/19
f 68/93/1 66/94/1 67/95/1
f 63/90/4 67/96/4 66/97/4
f 64/92/2 68/98/2 69/99/2
f 70/62/5 78/100/5 85/101/5
f 77/77/2 85/102/2 79/103/2
f 74/79/20 71/78/20 79/103/20
f 42/104/21 72/105/21 70/106/21
f 45/58/22 49/60/22 75/107/22
f 46/53/23 74/79/23 76/108/23
f 45/58/24 73/109/24 72/105/24
f 82/110/1 81/111/1 83/112/1
f 79/113/1 85/114/1 78/115/1
f 80/116/1 81/111/1 82/110/1
f 72/105/4 80/117/4 78/118/4
f 73/109/25 75/107/25 83/119/25
f 74/120/26 82/121/26 84/122/26
f 73/109/27 81/123/27 80/117/27
f 11/124/1 5/125/1 13/126/1
f 24/127/4 87/128/4 86/129/4
f 92/130/3 93/131/3 89/132/3
f 93/133/4 92/134/4 90/135/4
f 87/136/5 91/137/5 90/138/5
f 2/139/2 88/140/2 89/141/2
f 14/142/1 12/1/1 10/3/1
f 9/143/2 22/4/2 16/6/2
f 16/144/3 25/7/3 11/9/3
f 8/145/4 21/10/4 1/12/4
f 9/146/3 1/13/3 22/15/3
f 10/147/3 4/16/3 23/18/3
f 2/148/5 18/19/5 3/21/5
f 3/149/4 19/22/4 4/24/4
f 15/150/2 13/151/2 31/25/2
f 7/152/3 6/153/3 34/28/3
f 27/154/2 15/150/2 31/25/2
f 31/25/2 29/27/2 27/154/2
f 5/155/6 30/31/6 13/33/6
f 26/156/3 7/152/3 34/28/3
f 34/28/3 23/30/3 26/156/3
f 31/32/7 30/31/7 32/35/7
f 26/37/4 30/36/4 7/157/4
f 28/158/28 30/36/28 24/38/28
f 14/159/29 10/42/29 35/44/29
f 30/36/4 5/160/4 7/157/4
f 33/48/7 36/39/7 34/41/7
f 27/46/30 33/45/30 15/161/30
f 36/162/5 33/45/5 35/47/5
f 14/163/5 35/50/5 8/52/5
f 33/45/30 12/164/30 15/161/30
f 12/165/2 33/48/2 6/49/2
f 44/75/10 46/53/10 48/55/10
f 42/104/31 38/56/31 45/58/31
f 45/58/12 43/57/12 49/60/12
f 53/69/32 40/61/32 77/63/32
f 57/166/2 60/64/2 58/66/2
f 42/104/4 40/67/4 38/56/4
f 40/61/5 53/69/5 51/71/5
f 53/76/2 41/72/2 52/74/2
f 39/73/33 41/72/33 44/75/33
f 71/78/15 41/72/15 77/77/15
f 46/53/34 41/72/34 74/79/34
f 54/167/4 59/80/4 55/82/4
f 56/86/5 60/83/5 55/85/5
f 64/168/17 60/83/17 62/87/17
f 64/168/5 62/87/5 68/89/5
f 56/81/18 59/80/18 62/91/18
f 65/169/35 61/65/35 64/92/35
f 69/170/1 68/93/1 67/95/1
f 62/91/4 63/90/4 66/97/4
f 65/169/2 64/92/2 69/99/2
f 77/63/5 70/62/5 85/101/5
f 71/78/2 77/77/2 79/103/2
f 82/171/36 74/79/36 79/103/36
f 40/67/37 42/104/37 70/106/37
f 73/109/38 45/58/38 75/107/38
f 50/54/39 46/53/39 76/108/39
f 42/104/40 45/58/40 72/105/40
f 84/172/1 82/110/1 83/112/1
f 80/116/1 79/113/1 78/115/1
f 79/113/1 80/116/1 82/110/1
f 70/106/4 72/105/4 78/118/4
f 81/123/25 73/109/25 83/119/25
f 76/173/41 74/120/41 84/122/41
f 72/105/42 73/109/42 80/117/42
f 16/174/1 13/126/1 12/175/1
f 6/176/1 3/177/1 10/178/1
f 13/126/1 15/179/1 12/175/1
f 14/180/1 8/181/1 1/182/1
f 1/182/1 9/183/1 16/174/1
f 86/184/1 90/185/1 92/186/1
f 3/177/1 4/187/1 10/178/1
f 14/180/1 16/174/1 12/175/1
f 14/180/1 1/182/1 16/174/1
f 86/184/1 92/186/1 88/188/1
f 2/189/1 6/176/1 7/190/1
f 5/125/1 88/188/1 2/189/1
f 11/124/1 86/184/1 88/188/1
f 7/190/1 5/125/1 2/189/1
f 16/174/1 11/124/1 13/126/1
f 11/191/4 24/127/4 86/129/4
f 88/192/3 92/130/3 89/132/3
f 5/125/1 11/124/1 88/188/1
f 6/176/1 2/189/1 3/177/1
f 91/193/4 93/133/4 90/135/4
f 86/194/5 87/136/5 90/138/5
f 18/195/2 2/139/2 89/141/2
f 24/196/7 18/197/7 89/198/7
f 18/197/7 23/199/7 19/200/7
f 91/201/7 87/202/7 93/203/7
f 25/204/7 22/205/7 17/206/7
f 17/206/7 21/207/7 35/208/7
f 87/202/7 89/198/7 93/203/7
f 25/204/7 17/206/7 35/208/7
f 18/197/7 24/196/7 23/199/7
f 87/202/7 24/196/7 89/198/7
f 35/208/7 23/199/7 25/204/7
f 23/199/7 20/209/7 19/200/7
f 23/199/43 24/196/43 25/204/43
