v 4.492819 0.029428 -1.230369
v 4.492819 0.029428 1.230369
v -4.492820 0.029428 1.230369
v -4.492818 0.029428 -1.230369
v 4.492821 2.329428 -1.230368
v 4.492816 2.329428 1.230370
v -4.492821 2.329428 1.230368
v -4.492819 2.329428 -1.230369
v -0.000002 2.329428 1.230369
v 0.000000 0.029428 1.230369
v -2.246412 2.329428 1.230369
v -2.246410 0.029428 1.230369
v 2.246410 0.029428 1.230369
v 2.246407 2.329428 1.230369
v -0.000003 2.329427 5.448186
v -0.000000 0.029428 5.448186
v -2.246412 2.329427 5.448186
v -2.246410 0.029428 5.448186
v 0.000001 2.329428 -1.230369
v 0.000001 0.029428 -1.230369
v -2.246409 2.329428 -1.230369
v -2.246408 0.029428 -1.230369
v 0.000002 2.329429 -4.764313
v 0.000001 0.029429 -4.764313
v -2.246409 2.329429 -4.764313
v -2.246408 0.029429 -4.764313
v 0.000002 2.329429 -6.661773
v 0.000002 0.029429 -6.661773
v -2.246408 2.329429 -6.661773
v -2.246408 0.029429 -6.661773
v -7.161988 2.329427 -4.764313
v -7.161987 0.029428 -4.764313
v -7.161987 2.329428 -6.661773
v -7.161987 0.029428 -6.661773
v 5.105636 2.329428 -4.764313
v 5.105635 0.029428 -4.764313
v 5.105636 2.329428 -6.661773
v 5.105636 0.029428 -6.661773
v -5.847470 0.029427 1.230368
v -5.847468 0.029427 -1.230371
v -5.847471 2.329427 1.230367
v -5.847469 2.329427 -1.230370
v -0.000003 2.329427 8.724029
v -0.000001 0.029427 8.724029
v -2.246413 2.329427 8.724029
v -2.246411 0.029427 8.724029
v -3.990360 2.329426 5.448186
v -3.990359 0.029426 5.448186
v -3.990361 2.329426 8.724029
v -3.990359 0.029426 8.724029
v 1.807263 2.329429 5.448186
v 1.807266 0.029429 5.448186
v 1.807263 2.329429 8.724029
v 1.807266 0.029429 8.724029
v 0.000002 2.329429 -10.336212
v 0.000002 0.029429 -10.336212
v -2.246408 2.329429 -10.336212
v -2.246407 0.029429 -10.336214
vt 0.806802 0.043172
vt 0.806802 0.085732
vt 0.636563 0.085732
vt 0.544313 0.515005
vt 0.544313 0.685243
vt 0.501754 0.685243
vt 0.500528 0.685243
vt 0.330289 0.685243
vt 0.330290 0.515005
vt 0.892057 0.685243
vt 0.849498 0.685243
vt 0.849498 0.515005
vt 0.831846 0.966347
vt 0.831846 0.992012
vt 0.661607 0.992012
vt 0.575263 0.686469
vt 0.660382 0.686469
vt 0.660382 0.856707
vt 0.894372 0.170851
vt 0.851812 0.170851
vt 0.851812 0.000613
vt 0.292410 0.342315
vt 0.000613 0.342315
vt 0.000613 0.172077
vt 0.850587 0.342315
vt 0.808027 0.342315
vt 0.808027 0.172077
vt 0.403799 0.999387
vt 0.403799 0.966347
vt 0.630428 0.966347
vt 0.585432 0.298603
vt 0.293635 0.298603
vt 0.293635 0.256043
vt 0.292409 0.818964
vt 0.292410 0.861523
vt 0.000613 0.861523
vt 0.292410 0.170851
vt 0.000613 0.170851
vt 0.000613 0.000613
vt 0.465099 0.245098
vt 0.465099 0.000613
vt 0.635338 0.000613
vt 0.823962 0.513779
vt 0.823962 0.343541
vt 0.866522 0.343541
vt 0.794103 0.686469
vt 0.925373 0.686469
vt 0.925373 0.779597
vt 0.661607 0.878778
vt 0.906093 0.878777
vt 0.906093 0.921337
vt 0.000613 0.906534
vt 0.245098 0.906534
vt 0.245098 0.949093
vt 0.256043 0.513779
vt 0.256043 0.343541
vt 0.500528 0.343541
vt 0.463874 0.254818
vt 0.293635 0.254818
vt 0.293635 0.000613
vt 0.794103 0.780823
vt 0.925373 0.780823
vt 0.925373 0.823382
vt 0.256043 0.862749
vt 0.387313 0.862749
vt 0.387313 0.905308
vt 0.661607 0.783198
vt 0.661607 0.686469
vt 0.792877 0.686469
vt 0.170851 0.686468
vt 0.170851 0.817739
vt 0.000613 0.817739
vt 0.661607 0.877552
vt 0.661607 0.784423
vt 0.792877 0.784423
vt 0.574038 0.779597
vt 0.403799 0.779597
vt 0.403799 0.686469
vt 0.822737 0.513779
vt 0.729608 0.513779
vt 0.729608 0.343541
vt 0.673218 0.515005
vt 0.804488 0.515005
vt 0.804488 0.685243
vt 0.535069 0.780823
vt 0.535069 0.877552
vt 0.403799 0.877552
vt 0.232335 0.783198
vt 0.232335 0.686469
vt 0.402573 0.686469
vt 0.232335 0.515005
vt 0.329064 0.515005
vt 0.329064 0.685243
vt 0.636563 0.172077
vt 0.806802 0.172077
vt 0.806802 0.342315
vt 0.867747 0.513779
vt 0.867747 0.343541
vt 0.893412 0.343541
vt 0.952263 0.856708
vt 0.926598 0.856707
vt 0.926598 0.686469
vt 0.228467 0.975983
vt 0.228467 0.950318
vt 0.398706 0.950319
vt 0.850587 0.170851
vt 0.808027 0.170851
vt 0.808027 0.000613
vt 0.888237 0.922562
vt 0.888237 0.965122
vt 0.661607 0.965122
vt 0.630428 0.965122
vt 0.403799 0.965122
vt 0.403799 0.922562
vt 0.227242 0.984558
vt 0.000613 0.984558
vt 0.000613 0.950318
vt 0.728383 0.513779
vt 0.501753 0.513779
vt 0.501753 0.343541
vt 0.402573 0.784423
vt 0.402573 0.817464
vt 0.175944 0.817464
vt 0.955782 0.172077
vt 0.955782 0.342315
vt 0.922742 0.342315
vt 0.893283 0.515005
vt 0.926323 0.515005
vt 0.926323 0.685243
vt 0.227242 0.685243
vt 0.000613 0.685243
vt 0.000613 0.515005
vt 0.293635 0.299828
vt 0.520264 0.299828
vt 0.520264 0.334068
vt 0.887277 0.172077
vt 0.921517 0.172077
vt 0.921517 0.342315
vt 0.886052 0.342315
vt 0.851812 0.342315
vt 0.851812 0.172077
vt 0.805713 0.515005
vt 0.848273 0.515005
vt 0.848272 0.685243
vt 0.000613 0.862749
vt 0.254818 0.862749
vt 0.254818 0.905308
vt 0.403799 0.878777
vt 0.658004 0.878777
vt 0.658004 0.921337
vt 0.000613 0.513779
vt 0.000613 0.343541
vt 0.254818 0.343541
vt 0.636563 0.128292
vt 0.806802 0.170851
vt 0.636563 0.043172
vt 0.806802 0.000613
vt 0.636563 0.000613
vt 0.636563 0.170851
vt 0.629433 0.515005
vt 0.671992 0.515005
vt 0.671992 0.685243
vt 0.586873 0.515005
vt 0.586873 0.685243
vt 0.501753 0.515005
vt 0.500528 0.515005
vt 0.892057 0.515005
vt 0.661607 0.966347
vt 0.575263 0.856707
vt 0.894371 0.000613
vt 0.292410 0.172077
vt 0.850587 0.172077
vt 0.630428 0.999387
vt 0.585432 0.256043
vt 0.000613 0.818964
vt 0.292410 0.000613
vt 0.635338 0.245098
vt 0.866522 0.513779
vt 0.794103 0.779597
vt 0.661607 0.921337
vt 0.000613 0.949093
vt 0.500528 0.513779
vt 0.463874 0.000613
vt 0.794103 0.823382
vt 0.256043 0.905308
vt 0.792877 0.783198
vt 0.000613 0.686468
vt 0.792877 0.877552
vt 0.574037 0.686469
vt 0.822737 0.343541
vt 0.673218 0.685243
vt 0.403799 0.780823
vt 0.402573 0.783198
vt 0.232335 0.685243
vt 0.636563 0.342315
vt 0.893412 0.513779
vt 0.952263 0.686469
vt 0.398706 0.975983
vt 0.850587 0.000613
vt 0.661607 0.922562
vt 0.630428 0.922562
vt 0.227242 0.950318
vt 0.728383 0.343541
vt 0.175944 0.784423
vt 0.922742 0.172077
vt 0.893283 0.685243
vt 0.227242 0.515005
vt 0.293635 0.334068
vt 0.887277 0.342315
vt 0.886052 0.172077
vt 0.805713 0.685243
vt 0.000613 0.905308
vt 0.403799 0.921337
vt 0.254818 0.513779
vn 0.000000 -1.000000 0.000000
vn 0.000000 1.000000 0.000000
vn 1.000000 0.000000 0.000000
vn -0.000000 0.000000 1.000000
vn 0.000000 0.000000 -1.000000
vn -1.000000 -0.000000 -0.000000
f 22/1/1 20/2/1 10/3/1
f 11/4/2 21/5/2 8/6/2
f 5/7/3 6/8/3 2/9/3
f 11/10/4 7/11/4 3/12/4
f 8/13/2 42/14/2 41/15/2
f 1/16/5 20/17/5 19/18/5
f 14/19/4 9/20/4 10/21/4
f 12/22/6 18/23/6 17/24/6
f 6/25/4 14/26/4 13/27/4
f 46/28/1 50/29/1 48/30/1
f 10/31/1 16/32/1 18/33/1
f 9/34/2 11/35/2 17/36/2
f 9/37/3 15/38/3 16/39/3
f 21/40/6 25/41/6 26/42/6
f 21/43/5 22/44/5 4/45/5
f 25/46/2 29/47/2 33/48/2
f 22/49/1 26/50/1 24/51/1
f 19/52/2 23/53/2 25/54/2
f 19/55/3 20/56/3 24/57/3
f 30/58/6 29/59/6 57/60/6
f 26/61/1 30/62/1 28/63/1
f 23/64/2 27/65/2 29/66/2
f 23/67/2 35/68/2 37/69/2
f 31/70/6 33/71/6 34/72/6
f 26/73/1 32/74/1 34/75/1
f 29/76/5 30/77/5 34/78/5
f 25/79/4 31/80/4 32/81/4
f 36/82/3 38/83/3 37/84/3
f 28/85/1 38/86/1 36/87/1
f 27/88/5 37/89/5 38/90/5
f 24/91/4 36/92/4 35/93/4
f 41/94/6 42/95/6 40/96/6
f 8/97/5 4/98/5 40/99/5
f 7/100/4 41/101/4 39/102/4
f 3/103/1 39/104/1 40/105/1
f 43/106/4 45/107/4 46/108/4
f 18/109/1 16/110/1 44/111/1
f 17/112/2 45/113/2 43/114/2
f 15/115/2 43/116/2 53/117/2
f 48/118/6 50/119/6 49/120/6
f 17/121/2 47/122/2 49/123/2
f 46/124/4 45/125/4 49/126/4
f 18/127/5 48/128/5 47/129/5
f 51/130/3 53/131/3 54/132/3
f 44/133/1 16/134/1 52/135/1
f 44/136/4 54/137/4 53/138/4
f 15/139/5 51/140/5 52/141/5
f 56/142/5 58/143/5 57/144/5
f 30/145/1 58/146/1 56/147/1
f 27/148/2 55/149/2 57/150/2
f 27/151/3 28/152/3 56/153/3
f 13/154/1 20/2/1 1/155/1
f 12/156/1 4/157/1 22/1/1
f 4/157/1 12/156/1 3/158/1
f 1/155/1 2/159/1 13/154/1
f 22/1/1 10/3/1 12/156/1
f 13/154/1 10/3/1 20/2/1
f 14/160/2 6/161/2 5/162/2
f 21/5/2 11/4/2 9/163/2
f 19/164/2 14/160/2 5/162/2
f 9/163/2 19/164/2 21/5/2
f 11/4/2 8/6/2 7/165/2
f 19/164/2 9/163/2 14/160/2
f 1/166/3 5/7/3 2/9/3
f 12/167/4 11/10/4 3/12/4
f 7/168/2 8/13/2 41/15/2
f 5/169/5 1/16/5 19/18/5
f 13/170/4 14/19/4 10/21/4
f 11/171/6 12/22/6 17/24/6
f 2/172/4 6/25/4 13/27/4
f 18/173/1 46/28/1 48/30/1
f 12/174/1 10/31/1 18/33/1
f 15/175/2 9/34/2 17/36/2
f 10/176/3 9/37/3 16/39/3
f 22/177/6 21/40/6 26/42/6
f 8/178/5 21/43/5 4/45/5
f 31/179/2 25/46/2 33/48/2
f 20/180/1 22/49/1 24/51/1
f 21/181/2 19/52/2 25/54/2
f 23/182/3 19/55/3 24/57/3
f 58/183/6 30/58/6 57/60/6
f 24/184/1 26/61/1 28/63/1
f 25/185/2 23/64/2 29/66/2
f 27/186/2 23/67/2 37/69/2
f 32/187/6 31/70/6 34/72/6
f 30/188/1 26/73/1 34/75/1
f 33/189/5 29/76/5 34/78/5
f 26/190/4 25/79/4 32/81/4
f 35/191/3 36/82/3 37/84/3
f 24/192/1 28/85/1 36/87/1
f 28/193/5 27/88/5 38/90/5
f 23/194/4 24/91/4 35/93/4
f 39/195/6 41/94/6 40/96/6
f 42/196/5 8/97/5 40/99/5
f 3/197/4 7/100/4 39/102/4
f 4/198/1 3/103/1 40/105/1
f 44/199/4 43/106/4 46/108/4
f 46/200/1 18/109/1 44/111/1
f 15/201/2 17/112/2 43/114/2
f 51/202/2 15/115/2 53/117/2
f 47/203/6 48/118/6 49/120/6
f 45/204/2 17/121/2 49/123/2
f 50/205/4 46/124/4 49/126/4
f 17/206/5 18/127/5 47/129/5
f 52/207/3 51/130/3 54/132/3
f 54/208/1 44/133/1 52/135/1
f 43/209/4 44/136/4 53/138/4
f 16/210/5 15/139/5 52/141/5
f 55/211/5 56/142/5 57/144/5
f 28/212/1 30/145/1 56/147/1
f 29/213/2 27/148/2 57/150/2
f 55/214/3 27/151/3 56/153/3