v 0.005000 0.035283 -0.016311
v 0.005000 0.035283 0.016022
v -0.005000 0.035283 0.016022
v -0.005000 0.035283 -0.016311
v 0.005000 0.044955 -0.008333
v 0.005000 0.044955 0.008333
v -0.005000 0.044955 0.008333
v -0.005000 0.044955 -0.008333
v 0.005000 0.019955 0.025000
v -0.005000 0.019955 0.025000
v 0.005000 0.044955 0.025000
v -0.005000 0.044955 0.025000
v 0.005000 0.019955 -0.025000
v -0.005000 0.019955 -0.025000
v 0.005000 0.044955 -0.025000
v -0.005000 0.044955 -0.025000
v 0.005000 -0.005045 0.016022
v -0.005000 -0.005045 0.016022
v 0.005000 -0.005045 0.025000
v -0.005000 -0.005045 0.025000
v 0.005000 0.019955 -0.016311
v -0.005000 0.019955 -0.016311
v 0.005000 0.019955 -0.025000
v -0.005000 0.019955 -0.025000
v 0.005000 -0.005045 -0.016311
v -0.005000 -0.005045 -0.016311
v 0.005000 -0.005045 -0.025000
v -0.005000 -0.005045 -0.025000
v 0.005000 0.096287 -0.008333
v 0.005000 0.096287 0.008333
v -0.005000 0.096287 0.008333
v -0.005000 0.096287 -0.008333
v -0.005000 0.071414 -0.008333
v -0.005000 0.071414 0.008333
v 0.005000 0.071414 0.008333
v 0.005000 0.071414 -0.008333
vt 0.484287 0.164712
vt 0.165705 0.164712
vt 0.165705 0.000496
vt 0.165705 0.934977
vt 0.165705 0.771593
vt 0.329920 0.771593
vt 0.736098 0.966843
vt 0.571883 0.966843
vt 0.496122 0.903308
vt 0.165705 0.606384
vt 0.329921 0.606384
vt 0.329921 0.770600
vt 0.165705 0.999504
vt 0.241466 0.935969
vt 0.405681 0.935969
vt 0.496122 0.008903
vt 0.660338 0.008902
vt 0.660338 0.173118
vt 0.825546 0.008902
vt 0.825546 0.173118
vt 0.661330 0.173118
vt 0.504767 0.474234
vt 0.496122 0.340494
vt 0.612240 0.456612
vt 0.574576 0.276090
vt 0.660021 0.174111
vt 0.660021 0.339502
vt 0.660338 0.737939
vt 0.496122 0.737939
vt 0.496122 0.573723
vt 0.676767 0.494125
vt 0.613233 0.572731
vt 0.613233 0.408515
vt 0.914994 0.737939
vt 0.826539 0.737939
vt 0.826539 0.573723
vt 0.914677 0.338327
vt 0.826222 0.439008
vt 0.826223 0.174111
vt 0.661014 0.338327
vt 0.661014 0.174111
vt 0.825230 0.174111
vt 0.165705 0.430602
vt 0.165705 0.165705
vt 0.329921 0.165705
vt 0.826539 0.903148
vt 0.826539 0.738932
vt 0.912149 0.738932
vt 0.826222 0.572302
vt 0.826222 0.441114
vt 0.827203 0.440001
vt 0.485280 0.000496
vt 0.649421 0.000497
vt 0.649421 0.003361
vt 0.000496 0.770600
vt 0.000496 0.669919
vt 0.164712 0.669919
vt 0.826539 0.008902
vt 0.912148 0.008902
vt 0.912148 0.173118
vt 0.495129 0.844869
vt 0.495129 0.930479
vt 0.330913 0.930479
vt 0.661330 0.737939
vt 0.661330 0.573723
vt 0.825546 0.573723
vt 0.000496 0.668926
vt 0.000496 0.504710
vt 0.164712 0.504710
vt 0.495129 0.679500
vt 0.330913 0.679500
vt 0.330913 0.515284
vt 0.495129 0.680492
vt 0.495129 0.843876
vt 0.330913 0.843876
vt 0.661330 0.902316
vt 0.661330 0.738932
vt 0.825546 0.738932
vt 0.660338 0.738932
vt 0.660338 0.902316
vt 0.496122 0.902316
vt 0.329921 0.431595
vt 0.329921 0.605392
vt 0.165705 0.605392
vt 0.495129 0.165705
vt 0.495129 0.339502
vt 0.330913 0.339502
vt 0.495129 0.340494
vt 0.495129 0.514291
vt 0.330913 0.514291
vt 0.164712 0.329921
vt 0.164712 0.503717
vt 0.000496 0.503717
vt 0.088951 0.265394
vt 0.000496 0.328928
vt 0.000496 0.164712
vt 0.484287 0.000496
vt 0.329921 0.934977
vt 0.814704 0.903308
vt 0.165705 0.770600
vt 0.484287 0.999504
vt 0.496122 0.173118
vt 0.661330 0.008902
vt 0.496122 0.572731
vt 0.660021 0.175602
vt 0.496122 0.339502
vt 0.574576 0.175602
vt 0.660338 0.573723
vt 0.777448 0.408515
vt 0.914994 0.573723
vt 0.914677 0.174111
vt 0.825230 0.338327
vt 0.329921 0.430602
vt 0.912149 0.903148
vt 0.890964 0.496163
vt 0.485280 0.003361
vt 0.164712 0.770600
vt 0.826539 0.173118
vt 0.330913 0.844869
vt 0.825546 0.737939
vt 0.164712 0.668926
vt 0.495129 0.515284
vt 0.330913 0.680492
vt 0.825546 0.902316
vt 0.496122 0.738932
vt 0.165705 0.431595
vt 0.330913 0.165705
vt 0.330913 0.340494
vt 0.000496 0.329921
vt 0.088951 0.000496
vt 0.164712 0.328928
vt 0.000496 0.000496
vn 0.000000 -1.000000 0.000000
vn -1.000000 0.000000 -0.000000
vn 1.000000 0.000000 0.000000
vn -0.000000 1.000000 0.000000
vn -0.000000 -0.000000 1.000000
vn 0.000000 0.000000 -1.000000
f 1/1/1 2/2/1 3/3/1
f 34/4/2 31/5/2 32/6/2
f 5/7/3 6/8/3 2/9/3
f 6/10/4 7/11/4 12/12/4
f 3/13/2 7/14/2 8/15/2
f 8/16/4 5/17/4 15/18/4
f 9/19/5 11/20/5 12/21/5
f 3/22/2 10/23/2 12/24/2
f 1/25/3 23/26/3 15/27/3
f 13/28/6 14/29/6 16/30/6
f 4/31/2 8/32/2 16/33/2
f 17/34/1 19/35/1 20/36/1
f 10/37/2 3/38/2 18/39/2
f 10/40/5 20/41/5 19/42/5
f 2/43/6 17/44/6 18/45/6
f 21/46/3 25/47/3 27/48/3
f 4/49/5 14/50/5 24/51/5
f 14/52/5 13/53/5 23/54/5
f 4/55/5 22/56/5 21/57/5
f 26/58/1 28/59/1 27/60/1
f 22/61/2 24/62/2 28/63/2
f 23/64/6 27/65/6 28/66/6
f 22/67/5 26/68/5 25/69/5
f 29/70/4 32/71/4 31/72/4
f 35/73/5 30/74/5 31/75/5
f 33/76/6 32/77/6 29/78/6
f 36/79/3 29/80/3 30/81/3
f 7/82/2 34/83/2 33/84/2
f 6/85/5 35/86/5 34/87/5
f 8/88/6 33/89/6 36/90/6
f 5/91/3 36/92/3 35/93/3
f 2/94/3 11/95/3 9/96/3
f 4/97/1 1/1/1 3/3/1
f 33/98/2 34/4/2 32/6/2
f 1/99/3 5/7/3 2/9/3
f 11/100/4 6/10/4 12/12/4
f 4/101/2 3/13/2 8/15/2
f 16/102/4 8/16/4 15/18/4
f 10/103/5 9/19/5 12/21/5
f 7/104/2 3/22/2 12/24/2
f 23/26/5 13/105/5 15/27/5
f 15/27/3 5/106/3 1/25/3
f 1/25/3 21/107/3 23/26/3
f 15/108/6 13/28/6 16/30/6
f 14/109/2 4/31/2 16/33/2
f 18/110/1 17/34/1 20/36/1
f 20/111/2 10/37/2 18/39/2
f 9/112/5 10/40/5 19/42/5
f 3/113/6 2/43/6 18/45/6
f 23/114/3 21/46/3 27/48/3
f 22/115/2 4/49/2 24/51/2
f 24/116/5 14/52/5 23/54/5
f 1/117/5 4/55/5 21/57/5
f 25/118/1 26/58/1 27/60/1
f 26/119/2 22/61/2 28/63/2
f 24/120/6 23/64/6 28/66/6
f 21/121/5 22/67/5 25/69/5
f 30/122/4 29/70/4 31/72/4
f 34/123/5 35/73/5 31/75/5
f 36/124/6 33/76/6 29/78/6
f 35/125/3 36/79/3 30/81/3
f 8/126/2 7/82/2 33/84/2
f 7/127/5 6/85/5 34/87/5
f 5/128/6 8/88/6 36/90/6
f 6/129/3 5/91/3 35/93/3
f 9/96/3 17/130/3 2/94/3
f 2/94/3 6/131/3 11/95/3
f 9/96/3 19/132/3 17/130/3
