v -0.500000 0.015001 0.750000
v 0.500000 0.015001 0.750000
v -0.500000 0.015001 -0.750000
v 0.500000 0.015001 -0.750000
v -0.500000 0.000001 0.750000
v 0.500000 0.000001 0.750000
v -0.500000 0.000001 -0.750000
v 0.500000 0.000001 -0.750000
vt 0.999900 0.000100
vt 0.999900 0.999900
vt 0.000100 0.999900
vt 0.000000 0.000000
vt 0.000100 0.000100
vn 0.000000 1.000000 0.000000
vn 0.000000 -1.000000 0.000000
vn -1.000000 0.000000 0.000000
vn 0.000000 0.000000 1.000000
vn 1.000000 0.000000 0.000000
vn 0.000000 0.000000 -1.000000
f 2/1/1 4/2/1 3/3/1
f 8/4/2 6/4/2 5/4/2
f 3/4/3 7/4/3 5/4/3
f 1/4/4 5/4/4 6/4/4
f 2/4/5 6/4/5 8/4/5
f 4/4/6 8/4/6 7/4/6
f 1/5/1 2/1/1 3/3/1
f 7/4/2 8/4/2 5/4/2
f 1/4/3 3/4/3 5/4/3
f 2/4/4 1/4/4 6/4/4
f 4/4/5 2/4/5 8/4/5
f 3/4/6 4/4/6 7/4/6
