v 0.300000 -0.000000 0.150000
v -0.300000 -0.000000 0.150000
v -0.300000 0.000000 -0.150000
v 0.300000 1.000000 -0.150000
v -0.300000 1.000000 -0.150000
v -0.300000 1.000000 0.150000
v 0.300000 1.000000 0.150000
v 0.300000 0.000000 -0.150000
vn 0.000000 -1.000000 -0.000000
vn 0.000000 1.000000 0.000000
vn 1.000000 0.000000 0.000000
vn -0.000000 -0.000000 1.000000
vn -1.000000 0.000000 0.000000
vn -0.000000 0.000000 -1.000000
vn 1.000000 -0.000000 -0.000000
vn -0.000000 -0.000000 1.000000
vn -1.000000 -0.000000 -0.000000
vn 0.000000 0.000000 -1.000000
f 1//1 2//1 3//1
f 4//2 5//2 6//2
f 7//3 1//3 4//3
f 7//4 6//4 2//4
f 2//5 6//5 5//5
f 8//6 3//6 5//6
f 8//1 1//1 3//1
f 7//2 4//2 6//2
f 4//7 1//7 8//7
f 1//8 7//8 2//8
f 3//9 2//9 5//9
f 4//10 8//10 5//10
