v -1.500000 0.000215 1.500000
v -1.500000 0.000215 -1.500000
v 1.500000 0.000215 -1.500000
v 1.500000 0.000215 1.500000
v -1.500000 1.740215 1.500000
v -1.500000 1.740215 -1.500000
v 1.500000 1.740215 -1.500000
v 1.500000 1.740215 1.500000
vn -1.000000 0.000000 0.000000
vn 0.000000 0.000000 -1.000000
vn 1.000000 0.000000 0.000000
vn 0.000000 0.000000 1.000000
vn 0.000000 -1.000000 0.000000
vn 0.000000 1.000000 0.000000
s off
f 5//1 6//1 2//1
f 7//2 3//2 2//2
f 7//3 8//3 4//3
f 5//4 1//4 4//4
f 2//5 3//5 4//5
f 7//6 6//6 5//6
f 1//1 5//1 2//1
f 6//2 7//2 2//2
f 3//3 7//3 4//3
f 8//4 5//4 4//4
f 1//5 2//5 4//5
f 8//6 7//6 5//6

