o Cube
v -0.043545 -1.728098 -3.313587
v -0.043545 -1.728098 0.234745
v -0.053655 -1.728098 0.234745
v -0.053655 -1.728098 -2.265255
v -0.043545 0.271902 -3.313586
v -0.043545 0.271902 0.234746
v -0.053655 0.271902 0.234745
v -0.053655 0.271902 -2.265255
v -0.043545 -1.728098 0.280690
v -0.053655 -1.728098 0.280690
v -0.043545 0.271902 0.280691
v -0.053655 0.271902 0.280690
v -0.043545 0.289891 0.234746
v -0.053655 0.289891 0.234745
v -0.043545 0.289891 0.280691
v -0.053655 0.289891 0.280690
v -0.043542 0.271902 -3.344474
v -0.053652 0.271902 -3.344476
v -0.043542 0.289891 -3.344474
v -0.053652 0.289891 -3.344476
v -0.043545 -1.728098 -3.344475
v -0.053655 -1.728098 -3.344475
v -0.043545 0.271902 -3.344474
v -0.053655 0.271902 -3.344475
v -0.043545 -1.763765 -2.265255
v -0.043545 -1.763765 0.234745
v -0.053655 -1.763765 0.234745
v -0.053655 -1.763765 -2.265255
v -0.043545 -1.763765 0.280690
v -0.053655 -1.763765 0.280690
v -0.043545 -1.763765 -3.344475
v -0.053655 -1.763765 -3.344475
v -0.037856 -1.728098 -3.313587
v -0.037856 -1.728098 0.234745
v -0.037856 0.271902 -3.313586
v -0.037856 0.271902 0.234746
v -0.037856 -1.728098 0.280690
v -0.037856 0.271902 0.280691
v -0.037856 0.289891 0.234746
v -0.037856 0.289891 0.280691
v -0.037853 0.271902 -3.344474
v -0.037853 0.289891 -3.344474
v -0.037856 -1.728098 -3.344474
v -0.037856 0.271902 -3.344474
v -0.037856 -1.763765 -2.265255
v -0.037856 -1.763765 0.234745
v -0.037856 -1.763765 0.280690
v -0.037856 -1.763765 -3.344474
vt 0.769178 0.617033
vt 0.769570 0.616633
vt 0.769783 0.620167
vt 0.763878 0.623088
vt 0.762570 0.628616
vt 0.756014 0.654975
vt 0.767142 0.007551
vt 0.767142 0.472054
vt 0.107858 0.472054
vt 0.755192 0.644566
vt 0.735098 0.627883
vt 0.720155 0.592777
vt 0.771923 0.621453
vt 0.763829 0.622748
vt 0.817613 0.643815
vt 0.777943 0.620787
vt 0.780133 0.628525
vt 0.763855 0.622084
vt 0.768340 0.614855
vt 0.770057 0.620112
vt 0.772289 0.620809
vt 0.802696 0.643029
vt 0.898757 0.612294
vt 0.987704 0.574653
vt 0.757676 0.617736
vt 0.818484 0.598445
vt 0.794187 0.610715
vt 0.136884 0.940359
vt 0.042300 0.900397
vt 0.201499 0.909831
vt 0.788348 0.646401
vt 0.764244 0.625410
vt 0.789060 0.616039
vt 0.793767 0.609579
vt 0.795533 0.606438
vt 0.764688 0.622600
vt 0.780782 0.625555
vt 0.789831 0.614369
vt 0.773991 0.615516
vt 0.866943 0.617941
vt 0.778623 0.623583
vt 0.768667 0.614317
vt 0.795343 0.602857
vt 0.213503 0.856384
vt 0.235464 0.911426
vt 0.768603 0.614513
vt 0.774350 0.612096
vt 0.767650 0.611826
vt 0.790533 0.612687
vt 0.793124 0.613247
vt 0.197354 0.870546
vt 0.107858 0.007551
vn 0.000041 0.000000 -1.000000
vn 0.000000 1.000000 0.000000
vn 1.000000 -0.000000 0.000000
vn -1.000000 0.000000 0.000000
vn 0.000000 1.000000 -0.000001
vn -0.000118 0.000000 1.000000
vn 0.000084 0.000000 -1.000000
vn -0.000018 0.000000 1.000000
vn 0.000026 0.000000 -1.000000
vn 0.000123 0.000000 -1.000000
vn -1.000000 0.000000 -0.000001
vn 0.000000 -1.000000 0.000000
vn 0.000047 0.000000 -1.000000
vn 0.000000 1.000000 0.000001
vn -0.000015 0.000000 1.000000
vn 0.000000 0.000000 -1.000000
vn 1.000000 0.000000 0.000001
vn 1.000000 0.000020 0.000001
vn 0.000000 -0.000000 1.000000
vn -0.000031 -0.000000 1.000000
vn -0.000028 0.000000 1.000000
vn -0.000012 -0.000000 1.000000
vn -0.000027 0.000000 1.000000
vn 0.000082 0.000000 -1.000000
vn -0.000010 0.000000 1.000000
vn 0.000147 0.000000 -1.000000
s off
f 21/1/1 31/2/1 32/3/1
f 5/4/2 8/5/2 7/6/2
f 1/7/3 5/8/3 6/9/3
f 12/10/4 16/11/4 14/12/4
f 7/6/4 8/5/4 4/13/4
f 8/5/5 5/4/5 23/14/5
f 11/15/6 12/10/6 10/16/6
f 3/17/4 10/16/4 12/10/4
f 23/14/7 44/18/7 43/19/7
f 22/20/4 32/3/4 28/21/4
f 14/12/2 16/11/2 15/22/2
f 11/15/8 38/23/8 40/24/8
f 11/15/6 15/22/6 16/11/6
f 6/25/9 36/26/9 34/27/9
f 18/28/10 20/29/10 19/30/10
f 14/12/11 20/29/11 18/28/11
f 13/31/2 19/30/2 20/29/2
f 6/25/12 7/6/12 18/28/12
f 21/1/13 22/20/13 24/32/13
f 8/5/4 24/32/4 22/20/4
f 26/33/12 46/34/12 47/35/12
f 23/14/14 5/4/14 35/36/14
f 26/33/12 27/37/12 28/21/12
f 27/37/12 26/33/12 29/38/12
f 25/39/12 28/21/12 32/3/12
f 19/30/2 13/31/2 39/40/2
f 3/17/4 27/37/4 30/41/4
f 10/16/15 30/41/15 29/38/15
f 4/13/4 28/21/4 27/37/4
f 21/1/16 43/19/16 48/42/16
f 36/26/3 38/23/3 37/43/3
f 36/26/3 39/40/3 40/24/3
f 36/26/17 41/44/17 42/45/17
f 33/46/17 43/19/17 44/18/17
f 43/19/18 33/46/18 45/47/18
f 37/43/3 47/35/3 46/34/3
f 33/46/3 34/27/3 46/34/3
f 1/48/19 33/46/19 35/36/19
f 9/49/20 37/43/20 38/23/20
f 29/38/21 47/35/21 37/43/21
f 1/48/2 2/50/2 34/27/2
f 13/31/2 15/22/2 40/24/2
f 6/25/12 17/51/12 41/44/12
f 25/39/12 45/47/12 46/34/12
f 19/30/16 42/45/16 41/44/16
f 31/2/12 48/42/12 45/47/12
f 22/20/16 21/1/16 32/3/16
f 6/25/2 5/4/2 7/6/2
f 2/52/3 1/7/3 6/9/3
f 7/6/4 12/10/4 14/12/4
f 3/17/4 7/6/4 4/13/4
f 24/32/2 8/5/2 23/14/2
f 9/49/22 11/15/22 10/16/22
f 7/6/4 3/17/4 12/10/4
f 21/1/16 23/14/16 43/19/16
f 4/13/4 22/20/4 28/21/4
f 13/31/2 14/12/2 15/22/2
f 15/22/23 11/15/23 40/24/23
f 12/10/6 11/15/6 16/11/6
f 2/50/9 6/25/9 34/27/9
f 17/51/24 18/28/24 19/30/24
f 7/6/11 14/12/11 18/28/11
f 14/12/2 13/31/2 20/29/2
f 17/51/12 6/25/12 18/28/12
f 23/14/13 21/1/13 24/32/13
f 4/13/4 8/5/4 22/20/4
f 29/38/12 26/33/12 47/35/12
f 44/18/5 23/14/5 35/36/5
f 25/39/12 26/33/12 28/21/12
f 30/41/12 27/37/12 29/38/12
f 31/2/12 25/39/12 32/3/12
f 42/45/2 19/30/2 39/40/2
f 10/16/4 3/17/4 30/41/4
f 9/49/25 10/16/25 29/38/25
f 3/17/4 4/13/4 27/37/4
f 31/2/26 21/1/26 48/42/26
f 34/27/3 36/26/3 37/43/3
f 38/23/3 36/26/3 40/24/3
f 39/40/17 36/26/17 42/45/17
f 35/36/17 33/46/17 44/18/17
f 48/42/3 43/19/3 45/47/3
f 34/27/3 37/43/3 46/34/3
f 45/47/3 33/46/3 46/34/3
f 5/4/19 1/48/19 35/36/19
f 11/15/20 9/49/20 38/23/20
f 9/49/21 29/38/21 37/43/21
f 33/46/2 1/48/2 34/27/2
f 39/40/2 13/31/2 40/24/2
f 36/26/12 6/25/12 41/44/12
f 26/33/12 25/39/12 46/34/12
f 17/51/16 19/30/16 41/44/16
f 25/39/12 31/2/12 45/47/12
