v -0.112750 -2.578666 -0.011413
v -0.091217 -2.578666 -0.090417
v -0.109460 -2.612027 -0.106218
v 0.000000 -0.004677 -0.011413
v -0.091217 -0.004677 -0.090417
v -0.112750 -0.004677 -0.011413
v -0.034841 -2.578666 -0.139244
v -0.041810 -2.612027 -0.164811
v -0.034841 -0.004677 -0.139244
v 0.034841 -2.578666 -0.139244
v 0.041810 -2.612027 -0.164811
v 0.034841 -0.004677 -0.139244
v 0.091217 -2.578666 -0.090417
v 0.109460 -2.612027 -0.106218
v 0.091217 -0.004677 -0.090417
v 0.112750 -2.578666 -0.011413
v 0.135300 -2.612027 -0.011413
v 0.112750 -0.004677 -0.011413
v 0.091217 -2.578666 0.067591
v 0.109460 -2.612027 0.083393
v 0.091217 -0.004677 0.067592
v 0.034841 -2.578666 0.116420
v 0.041810 -2.612027 0.141986
v 0.034841 -0.004677 0.116420
v -0.034841 -2.578666 0.116420
v -0.041810 -2.612027 0.141986
v -0.034841 -0.004677 0.116420
v -0.091217 -2.578666 0.067591
v -0.109460 -2.612027 0.083393
v -0.091217 -0.004677 0.067592
v -0.135300 -2.612027 -0.011413
v -0.109460 -2.645390 -0.106218
v -0.135300 -2.645390 -0.011413
v -0.041810 -2.645390 -0.164811
v 0.041810 -2.645390 -0.164811
v 0.109460 -2.645390 -0.106218
v 0.135300 -2.645390 -0.011413
v 0.109460 -2.645390 0.083393
v 0.041810 -2.645390 0.141986
v -0.041810 -2.645390 0.141986
v -0.109460 -2.645390 0.083393
v -0.087568 -2.678751 -0.087257
v -0.108240 -2.678751 -0.011413
v -0.033448 -2.678751 -0.134131
v 0.033448 -2.678751 -0.134131
v 0.087568 -2.678751 -0.087257
v 0.108240 -2.678751 -0.011413
v 0.087568 -2.678751 0.064432
v 0.033448 -2.678751 0.111305
v -0.033448 -2.678751 0.111305
v -0.087568 -2.678751 0.064432
v -0.017513 -2.859935 -0.026582
v -0.021648 -2.859935 -0.011413
v -0.033448 -2.811959 -0.134131
v -0.033448 -2.845980 -0.205322
v 0.033448 -2.845980 -0.205322
v 0.017513 -2.859935 -0.026582
v 0.021648 -2.859935 -0.011413
v 0.017513 -2.859935 0.003755
v 0.033448 -2.811959 0.111305
v 0.033448 -2.845980 0.176755
v -0.033448 -2.845980 0.176755
v -0.017513 -2.859935 0.003755
v 0.000000 -2.910548 -0.011413
v 0.033448 -2.811959 -0.134131
v -0.033448 -2.811959 0.111305
v -0.033448 -2.845980 -0.922089
v -0.033448 -3.119677 -0.674448
v -0.033448 -2.912254 -0.175280
v -0.033448 -2.792051 0.176755
v 0.033448 -2.792051 0.176755
v 0.033448 -2.792051 -0.205322
v -0.033448 -2.792051 -0.205322
v 0.033448 -2.586405 1.000394
v 0.033448 -2.845980 0.893523
v -0.033448 -2.586405 1.000394
v -0.033448 -2.845980 0.893523
v -0.033448 -3.119677 0.645881
v -0.033448 -3.261362 0.255704
v 0.000000 -3.387177 0.255558
v 0.000000 -2.712219 1.000250
v 0.000000 -2.712219 1.000250
v 0.033448 -2.586951 -1.028961
v 0.033448 -2.845980 -0.922089
v -0.033448 -2.586951 -1.028961
v -0.033448 -3.261362 -0.305122
v -0.033448 -2.955640 -0.083744
v 0.033448 -2.912254 -0.175280
v 0.033448 -3.261362 0.255703
v 0.000000 -3.387177 0.255558
v 0.000000 -3.387177 -0.305267
v 0.033448 -3.119677 -0.674448
v 0.033448 -2.955640 -0.083744
v 0.000000 -3.245494 -0.674593
v 0.000000 -3.387177 -0.305267
v -0.033448 -2.959564 0.034325
v 0.033448 -2.959564 0.034325
v 0.000000 -3.245494 0.645736
v -0.033448 -2.922532 0.133826
v 0.033448 -2.922532 0.133826
v 0.033448 -3.119677 0.645881
v 0.000000 -2.971797 -0.922234
v 0.033448 -2.845980 0.176755
v 0.000000 -3.245494 -0.674593
v -0.033448 -2.845980 0.176755
v 0.000000 -2.971797 0.893377
v 0.000000 -2.712766 -1.029106
v 0.000000 -2.712766 -1.029106
v 0.000000 -2.971797 -0.922234
v 0.000000 -2.971797 0.893377
v 0.000000 -3.245494 0.645736
v 0.033448 -3.261362 -0.305122
vt 0.118828 0.129066
vt 0.095783 0.128869
vt 0.096146 0.116601
vt 0.289322 0.936295
vt 0.311128 0.906281
vt 0.324605 0.924831
vt 0.118386 0.999436
vt 0.096298 0.999449
vt 0.072742 0.128516
vt 0.073197 0.116204
vt 0.289322 0.899196
vt 0.074207 0.999491
vt 0.049602 0.128060
vt 0.050153 0.115607
vt 0.267516 0.906281
vt 0.052114 0.999563
vt 0.026155 0.127581
vt 0.026707 0.114526
vt 0.254039 0.924831
vt 0.030016 0.999664
vt 0.002255 0.127547
vt 0.000188 0.113167
vt 0.254039 0.947759
vt 0.006727 0.999783
vt 0.234733 0.128061
vt 0.211353 0.127397
vt 0.211507 0.115097
vt 0.267516 0.966308
vt 0.228825 0.999812
vt 0.206735 0.999677
vt 0.188100 0.127961
vt 0.188007 0.115624
vt 0.289322 0.973394
vt 0.184647 0.999572
vt 0.164901 0.128454
vt 0.164858 0.116135
vt 0.311128 0.966308
vt 0.162559 0.999498
vt 0.141808 0.128821
vt 0.141828 0.116553
vt 0.324605 0.947759
vt 0.140473 0.999452
vt 0.119036 0.116878
vt 0.096076 0.106984
vt 0.118823 0.107405
vt 0.073198 0.106563
vt 0.050286 0.105924
vt 0.027152 0.104599
vt 0.001424 0.101424
vt 0.210955 0.105140
vt 0.237561 0.103492
vt 0.187507 0.105902
vt 0.164428 0.106464
vt 0.141431 0.106930
vt 0.096570 0.093477
vt 0.118910 0.094441
vt 0.073651 0.093069
vt 0.050928 0.092583
vt 0.028557 0.091520
vt 0.006501 0.087868
vt 0.210037 0.091137
vt 0.233377 0.088308
vt 0.187159 0.092256
vt 0.164263 0.092845
vt 0.141257 0.093305
vt 0.114095 0.026060
vt 0.118610 0.026593
vt 0.815259 0.636536
vt 0.815259 0.592097
vt 0.841120 0.569824
vt 0.696871 0.591835
vt 0.674179 0.591835
vt 0.674179 0.569824
vt 0.775584 0.636536
vt 0.753573 0.636536
vt 0.749724 0.569824
vt 0.026314 0.022955
vt 0.210860 0.019763
vt 0.215528 0.019198
vt 0.697247 0.627950
vt 0.716410 0.587855
vt 0.749347 0.578910
vt 0.852717 0.546438
vt 0.852717 0.525103
vt 0.874728 0.525103
vt 0.530566 0.618072
vt 0.530566 0.596061
vt 0.597279 0.592212
vt 0.118459 0.007854
vt 0.610440 0.592212
vt 0.623225 0.605341
vt 0.621446 0.639425
vt 0.599435 0.639425
vt 0.597655 0.605341
vt 0.031538 0.005091
vt 0.030725 0.023686
vt 0.210856 0.000188
vt 0.636387 0.592212
vt 0.649172 0.605341
vt 0.647393 0.639425
vt 0.625381 0.639425
vt 0.623602 0.605341
vt 0.123026 0.025999
vt 0.955326 0.787257
vt 0.887072 0.877181
vt 0.749774 0.806735
vt 0.851681 0.569448
vt 0.809839 0.569448
vt 0.809839 0.547464
vt 0.575006 0.618072
vt 0.586356 0.636137
vt 0.697247 0.586057
vt 0.705005 0.569824
vt 0.530566 0.525103
vt 0.573114 0.525103
vt 0.573114 0.547087
vt 0.775584 0.592097
vt 0.795234 0.580747
vt 0.795610 0.598738
vt 0.795610 0.580747
vt 0.646511 0.350516
vt 0.417411 0.414941
vt 0.449575 0.329443
vt 0.572673 0.569448
vt 0.421875 0.701987
vt 0.650975 0.766412
vt 0.454040 0.787486
vt 0.522493 0.877404
vt 0.630154 0.924218
vt 0.629993 0.967862
vt 0.530566 0.559189
vt 0.530752 0.558456
vt 0.810228 0.525103
vt 0.753862 0.332380
vt 0.950862 0.329671
vt 0.982841 0.414941
vt 0.758326 0.784549
vt 0.758585 0.766485
vt 0.987305 0.701987
vt 0.785382 0.924115
vt 0.724205 0.821263
vt 0.745310 0.310193
vt 0.625690 0.192710
vt 0.625528 0.149066
vt 0.781275 0.149275
vt 0.650566 0.591835
vt 0.882608 0.239747
vt 0.719741 0.295665
vt 0.888245 0.920470
vt 0.785739 0.967653
vt 0.621449 0.591835
vt 0.621449 0.569824
vt 0.691296 0.822502
vt 0.686832 0.294426
vt 0.521466 0.920752
vt 0.588834 0.591835
vt 0.663473 0.810132
vt 0.659009 0.306796
vt 0.518028 0.239524
vt 0.952885 0.286766
vt 0.588834 0.569824
vt 0.558719 0.591835
vt 0.646796 0.332431
vt 0.883781 0.196457
vt 0.558719 0.569824
vt 0.530566 0.591835
vt 0.452145 0.830443
vt 0.852341 0.535364
vt 0.852149 0.536095
vt 0.957349 0.830162
vt 0.447681 0.286485
vt 0.517002 0.196176
vt 0.989731 0.745553
vt 0.780918 0.192813
vt 0.415113 0.371313
vt 0.237561 0.115276
vt 0.837271 0.636536
vt 0.696871 0.569824
vt 0.717107 0.637441
vt 0.874728 0.546438
vt 0.851681 0.547464
vt 0.568365 0.636137
vt 0.530566 0.547087
vt 0.795234 0.598738
vt 0.647039 0.334598
vt 0.572673 0.547464
vt 0.651527 0.783025
vt 0.651260 0.784498
vt 0.810228 0.547087
vt 0.754121 0.350443
vt 0.650566 0.569824
vt 0.985267 0.371375
vt 0.530566 0.569824
vt 0.419578 0.745615
vn -0.808100 0.546300 -0.220300
vn 0.000000 1.000000 0.000000
vn -0.964800 0.000000 -0.263000
vn -0.532300 0.582200 -0.614600
vn -0.654700 0.000000 -0.755900
vn 0.000000 0.608300 -0.793700
vn 0.000000 0.000000 -1.000000
vn 0.532300 0.582200 -0.614600
vn 0.654700 0.000000 -0.755900
vn 0.808100 0.546300 -0.220300
vn 0.964800 0.000000 -0.263000
vn 0.808100 0.546300 0.220300
vn 0.964800 -0.000000 0.263000
vn 0.532300 0.582200 0.614600
vn 0.654700 -0.000000 0.755900
vn 0.000000 0.608300 0.793700
vn 0.000000 -0.000000 1.000000
vn -0.532300 0.582200 0.614600
vn -0.654700 -0.000000 0.755900
vn -0.808100 0.546300 0.220300
vn -0.964800 -0.000000 0.263000
vn -0.759800 -0.616300 -0.207100
vn -0.496600 -0.651700 -0.573300
vn 0.000000 -0.676900 -0.736100
vn 0.496600 -0.651700 -0.573300
vn 0.759800 -0.616300 -0.207100
vn 0.759800 -0.616300 0.207100
vn 0.496500 -0.651700 0.573300
vn 0.000000 -0.676900 0.736000
vn -0.496600 -0.651700 0.573300
vn -0.759800 -0.616300 0.207100
vn -0.876100 -0.418700 -0.238800
vn -0.989200 -0.000000 0.146600
vn 0.000000 -0.902300 0.431200
vn 0.584100 -0.451700 -0.674400
vn 0.876100 -0.418700 -0.238800
vn 0.876100 -0.418700 0.238800
vn 0.989200 0.000000 -0.146600
vn 0.000000 -0.887300 -0.461200
vn -0.584100 -0.451700 0.674400
vn -0.876100 -0.418700 0.238800
vn -0.891800 -0.381500 -0.243100
vn -0.944400 -0.328800 -0.006800
vn 0.000000 -0.779600 -0.626300
vn 0.944400 -0.328800 -0.006800
vn 0.891800 -0.381500 -0.243100
vn 0.891800 -0.381500 0.243100
vn 0.944400 -0.328800 0.006800
vn 0.000000 -0.779600 0.626300
vn -0.944400 -0.328800 0.006800
vn -0.891800 -0.381500 0.243100
vn -1.000000 0.000000 0.000000
vn 0.000000 0.500200 0.865900
vn 1.000000 0.000000 0.000000
vn 0.000000 0.532000 -0.846700
vn 0.000000 0.970200 -0.242200
vn -0.962200 -0.255900 0.092900
vn 0.000000 0.970400 0.241600
vn 0.966400 -0.256900 0.000000
vn 0.000000 0.412900 0.910800
vn -0.961800 -0.255600 -0.098000
vn 0.000000 0.903600 0.428300
vn -0.929500 -0.247400 0.273500
vn 0.000000 0.999400 0.033200
vn 0.821100 -0.217700 -0.527600
vn 0.000000 0.937200 -0.348800
vn 0.929800 -0.246900 -0.272900
vn 0.000000 0.489100 -0.872200
vn -0.819100 -0.218400 0.530400
vn -0.929800 -0.246900 -0.272900
vn 0.929500 -0.247400 0.273500
vn -0.821100 -0.217700 -0.527600
vn 0.961800 -0.255600 -0.098000
vn -0.966400 -0.256900 0.000000
vn 0.819100 -0.218400 0.530400
vn 0.962200 -0.255900 0.092900
vn 0.496600 -0.651700 0.573300
vn 0.000000 -0.676900 0.736100
vn -0.496500 -0.651700 0.573300
vn -0.584100 -0.451700 -0.674400
vn 0.989200 -0.000000 0.146600
vn 0.584100 -0.451700 0.674400
vn -0.989200 0.000000 -0.146600
vn 0.000000 -0.001200 1.000000
vn 0.000000 0.001200 -1.000000
s off
f 1/1/1 2/2/1 3/3/1
f 4/4/2 5/5/2 6/6/2
f 6/7/3 5/8/3 2/2/3
f 2/2/4 7/9/4 8/10/4
f 4/4/2 9/11/2 5/5/2
f 5/8/5 9/12/5 7/9/5
f 10/13/6 11/14/6 8/10/6
f 4/4/2 12/15/2 9/11/2
f 9/12/7 12/16/7 10/13/7
f 13/17/8 14/18/8 11/14/8
f 4/4/2 15/19/2 12/15/2
f 12/16/9 15/20/9 13/17/9
f 16/21/10 17/22/10 14/18/10
f 4/4/2 18/23/2 15/19/2
f 15/20/11 18/24/11 16/21/11
f 16/25/12 19/26/12 20/27/12
f 4/4/2 21/28/2 18/23/2
f 18/29/13 21/30/13 19/26/13
f 19/26/14 22/31/14 23/32/14
f 4/4/2 24/33/2 21/28/2
f 21/30/15 24/34/15 22/31/15
f 22/31/16 25/35/16 26/36/16
f 4/4/2 27/37/2 24/33/2
f 24/34/17 27/38/17 25/35/17
f 28/39/18 29/40/18 26/36/18
f 4/4/2 30/41/2 27/37/2
f 27/38/19 30/42/19 28/39/19
f 1/1/20 31/43/20 29/40/20
f 4/4/2 6/6/2 30/41/2
f 6/7/21 1/1/21 30/42/21
f 3/3/3 32/44/3 33/45/3
f 8/10/5 34/46/5 32/44/5
f 8/10/7 11/14/7 35/47/7
f 14/18/9 36/48/9 35/47/9
f 17/22/11 37/49/11 36/48/11
f 20/27/13 38/50/13 37/51/13
f 23/32/15 39/52/15 38/50/15
f 26/36/17 40/53/17 39/52/17
f 29/40/19 41/54/19 40/53/19
f 31/43/21 33/45/21 41/54/21
f 32/44/22 42/55/22 43/56/22
f 34/46/23 44/57/23 42/55/23
f 35/47/24 45/58/24 44/57/24
f 35/47/25 36/48/25 46/59/25
f 36/48/26 37/49/26 47/60/26
f 38/50/27 48/61/27 47/62/27
f 39/52/28 49/63/28 48/61/28
f 40/53/29 50/64/29 49/63/29
f 40/53/30 41/54/30 51/65/30
f 41/54/31 33/45/31 43/56/31
f 42/55/32 52/66/32 53/67/32
f 44/68/33 54/69/33 52/70/33
f 54/71/34 55/72/34 56/73/34
f 45/74/35 46/75/35 57/76/35
f 46/59/36 47/60/36 58/77/36
f 48/61/37 59/78/37 58/79/37
f 49/80/38 60/81/38 59/82/38
f 60/83/39 61/84/39 62/85/39
f 50/86/40 51/87/40 63/88/40
f 51/65/41 43/56/41 53/67/41
f 64/89/42 53/67/42 52/66/42
f 64/90/43 52/91/43 54/92/43
f 64/90/44 54/92/44 65/93/44
f 64/90/45 65/93/45 57/94/45
f 64/95/46 57/96/46 58/77/46
f 64/97/47 58/79/47 59/78/47
f 64/98/48 59/99/48 60/100/48
f 64/98/49 60/100/49 66/101/49
f 64/98/50 66/101/50 63/102/50
f 64/89/51 63/103/51 53/67/51
f 67/104/52 68/105/52 69/106/52
f 50/107/53 70/108/53 71/109/53
f 50/86/52 66/110/52 62/111/52
f 49/80/54 71/112/54 61/113/54
f 45/114/55 72/115/55 73/116/55
f 45/74/54 65/117/54 56/118/54
f 44/68/52 73/119/52 55/120/52
f 71/121/54 74/122/54 75/123/54
f 71/109/56 70/108/56 76/124/56
f 76/125/52 70/126/52 77/127/52
f 78/128/57 79/129/57 80/130/57
f 76/124/17 81/131/17 82/132/17
f 73/116/58 72/115/58 83/133/58
f 56/134/54 84/135/54 83/136/54
f 55/137/52 73/138/52 85/139/52
f 68/105/52 86/140/52 87/141/52
f 84/135/54 56/134/54 88/142/54
f 89/143/59 90/144/59 91/145/59
f 56/73/60 55/72/60 69/146/60
f 87/141/52 86/140/52 79/129/52
f 92/147/54 88/142/54 93/148/54
f 68/105/61 94/149/61 95/150/61
f 69/146/62 87/151/62 93/152/62
f 96/153/52 79/129/52 78/128/52
f 93/148/54 97/154/54 89/143/54
f 77/127/63 78/128/63 98/155/63
f 93/152/64 87/151/64 96/156/64
f 99/157/52 78/128/52 77/127/52
f 97/154/54 100/158/54 101/159/54
f 83/136/65 84/135/65 102/160/65
f 97/161/66 96/156/66 99/162/66
f 100/158/54 103/163/54 75/123/54
f 84/135/67 92/147/67 104/164/67
f 100/165/68 99/162/68 105/166/68
f 76/125/69 77/127/69 106/167/69
f 83/133/17 107/168/17 108/169/17
f 67/104/70 109/170/70 94/149/70
f 75/123/71 110/171/71 111/172/71
f 85/139/72 108/173/72 109/170/72
f 92/147/73 112/174/73 91/145/73
f 79/129/74 86/140/74 95/150/74
f 74/122/75 82/175/75 110/171/75
f 101/159/76 111/172/76 90/144/76
f 31/43/1 1/1/1 3/3/1
f 1/1/3 6/7/3 2/2/3
f 3/3/4 2/2/4 8/10/4
f 2/2/5 5/8/5 7/9/5
f 7/9/6 10/13/6 8/10/6
f 7/9/7 9/12/7 10/13/7
f 10/13/8 13/17/8 11/14/8
f 10/13/9 12/16/9 13/17/9
f 13/17/10 16/21/10 14/18/10
f 13/17/11 15/20/11 16/21/11
f 17/176/12 16/25/12 20/27/12
f 16/25/13 18/29/13 19/26/13
f 20/27/14 19/26/14 23/32/14
f 19/26/15 21/30/15 22/31/15
f 23/32/16 22/31/16 26/36/16
f 22/31/17 24/34/17 25/35/17
f 25/35/18 28/39/18 26/36/18
f 25/35/19 27/38/19 28/39/19
f 28/39/20 1/1/20 29/40/20
f 30/42/21 1/1/21 28/39/21
f 31/43/3 3/3/3 33/45/3
f 3/3/5 8/10/5 32/44/5
f 34/46/7 8/10/7 35/47/7
f 11/14/9 14/18/9 35/47/9
f 14/18/11 17/22/11 36/48/11
f 17/176/13 20/27/13 37/51/13
f 20/27/15 23/32/15 38/50/15
f 23/32/17 26/36/17 39/52/17
f 26/36/19 29/40/19 40/53/19
f 29/40/21 31/43/21 41/54/21
f 33/45/22 32/44/22 43/56/22
f 32/44/23 34/46/23 42/55/23
f 34/46/24 35/47/24 44/57/24
f 45/58/25 35/47/25 46/59/25
f 46/59/26 36/48/26 47/60/26
f 37/51/27 38/50/27 47/62/27
f 38/50/77 39/52/77 48/61/77
f 39/52/78 40/53/78 49/63/78
f 50/64/79 40/53/79 51/65/79
f 51/65/31 41/54/31 43/56/31
f 43/56/32 42/55/32 53/67/32
f 42/177/80 44/68/80 52/70/80
f 65/178/34 54/71/34 56/73/34
f 65/117/81 45/74/81 57/76/81
f 57/96/36 46/59/36 58/77/36
f 47/62/37 48/61/37 58/79/37
f 48/179/82 49/80/82 59/82/82
f 66/180/39 60/83/39 62/85/39
f 66/110/83 50/86/83 63/88/83
f 63/103/41 51/65/41 53/67/41
f 55/137/52 67/104/52 69/106/52
f 49/181/53 50/107/53 71/109/53
f 70/182/52 50/86/52 62/111/52
f 60/81/54 49/80/54 61/113/54
f 44/183/55 45/114/55 73/116/55
f 72/184/54 45/74/54 56/118/54
f 54/69/52 44/68/52 55/120/52
f 103/163/17 61/185/17 71/121/17
f 74/186/56 71/109/56 76/124/56
f 71/121/54 75/123/54 103/163/54
f 70/126/17 62/187/17 105/188/17
f 98/155/57 78/128/57 80/130/57
f 74/186/84 76/124/84 82/132/84
f 70/126/52 105/188/52 77/127/52
f 85/189/58 73/116/58 83/133/58
f 72/190/54 56/134/54 83/136/54
f 67/104/52 55/137/52 85/139/52
f 69/106/52 68/105/52 87/141/52
f 92/147/54 84/135/54 88/142/54
f 112/174/59 89/143/59 91/145/59
f 88/191/60 56/73/60 69/146/60
f 96/153/52 87/141/52 79/129/52
f 112/174/54 92/147/54 93/148/54
f 86/140/61 68/105/61 95/150/61
f 88/191/62 69/146/62 93/152/62
f 99/157/52 96/153/52 78/128/52
f 112/174/54 93/148/54 89/143/54
f 106/167/63 77/127/63 98/155/63
f 97/161/64 93/152/64 96/156/64
f 105/188/52 99/157/52 77/127/52
f 89/143/54 97/154/54 101/159/54
f 107/192/65 83/136/65 102/160/65
f 100/165/66 97/161/66 99/162/66
f 101/159/54 100/158/54 75/123/54
f 102/160/67 84/135/67 104/164/67
f 103/193/68 100/165/68 105/166/68
f 81/194/69 76/125/69 106/167/69
f 85/189/85 83/133/85 108/169/85
f 68/105/70 67/104/70 94/149/70
f 101/159/71 75/123/71 111/172/71
f 67/104/72 85/139/72 109/170/72
f 104/164/73 92/147/73 91/145/73
f 80/130/74 79/129/74 95/150/74
f 75/123/75 74/122/75 110/171/75
f 89/143/76 101/159/76 90/144/76
