v 6.000000 0.000000 0.000000
v 6.000000 0.000000 6.000000
v -0.000000 0.000000 6.000000
v 0.000000 0.000000 0.000000
v 6.000000 2.740000 0.000001
v 6.000000 2.740000 6.000000
v -0.000001 2.740000 6.000000
v -0.000000 2.740000 0.000000
v 6.000000 0.000000 -6.000000
v 0.000000 0.000000 -6.000000
v 6.000000 2.740000 -6.000000
v -0.000000 2.740000 -6.000000
v -6.000000 0.000000 6.000000
v -6.000000 0.000000 0.000000
v -6.000000 2.740000 6.000000
v -6.000000 2.740000 0.000000
vt 0.592482 0.000337
vt 0.296747 0.000337
vt 0.296747 0.296072
vt 0.296072 0.888891
vt 0.296072 0.593156
vt 0.000337 0.593156
vt 0.296747 0.864610
vt 0.296747 0.999663
vt 0.592482 0.999663
vt 0.593157 0.432474
vt 0.593157 0.567526
vt 0.888891 0.567526
vt 0.888891 0.000337
vt 0.593157 0.000337
vt 0.593157 0.296072
vt 0.000337 0.000337
vt 0.000337 0.296072
vt 0.296072 0.296072
vt 0.296747 0.728883
vt 0.296747 0.863936
vt 0.592482 0.863936
vt 0.728209 0.863936
vt 0.728209 0.568201
vt 0.593157 0.568201
vt 0.888891 0.431799
vt 0.888891 0.296747
vt 0.593157 0.296747
vt 0.296072 0.592482
vt 0.296072 0.296747
vt 0.000337 0.296747
vt 0.592482 0.728209
vt 0.592482 0.593156
vt 0.296747 0.593157
vt 0.728883 0.863936
vt 0.863936 0.863936
vt 0.863936 0.568201
vt 0.593157 0.864610
vt 0.593157 0.999662
vt 0.888891 0.999662
vt 0.296747 0.296747
vt 0.296747 0.592482
vt 0.592482 0.592482
vt 0.592482 0.296072
vt 0.000337 0.888891
vt 0.592482 0.864610
vt 0.888891 0.432474
vt 0.888891 0.296072
vt 0.296072 0.000337
vt 0.592482 0.728883
vt 0.593157 0.863936
vt 0.593157 0.431799
vt 0.000337 0.592482
vt 0.296747 0.728209
vt 0.728883 0.568201
vt 0.888891 0.864610
vt 0.592482 0.296747
vn 0.000000 1.000000 0.000000
vn 0.000000 -1.000000 0.000000
vn -1.000000 0.000000 -0.000000
vn 0.000000 -0.000000 -1.000000
vn 0.000000 -0.000000 1.000000
vn 1.000000 0.000000 0.000000
f 1/1/1 4/2/1 3/3/1
f 5/4/2 6/5/2 7/6/2
f 2/7/3 6/8/3 5/9/3
f 3/10/4 7/11/4 6/12/4
f 7/13/2 15/14/2 16/15/2
f 8/16/2 12/17/2 11/18/2
f 12/19/5 10/20/5 9/21/5
f 4/22/6 10/23/6 12/24/6
f 11/25/3 9/26/3 1/27/3
f 9/28/1 10/29/1 4/30/1
f 14/31/6 16/32/6 15/33/6
f 16/34/5 14/35/5 4/36/5
f 13/37/4 15/38/4 7/39/4
f 14/40/1 13/41/1 3/42/1
f 2/43/1 1/1/1 3/3/1
f 8/44/2 5/4/2 7/6/2
f 1/45/3 2/7/3 5/9/3
f 2/46/4 3/10/4 6/12/4
f 8/47/2 7/13/2 16/15/2
f 5/48/2 8/16/2 11/18/2
f 11/49/5 12/19/5 9/21/5
f 8/50/6 4/22/6 12/24/6
f 5/51/3 11/25/3 1/27/3
f 1/52/1 9/28/1 4/30/1
f 13/53/6 14/31/6 15/33/6
f 8/54/5 16/34/5 4/36/5
f 3/55/4 13/37/4 7/39/4
f 4/56/1 14/40/1 3/42/1
