v 0.000000 0.169124 3.288545
v 0.032994 0.165875 3.288545
v 0.032994 0.165876 -3.288545
v 0.064721 0.156251 3.288545
v 0.064721 0.156250 -3.288545
v 0.093960 0.140621 3.288545
v 0.093960 0.140622 -3.288545
v 0.119589 0.119588 3.288545
v 0.119589 0.119590 -3.288545
v 0.140621 0.093960 3.288545
v 0.140621 0.093961 -3.288545
v 0.156250 0.064720 3.288545
v 0.156250 0.064721 -3.288545
v 0.165875 0.032994 3.288545
v 0.165875 0.032995 -3.288545
v 0.169125 -0.000001 3.288545
v 0.169125 -0.000001 -3.288545
v 0.165875 -0.032996 3.288545
v 0.165875 -0.032995 -3.288545
v 0.156250 -0.064723 3.288545
v 0.156250 -0.064722 -3.288545
v 0.140621 -0.093962 3.288545
v 0.140621 -0.093961 -3.288545
v 0.119589 -0.119591 3.288545
v 0.119589 -0.119590 -3.288545
v 0.093960 -0.140623 3.288545
v 0.093960 -0.140622 -3.288545
v 0.064721 -0.156252 3.288545
v 0.064721 -0.156252 -3.288545
v 0.032994 -0.165876 3.288545
v 0.032994 -0.165876 -3.288545
v 0.000000 -0.169126 3.288545
v 0.000000 -0.169126 -3.288545
v -0.032996 -0.165876 3.288545
v -0.032996 -0.165876 -3.288545
v -0.064722 -0.156252 3.288545
v -0.093962 -0.140623 3.288545
v -0.093962 -0.140622 -3.288545
v -0.119590 -0.119590 3.288545
v -0.119590 -0.119590 -3.288545
v -0.140623 -0.093962 3.288545
v -0.140623 -0.093961 -3.288545
v -0.156251 -0.064723 3.288545
v -0.156251 -0.064722 -3.288545
v -0.165876 -0.032995 3.288545
v -0.165876 -0.032995 -3.288545
v -0.169125 -0.000001 3.288545
v -0.169125 0.000001 -3.288545
v -0.165876 0.032994 3.288545
v -0.165876 0.032995 -3.288545
v -0.156251 0.064720 3.288545
v -0.156251 0.064721 -3.288545
v -0.140623 0.093960 3.288545
v -0.140623 0.093961 -3.288545
v -0.119590 0.119588 3.288545
v -0.119590 0.119590 -3.288545
v -0.093962 0.140622 3.288545
v -0.093962 0.140622 -3.288545
v -0.064722 0.156251 3.288545
v -0.064722 0.156250 -3.288545
v -0.032996 0.165875 3.288545
v 0.000000 0.169124 -3.288545
v -0.032996 0.165876 -3.288545
v -0.064722 -0.156252 -3.288545
vt 0.109803 0.999487
vt 0.081250 0.999487
vt 0.081250 0.291446
vt 0.403872 0.999485
vt 0.375319 0.999485
vt 0.375319 0.291446
vt 0.492612 0.999486
vt 0.464059 0.999486
vt 0.464059 0.291446
vt 0.995927 0.996890
vt 0.967374 0.996890
vt 0.967373 0.288850
vt 0.848010 0.996891
vt 0.819456 0.996890
vt 0.819460 0.288850
vt 0.700089 0.996890
vt 0.671536 0.996890
vt 0.671529 0.288850
vt 0.818430 0.996888
vt 0.789877 0.996888
vt 0.789871 0.288850
vt 0.670503 0.996891
vt 0.641950 0.996896
vt 0.641812 0.288855
vt 0.344713 0.999485
vt 0.316160 0.999485
vt 0.316160 0.291446
vt 0.287282 0.999486
vt 0.258729 0.999486
vt 0.258729 0.291446
vt 0.581352 0.999486
vt 0.552798 0.999486
vt 0.552798 0.291446
vt 0.936760 0.996891
vt 0.908207 0.996890
vt 0.908211 0.288850
vt 0.877593 0.996891
vt 0.849040 0.996890
vt 0.849044 0.288850
vt 0.729675 0.996890
vt 0.701121 0.996890
vt 0.701115 0.288850
vt 0.788845 0.996890
vt 0.760292 0.996890
vt 0.760286 0.288850
vt 0.640786 0.996889
vt 0.612233 0.996894
vt 0.612095 0.288855
vt 0.611069 0.996891
vt 0.582516 0.996896
vt 0.582378 0.288855
vt 0.759255 0.288850
vt 0.759260 0.996890
vt 0.730707 0.996890
vt 0.966344 0.996890
vt 0.937791 0.996890
vt 0.937793 0.288850
vt 0.907177 0.996891
vt 0.878624 0.996890
vt 0.878627 0.288850
vt 0.551772 0.999486
vt 0.523219 0.999486
vt 0.523218 0.291446
vt 0.463032 0.999485
vt 0.434479 0.999485
vt 0.434479 0.291446
vt 0.316862 0.999487
vt 0.288309 0.999487
vt 0.288309 0.291446
vt 0.139383 0.999487
vt 0.110830 0.999487
vt 0.110829 0.291446
vt 0.080223 0.999485
vt 0.051670 0.999485
vt 0.051670 0.291446
vt 0.257703 0.999486
vt 0.229149 0.999486
vt 0.229149 0.291446
vt 0.522192 0.999486
vt 0.493639 0.999486
vt 0.493639 0.291446
vt 0.198542 0.999487
vt 0.169989 0.999487
vt 0.169989 0.291446
vt 0.168963 0.999487
vt 0.140409 0.999487
vt 0.140409 0.291446
vt 0.374292 0.999485
vt 0.345739 0.999485
vt 0.345739 0.291446
vt 0.346667 0.788032
vt 0.215990 0.628803
vt 0.375220 0.498126
vt 0.433452 0.999485
vt 0.404899 0.999485
vt 0.404899 0.291446
vt 0.228122 0.999486
vt 0.199569 0.999486
vt 0.199569 0.291446
vt 0.559474 0.530486
vt 0.796829 0.628803
vt 0.764468 0.735482
vt 0.109803 0.291446
vt 0.403873 0.291446
vt 0.492612 0.291446
vt 0.995927 0.288850
vt 0.848014 0.288850
vt 0.700083 0.288850
vt 0.818425 0.288850
vt 0.670366 0.288850
vt 0.344713 0.291446
vt 0.287283 0.291446
vt 0.581352 0.291446
vt 0.936765 0.288850
vt 0.877597 0.288850
vt 0.729669 0.288850
vt 0.788840 0.288850
vt 0.640649 0.288850
vt 0.610932 0.288850
vt 0.730701 0.288850
vt 0.966347 0.288850
vt 0.907181 0.288850
vt 0.551772 0.291446
vt 0.463033 0.291446
vt 0.316862 0.291446
vt 0.139383 0.291446
vt 0.080223 0.291446
vt 0.257703 0.291446
vt 0.522192 0.291446
vt 0.198543 0.291446
vt 0.168963 0.291446
vt 0.374293 0.291446
vt 0.268541 0.755671
vt 0.318662 0.782462
vt 0.292282 0.771535
vt 0.403225 0.782462
vt 0.375220 0.788033
vt 0.429604 0.771536
vt 0.500326 0.685361
vt 0.473536 0.735482
vt 0.453345 0.755672
vt 0.489399 0.711741
vt 0.505897 0.628803
vt 0.505897 0.657356
vt 0.489399 0.574418
vt 0.500326 0.600798
vt 0.453346 0.530487
vt 0.473536 0.550677
vt 0.403224 0.503696
vt 0.429604 0.514623
vt 0.292282 0.514623
vt 0.346667 0.498126
vt 0.318662 0.503696
vt 0.248351 0.550677
vt 0.268541 0.530487
vt 0.221561 0.600798
vt 0.232487 0.574418
vt 0.221561 0.685361
vt 0.215990 0.657356
vt 0.232488 0.711740
vt 0.248351 0.735481
vt 0.433453 0.291446
vt 0.228123 0.291446
vt 0.744278 0.530487
vt 0.666152 0.498126
vt 0.694157 0.503697
vt 0.609595 0.503696
vt 0.637599 0.498126
vt 0.583216 0.514623
vt 0.523421 0.574417
vt 0.539284 0.550676
vt 0.506923 0.628802
vt 0.512494 0.600797
vt 0.539284 0.735481
vt 0.512493 0.685360
vt 0.506923 0.657356
vt 0.523420 0.711740
vt 0.583215 0.771535
vt 0.559474 0.755672
vt 0.637599 0.788033
vt 0.609595 0.782462
vt 0.720537 0.771535
vt 0.694157 0.782462
vt 0.666152 0.788033
vt 0.744278 0.755672
vt 0.780332 0.711740
vt 0.796829 0.657356
vt 0.791259 0.685361
vt 0.780332 0.574418
vt 0.791259 0.600798
vt 0.764469 0.550677
vt 0.720537 0.514623
vn 0.098000 0.995200 0.000000
vn 0.290300 0.956900 -0.000000
vn 0.471400 0.881900 0.000000
vn 0.634400 0.773000 0.000000
vn 0.773000 0.634400 0.000000
vn 0.881900 0.471400 0.000000
vn 0.956900 0.290300 0.000000
vn 0.995200 0.098000 -0.000000
vn 0.995200 -0.098000 -0.000000
vn 0.956900 -0.290300 -0.000000
vn 0.881900 -0.471400 -0.000000
vn 0.773000 -0.634400 -0.000000
vn 0.634400 -0.773000 -0.000000
vn 0.471400 -0.881900 0.000000
vn 0.290300 -0.956900 0.000000
vn 0.098000 -0.995200 0.000000
vn -0.098000 -0.995200 0.000000
vn -0.290300 -0.956900 0.000000
vn -0.471400 -0.881900 -0.000000
vn -0.634400 -0.773000 0.000000
vn -0.773000 -0.634400 -0.000000
vn -0.881900 -0.471400 -0.000000
vn -0.956900 -0.290300 0.000000
vn -0.995200 -0.098000 -0.000000
vn -0.995200 0.098000 0.000000
vn -0.956900 0.290300 0.000000
vn -0.881900 0.471400 0.000000
vn -0.773000 0.634400 0.000000
vn -0.634400 0.773000 -0.000000
vn -0.471400 0.881900 -0.000000
vn 0.000000 0.000000 1.000000
vn -0.098000 0.995200 -0.000000
vn -0.290300 0.956900 0.000000
vn -0.000000 0.000000 -1.000000
vn 0.000100 0.000000 1.000000
vn 0.000100 0.000000 -1.000000
s off
f 1/1/1 2/2/1 3/3/1
f 2/4/2 4/5/2 5/6/2
f 4/7/3 6/8/3 7/9/3
f 6/10/4 8/11/4 9/12/4
f 8/13/5 10/14/5 11/15/5
f 10/16/6 12/17/6 13/18/6
f 12/19/7 14/20/7 15/21/7
f 14/22/8 16/23/8 17/24/8
f 16/25/9 18/26/9 19/27/9
f 18/28/10 20/29/10 21/30/10
f 20/31/11 22/32/11 23/33/11
f 22/34/12 24/35/12 25/36/12
f 24/37/13 26/38/13 27/39/13
f 26/40/14 28/41/14 29/42/14
f 28/43/15 30/44/15 31/45/15
f 30/46/16 32/47/16 33/48/16
f 32/49/17 34/50/17 35/51/17
f 35/52/18 34/53/18 36/54/18
f 36/55/19 37/56/19 38/57/19
f 37/58/20 39/59/20 40/60/20
f 39/61/21 41/62/21 42/63/21
f 41/64/22 43/65/22 44/66/22
f 43/67/23 45/68/23 46/69/23
f 45/70/24 47/71/24 48/72/24
f 47/73/25 49/74/25 50/75/25
f 49/76/26 51/77/26 52/78/26
f 51/79/27 53/80/27 54/81/27
f 53/82/28 55/83/28 56/84/28
f 55/85/29 57/86/29 58/87/29
f 57/88/30 59/89/30 60/90/30
f 6/91/31 53/92/31 37/93/31
f 61/94/32 1/95/32 62/96/32
f 59/97/33 61/98/33 63/99/33
f 54/100/34 13/101/34 21/102/34
f 62/103/1 1/1/1 3/3/1
f 3/104/2 2/4/2 5/6/2
f 5/105/3 4/7/3 7/9/3
f 7/106/4 6/10/4 9/12/4
f 9/107/5 8/13/5 11/15/5
f 11/108/6 10/16/6 13/18/6
f 13/109/7 12/19/7 15/21/7
f 15/110/8 14/22/8 17/24/8
f 17/111/9 16/25/9 19/27/9
f 19/112/10 18/28/10 21/30/10
f 21/113/11 20/31/11 23/33/11
f 23/114/12 22/34/12 25/36/12
f 25/115/13 24/37/13 27/39/13
f 27/116/14 26/40/14 29/42/14
f 29/117/15 28/43/15 31/45/15
f 31/118/16 30/46/16 33/48/16
f 33/119/17 32/49/17 35/51/17
f 64/120/18 35/52/18 36/54/18
f 64/121/19 36/55/19 38/57/19
f 38/122/20 37/58/20 40/60/20
f 40/123/21 39/61/21 42/63/21
f 42/124/22 41/64/22 44/66/22
f 44/125/23 43/67/23 46/69/23
f 46/126/24 45/70/24 48/72/24
f 48/127/25 47/73/25 50/75/25
f 50/128/26 49/76/26 52/78/26
f 52/129/27 51/79/27 54/81/27
f 54/130/28 53/82/28 56/84/28
f 56/131/29 55/85/29 58/87/29
f 58/132/30 57/88/30 60/90/30
f 1/133/31 4/134/31 2/135/31
f 10/136/31 8/137/31 6/91/31
f 6/91/31 12/138/31 10/136/31
f 20/139/31 16/140/31 14/141/31
f 16/140/31 20/139/31 18/142/31
f 20/139/31 24/143/31 22/144/31
f 24/143/31 28/145/31 26/146/31
f 37/93/31 32/147/31 30/148/31
f 37/93/31 36/149/31 34/150/31
f 43/151/31 39/152/31 37/93/31
f 39/152/35 43/151/35 41/153/35
f 53/92/31 47/154/31 45/155/31
f 53/92/31 51/156/31 49/157/31
f 57/158/35 55/159/35 53/92/35
f 53/92/31 59/160/31 57/158/31
f 6/91/31 1/133/31 61/161/31
f 1/133/31 6/91/31 4/134/31
f 6/91/31 14/141/31 12/138/31
f 28/145/31 24/143/31 20/139/31
f 20/139/31 30/148/31 28/145/31
f 32/147/31 37/93/31 34/150/31
f 37/93/31 53/92/31 43/151/31
f 47/154/31 53/92/31 49/157/31
f 53/92/31 6/91/31 59/160/31
f 30/148/31 20/139/31 6/91/31
f 14/141/31 6/91/31 20/139/31
f 53/92/31 45/155/31 43/151/31
f 6/91/31 61/161/31 59/160/31
f 37/93/31 30/148/31 6/91/31
f 63/162/32 61/94/32 62/96/32
f 60/163/33 59/97/33 63/99/33
f 5/164/34 63/165/34 62/166/34
f 54/100/34 58/167/34 60/168/34
f 58/167/34 54/100/34 56/169/34
f 54/100/34 50/170/34 52/171/34
f 54/100/34 46/172/34 48/173/34
f 38/174/34 42/175/34 44/176/34
f 42/175/36 38/174/36 40/177/36
f 38/174/34 35/178/34 64/179/34
f 38/174/34 31/180/34 33/181/34
f 25/182/34 27/183/34 29/184/34
f 21/102/34 23/185/34 25/182/34
f 13/101/34 19/186/34 21/102/34
f 13/101/36 15/187/36 17/188/36
f 9/189/34 11/190/34 13/101/34
f 5/164/36 7/191/36 9/189/36
f 62/166/34 3/192/34 5/164/34
f 54/100/34 60/168/34 63/165/34
f 48/173/34 50/170/34 54/100/34
f 54/100/34 44/176/34 46/172/34
f 33/181/34 35/178/34 38/174/34
f 38/174/34 29/184/34 31/180/34
f 29/184/34 21/102/34 25/182/34
f 19/186/34 13/101/34 17/188/34
f 13/101/34 5/164/34 9/189/34
f 5/164/34 54/100/34 63/165/34
f 54/100/34 38/174/34 44/176/34
f 38/174/34 21/102/34 29/184/34
f 54/100/34 5/164/34 13/101/34
f 21/102/34 38/174/34 54/100/34
