v 10 -2 0
v 0 -2 0
v 0 -2 -15
v 10 -2 -15
v 10 8 0
v 0 8 0
v 0 8 -15
v 10 8 -15
vt 0.499850 0.500150
vt 0.499850 0.999850
vt 0.000150 0.999850
vt 0.000150 0.000150
vt 0.499850 0.000150
vt 0.499850 0.499850
vt 0.500150 0.499850
vt 0.500150 0.000150
vt 0.999850 0.000150
vt 0.000150 0.500150
vt 0.000150 0.499850
vt 0.999850 0.499850
vn -0.000000 0.000000 1.000000
vn -1.000000 0.000000 -0.000000
vn 1.000000 0.000000 0.000000
s off
f 6/1/1 2/2/1 1/3/1
f 7/4/2 3/5/2 2/6/2
f 5/7/3 1/8/3 4/9/3
f 5/10/1 6/1/1 1/3/1
f 6/11/2 7/4/2 2/6/2
f 8/12/3 5/7/3 4/9/3
