o Sphere_Sphere.001
v -1.982768 1.357481 -6.636714
v 5.517232 1.357481 -6.636714
v 9.267231 1.357481 -0.386714
v 5.517230 1.357481 5.863286
v -1.982771 1.357481 5.863285
v -5.732770 3.657481 -0.386717
v -1.982771 3.657481 5.863285
v 5.517230 3.657481 5.863286
v 9.267231 3.657481 -0.386714
v 5.517232 3.657481 -6.636714
v -5.732770 1.357481 -0.386717
v -1.982768 3.657481 -6.636714
v 1.767231 1.357481 -0.386715
v 1.767231 3.657481 -0.386715
vt 0.831264 0.793343
vt 0.784272 0.857394
vt 0.581921 0.706661
vt 0.411025 0.599656
vt 0.477314 0.518103
vt 0.472912 0.396225
vt 0.334734 0.287716
vt 0.372204 0.231184
vt 0.160868 0.166097
vt 0.199349 0.111982
vt 0.020710 0.079277
vt 0.071629 0.011387
vt 0.939069 0.992587
vt 0.571362 0.120759
vt 0.552624 0.368825
vt 0.777842 0.239378
vt 0.771131 0.501364
vt 0.995145 0.364214
vt 0.989223 0.117885
vt 0.783827 0.005756
vt 0.012810 0.650659
vt 0.028408 0.883418
vt 0.224394 0.771672
vt 0.218306 0.526760
vt 0.431055 0.653840
vt 0.426960 0.887527
vt 0.229922 0.994021
vt 0.631057 0.643428
vt 0.520415 0.320176
vt 0.998080 0.908260
vn 0.857493 0.000000 0.514496
vn 0.857493 0.000000 -0.514496
vn 0.000000 0.000000 -1.000000
vn -0.857493 0.000000 -0.514496
vn -0.857493 0.000000 0.514496
vn 0.000000 0.000000 1.000000
vn 0.000000 1.000000 0.000000
vn 0.000000 -1.000000 0.000000
s off
f 1/1/1 12/2/1 6/3/1
f 6/3/2 7/4/2 5/5/2
f 7/6/3 8/7/3 4/8/3
f 8/7/4 9/9/4 3/10/4
f 9/9/5 10/11/5 2/12/5
f 10/13/6 12/2/6 1/1/6
f 1/14/7 11/15/7 13/16/7
f 11/15/7 5/17/7 13/16/7
f 5/17/7 4/18/7 13/16/7
f 4/18/7 3/19/7 13/16/7
f 3/19/7 2/20/7 13/16/7
f 2/20/7 1/14/7 13/16/7
f 6/21/8 12/22/8 14/23/8
f 7/24/8 6/21/8 14/23/8
f 8/25/8 7/24/8 14/23/8
f 9/26/8 8/25/8 14/23/8
f 10/27/8 9/26/8 14/23/8
f 12/22/8 10/27/8 14/23/8
f 11/28/1 1/1/1 6/3/1
f 11/28/2 6/3/2 5/5/2
f 5/29/3 7/6/3 4/8/3
f 4/8/4 8/7/4 3/10/4
f 3/10/5 9/9/5 2/12/5
f 2/30/6 10/13/6 1/1/6
