v 0.000001 0.000000 -4.242647
v 4.242648 0.000000 0.000001
v 0.000000 0.000000 4.242648
v -4.242648 0.000000 -0.000001
v 0.000003 2.740000 -4.242648
v 4.242648 2.740000 0.000003
v -0.000001 2.740000 4.242649
v -4.242648 2.740000 -0.000000
v 0.000001 0.200000 -4.242647
v 4.242648 0.200000 0.000001
v 0.000000 0.200000 4.242648
v -4.242648 0.200000 -0.000001
v -0.140007 0.200000 4.382656
v -4.382655 0.200000 0.140006
v -0.140007 0.400000 4.382656
v -4.382655 0.400000 0.140006
v -0.280015 0.400000 4.522663
v -4.522662 0.400000 0.280013
v -0.280015 0.600000 4.522663
v -4.522662 0.600000 0.280013
v -1.680086 0.600000 5.922734
v -5.922734 0.600000 1.680085
v -1.680086 2.740000 5.922734
v -5.922734 2.740000 1.680085
v -0.140007 0.200000 -4.382654
v -4.382655 0.200000 -0.140008
v -0.140007 0.400000 -4.382654
v -4.382655 0.400000 -0.140008
v -0.280013 0.400000 -4.522661
v -4.522662 0.400000 -0.280016
v -0.280013 0.600000 -4.522661
v -4.522662 0.600000 -0.280016
v -1.680085 0.600000 -5.922733
v -5.922733 0.600000 -1.680087
v -1.680085 2.740000 -5.922733
v -5.922733 2.740000 -1.680087
v 0.140008 0.200000 -4.382654
v 4.382655 0.200000 -0.140006
v 0.140008 0.400000 -4.382654
v 4.382655 0.400000 -0.140006
v 0.280015 0.400000 -4.522661
v 4.522662 0.400000 -0.280013
v 0.280015 0.600000 -4.522661
v 4.522662 0.600000 -0.280013
v 1.680087 0.600000 -5.922732
v 5.922734 0.600000 -1.680085
v 1.680087 2.740000 -5.922732
v 5.922734 2.740000 -1.680085
v 4.382656 0.200000 0.140008
v 0.140007 0.200000 4.382656
v 4.382656 0.400000 0.140008
v 0.140007 0.400000 4.382656
v 4.522663 0.400000 0.280016
v 0.280015 0.400000 4.522664
v 4.522663 0.600000 0.280016
v 0.280015 0.600000 4.522664
v 5.922734 0.600000 1.680087
v 1.680086 0.600000 5.922735
v 5.922734 2.740000 1.680087
v 1.680086 2.740000 5.922735
v -0.140008 2.740000 4.382656
v -4.382655 2.740000 0.140007
v -0.280015 2.740000 4.522663
v -4.522662 2.740000 0.280014
v -0.140004 2.740000 -4.382655
v -4.382655 2.740000 -0.140008
v -0.280011 2.740000 -4.522663
v -4.522662 2.740000 -0.280015
v 0.140010 2.740000 -4.382654
v 4.382655 2.740000 -0.140005
v 0.280017 2.740000 -4.522662
v 4.522663 2.740000 -0.280012
v 4.382655 2.740000 0.140010
v 0.140006 2.740000 4.382655
v 4.522663 2.740000 0.280017
v 0.280013 2.740000 4.522663
vt 0.000622 0.333490
vt 0.332245 0.333490
vt 0.332245 0.665113
vt 0.332246 0.332245
vt 0.000622 0.332246
vt 0.000622 0.000622
vt 0.776899 0.238425
vt 0.666358 0.238425
vt 0.666357 0.120146
vt 0.333490 0.924728
vt 0.333490 0.814187
vt 0.665113 0.814187
vt 0.000622 0.962481
vt 0.000622 0.951428
vt 0.332236 0.951427
vt 0.333490 0.949327
vt 0.333490 0.938273
vt 0.665104 0.938272
vt 0.333490 0.961626
vt 0.333490 0.950573
vt 0.665104 0.950571
vt 0.997976 0.962871
vt 0.997976 0.973925
vt 0.666353 0.973925
vt 0.666358 0.889911
vt 0.666358 0.878857
vt 0.997980 0.878857
vt 0.666357 0.998523
vt 0.666357 0.987469
vt 0.997980 0.987469
vt 0.997980 0.865314
vt 0.666358 0.865314
vt 0.666358 0.854260
vt 0.997971 0.961626
vt 0.666348 0.961626
vt 0.666348 0.950572
vt 0.332245 0.987079
vt 0.000622 0.987079
vt 0.000622 0.976025
vt 0.665113 0.986224
vt 0.333490 0.986224
vt 0.333490 0.975170
vt 0.332245 0.888684
vt 0.000622 0.888684
vt 0.000622 0.778143
vt 0.665113 0.477471
vt 0.333490 0.477471
vt 0.333490 0.359192
vt 0.332236 0.902228
vt 0.332236 0.913282
vt 0.000622 0.913284
vt 0.332236 0.926827
vt 0.332236 0.937881
vt 0.000622 0.937883
vt 0.332236 0.889929
vt 0.332236 0.900983
vt 0.000622 0.900984
vt 0.332236 0.939127
vt 0.332236 0.950181
vt 0.000622 0.950182
vt 0.665151 0.478830
vt 0.665113 0.589371
vt 0.333490 0.589257
vt 0.665113 0.000622
vt 0.665113 0.118901
vt 0.333490 0.118901
vt 0.666358 0.902209
vt 0.666358 0.891155
vt 0.997980 0.891155
vt 0.000622 0.988324
vt 0.332245 0.988324
vt 0.332245 0.999378
vt 0.666357 0.986224
vt 0.666357 0.975170
vt 0.997980 0.975170
vt 0.333490 0.987469
vt 0.665113 0.987469
vt 0.665113 0.998523
vt 0.666358 0.239669
vt 0.997981 0.239669
vt 0.997981 0.350210
vt 0.333490 0.239669
vt 0.665113 0.239669
vt 0.665113 0.357948
vt 0.666348 0.949325
vt 0.666348 0.938271
vt 0.997971 0.938271
vt 0.666358 0.903454
vt 0.997980 0.903454
vt 0.997980 0.914508
vt 0.666348 0.937027
vt 0.666348 0.925972
vt 0.997971 0.925972
vt 0.666358 0.829663
vt 0.997981 0.829662
vt 0.997981 0.840717
vt 0.666358 0.000622
vt 0.997981 0.000622
vt 0.997981 0.111163
vt 0.333490 0.120146
vt 0.665113 0.120146
vt 0.665113 0.238425
vt 0.927841 0.634648
vt 0.938621 0.634648
vt 0.939720 0.645530
vt 0.903244 0.775036
vt 0.903244 0.634648
vt 0.914298 0.645703
vt 0.888684 0.351455
vt 0.888684 0.469734
vt 0.778143 0.469734
vt 0.903243 0.522067
vt 0.914553 0.497157
vt 0.914553 0.629487
vt 0.901293 0.351455
vt 0.889929 0.381124
vt 0.889929 0.351455
vt 0.000622 0.974781
vt 0.000622 0.963727
vt 0.332240 0.963726
vt 0.333490 0.962872
vt 0.665109 0.962871
vt 0.665109 0.973925
vt 0.332245 0.666358
vt 0.332245 0.776899
vt 0.000622 0.776899
vt 0.888684 0.590616
vt 0.888684 0.708895
vt 0.778143 0.708895
vt 0.928922 0.497157
vt 0.939702 0.497157
vt 0.940802 0.508039
vt 0.915542 0.634648
vt 0.926596 0.634648
vt 0.926596 0.645703
vt 0.784675 0.478716
vt 0.784675 0.589257
vt 0.666396 0.589257
vt 0.953100 0.497157
vt 0.953100 0.626491
vt 0.942046 0.508212
vt 0.913640 0.351458
vt 0.913592 0.491846
vt 0.902582 0.362509
vt 0.997980 0.877612
vt 0.666358 0.877612
vt 0.666358 0.866558
vt 0.997981 0.853015
vt 0.666358 0.853015
vt 0.666358 0.841961
vt 0.333490 0.702401
vt 0.665113 0.702402
vt 0.665113 0.812943
vt 0.888684 0.120146
vt 0.888684 0.238425
vt 0.778143 0.238425
vt 0.951780 0.480788
vt 0.962834 0.362509
vt 0.962834 0.480788
vt 0.889929 0.633289
vt 0.901999 0.507988
vt 0.900648 0.633404
vt 0.776899 0.469734
vt 0.666358 0.469734
vt 0.666358 0.351455
vt 0.940965 0.645702
vt 0.952019 0.634648
vt 0.952019 0.763982
vt 0.938237 0.351455
vt 0.938237 0.491842
vt 0.927183 0.362509
vt 0.665104 0.937027
vt 0.333490 0.937028
vt 0.333490 0.925972
vt 0.332236 0.925583
vt 0.000622 0.925583
vt 0.000622 0.914528
vt 0.333490 0.701157
vt 0.333490 0.590616
vt 0.665113 0.590616
vt 0.776899 0.710139
vt 0.776899 0.828418
vt 0.666358 0.828418
vt 0.915798 0.623282
vt 0.927678 0.508029
vt 0.926579 0.623385
vt 0.889929 0.634648
vt 0.900647 0.634648
vt 0.901999 0.645465
vt 0.776899 0.590616
vt 0.776899 0.708895
vt 0.666358 0.708895
vt 0.939481 0.362509
vt 0.950535 0.351455
vt 0.950536 0.480788
vt 0.914884 0.362509
vt 0.925938 0.351455
vt 0.925938 0.491842
vt 0.000622 0.665113
vt 0.332245 0.000622
vt 0.776899 0.120146
vt 0.665113 0.924728
vt 0.332236 0.962481
vt 0.665104 0.949327
vt 0.665104 0.961626
vt 0.666353 0.962871
vt 0.997980 0.889911
vt 0.997980 0.998523
vt 0.997980 0.854260
vt 0.997971 0.950572
vt 0.332245 0.976025
vt 0.665113 0.975170
vt 0.332245 0.778143
vt 0.665113 0.359192
vt 0.000622 0.902229
vt 0.000622 0.926827
vt 0.000622 0.889929
vt 0.000622 0.939127
vt 0.333528 0.478716
vt 0.333490 0.000622
vt 0.997980 0.902209
vt 0.000622 0.999378
vt 0.997980 0.986224
vt 0.333490 0.998523
vt 0.666358 0.350210
vt 0.333490 0.357948
vt 0.997971 0.949325
vt 0.666358 0.914508
vt 0.997971 0.937027
vt 0.666358 0.840717
vt 0.666357 0.111163
vt 0.333490 0.238425
vt 0.927841 0.760778
vt 0.938621 0.760881
vt 0.914298 0.634648
vt 0.914298 0.775036
vt 0.778143 0.351455
vt 0.903243 0.497157
vt 0.904503 0.629604
vt 0.901293 0.495780
vt 0.891482 0.495913
vt 0.332240 0.974780
vt 0.333490 0.973926
vt 0.000622 0.666358
vt 0.778143 0.590616
vt 0.928922 0.623287
vt 0.939703 0.623390
vt 0.915542 0.775036
vt 0.926596 0.775036
vt 0.666396 0.478716
vt 0.942046 0.497157
vt 0.942046 0.626491
vt 0.902586 0.351455
vt 0.902537 0.491842
vt 0.997980 0.866558
vt 0.997981 0.841961
vt 0.333490 0.812943
vt 0.778143 0.120146
vt 0.951780 0.351455
vt 0.962834 0.351455
vt 0.889929 0.497157
vt 0.900648 0.497157
vt 0.776899 0.351455
vt 0.940965 0.634648
vt 0.940965 0.763982
vt 0.927183 0.491842
vt 0.927183 0.351455
vt 0.665104 0.925974
vt 0.332236 0.914529
vt 0.665113 0.701157
vt 0.666358 0.710139
vt 0.915798 0.497157
vt 0.926578 0.497157
vt 0.889929 0.770773
vt 0.900649 0.770888
vt 0.666358 0.590616
vt 0.939481 0.351455
vt 0.939481 0.480788
vt 0.914884 0.351455
vt 0.914884 0.491842
vn 0.000000 1.000000 0.000000
vn 0.000000 -1.000000 0.000000
vn -0.707100 -0.000000 -0.707100
vn 0.707100 0.000000 0.707100
vn 0.707100 0.000000 -0.707100
vn -0.707100 0.000000 0.707100
f 1/1/1 4/2/1 3/3/1
f 5/4/2 6/5/2 7/6/2
f 23/7/3 63/8/3 19/9/3
f 63/10/2 23/11/2 24/12/2
f 61/13/2 63/14/2 64/15/2
f 12/16/4 4/17/4 1/18/4
f 7/19/2 61/20/2 62/21/2
f 4/22/5 12/23/5 11/24/5
f 3/25/3 11/26/3 10/27/3
f 2/28/6 10/29/6 9/30/6
f 14/31/1 13/32/1 11/33/1
f 16/34/5 15/35/5 13/36/5
f 18/37/1 17/38/1 15/39/1
f 20/40/5 19/41/5 17/42/5
f 22/43/1 21/44/1 19/45/1
f 24/46/5 23/47/5 21/48/5
f 9/49/1 25/50/1 26/51/1
f 25/52/4 27/53/4 28/54/4
f 27/55/1 29/56/1 30/57/1
f 29/58/4 31/59/4 32/60/4
f 31/61/1 33/62/1 34/63/1
f 33/64/4 35/65/4 36/66/4
f 10/67/1 38/68/1 37/69/1
f 40/70/6 39/71/6 37/72/6
f 40/73/1 42/74/1 41/75/1
f 44/76/6 43/77/6 41/78/6
f 46/79/1 45/80/1 43/81/1
f 48/82/6 47/83/6 45/84/6
f 11/85/1 50/86/1 49/87/1
f 52/88/3 51/89/3 49/90/3
f 52/91/1 54/92/1 53/93/1
f 56/94/3 55/95/3 53/96/3
f 58/97/1 57/98/1 55/99/1
f 60/100/3 59/101/3 57/102/3
f 15/103/3 17/104/3 19/105/3
f 7/106/3 11/107/3 15/108/3
f 20/109/4 64/110/4 24/111/4
f 20/112/4 16/113/4 62/114/4
f 12/115/4 16/116/4 14/117/4
f 8/118/2 66/119/2 65/120/2
f 68/121/2 67/122/2 65/123/2
f 35/124/2 67/125/2 68/126/2
f 34/127/5 36/128/5 68/129/5
f 28/130/5 30/131/5 32/132/5
f 12/133/5 26/134/5 28/135/5
f 67/136/6 35/137/6 33/138/6
f 27/139/6 65/140/6 31/141/6
f 9/142/6 5/143/6 27/144/6
f 69/145/2 70/146/2 6/147/2
f 71/148/2 72/149/2 70/150/2
f 72/151/2 71/152/2 47/153/2
f 45/154/4 47/155/4 71/156/4
f 69/157/4 43/158/4 71/159/4
f 5/160/4 39/161/4 69/162/4
f 72/163/3 48/164/3 46/165/3
f 44/166/3 40/167/3 70/168/3
f 10/169/3 6/170/3 40/171/3
f 73/172/2 74/173/2 7/174/2
f 75/175/2 76/176/2 74/177/2
f 60/178/2 76/179/2 75/180/2
f 57/181/6 59/182/6 75/183/6
f 73/184/6 55/185/6 75/186/6
f 10/187/6 49/188/6 51/189/6
f 56/190/5 76/191/5 60/192/5
f 56/193/5 52/194/5 74/195/5
f 52/196/5 11/197/5 7/198/5
f 2/199/1 1/1/1 3/3/1
f 8/200/2 5/4/2 7/6/2
f 21/201/3 23/7/3 19/9/3
f 64/202/2 63/10/2 24/12/2
f 62/203/2 61/13/2 64/15/2
f 9/204/4 12/16/4 1/18/4
f 8/205/2 7/19/2 62/21/2
f 3/206/5 4/22/5 11/24/5
f 2/207/3 3/25/3 10/27/3
f 1/208/6 2/28/6 9/30/6
f 12/209/1 14/31/1 11/33/1
f 14/210/5 16/34/5 13/36/5
f 16/211/1 18/37/1 15/39/1
f 18/212/5 20/40/5 17/42/5
f 20/213/1 22/43/1 19/45/1
f 22/214/5 24/46/5 21/48/5
f 12/215/1 9/49/1 26/51/1
f 26/216/4 25/52/4 28/54/4
f 28/217/1 27/55/1 30/57/1
f 30/218/4 29/58/4 32/60/4
f 32/219/1 31/61/1 34/63/1
f 34/220/4 33/64/4 36/66/4
f 9/221/1 10/67/1 37/69/1
f 38/222/6 40/70/6 37/72/6
f 39/223/1 40/73/1 41/75/1
f 42/224/6 44/76/6 41/78/6
f 44/225/1 46/79/1 43/81/1
f 46/226/6 48/82/6 45/84/6
f 10/227/1 11/85/1 49/87/1
f 50/228/3 52/88/3 49/90/3
f 51/229/1 52/91/1 53/93/1
f 54/230/3 56/94/3 53/96/3
f 56/231/1 58/97/1 55/99/1
f 58/232/3 60/100/3 57/102/3
f 19/105/3 61/233/3 15/103/3
f 61/233/3 19/105/3 63/234/3
f 11/107/3 13/235/3 15/108/3
f 15/108/3 61/236/3 7/106/3
f 22/237/4 20/109/4 24/111/4
f 16/113/4 20/112/4 18/238/4
f 20/112/4 62/114/4 64/239/4
f 16/116/4 12/115/4 8/240/4
f 8/240/4 62/241/4 16/116/4
f 5/242/2 8/118/2 65/120/2
f 66/243/2 68/121/2 65/123/2
f 36/244/2 35/124/2 68/126/2
f 32/245/5 34/127/5 68/129/5
f 32/132/5 66/246/5 28/130/5
f 66/246/5 32/132/5 68/247/5
f 28/135/5 8/248/5 12/133/5
f 8/248/5 28/135/5 66/249/5
f 31/250/6 67/136/6 33/138/6
f 31/141/6 29/251/6 27/139/6
f 65/140/6 67/252/6 31/141/6
f 27/144/6 25/253/6 9/142/6
f 5/143/6 65/254/6 27/144/6
f 5/255/2 69/145/2 6/147/2
f 69/256/2 71/148/2 70/150/2
f 48/257/2 72/151/2 47/153/2
f 43/258/4 45/154/4 71/156/4
f 43/158/4 69/157/4 39/259/4
f 39/259/4 41/260/4 43/158/4
f 39/161/4 5/160/4 9/261/4
f 9/261/4 37/262/4 39/161/4
f 44/263/3 72/163/3 46/165/3
f 40/167/3 44/166/3 42/264/3
f 44/166/3 70/168/3 72/265/3
f 6/170/3 70/266/3 40/171/3
f 40/171/3 38/267/3 10/169/3
f 6/268/2 73/172/2 7/174/2
f 73/269/2 75/175/2 74/177/2
f 59/270/2 60/178/2 75/180/2
f 55/271/6 57/181/6 75/183/6
f 55/185/6 73/184/6 51/272/6
f 51/272/6 53/273/6 55/185/6
f 51/189/6 6/274/6 10/187/6
f 6/274/6 51/189/6 73/275/6
f 58/276/5 56/190/5 60/192/5
f 52/194/5 56/193/5 54/277/5
f 56/193/5 74/195/5 76/278/5
f 11/197/5 52/196/5 50/279/5
f 52/196/5 7/198/5 74/280/5
