o Cylinder_Cylinder.002
v 0.000000 1.929389 -3.166704
v 0.000000 9.818190 -3.166704
v 2.239198 1.929389 -2.239198
v 2.239198 9.818190 -2.239198
v 3.166704 1.929389 0.000000
v 3.166704 9.818190 0.000000
v 2.239198 1.929389 2.239198
v 2.239198 9.818190 2.239198
v -0.000000 1.929389 3.166704
v -0.000000 9.818190 3.166704
v -2.239198 1.929389 2.239198
v -2.239198 9.818190 2.239198
v -3.166704 1.929389 -0.000000
v -3.166704 9.818190 -0.000000
v -2.239198 1.929389 -2.239198
v -2.239198 9.818190 -2.239198
v -8.090506 0.041835 4.662888
v -8.090506 11.114008 4.662888
v -9.018012 0.041835 2.423690
v -9.018012 11.114008 2.423690
v -9.018012 0.041835 -2.423690
v -9.018012 11.114008 -2.423690
v -8.090506 0.041835 -4.662888
v -8.090506 11.114008 -4.662888
v -2.423691 0.041835 -9.018012
v -2.423691 11.114008 -9.018012
v -4.662890 0.041835 -8.090505
v -4.662890 11.114008 -8.090505
v 2.423691 0.041835 -9.018012
v 2.423691 11.114008 -9.018012
v 4.662889 0.041835 -8.090505
v 4.662889 11.114008 -8.090505
v 8.090505 0.041835 -4.662889
v 8.090505 11.114008 -4.662889
v 9.018012 0.041835 -2.423690
v 9.018012 11.114008 -2.423690
v 9.018012 0.041835 2.423691
v 9.018012 11.114008 2.423691
v 8.090505 0.041835 4.662889
v 8.090505 11.114008 4.662889
v 4.662889 0.041835 8.090505
v 4.662889 11.114008 8.090505
v 2.423691 0.041835 9.018012
v 2.423691 11.114008 9.018012
v -2.423692 0.041835 9.018012
v -2.423692 11.114008 9.018012
v -4.662890 0.041835 8.090505
v -4.662890 11.114008 8.090505
v -2.702951 1.929389 1.119599
v -8.554258 0.041835 3.543289
v -6.092358 0.041835 1.211845
v -5.164852 0.041835 3.451043
v -5.628605 0.041835 2.331444
v -2.702951 9.818190 1.119599
v -8.554258 11.114008 3.543289
v -6.092358 11.114008 1.211845
v -5.164852 11.114008 3.451043
v -5.628605 11.114008 2.331444
v -2.702951 1.929389 -1.119599
v -8.554258 0.041835 -3.543289
v -5.164852 0.041835 -3.451043
v -6.092358 0.041835 -1.211845
v -5.628605 0.041835 -2.331444
v -2.702951 9.818190 -1.119599
v -8.554258 11.114008 -3.543289
v -5.164852 11.114008 -3.451043
v -6.092358 11.114008 -1.211845
v -5.628605 11.114008 -2.331444
v 1.119599 1.929389 -2.702951
v 2.702952 1.929389 -1.119599
v 2.702952 1.929389 1.119599
v 1.119599 1.929389 2.702951
v -1.119599 1.929389 2.702951
v -1.119599 1.929389 -2.702951
v -3.543291 0.041835 -8.554258
v -1.211846 0.041835 -6.092358
v -3.451044 0.041835 -5.164851
v 3.543290 0.041835 -8.554258
v 3.451044 0.041835 -5.164851
v 1.211845 0.041835 -6.092358
v 8.554258 0.041835 -3.543290
v 6.092358 0.041835 -1.211845
v 5.164851 0.041835 -3.451044
v 8.554258 0.041835 3.543290
v 5.164851 0.041835 3.451044
v 6.092358 0.041835 1.211846
v 3.543290 0.041835 8.554258
v 1.211845 0.041835 6.092358
v 3.451044 0.041835 5.164851
v -3.543291 0.041835 8.554258
v -3.451044 0.041835 5.164851
v -1.211846 0.041835 6.092358
v -2.331445 0.041835 -5.628605
v 2.331445 0.041835 -5.628605
v 5.628605 0.041835 -2.331444
v 5.628605 0.041835 2.331444
v 2.331445 0.041835 5.628605
v -2.331445 0.041835 5.628605
v 1.119599 9.818190 -2.702951
v 2.702952 9.818190 -1.119599
v 2.702952 9.818190 1.119599
v 1.119599 9.818190 2.702951
v -1.119599 9.818190 2.702951
v -1.119599 9.818190 -2.702951
v -3.543291 11.114008 -8.554258
v -3.451044 11.114008 -5.164851
v -1.211846 11.114008 -6.092358
v 3.543290 11.114008 -8.554258
v 3.451044 11.114008 -5.164852
v 1.211845 11.114008 -6.092358
v 8.554258 11.114008 -3.543290
v 6.092358 11.114008 -1.211845
v 5.164852 11.114008 -3.451044
v 8.554258 11.114008 3.543290
v 5.164852 11.114008 3.451044
v 6.092358 11.114008 1.211846
v 3.543290 11.114008 8.554258
v 1.211845 11.114008 6.092358
v 3.451044 11.114008 5.164852
v -3.543291 11.114008 8.554258
v -3.451044 11.114008 5.164851
v -1.211846 11.114008 6.092358
v -2.331445 11.114008 -5.628605
v 2.331445 11.114008 -5.628605
v 5.628605 11.114008 -2.331444
v 5.628605 11.114008 2.331445
v 2.331445 11.114008 5.628605
v -2.331445 11.114008 5.628605
vt 0.789315 0.123919
vt 0.727991 0.185244
vt 0.850640 0.185244
vt 0.986995 0.730805
vt 0.986995 0.705403
vt 0.920618 0.705403
vt 0.850649 0.061772
vt 0.789345 0.000426
vt 0.728000 0.061730
vt 0.107200 0.149230
vt 0.085505 0.175535
vt 0.272340 0.322951
vt 0.914455 0.730953
vt 0.848078 0.730953
vt 0.848078 0.756354
vt 0.891876 0.604581
vt 0.825498 0.604581
vt 0.825498 0.629982
vt 0.000417 0.396398
vt 0.003528 0.432740
vt 0.255561 0.406295
vt 0.916732 0.731341
vt 0.850355 0.731341
vt 0.850355 0.756742
vt 0.887281 0.607848
vt 0.820904 0.607848
vt 0.820904 0.633249
vt 0.106796 0.662959
vt 0.136486 0.687838
vt 0.303785 0.478080
vt 0.956515 0.606410
vt 0.956515 0.581009
vt 0.890138 0.581009
vt 0.374351 0.728428
vt 0.407068 0.725624
vt 0.382953 0.497334
vt 0.988976 0.731884
vt 0.988976 0.706483
vt 0.922599 0.706483
vt 0.895998 0.609848
vt 0.962375 0.609848
vt 0.962375 0.584447
vt 0.614655 0.635472
vt 0.637669 0.609229
vt 0.451941 0.451935
vt 0.920535 0.731792
vt 0.986913 0.731792
vt 0.986913 0.706391
vt 0.958206 0.603848
vt 0.958206 0.578447
vt 0.891829 0.578447
vt 0.727156 0.387425
vt 0.724972 0.350715
vt 0.470289 0.370144
vt 0.988469 0.730523
vt 0.988469 0.705121
vt 0.922092 0.705121
vt 0.899691 0.603848
vt 0.966069 0.603848
vt 0.966069 0.578447
vt 0.625964 0.118609
vt 0.597146 0.093052
vt 0.422782 0.294727
vt 0.920271 0.732111
vt 0.853894 0.732111
vt 0.853894 0.757512
vt 0.823305 0.606951
vt 0.823305 0.632352
vt 0.889682 0.632352
vt 0.350939 0.000417
vt 0.310896 0.003964
vt 0.342075 0.280346
vt 0.850372 0.729510
vt 0.850372 0.754912
vt 0.916750 0.754912
vt 0.890893 0.605456
vt 0.824515 0.605456
vt 0.824515 0.630857
vt 0.825499 0.579179
vt 0.891876 0.579179
vt 0.969150 0.604581
vt 0.891876 0.629982
vt 0.969150 0.629982
vt 0.848078 0.705551
vt 0.914455 0.705551
vt 0.986175 0.730953
vt 0.914455 0.756354
vt 0.986175 0.756354
vt 0.820904 0.582447
vt 0.887281 0.582447
vt 0.964556 0.607848
vt 0.887281 0.633249
vt 0.850355 0.705939
vt 0.916732 0.705940
vt 0.988452 0.731341
vt 0.916732 0.756742
vt 0.988452 0.756742
vt 0.956515 0.631812
vt 0.890138 0.606410
vt 0.890138 0.631812
vt 0.812863 0.606410
vt 0.812863 0.581009
vt 0.895998 0.635250
vt 0.962375 0.635250
vt 0.818723 0.635250
vt 0.895998 0.584447
vt 0.818723 0.584447
vt 0.958206 0.629250
vt 0.891829 0.603848
vt 0.891829 0.629250
vt 0.814555 0.603848
vt 0.814555 0.578447
vt 0.966069 0.629249
vt 0.822417 0.629250
vt 0.899691 0.629250
vt 0.899691 0.578447
vt 0.822417 0.578447
vt 0.823305 0.581549
vt 0.889682 0.606950
vt 0.966957 0.581549
vt 0.889682 0.581549
vt 0.966957 0.632352
vt 0.824515 0.580054
vt 0.890893 0.580054
vt 0.968167 0.605456
vt 0.890893 0.630857
vt 0.968167 0.630857
vt 0.920618 0.756206
vt 0.986995 0.756206
vt 0.920618 0.730805
vt 0.848899 0.730805
vt 0.848899 0.705403
vt 0.988976 0.757286
vt 0.922599 0.731884
vt 0.922599 0.757286
vt 0.850879 0.731884
vt 0.850879 0.706483
vt 0.986911 0.757193
vt 0.986911 0.731792
vt 0.920535 0.757193
vt 0.848815 0.731791
vt 0.920535 0.706390
vt 0.848815 0.706390
vt 0.988469 0.755924
vt 0.922092 0.730523
vt 0.922092 0.755924
vt 0.850372 0.730523
vt 0.850372 0.705121
vt 0.920271 0.706710
vt 0.853894 0.706710
vt 0.991991 0.732111
vt 0.920271 0.757512
vt 0.991991 0.757512
vt 0.850372 0.704109
vt 0.916750 0.729510
vt 0.988469 0.704109
vt 0.916750 0.704109
vt 0.988469 0.754912
vt 0.165220 0.932297
vt 0.213591 0.886842
vt 0.195617 0.839325
vt 0.272864 0.837263
vt 0.296844 0.874297
vt 0.363190 0.872236
vt 0.381164 0.824718
vt 0.440437 0.874297
vt 0.419647 0.836298
vt 0.468018 0.790842
vt 0.450044 0.743325
vt 0.527291 0.741263
vt 0.024553 0.877263
vt 0.024554 0.978869
vt 0.085878 0.953468
vt 0.085878 0.902665
vt 0.158858 0.928066
vt 0.336010 0.741263
vt 0.269664 0.743325
vt 0.251690 0.790842
vt 0.192417 0.741263
vt 0.347399 0.942842
vt 0.365373 0.895325
vt 0.288126 0.893263
vt 0.431718 0.893263
vt 0.109991 0.832995
vt 0.205026 0.797047
vt 0.159570 0.748676
vt 0.112053 0.766650
vt 0.109991 0.689403
vt 0.212971 0.974035
vt 0.212971 0.923232
vt 0.139991 0.948633
vt 0.274296 0.999436
vt 0.274296 0.897830
vt 0.549324 0.884795
vt 0.621036 0.883738
vt 0.602345 0.836499
vt 0.762489 0.841547
vt 0.829560 0.866949
vt 0.829560 0.816146
vt 0.806250 0.938965
vt 0.853927 0.985147
vt 0.891311 0.890668
vt 0.621079 0.883738
vt 0.687448 0.884795
vt 0.650065 0.790316
vt 0.753230 0.890668
vt 0.824942 0.891725
vt 0.699375 0.938965
vt 0.680683 0.891725
vt 0.614314 0.890668
vt 0.704541 0.836356
vt 0.751781 0.817664
vt 0.752838 0.751295
vt 0.752838 0.889376
vt 0.687405 0.884795
vt 0.650022 0.790316
vt 0.681720 0.889982
vt 0.615351 0.888925
vt 0.652734 0.983404
vt 0.753432 0.888925
vt 0.700411 0.937222
vt 0.681186 0.891725
vt 0.614817 0.890668
vt 0.652200 0.985147
vt 0.752898 0.890668
vt 0.699878 0.938965
vt 0.890884 0.892350
vt 0.752395 0.890668
vt 0.549368 0.884795
vt 0.602388 0.836499
vt 0.589372 0.659640
vt 0.429359 0.476441
vt 0.726043 0.424257
vt 0.471471 0.404915
vt 0.652405 0.146727
vt 0.448747 0.320364
vt 0.391245 0.000799
vt 0.374793 0.278541
vt 0.131114 0.124875
vt 0.294443 0.297799
vt 0.000578 0.359857
vt 0.253401 0.371984
vt 0.079558 0.635319
vt 0.279813 0.455951
vt 0.341476 0.728428
vt 0.350331 0.498959
vt 0.789315 0.246568
vt 0.814717 0.246568
vt 0.832678 0.228607
vt 0.850640 0.210645
vt 0.850640 0.159842
vt 0.832678 0.141881
vt 0.814717 0.123919
vt 0.763914 0.123919
vt 0.745952 0.141881
vt 0.727991 0.159842
vt 0.727991 0.210645
vt 0.745952 0.228607
vt 0.763914 0.246568
vt 0.763944 0.000417
vt 0.745976 0.018373
vt 0.728008 0.036328
vt 0.727991 0.087131
vt 0.745946 0.105099
vt 0.763902 0.123067
vt 0.789303 0.123075
vt 0.814705 0.123084
vt 0.832672 0.105129
vt 0.850640 0.087174
vt 0.850658 0.036371
vt 0.832702 0.018403
vt 0.814747 0.000435
vt 0.283279 0.310092
vt 0.254200 0.388870
vt 0.291613 0.467178
vt 0.366598 0.498350
vt 0.440734 0.464458
vt 0.471133 0.387777
vt 0.436008 0.307311
vt 0.358498 0.279160
vt 0.969150 0.579179
vt 0.986175 0.705551
vt 0.964556 0.582447
vt 0.964556 0.633250
vt 0.988452 0.705939
vt 0.812863 0.631812
vt 0.818723 0.609848
vt 0.814555 0.629250
vt 0.822417 0.603848
vt 0.966957 0.606950
vt 0.968167 0.580054
vt 0.848899 0.756206
vt 0.850879 0.757285
vt 0.848815 0.757193
vt 0.850372 0.755924
vt 0.991991 0.706710
vt 0.988469 0.729510
vt 0.129272 0.837263
vt 0.332793 0.779263
vt 0.383699 0.741263
vt 0.300061 0.836297
vt 0.395770 0.988297
vt 0.651697 0.985147
vt 0.658359 0.788678
vt 0.890884 0.790744
vn 0.000000 -1.000000 -0.000000
vn 0.000000 1.000000 -0.000000
vn 0.923879 0.000000 -0.382684
vn 0.923880 0.000000 0.382683
vn 0.382685 0.000000 0.923879
vn -0.382684 0.000000 0.923879
vn -0.923879 0.000000 0.382684
vn -0.923879 0.000000 -0.382684
vn 0.000000 -1.000000 0.000002
vn -0.382685 0.000000 -0.923879
vn 0.382684 0.000000 -0.923879
vn -0.473032 0.858981 0.195936
vn -0.473032 0.858982 0.195936
vn -0.349891 -0.925511 0.144929
vn -0.349892 -0.925511 0.144930
vn -0.473032 0.858982 -0.195936
vn -0.473032 0.858981 -0.195937
vn -0.349892 -0.925511 -0.144931
vn -0.349892 -0.925511 -0.144930
vn -0.195936 0.858982 -0.473032
vn -0.195937 0.858982 -0.473032
vn 0.195937 0.858981 -0.473032
vn 0.195936 0.858982 -0.473032
vn 0.473032 0.858981 -0.195936
vn 0.473032 0.858981 -0.195937
vn 0.473032 0.858981 0.195937
vn 0.195936 0.858982 0.473032
vn 0.195937 0.858981 0.473032
vn -0.195937 0.858982 0.473032
vn -0.195936 0.858982 0.473032
vn -0.144930 -0.925512 -0.349891
vn -0.144930 -0.925511 -0.349893
vn 0.144930 -0.925511 -0.349891
vn 0.144930 -0.925511 -0.349892
vn 0.349892 -0.925511 -0.144930
vn 0.349892 -0.925511 0.144931
vn 0.144930 -0.925511 0.349892
vn -0.144930 -0.925511 0.349892
vn 0.000000 0.840292 0.542134
vn -0.383347 0.840292 0.383346
vn -0.542134 0.840292 0.000000
vn -0.383347 0.840292 -0.383346
vn 0.000000 0.840292 -0.542134
vn 0.383347 0.840292 -0.383347
vn 0.542134 0.840292 0.000000
vn 0.383347 0.840292 0.383347
vn 0.000000 -0.914330 -0.404971
vn 0.286358 -0.914330 -0.286357
vn 0.000000 -1.000000 -0.000001
vn 0.404971 -0.914330 0.000000
vn -0.286358 -0.914329 0.286358
vn -0.286358 -0.914329 -0.286358
vn -0.404971 -0.914330 0.000000
vn 0.000000 -0.914330 0.404971
vn 0.286358 -0.914330 0.286357
vn -0.707107 0.000000 0.707107
vn -1.000000 0.000000 0.000000
vn -0.707107 0.000000 -0.707107
vn 0.000000 0.000000 -1.000000
vn 0.707107 0.000000 -0.707107
vn 1.000000 0.000000 0.000000
vn 0.707107 0.000000 0.707107
vn 0.000000 0.000000 1.000000
vn 0.000000 -1.000000 -0.000002
vn 0.000000 -1.000000 0.000001
vn 0.923880 0.000000 -0.382683
vn 0.923879 0.000000 0.382684
vn 0.382684 0.000000 0.923879
vn 0.382683 0.000000 0.923880
vn -0.382685 0.000000 0.923879
vn -0.382683 0.000000 0.923880
vn -0.923880 0.000000 -0.382683
vn -0.382684 0.000000 -0.923879
vn -0.382683 0.000000 -0.923880
vn 0.382685 0.000000 -0.923879
vn 0.382683 0.000000 -0.923880
vn -0.473032 0.858981 -0.195936
vn -0.349892 -0.925511 -0.144929
vn 0.195937 0.858982 -0.473032
vn 0.473032 0.858982 -0.195936
vn 0.473032 0.858982 0.195936
vn 0.195937 0.858982 0.473032
vn 0.349892 -0.925511 0.144929
s off
f 103/1/1 64/2/1 101/3/1
f 105/4/1 26/5/1 107/6/1
f 71/7/2 69/8/2 59/9/2
f 50/10/3 19/11/3 20/12/3
f 58/13/1 55/14/1 20/15/1
f 53/16/2 50/17/2 17/18/2
f 60/19/4 23/20/4 24/21/4
f 68/22/1 65/23/1 24/24/1
f 63/25/2 60/26/2 21/27/2
f 75/28/5 25/29/5 26/30/5
f 75/31/2 27/32/2 77/33/2
f 78/34/6 31/35/6 32/36/6
f 108/37/1 32/38/1 109/39/1
f 94/40/2 78/41/2 29/42/2
f 81/43/7 35/44/7 36/45/7
f 125/46/1 111/47/1 36/48/1
f 81/49/2 33/50/2 83/51/2
f 84/52/8 39/53/8 40/54/8
f 114/55/9 40/56/9 115/57/9
f 96/58/2 84/59/2 37/60/2
f 87/61/10 43/62/10 44/63/10
f 127/64/1 117/65/1 44/66/1
f 87/67/2 41/68/2 89/69/2
f 90/70/11 47/71/11 48/72/11
f 120/73/1 48/74/1 121/75/1
f 98/76/2 90/77/2 45/78/2
f 19/79/2 50/17/2 53/16/2
f 51/80/12 53/16/12 49/81/12
f 53/16/13 52/82/13 11/83/13
f 18/84/1 55/14/1 58/13/1
f 57/85/14 58/13/14 54/86/14
f 58/13/15 56/87/15 14/88/15
f 23/89/2 60/26/2 63/25/2
f 61/90/16 63/25/16 59/91/16
f 59/91/17 63/25/17 62/92/17
f 22/93/1 65/23/1 68/22/1
f 67/94/18 68/22/18 64/95/18
f 68/22/19 66/96/19 16/97/19
f 25/98/2 75/31/2 93/99/2
f 76/100/20 93/99/20 74/101/20
f 93/99/21 77/33/21 15/102/21
f 79/103/2 31/104/2 78/41/2
f 3/105/22 79/103/22 94/40/22
f 94/40/23 80/106/23 1/107/23
f 35/108/2 81/49/2 95/109/2
f 82/110/24 95/109/24 70/111/24
f 95/109/25 83/51/25 3/112/25
f 39/113/2 84/59/2 96/58/2
f 7/114/26 85/115/26 96/58/26
f 96/58/26 86/116/26 5/117/26
f 43/118/2 87/67/2 97/119/2
f 9/120/27 88/121/27 97/119/27
f 97/119/28 89/69/28 7/122/28
f 47/123/2 90/77/2 98/76/2
f 91/124/29 98/76/29 73/125/29
f 98/76/30 92/126/30 9/127/30
f 106/128/1 28/129/1 105/4/1
f 106/128/31 123/130/31 104/131/31
f 123/130/32 107/6/32 2/132/32
f 30/133/1 108/37/1 124/134/1
f 110/135/33 124/134/33 99/136/33
f 124/134/34 109/39/34 4/137/34
f 34/138/1 111/139/1 125/46/1
f 113/140/35 125/46/35 100/141/35
f 125/46/35 112/142/35 6/143/35
f 38/144/1 114/55/1 126/145/1
f 116/146/36 126/145/36 101/147/36
f 126/145/36 115/57/36 8/148/36
f 119/149/1 42/150/1 117/65/1
f 119/149/37 127/64/37 102/151/37
f 127/64/37 118/152/37 10/153/37
f 46/154/1 120/73/1 128/155/1
f 10/156/38 122/157/38 128/155/38
f 128/155/38 121/75/38 12/158/38
f 43/159/2 88/160/2 92/161/2
f 9/162/39 92/161/39 88/160/39
f 47/163/2 91/164/2 52/165/2
f 52/165/40 91/164/40 11/166/40
f 19/167/2 51/168/2 62/169/2
f 62/169/41 51/168/41 13/170/41
f 27/171/2 23/172/2 61/173/2
f 77/174/42 61/173/42 15/175/42
f 25/176/2 76/177/2 80/178/2
f 80/178/43 76/177/43 1/179/43
f 83/180/44 79/181/44 3/182/44
f 31/183/2 79/181/2 83/180/2
f 37/184/2 35/185/2 82/186/2
f 86/187/45 82/186/45 5/188/45
f 89/189/46 85/190/46 7/191/46
f 41/192/2 39/193/2 85/190/2
f 2/194/47 107/195/47 110/196/47
f 4/197/48 109/198/48 113/199/48
f 112/200/1 36/201/1 38/202/1
f 115/203/49 40/204/49 42/205/49
f 6/206/50 112/200/50 116/207/50
f 122/208/1 118/209/1 44/210/1
f 57/211/1 121/212/1 48/213/1
f 12/214/51 121/212/51 57/211/51
f 107/195/1 26/215/1 30/216/1
f 66/217/1 24/218/1 28/219/1
f 16/220/52 66/217/52 106/221/52
f 56/222/1 20/223/1 22/224/1
f 14/225/53 56/222/53 67/226/53
f 113/199/1 109/198/1 32/227/1
f 10/228/54 118/209/54 122/208/54
f 8/229/55 115/203/55 119/230/55
f 33/231/56 34/232/56 32/36/56
f 37/233/57 38/234/57 36/45/57
f 41/235/58 42/236/58 40/54/58
f 45/237/59 46/238/59 44/63/59
f 17/239/60 18/240/60 48/72/60
f 21/241/61 22/242/61 20/12/61
f 27/243/62 28/244/62 24/21/62
f 25/29/63 29/245/63 30/246/63
f 99/247/1 4/248/1 100/249/1
f 100/249/1 6/250/1 101/3/1
f 101/3/1 8/251/1 102/252/1
f 102/252/1 10/253/1 103/1/1
f 103/1/64 12/254/64 54/255/64
f 54/255/1 14/256/1 64/2/1
f 64/2/1 16/257/1 104/258/1
f 104/258/9 2/259/9 99/247/9
f 101/3/1 64/2/1 100/249/1
f 101/3/65 102/252/65 103/1/65
f 103/1/1 54/255/1 64/2/1
f 64/2/49 104/258/49 99/247/49
f 123/130/1 105/4/1 107/6/1
f 64/2/65 99/247/65 100/249/65
f 69/8/2 1/260/2 74/261/2
f 74/261/2 15/262/2 59/9/2
f 59/9/2 13/263/2 49/264/2
f 49/264/2 11/265/2 73/266/2
f 73/266/2 9/267/2 72/268/2
f 72/268/2 7/269/2 71/7/2
f 71/7/2 5/270/2 70/271/2
f 70/271/2 3/272/2 69/8/2
f 69/8/2 74/261/2 59/9/2
f 73/266/2 72/268/2 49/264/2
f 71/7/2 59/9/2 72/268/2
f 71/7/2 70/271/2 69/8/2
f 72/268/2 59/9/2 49/264/2
f 56/87/9 58/13/9 20/15/9
f 18/240/66 17/239/66 50/10/66
f 55/273/66 18/240/66 50/10/66
f 50/10/3 20/12/3 55/273/3
f 52/82/2 53/16/2 17/18/2
f 22/242/67 21/241/67 60/19/67
f 66/96/1 68/22/1 24/24/1
f 22/242/67 60/19/67 65/274/67
f 62/92/2 63/25/2 21/27/2
f 60/19/4 24/21/4 65/274/4
f 28/244/68 27/243/68 75/28/68
f 93/99/2 75/31/2 77/33/2
f 28/244/69 75/28/69 105/275/69
f 30/246/70 29/245/70 78/34/70
f 75/28/69 26/30/69 105/275/69
f 124/134/1 108/37/1 109/39/1
f 30/246/71 78/34/71 108/276/71
f 80/106/2 94/40/2 29/42/2
f 78/34/71 32/36/71 108/276/71
f 34/232/7 33/231/7 81/43/7
f 112/142/64 125/46/64 36/48/64
f 34/232/7 81/43/7 111/277/7
f 95/109/2 81/49/2 83/51/2
f 81/43/7 36/45/7 111/277/7
f 38/234/8 37/233/8 84/52/8
f 126/145/1 114/55/1 115/57/1
f 38/234/8 84/52/8 114/278/8
f 86/116/2 96/58/2 37/60/2
f 84/52/72 40/54/72 114/278/72
f 42/236/73 41/235/73 87/61/73
f 118/152/1 127/64/1 44/66/1
f 42/236/74 87/61/74 117/279/74
f 97/119/2 87/67/2 89/69/2
f 87/61/74 44/63/74 117/279/74
f 46/238/75 45/237/75 90/70/75
f 128/155/1 120/73/1 121/75/1
f 46/238/76 90/70/76 120/280/76
f 92/126/2 98/76/2 45/78/2
f 90/70/76 48/72/76 120/280/76
f 51/80/2 19/79/2 53/16/2
f 13/281/13 51/80/13 49/81/13
f 49/81/13 53/16/13 11/83/13
f 57/85/1 18/84/1 58/13/1
f 12/282/15 57/85/15 54/86/15
f 54/86/15 58/13/15 14/88/15
f 61/90/2 23/89/2 63/25/2
f 15/283/16 61/90/16 59/91/16
f 13/284/77 59/91/77 62/92/77
f 67/94/64 22/93/64 68/22/64
f 14/285/78 67/94/78 64/95/78
f 64/95/78 68/22/78 16/97/78
f 76/100/2 25/98/2 93/99/2
f 1/286/20 76/100/20 74/101/20
f 74/101/21 93/99/21 15/102/21
f 94/40/2 79/103/2 78/41/2
f 69/287/79 3/105/79 94/40/79
f 69/287/23 94/40/23 1/107/23
f 82/110/2 35/108/2 95/109/2
f 5/288/80 82/110/80 70/111/80
f 70/111/24 95/109/24 3/112/24
f 85/115/2 39/113/2 96/58/2
f 71/289/26 7/114/26 96/58/26
f 71/289/81 96/58/81 5/117/81
f 88/121/2 43/118/2 97/119/2
f 72/290/27 9/120/27 97/119/27
f 72/290/82 97/119/82 7/122/82
f 91/124/2 47/123/2 98/76/2
f 11/291/30 91/124/30 73/125/30
f 73/125/30 98/76/30 9/127/30
f 123/130/1 106/128/1 105/4/1
f 16/292/32 106/128/32 104/131/32
f 104/131/31 123/130/31 2/132/31
f 110/135/1 30/133/1 124/134/1
f 2/293/34 110/135/34 99/136/34
f 99/136/34 124/134/34 4/137/34
f 113/140/1 34/138/1 125/46/1
f 4/294/35 113/140/35 100/141/35
f 100/141/35 125/46/35 6/143/35
f 116/146/9 38/144/9 126/145/9
f 6/295/83 116/146/83 101/147/83
f 101/147/83 126/145/83 8/148/83
f 127/64/1 119/149/1 117/65/1
f 8/296/37 119/149/37 102/151/37
f 102/151/37 127/64/37 10/153/37
f 122/157/1 46/154/1 128/155/1
f 103/297/38 10/156/38 128/155/38
f 103/297/38 128/155/38 12/158/38
f 45/298/2 43/159/2 92/161/2
f 17/299/2 47/163/2 52/165/2
f 21/300/2 19/167/2 62/169/2
f 77/174/2 27/171/2 61/173/2
f 29/301/2 25/176/2 80/178/2
f 33/302/2 31/183/2 83/180/2
f 86/187/2 37/184/2 82/186/2
f 89/189/2 41/192/2 85/190/2
f 116/207/1 112/200/1 38/202/1
f 119/230/1 115/203/1 42/205/1
f 46/303/1 122/208/1 44/210/1
f 18/304/1 57/211/1 48/213/1
f 110/196/1 107/195/1 30/216/1
f 106/221/1 66/217/1 28/219/1
f 67/226/1 56/222/1 22/224/1
f 34/305/1 113/199/1 32/227/1
f 31/35/56 33/231/56 32/36/56
f 35/44/57 37/233/57 36/45/57
f 39/53/58 41/235/58 40/54/58
f 43/62/59 45/237/59 44/63/59
f 47/71/60 17/239/60 48/72/60
f 19/11/61 21/241/61 20/12/61
f 23/20/62 27/243/62 24/21/62
f 26/30/63 25/29/63 30/246/63
