v 1.999999 0.000000 -2.000000
v 1.999999 0.000000 2.000000
v -1.999999 0.000000 2.000000
v -1.999998 0.000000 -2.000001
v 2.000000 6.551515 -1.999999
v 1.999998 6.551515 2.000001
v -2.000000 6.551515 1.999999
v -1.999999 6.551515 -2.000000
v 2.000000 3.345454 -1.999999
v -2.000000 3.345454 2.000000
v -1.999998 3.345454 -2.000000
v 1.000000 3.345454 -2.000000
v -2.000000 3.066667 2.000000
v -1.999998 3.066667 -2.000000
v 0.999999 3.066667 2.000000
v 1.000000 3.066667 -2.000000
v 1.999999 3.066667 2.000000
v 1.999998 3.345454 2.000000
v 0.999999 3.345454 2.000000
v 1.999999 3.066667 1.300000
v 0.999999 3.066667 1.300000
v 1.999998 3.345454 1.300000
v 0.999999 3.345454 1.300000
v 1.999999 3.066667 1.400000
v 0.999999 3.066667 1.400000
v 1.999999 2.787879 1.305532
v 0.999999 2.787879 1.305531
v 1.999999 2.787879 1.400000
v 0.999999 2.787879 1.400000
v 1.999999 3.066667 1.126627
v 0.999999 3.066667 1.126627
v 1.999999 2.787879 1.126627
v 0.999999 2.787879 1.126627
v 1.999999 2.509091 1.305532
v 0.999999 2.509091 1.305531
v 1.999999 2.509091 1.126627
v 0.999999 2.509091 1.126627
v 1.999999 2.787879 0.947723
v 0.999999 2.787879 0.947723
v 1.999999 2.509091 0.947723
v 0.999999 2.509091 0.947723
v 1.999999 2.230303 1.126627
v 0.999999 2.230303 1.126627
v 1.999999 2.230303 0.947723
v 0.999999 2.230303 0.947723
v 1.999999 2.509091 0.768819
v 0.999999 2.509091 0.768818
v 1.999999 2.230303 0.768819
v 0.999999 2.230303 0.768818
v 1.999999 1.951515 0.947723
v 0.999999 1.951515 0.947723
v 1.999999 1.951515 0.768818
v 0.999999 1.951515 0.768818
v 1.999999 2.230303 0.589914
v 0.999999 2.230303 0.589914
v 1.999999 1.951515 0.589914
v 0.999999 1.951515 0.589914
v 1.999999 1.672727 0.768818
v 0.999999 1.672727 0.768818
v 1.999999 1.672727 0.589914
v 0.999999 1.672727 0.589914
v 1.999999 1.951515 0.411010
v 0.999999 1.951515 0.411009
v 1.999999 1.672727 0.411010
v 0.999999 1.672727 0.411009
v 1.999999 1.393939 0.589914
v 0.999999 1.393939 0.589914
v 1.999999 1.393939 0.411010
v 0.999999 1.393939 0.411009
v 1.999999 1.672727 0.232105
v 0.999999 1.672727 0.232105
v 1.999999 1.393939 0.232105
v 0.999999 1.393939 0.232105
v 1.999999 1.115151 0.411010
v 0.999999 1.115151 0.411009
v 1.999999 1.115151 0.232105
v 0.999999 1.115151 0.232105
v 1.999999 1.393939 0.053201
v 0.999999 1.393939 0.053201
v 1.999999 1.115151 0.053201
v 0.999999 1.115151 0.053201
v 1.999999 0.836363 0.232105
v 0.999999 0.836363 0.232105
v 1.999999 0.836363 0.053201
v 0.999999 0.836363 0.053201
v 1.999999 1.115151 -0.125703
v 0.999999 1.115151 -0.125704
v 1.999999 0.836363 -0.125704
v 0.999999 0.836363 -0.125704
v 1.999999 0.557575 0.053201
v 0.999999 0.557575 0.053201
v 1.999999 0.557575 -0.125704
v 0.999999 0.557575 -0.125704
v 1.999999 0.836363 -0.304608
v 0.999999 0.836363 -0.304608
v 0.999999 0.557575 -0.304608
v 1.999999 0.278787 -0.125704
v 0.999999 0.278787 -0.125704
v 1.999999 0.278787 -0.304608
v 0.999999 0.278787 -0.304608
v 1.999999 0.557575 -0.304608
v 1.999999 0.557575 -0.483512
v 0.999999 0.557575 -0.483512
v 1.999999 0.278787 -0.483512
v 1.999999 0.000000 -0.304608
v 0.999999 0.000000 -0.304608
v 0.999999 0.278787 -0.483512
v 1.999999 0.278787 -0.662417
v 0.999999 0.278787 -0.662417
v 1.999999 0.000000 -0.662417
v 0.999999 0.000000 -0.662417
vt 0.628928 0.628928
vt 0.628928 0.315195
vt 0.315195 0.315195
vt 0.628928 0.314220
vt 0.315195 0.314220
vt 0.315195 0.000487
vt 0.943635 0.866176
vt 0.943635 0.685780
vt 0.629902 0.685780
vt 0.865202 0.503434
vt 0.629902 0.503435
vt 0.629902 0.315195
vt 0.000487 0.794612
vt 0.314220 0.794612
vt 0.314220 0.606372
vt 0.629902 0.684806
vt 0.629902 0.504409
vt 0.865202 0.504409
vt 0.000487 0.370098
vt 0.314220 0.370098
vt 0.314220 0.605398
vt 0.078920 0.850490
vt 0.078920 0.795586
vt 0.000487 0.795586
vt 0.788717 0.883812
vt 0.867150 0.883812
vt 0.867150 0.899499
vt 0.709310 0.914505
vt 0.709310 0.900473
vt 0.787743 0.900473
vt 0.474010 0.929511
vt 0.552443 0.929512
vt 0.552443 0.936921
vt 0.220694 0.838657
vt 0.220694 0.852689
vt 0.205008 0.852689
vt 0.000487 0.900473
vt 0.000487 0.884786
vt 0.078920 0.884786
vt 0.867150 0.867151
vt 0.867150 0.882838
vt 0.788717 0.882838
vt 0.393627 0.929511
vt 0.393627 0.943110
vt 0.315194 0.943110
vt 0.237736 0.926246
vt 0.159303 0.926246
vt 0.159303 0.912214
vt 0.204033 0.809618
vt 0.204033 0.823650
vt 0.188347 0.823650
vt 0.709310 0.899499
vt 0.709310 0.883812
vt 0.787743 0.883812
vt 0.237736 0.862231
vt 0.237736 0.877917
vt 0.159303 0.877917
vt 0.158328 0.927221
vt 0.158328 0.941253
vt 0.079895 0.941253
vt 0.473035 0.943543
vt 0.394602 0.943543
vt 0.394602 0.929511
vt 0.234812 0.809618
vt 0.234812 0.823650
vt 0.219126 0.823650
vt 0.629902 0.899499
vt 0.629902 0.883812
vt 0.708335 0.883812
vt 0.158328 0.845570
vt 0.158328 0.861256
vt 0.079895 0.861256
vt 0.708335 0.900473
vt 0.708335 0.914505
vt 0.629902 0.914505
vt 0.173335 0.827944
vt 0.159303 0.827944
vt 0.159303 0.812257
vt 0.079895 0.811273
vt 0.079895 0.795586
vt 0.158328 0.795586
vt 0.158328 0.828909
vt 0.158328 0.844595
vt 0.079895 0.844595
vt 0.473035 0.914505
vt 0.473035 0.928537
vt 0.394602 0.928537
vt 0.474009 0.928537
vt 0.474009 0.914505
vt 0.552443 0.914505
vt 0.173335 0.811278
vt 0.159303 0.811273
vt 0.159308 0.795586
vt 0.000487 0.867151
vt 0.000487 0.851464
vt 0.078920 0.851464
vt 0.158328 0.812248
vt 0.158328 0.827934
vt 0.079895 0.827934
vt 0.867150 0.900473
vt 0.867150 0.914505
vt 0.788717 0.914505
vt 0.315194 0.913530
vt 0.315194 0.899498
vt 0.393627 0.899498
vt 0.173335 0.844605
vt 0.159303 0.844605
vt 0.159303 0.828918
vt 0.235787 0.859307
vt 0.235787 0.843621
vt 0.314220 0.843621
vt 0.158328 0.878892
vt 0.158328 0.894579
vt 0.079895 0.894579
vt 0.158328 0.912214
vt 0.158328 0.926246
vt 0.079895 0.926246
vt 0.000487 0.930486
vt 0.000487 0.916454
vt 0.078920 0.916454
vt 0.204033 0.838657
vt 0.204033 0.852689
vt 0.188347 0.852689
vt 0.000487 0.883812
vt 0.000487 0.868125
vt 0.078920 0.868125
vt 0.158328 0.862231
vt 0.158328 0.877917
vt 0.079895 0.877917
vt 0.867150 0.915480
vt 0.867150 0.929512
vt 0.788717 0.929512
vt 0.708335 0.929512
vt 0.629902 0.929512
vt 0.629902 0.915480
vt 0.297559 0.880208
vt 0.297559 0.894240
vt 0.281872 0.894240
vt 0.394602 0.898524
vt 0.394602 0.882837
vt 0.473035 0.882837
vt 0.708335 0.867151
vt 0.708335 0.882838
vt 0.629902 0.882838
vt 0.078920 0.901447
vt 0.078920 0.915480
vt 0.000487 0.915480
vt 0.473035 0.913530
vt 0.394602 0.913530
vt 0.394602 0.899498
vt 0.314220 0.880208
vt 0.314220 0.894240
vt 0.298533 0.894240
vt 0.709310 0.882838
vt 0.709310 0.867151
vt 0.787743 0.867151
vt 0.787743 0.915480
vt 0.787743 0.929512
vt 0.709310 0.929512
vt 0.550494 0.913530
vt 0.550494 0.899498
vt 0.628928 0.899498
vt 0.265211 0.880208
vt 0.265211 0.866176
vt 0.280898 0.866176
vt 0.550494 0.898524
vt 0.550494 0.882837
vt 0.628928 0.882837
vt 0.158328 0.895553
vt 0.158328 0.911240
vt 0.079895 0.911240
vt 0.999513 0.078920
vt 0.999513 0.314220
vt 0.819116 0.314220
vt 0.629902 0.078920
vt 0.629902 0.000487
vt 0.645589 0.000487
vt 0.000487 0.369123
vt 0.314220 0.369123
vt 0.314220 0.188727
vt 0.315194 0.881863
vt 0.628928 0.881863
vt 0.628928 0.866176
vt 0.628928 0.629902
vt 0.315195 0.629902
vt 0.315195 0.865202
vt 0.235787 0.795586
vt 0.314220 0.795586
vt 0.314220 0.842646
vt 0.393627 0.882837
vt 0.393627 0.898524
vt 0.315194 0.898524
vt 0.237736 0.878892
vt 0.237736 0.894579
vt 0.159303 0.894579
vt 0.393627 0.914505
vt 0.393627 0.928537
vt 0.315194 0.928537
vt 0.159303 0.911240
vt 0.159303 0.895553
vt 0.237736 0.895553
vt 0.237736 0.927221
vt 0.237736 0.941253
vt 0.159303 0.941253
vt 0.246120 0.877917
vt 0.238710 0.877917
vt 0.238710 0.862231
vt 0.315195 0.628928
vt 0.628927 0.000487
vt 0.629902 0.866176
vt 0.943635 0.315195
vt 0.943635 0.503434
vt 0.000487 0.606372
vt 0.943635 0.684805
vt 0.000487 0.605398
vt 0.000487 0.850490
vt 0.943635 0.504409
vt 0.788717 0.899499
vt 0.787743 0.914505
vt 0.474010 0.936921
vt 0.788717 0.867151
vt 0.205008 0.838657
vt 0.220694 0.824625
vt 0.078920 0.900473
vt 0.205008 0.824625
vt 0.315194 0.929512
vt 0.237736 0.912214
vt 0.188347 0.795586
vt 0.188347 0.809618
vt 0.204033 0.795586
vt 0.787743 0.899499
vt 0.159303 0.862231
vt 0.079895 0.927221
vt 0.473035 0.929511
vt 0.219126 0.795586
vt 0.219126 0.809618
vt 0.234812 0.795586
vt 0.708335 0.899499
vt 0.079895 0.845570
vt 0.629902 0.900473
vt 0.187367 0.812257
vt 0.173335 0.812257
vt 0.187367 0.827944
vt 0.158328 0.811273
vt 0.079895 0.828909
vt 0.394602 0.914505
vt 0.552443 0.928537
vt 0.187372 0.795596
vt 0.173340 0.795591
vt 0.187367 0.811283
vt 0.078920 0.867151
vt 0.079895 0.812248
vt 0.788717 0.900473
vt 0.393627 0.913530
vt 0.187367 0.828918
vt 0.173335 0.828918
vt 0.187367 0.844605
vt 0.314220 0.859307
vt 0.079895 0.878892
vt 0.079895 0.912214
vt 0.078920 0.930486
vt 0.079895 0.862231
vt 0.188347 0.838657
vt 0.204033 0.824625
vt 0.078920 0.883812
vt 0.188347 0.824625
vt 0.788717 0.915480
vt 0.708335 0.915480
vt 0.281872 0.866176
vt 0.281872 0.880208
vt 0.297559 0.866176
vt 0.473035 0.898524
vt 0.629902 0.867151
vt 0.000487 0.901447
vt 0.473035 0.899498
vt 0.298533 0.866176
vt 0.298533 0.880208
vt 0.314220 0.866176
vt 0.787743 0.882838
vt 0.709310 0.915480
vt 0.628928 0.913530
vt 0.079895 0.895553
vt 0.280898 0.894240
vt 0.628928 0.898524
vt 0.265211 0.894240
vt 0.819116 0.000487
vt 0.999513 0.000487
vt 0.818142 0.314220
vt 0.818142 0.000487
vt 0.629902 0.314220
vt 0.000487 0.000487
vt 0.000487 0.173040
vt 0.314220 0.000487
vt 0.000487 0.188727
vt 0.315194 0.866176
vt 0.628928 0.865202
vt 0.235787 0.842646
vt 0.315194 0.882837
vt 0.159303 0.878892
vt 0.315194 0.914505
vt 0.237736 0.911240
vt 0.159303 0.927221
vt 0.246554 0.862231
vt 0.260152 0.877917
vt 0.260152 0.862231
vn 0.000000 1.000000 0.000000
vn 0.000000 -1.000000 0.000000
vn 1.000000 0.000000 0.000000
vn 0.000000 -0.000000 1.000000
vn 0.000000 0.000001 -1.000000
vn -1.000000 0.000000 0.000000
vn 0.000000 0.000000 -1.000000
vn 0.000001 0.000000 -1.000000
vn 0.000001 0.000001 -1.000000
vn -1.000000 0.000000 -0.000001
vn -0.000001 -0.000000 1.000000
f 1/1/1 4/2/1 3/3/1
f 5/4/2 6/5/2 7/6/2
f 11/7/3 8/8/3 7/9/3
f 12/10/4 11/11/4 4/12/4
f 3/13/3 4/14/3 11/15/3
f 8/16/4 11/17/4 12/18/4
f 13/19/2 14/20/2 16/21/2
f 18/22/1 22/23/1 23/24/1
f 23/25/5 22/26/5 20/27/5
f 51/28/2 53/29/2 52/30/2
f 27/31/2 26/32/2 28/33/2
f 37/34/6 35/35/6 27/36/6
f 25/37/4 29/38/4 28/39/4
f 30/40/7 32/41/7 33/42/7
f 20/43/1 30/44/1 31/45/1
f 34/46/2 35/47/2 37/48/2
f 45/49/6 43/50/6 37/51/6
f 27/52/4 35/53/4 34/54/4
f 38/55/8 40/56/8 41/57/8
f 32/58/1 38/59/1 39/60/1
f 42/61/2 43/62/2 45/63/2
f 53/64/6 51/65/6 45/66/6
f 37/67/4 43/68/4 42/69/4
f 46/70/7 48/71/7 49/72/7
f 40/73/1 46/74/1 47/75/1
f 61/76/6 59/77/6 53/78/6
f 45/79/4 51/80/4 50/81/4
f 54/82/7 56/83/7 57/84/7
f 48/85/1 54/86/1 55/87/1
f 59/88/2 61/89/2 60/90/2
f 69/91/6 67/92/6 61/93/6
f 53/94/4 59/95/4 58/96/4
f 62/97/7 64/98/7 65/99/7
f 56/100/1 62/101/1 63/102/1
f 67/103/2 69/104/2 68/105/2
f 77/106/6 75/107/6 69/108/6
f 61/109/4 67/110/4 66/111/4
f 70/112/7 72/113/7 73/114/7
f 64/115/1 70/116/1 71/117/1
f 75/118/2 77/119/2 76/120/2
f 85/121/6 83/122/6 77/123/6
f 69/124/4 75/125/4 74/126/4
f 78/127/7 80/128/7 81/129/7
f 72/130/1 78/131/1 79/132/1
f 82/133/2 83/134/2 85/135/2
f 93/136/6 91/137/6 85/138/6
f 77/139/4 83/140/4 82/141/4
f 86/142/7 88/143/7 89/144/7
f 80/145/1 86/146/1 87/147/1
f 90/148/2 91/149/2 93/150/2
f 100/151/6 98/152/6 93/153/6
f 85/154/4 91/155/4 90/156/4
f 88/157/1 94/158/1 95/159/1
f 98/160/2 100/161/2 99/162/2
f 107/163/6 109/164/6 111/165/6
f 93/166/4 98/167/4 97/168/4
f 108/169/7 110/170/7 111/171/7
f 19/172/7 10/173/7 7/174/7
f 19/175/9 18/176/9 17/177/9
f 6/178/10 5/179/10 9/180/10
f 15/181/3 16/182/3 12/183/3
f 11/184/1 10/185/1 19/186/1
f 25/187/2 24/188/2 17/189/2
f 94/190/7 101/191/7 96/192/7
f 102/193/7 104/194/7 107/195/7
f 101/196/1 102/197/1 103/198/1
f 100/199/4 106/200/4 105/201/4
f 104/202/1 108/203/1 109/204/1
f 27/205/6 29/206/6 25/207/6
f 2/208/1 1/1/1 3/3/1
f 8/209/2 5/4/2 7/6/2
f 10/210/3 11/7/3 7/9/3
f 1/211/11 9/212/11 12/10/11
f 10/213/3 3/13/3 11/15/3
f 12/10/4 4/12/4 1/211/4
f 8/16/4 12/18/4 5/214/4
f 15/215/2 13/19/2 16/21/2
f 19/216/1 18/22/1 23/24/1
f 12/18/11 9/217/11 5/214/11
f 21/218/7 23/25/7 20/27/7
f 50/219/2 51/28/2 52/30/2
f 29/220/2 27/31/2 28/33/2
f 31/221/7 30/40/7 33/42/7
f 37/34/6 33/222/6 41/223/6
f 24/224/4 25/37/4 28/39/4
f 33/222/6 39/225/6 41/223/6
f 37/34/6 27/36/6 33/222/6
f 21/226/1 20/43/1 31/45/1
f 36/227/2 34/46/2 37/48/2
f 47/228/6 45/49/6 41/229/6
f 47/228/6 49/230/6 45/49/6
f 26/231/4 27/52/4 34/54/4
f 39/232/7 38/55/7 41/57/7
f 45/49/6 37/51/6 41/229/6
f 33/233/1 32/58/1 39/60/1
f 44/234/2 42/61/2 45/63/2
f 55/235/6 53/64/6 49/236/6
f 55/235/6 57/237/6 53/64/6
f 36/238/4 37/67/4 42/69/4
f 47/239/7 46/70/7 49/72/7
f 53/64/6 45/66/6 49/236/6
f 41/240/1 40/73/1 47/75/1
f 63/241/6 61/76/6 57/242/6
f 63/241/6 65/243/6 61/76/6
f 44/244/11 45/79/11 50/81/11
f 55/245/7 54/82/7 57/84/7
f 61/76/6 53/78/6 57/242/6
f 49/246/1 48/85/1 55/87/1
f 58/247/2 59/88/2 60/90/2
f 71/248/6 69/91/6 65/249/6
f 71/248/6 73/250/6 69/91/6
f 52/251/4 53/94/4 58/96/4
f 63/252/7 62/97/7 65/99/7
f 69/91/6 61/93/6 65/249/6
f 57/253/1 56/100/1 63/102/1
f 66/254/2 67/103/2 68/105/2
f 79/255/6 77/106/6 73/256/6
f 79/255/6 81/257/6 77/106/6
f 60/258/4 61/109/4 66/111/4
f 71/259/7 70/112/7 73/114/7
f 77/106/6 69/108/6 73/256/6
f 65/260/1 64/115/1 71/117/1
f 74/261/2 75/118/2 76/120/2
f 79/262/7 78/127/7 81/129/7
f 85/121/6 81/263/6 89/264/6
f 68/265/4 69/124/4 74/126/4
f 81/263/6 87/266/6 89/264/6
f 85/121/6 77/123/6 81/263/6
f 73/267/1 72/130/1 79/132/1
f 84/268/2 82/133/2 85/135/2
f 95/269/6 93/136/6 89/270/6
f 95/269/6 96/271/6 93/136/6
f 76/272/4 77/139/4 82/141/4
f 87/273/7 86/142/7 89/144/7
f 93/136/6 85/138/6 89/270/6
f 81/274/1 80/145/1 87/147/1
f 92/275/2 90/148/2 93/150/2
f 103/276/6 100/151/6 96/277/6
f 103/276/6 107/278/6 100/151/6
f 84/279/4 85/154/4 90/156/4
f 89/280/1 88/157/1 95/159/1
f 100/151/6 93/153/6 96/277/6
f 97/281/2 98/160/2 99/162/2
f 109/282/7 108/169/7 111/171/7
f 106/283/6 107/163/6 111/165/6
f 92/284/4 93/166/4 97/168/4
f 106/283/6 100/285/6 107/163/6
f 6/286/8 18/287/8 19/172/8
f 3/288/7 19/175/7 2/289/7
f 19/172/7 7/174/7 6/286/7
f 3/288/7 10/290/7 19/175/7
f 2/291/6 17/292/6 1/293/6
f 6/178/6 9/180/6 18/294/6
f 19/175/7 17/177/7 2/289/7
f 19/295/3 15/181/3 12/183/3
f 12/296/1 11/184/1 19/186/1
f 17/292/6 9/180/6 1/293/6
f 9/180/6 17/292/6 18/294/6
f 15/297/2 25/187/2 17/189/2
f 95/298/7 94/190/7 96/192/7
f 103/299/7 102/193/7 107/195/7
f 96/300/1 101/196/1 103/198/1
f 99/301/4 100/199/4 105/201/4
f 107/302/1 104/202/1 109/204/1
f 27/205/6 21/303/6 33/304/6
f 21/303/6 31/305/6 33/304/6
f 27/205/6 25/207/6 21/303/6