v 0.000000 0.000000 4.000000
v 4.000000 0.000000 0.000000
v -4.000000 0.000000 0.000000
v 0.000000 0.000000 -4.000000
v 0.000000 2.740000 4.000000
v 4.000000 2.740000 0.000000
v -4.000000 2.740000 0.000000
v 0.000000 2.740000 -4.000000
vt 0.499761 0.499761
vt 0.000239 0.499761
vt 0.000239 0.000239
vt 0.000239 0.500239
vt 0.499761 0.500239
vt 0.499761 0.999761
vt 0.999761 0.742191
vt 0.500239 0.742191
vt 0.500239 0.500239
vt 0.500239 0.742669
vt 0.999761 0.742669
vt 0.999761 0.984622
vt 0.500239 0.000239
vt 0.999761 0.000239
vt 0.999761 0.242192
vt 0.999761 0.484622
vt 0.500239 0.484622
vt 0.500239 0.242669
vt 0.499761 0.000239
vt 0.000239 0.999761
vt 0.999761 0.500239
vt 0.500239 0.984622
vt 0.500239 0.242192
vt 0.999761 0.242669
vn 0.000000 1.000000 0.000000
vn 0.000000 -1.000000 0.000000
vn 0.707100 0.000000 0.707100
vn -0.707100 0.000000 0.707100
vn -0.707100 0.000000 -0.707100
vn 0.707100 0.000000 -0.707100
f 2/1/1 4/2/1 3/3/1
f 7/4/2 8/5/2 6/6/2
f 8/7/3 7/8/3 3/9/3
f 6/10/4 8/11/4 4/12/4
f 5/13/5 6/14/5 2/15/5
f 7/16/6 5/17/6 1/18/6
f 1/19/1 2/1/1 3/3/1
f 5/20/2 7/4/2 6/6/2
f 4/21/3 8/7/3 3/9/3
f 2/22/4 6/10/4 4/12/4
f 1/23/5 5/13/5 2/15/5
f 3/24/6 7/16/6 1/18/6
