v -3.000000 0.000001 -5.000000
v -3.000000 2.129129 4.500000
v 3.000000 2.129129 4.500000
v 3.000000 6.999999 4.500001
v -3.000000 6.999999 4.500001
v -3.000000 5.000003 -4.999997
v 3.000000 0.000001 -5.000000
v 3.000000 2.129126 9.523668
v 3.000000 6.999999 9.523673
v 3.000000 0.000002 -10.000000
v 3.000000 5.000003 -4.999997
v 3.000000 5.000003 -9.999997
v -3.000000 6.999999 9.523671
v -3.000000 0.000002 -10.000000
v -3.000000 5.000003 -9.999997
v -3.000000 2.129126 9.523666
vt 0.225384 0.250191
vt 0.225283 0.574067
vt 0.027465 0.574067
vt 0.480651 0.575741
vt 0.282834 0.575686
vt 0.282823 0.252671
vt 0.954529 0.439640
vt 0.927997 0.762427
vt 0.768566 0.784356
vt 0.950230 0.924074
vt 0.790800 0.946003
vt 0.544395 0.208276
vt 0.707667 0.232212
vt 0.727292 0.554629
vt 0.932044 0.276162
vt 0.791051 0.462125
vt 0.768566 0.298647
vt 0.027364 0.250191
vt 0.480843 0.252726
vt 0.282788 0.738854
vt 0.480606 0.738909
vt 0.568062 0.531287
vt 0.225283 0.085174
vt 0.027364 0.085174
vt 0.784249 0.201656
vt 0.784351 0.036639
vt 0.982269 0.201656
vt 0.982269 0.036639
vt 0.480889 0.087709
vt 0.282869 0.087654
vt 0.731602 0.068940
vt 0.568330 0.045004
vt 0.722965 0.759174
vt 0.722965 0.956992
vt 0.562033 0.956992
vt 0.562033 0.759174
vt 0.027465 0.737235
vt 0.225282 0.737235
vt 0.544395 0.692729
vt 0.703625 0.716072
vn 0.000000 0.975794 -0.218694
vn 0.000000 -0.978550 0.206010
vn -1.000000 0.000000 0.000000
vn 1.000000 -0.000000 0.000000
vn 0.000000 -1.000000 0.000000
vn 0.000000 1.000000 0.000000
vn 0.000000 -0.000000 1.000000
vn 0.000001 0.000000 -1.000000
vn 0.000000 0.000000 -1.000000
vn -0.000000 1.000000 0.000000
f 1/1/1 2/2/1 3/3/1
f 4/4/2 5/5/2 6/6/2
f 7/7/3 3/8/3 4/9/3
f 4/9/3 8/10/3 9/11/3
f 1/12/4 6/13/4 5/14/4
f 10/15/3 11/16/3 12/17/3
f 7/18/1 1/1/1 3/3/1
f 11/19/2 4/4/2 6/6/2
f 11/16/3 7/7/3 4/9/3
f 13/20/5 4/4/5 9/21/5
f 2/22/4 1/12/4 5/14/4
f 14/23/6 7/18/6 10/24/6
f 15/25/7 14/26/7 12/27/7
f 12/27/7 14/26/7 10/28/7
f 12/29/5 6/6/5 15/30/5
f 15/31/4 1/12/4 14/32/4
f 8/33/8 16/34/8 13/35/8
f 9/36/9 8/33/9 13/35/9
f 8/37/10 2/2/10 16/38/10
f 16/39/4 5/14/4 13/40/4
f 3/8/3 8/10/3 4/9/3
f 7/7/3 11/16/3 10/15/3
f 5/5/5 4/4/5 13/20/5
f 1/1/6 7/18/6 14/23/6
f 11/19/5 6/6/5 12/29/5
f 6/13/4 1/12/4 15/31/4
f 3/3/10 2/2/10 8/37/10
f 2/22/4 5/14/4 16/39/4
