v -1.000000 0.000000 3.622603
v -1.000000 0.000000 -3.622603
v 5.000000 0.000000 -1.000000
v 5.000000 0.000000 1.000000
v -1.000000 2.740000 3.622603
v -1.000000 2.740000 -3.622603
v 5.000000 2.740000 -1.000000
v 5.000000 2.740000 1.000000
v 7.500000 0.000000 -1.000000
v 7.500000 0.000000 1.000000
v 7.500000 2.740000 -1.000000
v 7.500000 2.740000 1.000000
v -1.000000 0.200000 3.622603
v -1.000000 2.740000 0.000000
v -1.000000 0.200000 -3.622603
v -1.000000 0.000000 0.000000
v -1.000000 0.200000 0.000000
v -1.200000 0.200000 3.622603
v -1.200000 0.200000 -3.622603
v -1.200000 0.200000 0.000000
v -1.200000 0.400000 3.622603
v -1.200000 0.400000 -3.622603
v -1.200000 0.400000 0.000000
v -1.400000 0.400000 3.622603
v -1.400000 0.400000 -3.622603
v -1.400000 0.400000 0.000000
v -1.400000 0.600000 3.622603
v -1.400000 0.600000 -3.622603
v -1.400000 0.600000 0.000000
v -1.600000 0.600000 3.622603
v -1.600000 0.600000 -3.622603
v -1.600000 0.600000 0.000000
v -1.600000 0.800000 3.622603
v -1.600000 0.800000 -3.622603
v -1.600000 0.800000 0.000000
v -1.800000 0.800000 3.622603
v -1.800000 0.800000 -3.622603
v -1.800000 0.800000 0.000000
v -1.800000 1.000000 3.622603
v -1.800000 1.000000 -3.622603
v -1.800000 1.000000 0.000000
v -4.000000 1.000000 3.622603
v -4.000000 1.000000 -3.622603
v -4.000000 1.000000 0.000000
v -4.000000 2.740000 3.622603
v -4.000000 2.740000 -3.622603
v -4.000000 2.740000 0.000000
v -1.800000 2.740000 3.622603
v -1.800000 2.740000 -3.622603
v -1.800000 2.740000 0.000000
v -1.600000 2.740000 3.622603
v -1.600000 2.740000 -3.622603
v -1.600000 2.740000 0.000000
v -1.400000 2.740000 3.622603
v -1.400000 2.740000 -3.622603
v -1.400000 2.740000 0.000000
v -1.200000 2.740000 3.622603
v -1.200000 2.740000 -3.622603
v -1.200000 2.740000 0.000000
v 19.000000 0.000000 -1.000000
v 19.000000 0.000000 1.000000
v 19.000000 2.740000 -1.000000
v 19.000000 2.740000 1.000000
v 8.388138 2.740000 3.012781
v 9.875000 0.000000 4.754455
v 10.944466 0.000000 5.278952
v 8.388138 0.000000 3.012781
v 14.250000 0.000000 -5.750000
v 12.250000 0.000000 -5.750000
v 14.250000 2.740000 -5.750000
v 12.250000 2.740000 -5.750000
v 14.250000 0.000000 5.750000
v 12.250000 0.000000 5.750000
v 14.250000 2.740000 5.750000
v 12.250000 2.740000 5.750000
v 9.875000 2.740000 4.754455
v 10.944466 2.740000 5.278952
v 8.388138 0.000000 -3.012781
v 9.875000 0.000000 -4.754455
v 10.944466 0.000000 -5.278952
v 8.388138 2.740000 -3.012781
v 9.875000 2.740000 -4.754455
v 10.944466 2.740000 -5.278952
v 18.111864 2.740000 -3.012781
v 16.625000 2.740000 -4.754455
v 15.555534 2.740000 -5.278952
v 18.111864 0.000000 -3.012781
v 16.625000 0.000000 -4.754455
v 15.555534 0.000000 -5.278952
v 18.111864 0.000000 3.012781
v 16.625000 0.000000 4.754455
v 15.555534 0.000000 5.278952
v 18.111864 2.740000 3.012781
v 16.625000 2.740000 4.754455
v 15.555534 2.740000 5.278952
v 8.650000 3.872555 -0.800000
v 8.650000 3.872555 0.800000
v 17.850000 3.872555 -0.800000
v 17.850000 3.872555 0.800000
v 9.360510 3.872555 2.410225
v 14.050000 3.872555 -4.600000
v 12.450000 3.872555 -4.600000
v 14.050000 3.872555 4.600000
v 12.450000 3.872555 4.600000
v 10.550000 3.872555 3.803564
v 11.405573 3.872555 4.223162
v 9.360510 3.872555 -2.410225
v 10.550000 3.872555 -3.803564
v 11.405573 3.872555 -4.223162
v 17.139492 3.872555 -2.410225
v 15.950000 3.872555 -3.803564
v 15.094427 3.872555 -4.223162
v 17.139492 3.872555 2.410225
v 15.950000 3.872555 3.803564
v 15.094427 3.872555 4.223162
v 10.145000 4.919635 -0.540000
v 10.145000 4.919635 0.540000
v 16.355001 4.919635 -0.540000
v 16.355001 4.919635 0.540000
v 10.624595 4.919635 1.626902
v 13.790000 4.919635 -3.105000
v 12.710000 4.919635 -3.105000
v 13.790000 4.919635 3.105000
v 12.710000 4.919635 3.105000
v 11.427500 4.919635 2.567406
v 12.005012 4.919635 2.850635
v 10.624595 4.919635 -1.626902
v 11.427500 4.919635 -2.567406
v 12.005012 4.919635 -2.850635
v 15.875406 4.919635 -1.626902
v 15.072500 4.919635 -2.567406
v 14.494988 4.919635 -2.850635
v 15.875406 4.919635 1.626902
v 15.072500 4.919635 2.567406
v 14.494988 4.919635 2.850635
v 13.250000 4.807784 0.000000
vt 0.727082 0.751109
vt 0.881169 0.751161
vt 0.881171 0.742654
vt 0.085669 0.994965
vt 0.296325 0.891050
vt 0.084170 0.887548
vt 0.501701 0.453310
vt 0.501739 0.350323
vt 0.630473 0.350370
vt 0.923188 0.994987
vt 0.924668 0.895424
vt 0.726691 0.891126
vt 0.939417 0.401978
vt 0.630436 0.453358
vt 0.878441 0.120379
vt 0.621270 0.007969
vt 0.621270 0.163240
vt 0.998226 0.996621
vt 0.999705 0.897058
vt 0.985595 0.206102
vt 0.985595 0.120379
vt 0.003213 0.889205
vt 0.004713 0.996622
vt 0.572995 0.751056
vt 0.727085 0.742602
vt 0.394867 0.990490
vt 0.394897 0.922274
vt 0.323652 0.922228
vt 0.726646 0.990706
vt 0.720210 0.898963
vt 0.881174 0.734147
vt 0.727088 0.734095
vt 0.573001 0.734042
vt 0.881177 0.725640
vt 0.727091 0.725588
vt 0.573004 0.725535
vt 0.881180 0.717134
vt 0.727094 0.717081
vt 0.573007 0.717028
vt 0.881183 0.708627
vt 0.727097 0.708574
vt 0.573010 0.708521
vt 0.881186 0.700120
vt 0.727100 0.700067
vt 0.573013 0.700014
vt 0.881189 0.691613
vt 0.727103 0.691560
vt 0.573016 0.691507
vt 0.881192 0.683106
vt 0.727106 0.683053
vt 0.573019 0.683000
vt 0.881195 0.674599
vt 0.727109 0.674546
vt 0.573021 0.674493
vt 0.881168 0.673913
vt 0.881168 0.580337
vt 0.727082 0.580337
vt 0.727082 0.673913
vt 0.572995 0.580337
vt 0.512181 0.990566
vt 0.512211 0.922350
vt 0.629495 0.990643
vt 0.492685 0.318511
vt 0.586981 0.318511
vt 0.586981 0.163240
vt 0.492685 0.163240
vt 0.586981 0.007969
vt 0.595553 0.318511
vt 0.595553 0.163240
vt 0.595553 0.007969
vt 0.604125 0.318511
vt 0.604125 0.163240
vt 0.604125 0.007969
vt 0.612698 0.318511
vt 0.612698 0.163240
vt 0.612698 0.007969
vt 0.621270 0.318511
vt 0.700739 0.990689
vt 0.700770 0.922473
vt 0.707250 0.914636
vt 0.707216 0.990693
vt 0.713730 0.906799
vt 0.713693 0.990698
vt 0.720170 0.990702
vt 0.317145 0.990440
vt 0.317179 0.914382
vt 0.310158 0.906539
vt 0.310668 0.990435
vt 0.302911 0.898758
vt 0.304192 0.990493
vt 0.297715 0.990626
vt 0.472387 0.876618
vt 0.530713 0.876618
vt 0.530713 0.774125
vt 0.207905 0.876618
vt 0.207905 0.774125
vt 0.167429 0.774125
vt 0.306707 0.774125
vt 0.266231 0.774125
vt 0.266231 0.876618
vt 0.937193 0.774125
vt 0.870409 0.774125
vt 0.870409 0.876618
vt 0.736869 0.876618
vt 0.736869 0.774125
vt 0.696394 0.774125
vt 0.795195 0.876618
vt 0.795195 0.774125
vt 1.001351 0.774125
vt 0.937192 0.876618
vt 0.835671 0.774125
vt 0.835671 0.876618
vt 0.065908 0.876618
vt 0.065908 0.774125
vt 0.001749 0.774125
vt 0.132692 0.876618
vt 0.132692 0.774125
vt 0.167429 0.876618
vt 0.472387 0.774125
vt 0.408228 0.774125
vt 0.408228 0.876618
vt 0.341445 0.774125
vt 0.341445 0.876618
vt 0.306707 0.876618
vt 0.594872 0.876618
vt 0.594872 0.774125
vt 0.661656 0.876618
vt 0.661656 0.774125
vt 0.696394 0.876618
vt 0.415710 0.345903
vt 0.364367 0.314737
vt 0.388543 0.257809
vt 0.412855 0.113921
vt 0.362851 0.145778
vt 0.320798 0.097606
vt 0.066051 0.204083
vt 0.066615 0.260087
vt 0.007736 0.270139
vt 0.040831 0.348346
vt 0.091560 0.316585
vt 0.133549 0.365208
vt 0.264211 0.012504
vt 0.254426 0.070286
vt 0.198638 0.070895
vt 0.132249 0.098801
vt 0.090705 0.147635
vt 0.040091 0.116375
vt 0.357603 0.412405
vt 0.322881 0.364020
vt 0.314102 0.028983
vt 0.354400 0.049360
vt 0.162060 0.083874
vt 0.138308 0.029588
vt 0.290963 0.083002
vt 0.190296 0.450881
vt 0.200181 0.392787
vt 0.256221 0.392176
vt 0.446248 0.190818
vt 0.388277 0.201796
vt 0.163494 0.379956
vt 0.140111 0.434256
vt 0.447634 0.266977
vt 0.316947 0.433669
vt 0.292956 0.379088
vt 0.266267 0.450895
vt 0.285759 0.147997
vt 0.244122 0.130806
vt 0.209291 0.131351
vt 0.186580 0.139713
vt 0.327730 0.213092
vt 0.327683 0.248040
vt 0.167892 0.148937
vt 0.142419 0.179534
vt 0.168888 0.314753
vt 0.187698 0.323832
vt 0.268239 0.323084
vt 0.286944 0.313813
vt 0.127304 0.249486
vt 0.143156 0.284315
vt 0.312288 0.283076
vt 0.210581 0.332044
vt 0.245488 0.331492
vt 0.311622 0.178290
vt 0.266966 0.138967
vt 0.126774 0.214544
vt 0.227372 0.231343
vt 0.247777 0.681942
vt 0.247778 0.506219
vt 0.531350 0.681942
vt 0.296215 0.883209
vt 0.728126 0.891143
vt 0.939348 0.588519
vt 0.939486 0.215436
vt 0.878441 0.206102
vt 0.572998 0.742549
vt 0.323622 0.990444
vt 0.720214 0.891122
vt 0.572995 0.673913
vt 0.629525 0.922426
vt 0.492685 0.007969
vt 0.700773 0.914632
vt 0.707253 0.906795
vt 0.713734 0.898958
vt 0.323656 0.914387
vt 0.316634 0.906481
vt 0.309387 0.898625
vt 0.302801 0.890917
vt 1.001351 0.876618
vt 0.001749 0.876618
vt 0.007867 0.193992
vt 0.099578 0.413666
vt 0.188678 0.012504
vt 0.097897 0.050638
vt 0.221877 0.623243
vt 0.322328 0.748030
vt 0.291139 0.732734
vt 0.456800 0.748030
vt 0.418727 0.761768
vt 0.360401 0.761767
vt 0.487989 0.732734
vt 0.557251 0.564917
vt 0.557251 0.623243
vt 0.531350 0.506219
vt 0.456800 0.440131
vt 0.487989 0.455426
vt 0.322328 0.440130
vt 0.360401 0.426393
vt 0.418727 0.426393
vt 0.291139 0.455426
vt 0.221877 0.564917
vn 1.000000 0.000000 0.000000
vn -0.400500 0.000000 0.916300
vn 0.000000 1.000000 0.000000
vn -0.400500 0.000000 -0.916300
vn 0.000000 -1.000000 0.000000
vn 0.000000 0.000000 -1.000000
vn 0.000000 0.000000 1.000000
vn -1.000000 0.000000 0.000000
vn 0.339400 0.000000 0.940600
vn -0.339400 0.000000 0.940600
vn 0.760500 0.000000 -0.649300
vn -0.339400 0.000000 -0.940600
vn 0.914900 0.000000 -0.403700
vn 0.339400 0.000000 -0.940600
vn 0.440300 0.000000 -0.897800
vn 0.914900 0.000000 0.403700
vn 0.760500 0.000000 0.649300
vn 0.440300 0.000000 0.897800
vn -0.914900 0.000000 0.403700
vn -0.760500 0.000000 0.649300
vn -0.440300 0.000000 0.897800
vn -0.914900 0.000000 -0.403700
vn -0.760500 0.000000 -0.649300
vn -0.440300 0.000000 -0.897800
vn -0.646800 -0.707200 -0.285400
vn -0.538200 -0.706500 0.459500
vn 0.701700 -0.712500 0.000000
vn 0.538200 -0.706500 -0.459500
vn 0.000000 -0.712500 0.701700
vn 0.538200 -0.706500 0.459500
vn -0.538200 -0.706500 -0.459500
vn -0.308800 -0.712800 0.629700
vn 0.238200 -0.712400 0.660100
vn -0.238200 -0.712400 0.660100
vn 0.000000 -0.712500 -0.701700
vn -0.646800 -0.707200 0.285400
vn 0.308800 -0.712800 -0.629700
vn -0.701700 -0.712500 0.000000
vn 0.646800 -0.707200 -0.285400
vn 0.308800 -0.712800 0.629700
vn 0.238200 -0.712400 -0.660100
vn 0.646800 -0.707200 0.285400
vn -0.308800 -0.712800 -0.629700
vn -0.238200 -0.712400 -0.660100
vn -0.252500 -0.819300 0.514800
vn 0.000000 -0.819100 0.573700
vn 0.194700 -0.819000 0.539700
vn -0.530100 -0.815000 0.233900
vn -0.573700 -0.819100 0.000000
vn 0.441200 -0.814500 0.376700
vn 0.252500 -0.819300 -0.514800
vn -0.252500 -0.819300 -0.514800
vn 0.530100 -0.815000 -0.233900
vn -0.530100 -0.815000 -0.233900
vn 0.000000 -0.819100 -0.573700
vn -0.194700 -0.819000 -0.539700
vn -0.441200 -0.814500 0.376700
vn -0.194700 -0.819000 0.539700
vn 0.252500 -0.819300 0.514800
vn 0.573700 -0.819100 0.000000
vn 0.530100 -0.815000 0.233900
vn 0.441200 -0.814500 -0.376700
vn -0.441200 -0.814500 -0.376700
vn 0.194700 -0.819000 -0.539700
vn -0.027800 -0.999300 0.023800
vn 0.027800 -0.999300 0.023800
vn -0.012200 -0.999400 0.033900
vn 0.015800 -0.999400 -0.032300
vn 0.000000 -0.999400 -0.036000
vn -0.012200 -0.999400 -0.033900
vn 0.033400 -0.999300 -0.014800
vn 0.036000 -0.999400 0.000000
vn -0.027800 -0.999300 -0.023800
vn -0.015800 -0.999400 0.032300
vn 0.015800 -0.999400 0.032300
vn -0.033400 -0.999300 0.014800
vn 0.033400 -0.999300 0.014800
vn 0.000000 -0.999400 0.036000
vn 0.012200 -0.999400 0.033900
vn 0.027800 -0.999300 -0.023800
vn 0.012200 -0.999400 -0.033900
vn -0.015800 -0.999400 -0.032300
vn -0.036000 -0.999400 0.000000
vn -0.033400 -0.999300 -0.014800
vn 0.760600 0.000000 -0.649300
vn 0.760600 0.000000 0.649300
f 16/1/1 2/2/1 15/3/1
f 7/4/2 15/5/2 3/6/2
f 10/7/3 9/8/3 3/9/3
f 8/10/4 4/11/4 13/12/4
f 16/13/3 4/14/3 3/9/3
f 8/15/5 5/16/5 14/17/5
f 12/18/6 10/19/6 4/11/6
f 11/20/5 12/21/5 8/15/5
f 9/22/7 11/23/7 7/4/7
f 1/24/1 16/1/1 17/25/1
f 46/26/7 43/27/7 40/28/7
f 5/29/6 13/12/6 21/30/6
f 15/3/3 19/31/3 20/32/3
f 17/25/3 20/32/3 18/33/3
f 19/31/1 22/34/1 23/35/1
f 20/32/1 23/35/1 21/36/1
f 22/34/3 25/37/3 26/38/3
f 23/35/3 26/38/3 24/39/3
f 25/37/1 28/40/1 29/41/1
f 26/38/1 29/41/1 27/42/1
f 28/40/3 31/43/3 32/44/3
f 29/41/3 32/44/3 30/45/3
f 31/43/1 34/46/1 35/47/1
f 32/44/1 35/47/1 33/48/1
f 34/46/3 37/49/3 38/50/3
f 35/47/3 38/50/3 36/51/3
f 37/49/1 40/52/1 41/53/1
f 38/50/1 41/53/1 39/54/1
f 40/55/3 43/56/3 44/57/3
f 41/58/3 44/57/3 42/59/3
f 43/27/1 46/26/1 47/60/1
f 44/61/1 47/60/1 45/62/1
f 46/63/5 49/64/5 50/65/5
f 47/66/5 50/65/5 48/67/5
f 49/64/5 52/68/5 53/69/5
f 50/65/5 53/69/5 51/70/5
f 52/68/5 55/71/5 56/72/5
f 53/69/5 56/72/5 54/73/5
f 55/71/5 58/74/5 59/75/5
f 56/72/5 59/75/5 57/76/5
f 14/17/5 5/16/5 57/76/5
f 59/75/5 58/74/5 6/77/5
f 45/62/6 48/78/6 39/79/6
f 33/80/6 39/79/6 51/81/6
f 27/82/6 33/80/6 54/83/6
f 21/30/6 27/82/6 57/84/6
f 52/85/7 40/28/7 34/86/7
f 28/87/7 55/88/7 34/86/7
f 22/89/7 58/90/7 28/87/7
f 6/91/7 58/90/7 22/89/7
f 60/92/8 61/93/8 63/94/8
f 69/95/9 71/96/9 83/97/9
f 86/98/10 70/99/10 68/100/10
f 71/96/7 69/95/7 68/100/7
f 64/101/11 76/102/11 65/103/11
f 72/104/12 74/105/12 95/106/12
f 72/104/6 73/107/6 75/108/6
f 12/109/13 64/101/13 67/110/13
f 77/111/14 75/108/14 73/107/14
f 76/102/15 77/111/15 66/112/15
f 78/113/16 81/114/16 11/115/16
f 79/116/17 82/117/17 81/114/17
f 80/118/18 83/97/18 82/117/18
f 62/119/19 84/120/19 87/121/19
f 84/120/20 85/122/20 88/123/20
f 85/122/21 86/98/21 89/124/21
f 90/125/22 93/126/22 63/94/22
f 91/127/23 94/128/23 93/126/23
f 92/129/24 95/106/24 94/128/24
f 93/130/25 113/131/25 99/132/25
f 84/133/26 110/134/26 111/135/26
f 96/136/27 97/137/27 12/138/27
f 64/139/28 100/140/28 105/141/28
f 70/142/29 101/143/29 102/144/29
f 108/145/30 107/146/30 81/147/30
f 93/130/31 94/148/31 114/149/31
f 86/150/32 85/151/32 111/135/32
f 102/144/33 109/152/33 83/153/33
f 86/150/34 112/154/34 101/143/34
f 75/155/35 104/156/35 103/157/35
f 84/133/36 62/158/36 98/159/36
f 105/141/37 106/160/37 77/161/37
f 63/162/38 99/132/38 98/159/38
f 97/137/39 100/140/39 64/139/39
f 83/153/40 109/152/40 108/145/40
f 77/161/41 106/160/41 104/156/41
f 81/147/42 107/146/42 96/136/42
f 95/163/43 115/164/43 114/149/43
f 95/163/44 74/165/44 103/157/44
f 112/154/45 111/135/45 131/166/45
f 121/167/46 122/168/46 102/144/46
f 122/168/47 129/169/47 109/152/47
f 110/134/48 98/159/48 118/170/48
f 99/132/49 119/171/49 118/170/49
f 128/172/50 127/173/50 107/146/50
f 125/174/51 126/175/51 106/160/51
f 115/164/52 135/176/52 134/177/52
f 117/178/53 120/179/53 100/140/53
f 113/131/54 133/180/54 119/171/54
f 124/181/55 123/182/55 103/157/55
f 115/164/56 103/157/56 123/182/56
f 110/134/57 130/183/57 131/166/57
f 112/154/58 132/184/58 121/167/58
f 109/152/59 129/169/59 128/172/59
f 116/185/60 117/178/60 97/137/60
f 107/146/61 127/173/61 116/185/61
f 100/140/62 120/179/62 125/174/62
f 113/131/63 114/149/63 134/177/63
f 106/160/64 126/175/64 124/181/64
f 120/179/65 136/186/65 125/174/65
f 133/180/66 134/177/66 136/186/66
f 126/175/67 136/186/67 124/181/67
f 132/184/68 131/166/68 136/186/68
f 121/167/69 136/186/69 122/168/69
f 122/168/70 136/186/70 129/169/70
f 130/183/71 118/170/71 136/186/71
f 118/170/72 119/171/72 136/186/72
f 128/172/73 136/186/73 127/173/73
f 125/174/74 136/186/74 126/175/74
f 134/177/75 135/176/75 136/186/75
f 117/178/76 136/186/76 120/179/76
f 119/171/77 133/180/77 136/186/77
f 124/181/78 136/186/78 123/182/78
f 135/176/79 123/182/79 136/186/79
f 131/166/80 130/183/80 136/186/80
f 121/167/81 132/184/81 136/186/81
f 129/169/82 136/186/82 128/172/82
f 116/185/83 136/186/83 117/178/83
f 127/173/84 136/186/84 116/185/84
f 78/187/3 67/188/3 87/189/3
f 17/25/1 16/1/1 15/3/1
f 15/5/2 7/4/2 6/91/2
f 15/5/2 2/190/2 3/6/2
f 4/14/3 10/7/3 3/9/3
f 13/12/4 5/29/4 8/10/4
f 4/11/4 1/191/4 13/12/4
f 4/14/3 16/13/3 1/192/3
f 16/13/3 3/9/3 2/193/3
f 14/17/5 7/194/5 8/15/5
f 7/194/5 14/17/5 6/77/5
f 8/10/6 12/18/6 4/11/6
f 7/194/5 11/20/5 8/15/5
f 3/6/7 9/22/7 7/4/7
f 13/195/1 1/24/1 17/25/1
f 49/196/7 46/26/7 40/28/7
f 21/30/6 57/84/6 5/29/6
f 13/12/6 18/197/6 21/30/6
f 17/25/3 15/3/3 20/32/3
f 13/195/3 17/25/3 18/33/3
f 20/32/1 19/31/1 23/35/1
f 18/33/1 20/32/1 21/36/1
f 23/35/3 22/34/3 26/38/3
f 21/36/3 23/35/3 24/39/3
f 26/38/1 25/37/1 29/41/1
f 24/39/1 26/38/1 27/42/1
f 29/41/3 28/40/3 32/44/3
f 27/42/3 29/41/3 30/45/3
f 32/44/1 31/43/1 35/47/1
f 30/45/1 32/44/1 33/48/1
f 35/47/3 34/46/3 38/50/3
f 33/48/3 35/47/3 36/51/3
f 38/50/1 37/49/1 41/53/1
f 36/51/1 38/50/1 39/54/1
f 41/58/3 40/55/3 44/57/3
f 39/198/3 41/58/3 42/59/3
f 44/61/1 43/27/1 47/60/1
f 42/199/1 44/61/1 45/62/1
f 47/66/5 46/63/5 50/65/5
f 45/200/5 47/66/5 48/67/5
f 50/65/5 49/64/5 53/69/5
f 48/67/5 50/65/5 51/70/5
f 53/69/5 52/68/5 56/72/5
f 51/70/5 53/69/5 54/73/5
f 56/72/5 55/71/5 59/75/5
f 54/73/5 56/72/5 57/76/5
f 59/75/5 14/17/5 57/76/5
f 14/17/5 59/75/5 6/77/5
f 42/199/6 45/62/6 39/79/6
f 39/79/6 33/80/6 36/201/6
f 39/79/6 48/78/6 51/81/6
f 33/80/6 27/82/6 30/202/6
f 33/80/6 51/81/6 54/83/6
f 27/82/6 21/30/6 24/203/6
f 27/82/6 54/83/6 57/84/6
f 40/28/7 52/85/7 49/196/7
f 40/28/7 37/204/7 34/86/7
f 34/86/7 31/205/7 28/87/7
f 55/88/7 52/85/7 34/86/7
f 28/87/7 25/206/7 22/89/7
f 58/90/7 55/88/7 28/87/7
f 22/89/7 15/5/7 6/91/7
f 15/5/7 22/89/7 19/207/7
f 62/119/8 60/92/8 63/94/8
f 80/118/9 69/95/9 83/97/9
f 89/124/10 86/98/10 68/100/10
f 70/99/7 71/96/7 68/100/7
f 67/110/85 64/101/85 65/103/85
f 92/129/12 72/104/12 95/106/12
f 74/105/6 72/104/6 75/108/6
f 10/208/13 12/109/13 67/110/13
f 66/112/14 77/111/14 73/107/14
f 65/103/15 76/102/15 66/112/15
f 9/209/16 78/113/16 11/115/16
f 78/113/86 79/116/86 81/114/86
f 79/116/18 80/118/18 82/117/18
f 60/92/19 62/119/19 87/121/19
f 87/121/20 84/120/20 88/123/20
f 88/123/21 85/122/21 89/124/21
f 61/93/22 90/125/22 63/94/22
f 90/125/23 91/127/23 93/126/23
f 91/127/24 92/129/24 94/128/24
f 63/162/25 93/130/25 99/132/25
f 85/151/26 84/133/26 111/135/26
f 11/210/27 96/136/27 12/138/27
f 76/211/28 64/139/28 105/141/28
f 71/212/29 70/142/29 102/144/29
f 82/213/30 108/145/30 81/147/30
f 113/131/31 93/130/31 114/149/31
f 112/154/32 86/150/32 111/135/32
f 71/212/33 102/144/33 83/153/33
f 70/142/34 86/150/34 101/143/34
f 74/165/35 75/155/35 103/157/35
f 110/134/36 84/133/36 98/159/36
f 76/211/37 105/141/37 77/161/37
f 62/158/38 63/162/38 98/159/38
f 12/138/39 97/137/39 64/139/39
f 82/213/40 83/153/40 108/145/40
f 75/155/41 77/161/41 104/156/41
f 11/210/42 81/147/42 96/136/42
f 94/148/43 95/163/43 114/149/43
f 115/164/44 95/163/44 103/157/44
f 132/184/45 112/154/45 131/166/45
f 101/143/46 121/167/46 102/144/46
f 102/144/47 122/168/47 109/152/47
f 130/183/48 110/134/48 118/170/48
f 98/159/49 99/132/49 118/170/49
f 108/145/50 128/172/50 107/146/50
f 105/141/51 125/174/51 106/160/51
f 114/149/52 115/164/52 134/177/52
f 97/137/53 117/178/53 100/140/53
f 99/132/54 113/131/54 119/171/54
f 104/156/55 124/181/55 103/157/55
f 135/176/56 115/164/56 123/182/56
f 111/135/57 110/134/57 131/166/57
f 101/143/58 112/154/58 121/167/58
f 108/145/59 109/152/59 128/172/59
f 96/136/60 116/185/60 97/137/60
f 96/136/61 107/146/61 116/185/61
f 105/141/62 100/140/62 125/174/62
f 133/180/63 113/131/63 134/177/63
f 104/156/64 106/160/64 124/181/64
f 67/188/3 78/187/3 9/214/3
f 78/187/3 80/215/3 79/216/3
f 89/217/3 68/218/3 69/219/3
f 87/189/3 88/220/3 89/217/3
f 61/221/3 60/222/3 87/189/3
f 87/189/3 90/223/3 61/221/3
f 90/223/3 92/224/3 91/225/3
f 66/226/3 73/227/3 72/228/3
f 67/188/3 65/229/3 66/226/3
f 9/214/3 10/230/3 67/188/3
f 87/189/3 89/217/3 78/187/3
f 80/215/3 89/217/3 69/219/3
f 67/188/3 90/223/3 87/189/3
f 66/226/3 72/228/3 92/224/3
f 92/224/3 67/188/3 66/226/3
f 78/187/3 89/217/3 80/215/3
f 67/188/3 92/224/3 90/223/3
