v 3.999997 -0.000000 2.000000
v 3.999997 1.000000 2.000000
v 3.999997 1.000000 -2.000000
v 1.000000 1.000000 2.000000
v 1.000000 1.000000 -2.000000
v -2.000000 1.000000 -2.000000
v 1.000000 0.000000 -2.000000
v -2.000000 -0.000000 2.000000
v -2.000000 1.000000 2.000000
v -5.000000 1.000000 2.000000
v -5.000000 1.000000 -2.000000
v -5.999997 1.000000 -2.000000
v -5.000000 0.000000 -2.000000
v -2.000000 6.110444 -0.623439
v -2.000000 6.110444 0.623441
v -5.999997 6.110444 0.623441
v -5.999997 6.110444 -0.623439
v -5.999997 6.110444 -0.773439
v -2.000000 6.110444 -0.773439
v -5.999997 6.110444 0.773441
v -1.850000 6.110444 0.773441
v -1.850000 6.235738 0.773441
v -6.000000 4.275537 -0.623439
v -6.000000 4.125537 -0.623439
v -2.000000 6.110444 0.773441
v -1.850000 6.235738 -0.773439
v -1.850000 6.235738 0.000001
v -1.850000 6.110444 0.000001
v -1.850000 6.110444 -0.773439
v -6.000000 4.125537 -0.773439
v -6.000001 6.235738 -0.773439
v -1.850000 6.110444 -0.623439
v -1.850000 6.110444 0.623441
v -6.000000 4.125537 0.773441
v -6.000000 4.125537 0.623441
v -6.000000 4.275537 0.623441
v -6.000000 4.275537 0.773441
v -6.000000 4.275537 -0.773439
v -6.000001 6.235738 0.773441
v -1.848231 6.238886 -1.999999
v -1.848241 6.238885 2.000002
v 0.561995 6.238885 2.000002
v -1.848231 6.015586 -1.999999
v 0.562005 6.015586 -1.999999
v 0.561995 6.015585 2.000002
v 0.562005 6.238886 -1.999999
v 5.999997 1.000000 2.000000
v 5.999997 1.000000 -2.000000
v 8.105813 0.016402 1.995271
v 3.999997 0.000000 -2.000000
v 1.000000 -0.000000 2.000000
v -2.000000 0.000000 -2.000000
v -5.999997 1.000000 2.000000
v -5.000000 -0.000000 2.000000
v -1.848241 6.015585 2.000002
v 8.105813 0.016402 -2.004729
v 5.999997 0.000000 -1.981848
v 5.999997 -0.000000 1.981848
v -5.999995 6.235742 -1.999999
v -5.999997 8.220000 0.000001
v -5.999998 6.235741 2.000001
v 5.999997 -0.000000 2.000000
v -5.999998 -0.000000 2.000000
v -5.999997 0.000000 -2.000000
v -5.999995 1.350000 -2.000000
v -5.999995 2.700001 -2.000000
v -5.999998 2.700001 2.000000
v -5.999998 1.350000 2.000000
v -5.999995 4.050001 -1.999999
v -5.999998 5.400001 2.000001
v -5.999998 4.050000 2.000001
v -5.999998 6.731805 2.000001
v -5.999997 8.220000 0.773441
v -5.999998 8.220000 2.000001
v -5.999998 7.723936 2.000001
v -5.999995 5.400002 -1.999999
v -5.999996 8.220000 -0.773439
v -5.999995 7.227871 -1.999999
v -5.999995 7.723937 -1.999999
v -5.999995 6.731806 -1.999999
v -5.999998 7.227870 2.000001
v -5.999995 8.220000 -1.999999
v 5.999997 0.000000 -2.000000
vt 0.985905 0.593140
vt 0.938228 0.581221
vt 0.985905 0.390515
vt 0.237939 0.642284
vt 0.119994 0.485024
vt 0.237939 0.396565
vt 0.892907 0.594506
vt 0.940583 0.606425
vt 0.892907 0.797131
vt 0.964307 0.376665
vt 0.916630 0.364746
vt 0.964307 0.174040
vt 0.989625 0.797131
vt 0.941949 0.606425
vt 0.989625 0.594506
vt 0.889186 0.390515
vt 0.936863 0.402434
vt 0.889186 0.593140
vt 0.510990 0.836269
vt 0.510990 0.897545
vt 0.314414 0.897545
vt 0.707360 0.086805
vt 0.707360 0.079434
vt 0.903936 0.079434
vt 0.547763 0.916771
vt 0.751704 0.916771
vt 0.751704 0.922928
vt 0.231187 0.918939
vt 0.015010 0.925543
vt 0.011733 0.918939
vt 0.744339 0.892990
vt 0.744339 0.900362
vt 0.547763 0.900362
vt 0.542569 0.690518
vt 0.542569 0.728528
vt 0.536412 0.728528
vt 0.746490 0.924294
vt 0.753788 0.927784
vt 0.547763 0.927784
vt 0.707361 0.160715
vt 0.707360 0.154558
vt 0.911307 0.154558
vt 0.757070 0.088171
vt 0.764442 0.088171
vt 0.764442 0.149447
vt 0.237939 0.884008
vt 0.011974 0.891375
vt 0.011733 0.884008
vt 0.237939 0.892741
vt 0.011974 0.900108
vt 0.011733 0.892741
vt 0.228132 0.857808
vt 0.011985 0.865175
vt 0.011733 0.857808
vt 0.228132 0.901474
vt 0.011985 0.908841
vt 0.011733 0.901474
vt 0.448949 0.910971
vt 0.232773 0.917574
vt 0.229496 0.910971
vt 0.210460 0.852952
vt 0.217758 0.856442
vt 0.011733 0.856442
vt 0.239305 0.627434
vt 0.446763 0.627434
vt 0.253233 0.702167
vt 0.444944 0.396565
vt 0.546398 0.564937
vt 0.444944 0.626068
vt 0.239305 0.396565
vt 0.340759 0.457697
vt 0.239305 0.626068
vt 0.977995 0.174040
vt 0.988952 0.370311
vt 0.977995 0.370923
vt 0.541984 0.948195
vt 0.531027 0.751924
vt 0.541984 0.751312
vt 0.635675 0.814284
vt 0.547763 0.638462
vt 0.635675 0.594506
vt 0.705995 0.198624
vt 0.705995 0.395199
vt 0.591774 0.394967
vt 0.915265 0.185959
vt 0.867588 0.376665
vt 0.867588 0.174040
vt 0.118628 0.553825
vt 0.000683 0.642284
vt 0.000683 0.396565
vt 0.892907 0.995073
vt 0.892907 0.798497
vt 0.942051 0.995073
vt 0.887821 0.402434
vt 0.840144 0.593140
vt 0.840144 0.390515
vt 0.872873 0.983153
vt 0.825197 0.995072
vt 0.825197 0.792447
vt 0.774688 0.989023
vt 0.774687 0.792447
vt 0.823831 0.989023
vt 0.565999 0.815650
vt 0.753668 0.874150
vt 0.547763 0.874150
vt 0.744339 0.891624
vt 0.547763 0.891624
vt 0.744339 0.884253
vt 0.547763 0.915405
vt 0.547764 0.909248
vt 0.751710 0.915405
vt 0.425146 0.926908
vt 0.419077 0.930398
vt 0.219123 0.926908
vt 0.547763 0.875516
vt 0.744339 0.875516
vt 0.547763 0.882887
vt 0.358913 0.775284
vt 0.358913 0.737274
vt 0.365071 0.737274
vt 0.357548 0.775284
vt 0.351390 0.775284
vt 0.351390 0.737274
vt 0.765808 0.088171
vt 0.771965 0.088171
vt 0.771965 0.126181
vt 0.235829 0.918939
vt 0.452006 0.925542
vt 0.232552 0.925542
vt 0.751611 0.907882
vt 0.547763 0.901727
vt 0.751797 0.901727
vt 0.536412 0.688272
vt 0.543730 0.627434
vt 0.543730 0.689152
vt 0.237688 0.866541
vt 0.237928 0.873909
vt 0.011733 0.873909
vt 0.237688 0.875274
vt 0.237928 0.882642
vt 0.011733 0.882642
vt 0.227879 0.910206
vt 0.228130 0.917574
vt 0.011733 0.917574
vt 0.445643 0.901474
vt 0.445894 0.908841
vt 0.229497 0.908841
vt 0.217757 0.926908
vt 0.211687 0.930398
vt 0.011733 0.926908
vt 0.710637 0.166071
vt 0.926814 0.172674
vt 0.707361 0.172674
vt 0.911307 0.038693
vt 0.707360 0.000683
vt 0.911307 0.000683
vt 0.911307 0.040058
vt 0.911307 0.078068
vt 0.707360 0.078068
vt 0.342124 0.457697
vt 0.443578 0.396565
vt 0.443578 0.626068
vt 0.547763 0.593140
vt 0.547764 0.396565
vt 0.666212 0.593140
vt 0.762348 0.792447
vt 0.773322 0.792447
vt 0.762348 0.989022
vt 0.976629 0.370309
vt 0.965673 0.370921
vt 0.965672 0.174040
vt 0.724952 0.770328
vt 0.637040 0.814284
vt 0.637040 0.594506
vt 0.591774 0.000683
vt 0.705995 0.000915
vt 0.591774 0.197258
vt 0.667577 0.397689
vt 0.771069 0.396565
vt 0.771069 0.593140
vt 0.707361 0.346188
vt 0.798513 0.174040
vt 0.798513 0.395199
vt 0.726317 0.594506
vt 0.823831 0.692794
vt 0.726317 0.791081
vt 0.590409 0.395199
vt 0.000683 0.395199
vt 0.000683 0.198624
vt 0.127770 0.643650
vt 0.127770 0.851119
vt 0.064909 0.664865
vt 0.195480 0.643650
vt 0.195480 0.840225
vt 0.129135 0.840225
vt 0.063543 0.643650
vt 0.063543 0.851119
vt 0.000683 0.829904
vt 0.512355 0.751312
vt 0.529662 0.872596
vt 0.512355 0.889766
vt 0.755705 0.088171
vt 0.755705 0.148449
vt 0.731326 0.148449
vt 0.512355 0.627434
vt 0.535046 0.657928
vt 0.512355 0.749946
vt 0.891541 0.594506
vt 0.891541 0.791081
vt 0.825197 0.791081
vt 0.866223 0.370615
vt 0.799878 0.370615
vt 0.866223 0.174040
vt 0.239305 0.900108
vt 0.239305 0.703532
vt 0.305649 0.703532
vt 0.943416 0.999317
vt 0.943416 0.798497
vt 0.983620 0.806897
vt 0.427211 0.781061
vt 0.427211 0.703532
vt 0.446165 0.718864
vt 0.912673 0.139137
vt 0.912673 0.000683
vt 0.929979 0.017853
vt 0.772434 0.593140
vt 0.772434 0.396565
vt 0.838778 0.396565
vt 0.448129 0.627434
vt 0.510990 0.648649
vt 0.448129 0.834903
vt 0.331071 0.814803
vt 0.331071 0.737274
vt 0.350025 0.799471
vt 0.307014 0.703532
vt 0.329705 0.795551
vt 0.307014 0.826045
vt 0.707360 0.153192
vt 0.707360 0.088171
vt 0.729961 0.097311
vt 0.237049 0.844470
vt 0.196845 0.836070
vt 0.237049 0.643650
vt 0.331071 0.720403
vt 0.425845 0.720403
vt 0.349883 0.735908
vt 0.331071 0.719038
vt 0.349883 0.703532
vt 0.425845 0.719038
vt 0.590409 0.000683
vt 0.590409 0.197258
vt 0.000683 0.000683
vn -1.000000 -0.000000 0.000000
vn 0.000000 1.000000 0.000000
vn 1.000000 0.000000 0.000000
vn 0.000000 -1.000000 0.000000
vn 0.000000 0.000000 1.000000
vn 0.000000 0.000000 -1.000000
vn 0.431500 -0.902100 0.000000
vn -0.417000 0.908900 0.000000
vn 0.423200 0.906000 0.000000
vn 0.007800 -1.000000 -0.000000
s off
f 1/1/1 2/2/1 3/3/1
f 4/4/2 5/5/2 6/6/2
f 7/7/3 5/8/3 4/9/3
f 8/10/1 9/11/1 6/12/1
f 10/13/2 11/14/2 12/15/2
f 13/16/3 11/17/3 10/18/3
f 14/19/4 15/20/4 16/21/4
f 17/22/4 18/23/4 19/24/4
f 20/25/5 21/26/5 22/27/5
f 14/28/5 23/29/5 24/30/5
f 15/31/4 25/32/4 20/33/4
f 26/34/3 27/35/3 28/36/3
f 19/37/6 29/38/6 30/39/6
f 18/40/6 31/41/6 26/42/6
f 14/43/4 32/44/4 33/45/4
f 21/46/7 34/47/7 35/48/7
f 32/49/7 24/50/7 30/51/7
f 15/52/8 36/53/8 37/54/8
f 19/55/8 38/56/8 23/57/8
f 25/58/5 37/59/5 34/60/5
f 15/61/6 33/62/6 35/63/6
f 39/64/2 27/65/2 31/66/2
f 40/67/2 41/68/2 42/69/2
f 43/70/4 44/71/4 45/72/4
f 46/73/3 42/74/3 45/75/3
f 41/76/1 40/77/1 43/78/1
f 47/79/2 48/80/2 3/81/2
f 48/82/9 47/83/9 49/84/9
f 50/85/1 1/86/1 3/87/1
f 9/88/2 4/89/2 6/90/2
f 51/91/3 7/92/3 4/93/3
f 52/94/1 8/95/1 6/96/1
f 53/97/2 10/98/2 12/99/2
f 54/100/3 13/101/3 10/102/3
f 17/103/4 14/104/4 16/105/4
f 14/106/4 17/107/4 19/108/4
f 39/109/5 20/110/5 22/111/5
f 32/112/5 14/113/5 24/114/5
f 16/115/4 15/116/4 20/117/4
f 28/118/3 29/119/3 26/120/3
f 22/121/3 21/122/3 28/123/3
f 28/124/3 27/125/3 22/126/3
f 38/127/6 19/128/6 30/129/6
f 29/130/6 18/131/6 26/132/6
f 15/133/4 14/134/4 33/135/4
f 33/136/7 21/137/7 35/138/7
f 29/139/7 32/140/7 30/141/7
f 25/142/8 15/143/8 37/144/8
f 14/145/8 19/146/8 23/147/8
f 21/148/5 25/149/5 34/150/5
f 36/151/6 15/152/6 35/153/6
f 27/154/2 39/155/2 22/156/2
f 27/157/2 26/158/2 31/159/2
f 46/160/2 40/161/2 42/162/2
f 55/163/4 43/164/4 45/165/4
f 44/166/3 46/167/3 45/168/3
f 55/169/1 41/170/1 43/171/1
f 2/172/2 47/173/2 3/174/2
f 56/175/9 48/176/9 49/177/9
f 57/178/10 56/179/10 49/180/10
f 58/181/10 57/182/10 49/183/10
f 59/184/3 60/185/3 61/186/3
f 62/187/4 63/188/4 64/189/4
f 65/190/3 63/191/3 64/192/3
f 66/193/3 67/194/3 68/195/3
f 69/196/3 70/197/3 71/198/3
f 60/199/3 72/200/3 61/201/3
f 73/202/3 74/203/3 75/204/3
f 60/205/3 73/206/3 72/207/3
f 69/208/3 71/209/3 67/210/3
f 68/211/3 63/212/3 65/213/3
f 67/214/3 66/215/3 69/216/3
f 61/217/3 76/218/3 59/219/3
f 77/220/3 78/221/3 79/222/3
f 60/223/3 59/224/3 80/225/3
f 68/226/3 65/227/3 66/228/3
f 69/229/3 76/230/3 70/231/3
f 81/232/3 73/233/3 75/234/3
f 80/235/3 77/236/3 60/237/3
f 77/238/3 79/239/3 82/240/3
f 61/241/3 70/242/3 76/243/3
f 72/244/3 73/245/3 81/246/3
f 80/247/3 78/248/3 77/249/3
f 83/250/4 62/251/4 64/252/4
