# Blender v2.72 (sub 0) OBJ File: ''
# www.blender.org
o Sphere
v -0.281733 0.959493 0.000000
v -0.540641 0.841254 0.000000
v -0.909632 0.415415 0.000000
v -0.989821 0.142315 0.000000
v -0.540641 -0.841254 0.000000
v -0.281733 -0.959493 0.000000
v -0.237009 0.959493 -0.152316
v -0.454816 0.841254 -0.292292
v -0.635777 0.654861 -0.408589
v -0.765231 0.415415 -0.491784
v -0.832691 0.142315 -0.535138
v -0.832691 -0.142315 -0.535138
v -0.765231 -0.415415 -0.491784
v -0.635777 -0.654861 -0.408589
v -0.454816 -0.841254 -0.292292
v -0.237009 -0.959493 -0.152316
v -0.000000 -1.000000 0.000000
v -0.117036 0.959493 -0.256273
v -0.224590 0.841254 -0.491784
v -0.313950 0.654861 -0.687454
v -0.377875 0.415415 -0.827430
v -0.411187 0.142315 -0.900373
v -0.411187 -0.142315 -0.900373
v -0.377875 -0.415415 -0.827430
v -0.313950 -0.654861 -0.687454
v -0.224590 -0.841254 -0.491784
v -0.117036 -0.959493 -0.256273
v 0.040095 0.959493 -0.278865
v 0.076941 0.841254 -0.535138
v 0.107554 0.654861 -0.748057
v 0.129454 0.415415 -0.900373
v 0.140866 0.142315 -0.979746
v 0.140866 -0.142315 -0.979746
v 0.129454 -0.415415 -0.900373
v 0.107554 -0.654861 -0.748057
v 0.076941 -0.841254 -0.535138
v 0.040095 -0.959493 -0.278865
v -0.000000 1.000000 0.000000
v 0.184495 0.959493 -0.212919
v 0.354044 0.841254 -0.408589
v 0.494910 0.654861 -0.571157
v 0.595682 0.415415 -0.687454
v 0.648195 0.142315 -0.748057
v 0.648195 -0.142315 -0.748057
v 0.595682 -0.415415 -0.687454
v 0.494910 -0.654861 -0.571157
v 0.354044 -0.841254 -0.408589
v 0.184495 -0.959493 -0.212919
v 0.270320 0.959493 -0.079373
v 0.518741 0.841254 -0.152316
v 0.725136 0.654861 -0.212919
v 0.872785 0.415415 -0.256273
v 0.949726 0.142315 -0.278865
v 0.949726 -0.142315 -0.278865
v 0.872785 -0.415415 -0.256273
v 0.725136 -0.654861 -0.212919
v 0.518741 -0.841254 -0.152316
v 0.270320 -0.959493 -0.079373
v 0.270320 0.959493 0.079373
v 0.518741 0.841254 0.152316
v 0.725136 0.654861 0.212919
v 0.872785 0.415415 0.256273
v 0.949726 0.142315 0.278865
v 0.949726 -0.142315 0.278865
v 0.872785 -0.415415 0.256273
v 0.725136 -0.654861 0.212919
v 0.518741 -0.841254 0.152316
v 0.270320 -0.959493 0.079373
v 0.184495 0.959493 0.212919
v 0.354044 0.841254 0.408589
v 0.494911 0.654861 0.571157
v 0.595682 0.415415 0.687454
v 0.648195 0.142315 0.748057
v 0.648195 -0.142315 0.748057
v 0.595682 -0.415415 0.687454
v 0.494910 -0.654861 0.571157
v 0.354044 -0.841254 0.408589
v 0.184495 -0.959493 0.212919
v 0.040095 0.959493 0.278865
v 0.076941 0.841254 0.535138
v 0.107554 0.654861 0.748057
v 0.129454 0.415415 0.900373
v 0.140866 0.142315 0.979746
v 0.140866 -0.142315 0.979746
v 0.129454 -0.415415 0.900373
v 0.107554 -0.654861 0.748057
v 0.076941 -0.841254 0.535138
v 0.040095 -0.959493 0.278865
v -0.117036 0.959493 0.256273
v -0.224590 0.841254 0.491784
v -0.313949 0.654861 0.687454
v -0.377875 0.415415 0.827430
v -0.411186 0.142315 0.900373
v -0.411186 -0.142315 0.900373
v -0.377874 -0.415415 0.827430
v -0.313949 -0.654861 0.687454
v -0.224590 -0.841254 0.491784
v -0.117036 -0.959493 0.256273
v -0.237008 0.959493 0.152316
v -0.454816 0.841254 0.292293
v -0.635777 0.654861 0.408589
v -0.765231 0.415415 0.491784
v -0.832690 0.142315 0.535138
v -0.832690 -0.142315 0.535138
v -0.765231 -0.415415 0.491784
v -0.635777 -0.654861 0.408589
v -0.454816 -0.841254 0.292293
v -0.237008 -0.959493 0.152316
v -0.755749 0.654861 0.000000
v -0.989821 -0.142315 0.000000
v -0.909632 -0.415415 0.000000
v -0.755749 -0.654861 0.000000
vt 0.130975 0.296838
vt 0.076422 0.252463
vt 0.128829 0.222111
vt 0.253710 0.462045
vt 0.253710 0.576240
vt 0.188972 0.581273
vt 0.540111 0.228798
vt 0.574309 0.214105
vt 0.615678 0.257700
vt 0.056085 0.187393
vt 0.118231 0.188202
vt 0.032287 0.277037
vt 0.003859 0.186078
vt 0.056761 0.576240
vt 0.056761 0.672307
vt 0.000000 0.646396
vt 0.121500 0.581273
vt 0.121500 0.685809
vt 0.188972 0.685809
vt 0.354763 0.417965
vt 0.399406 0.370819
vt 0.479336 0.433241
vt 0.453418 0.333333
vt 0.519826 0.385196
vt 0.654683 0.200603
vt 0.705479 0.214105
vt 0.594635 0.184351
vt 0.076422 0.122288
vt 0.128829 0.154275
vt 0.032287 0.095068
vt 0.386931 0.587911
vt 0.492872 0.643822
vt 0.462178 0.675470
vt 0.410083 0.538878
vt 0.525363 0.599718
vt 0.441740 0.485891
vt 0.557020 0.546730
vt 0.585277 0.489152
vt 0.607845 0.431648
vt 0.559931 0.345646
vt 0.622896 0.378877
vt 0.594635 0.148982
vt 0.130975 0.077817
vt 0.157257 0.131101
vt 0.108546 0.032904
vt 0.000000 0.074822
vt 0.091786 0.000000
vt 0.632346 0.634156
vt 0.591188 0.675470
vt 0.664002 0.581168
vt 0.683592 0.520800
vt 0.689529 0.457942
vt 0.654683 0.132731
vt 0.615678 0.075633
vt 0.650955 0.039413
vt 0.574309 0.119228
vt 0.202425 0.068101
vt 0.194490 0.126038
vt 0.208424 0.019321
vt 0.746290 0.346836
vt 0.746290 0.442902
vt 0.689529 0.452562
vt 0.811028 0.333333
vt 0.811028 0.437869
vt 0.878500 0.333333
vt 0.878500 0.437869
vt 0.943239 0.346836
vt 0.943239 0.442903
vt 1.000000 0.372746
vt 1.000000 0.452562
vt 0.550052 0.047438
vt 0.559218 0.000000
vt 0.540111 0.104536
vt 0.268086 0.096223
vt 0.228707 0.140693
vt 0.300210 0.058633
vt 0.746290 0.557097
vt 0.689529 0.547438
vt 0.811028 0.562131
vt 0.878500 0.562131
vt 0.943239 0.557097
vt 1.000000 0.547438
vt 0.478641 0.057097
vt 0.459394 0.013502
vt 0.502898 0.109569
vt 0.307112 0.153256
vt 0.249043 0.170413
vt 0.354763 0.138358
vt 0.746290 0.653164
vt 0.689529 0.627253
vt 0.811028 0.666667
vt 0.878500 0.666667
vt 0.943239 0.653164
vt 1.000000 0.627253
vt 0.424117 0.101544
vt 0.474485 0.132731
vt 0.307112 0.221091
vt 0.249043 0.205763
vt 0.354763 0.233183
vt 0.746290 0.680169
vt 0.746290 0.776236
vt 0.689529 0.785895
vt 0.811028 0.771202
vt 0.878500 0.771202
vt 0.943239 0.680169
vt 0.943239 0.776236
vt 1.000000 0.706080
vt 1.000000 0.785895
vt 0.383176 0.075633
vt 0.403792 0.166667
vt 0.463893 0.166667
vt 0.268086 0.278192
vt 0.228707 0.235518
vt 0.300210 0.313003
vt 0.746290 0.890431
vt 0.689529 0.880772
vt 0.811028 0.895464
vt 0.878500 0.895464
vt 0.943239 0.890431
vt 1.000000 0.880772
vt 0.424117 0.231789
vt 0.383176 0.257700
vt 0.474485 0.200603
vt 0.202425 0.306429
vt 0.194490 0.250233
vt 0.208424 0.352476
vt 0.746290 0.986498
vt 0.689529 0.960587
vt 0.811028 1.000000
vt 0.878500 1.000000
vt 0.943239 0.986498
vt 1.000000 0.960587
vt 0.478641 0.276236
vt 0.502898 0.223764
vt 0.056761 0.365978
vt 0.056761 0.462045
vt 0.000000 0.471704
vt 0.121500 0.352476
vt 0.121500 0.457011
vt 0.185262 0.188439
vt 0.157257 0.245235
vt 0.108546 0.339068
vt 0.000000 0.566581
vt 0.188972 0.457011
vt 0.310471 0.471704
vt 0.310471 0.566581
vt 0.550052 0.285895
vt 0.650955 0.293920
vt 0.530199 0.166667
vt 0.188972 0.352476
vt 0.253710 0.365978
vt 0.310471 0.391889
vt 0.459394 0.319831
vt 0.374159 0.629017
vt 0.705479 0.119228
vt 0.689529 0.372746
vt 0.689529 0.706080
vt 0.354763 0.166667
vt 0.000000 0.391889
vt 0.559218 0.333333
vn -0.412400 -0.902900 -0.121100
vn -0.923500 0.271200 -0.271200
vn -0.412400 0.902900 -0.121100
vn -0.281400 -0.902900 -0.324800
vn -0.438900 -0.742200 -0.506500
vn -0.557400 -0.524900 -0.643300
vn -0.630300 -0.271200 -0.727400
vn -0.654900 0.000000 -0.755700
vn -0.630300 0.271200 -0.727400
vn -0.557400 0.524900 -0.643300
vn -0.438900 0.742200 -0.506500
vn -0.281400 0.902900 -0.324800
vn -0.061200 -0.902900 -0.425400
vn -0.095400 -0.742200 -0.663400
vn -0.121100 -0.524900 -0.842500
vn -0.137000 -0.271200 -0.952700
vn -0.142300 0.000000 -0.989800
vn -0.137000 0.271200 -0.952700
vn -0.121100 0.524900 -0.842500
vn -0.095400 0.742200 -0.663400
vn -0.061200 0.902900 -0.425400
vn 0.178500 -0.902900 -0.390900
vn 0.278400 -0.742200 -0.609700
vn 0.353600 -0.524900 -0.774300
vn 0.399800 -0.271200 -0.875500
vn 0.415400 0.000000 -0.909600
vn 0.399800 0.271200 -0.875500
vn 0.353600 0.524900 -0.774300
vn 0.278400 0.742200 -0.609700
vn 0.178500 0.902900 -0.390900
vn 0.361500 -0.902900 -0.232400
vn 0.563800 -0.742200 -0.362400
vn 0.716100 -0.524900 -0.460200
vn 0.809700 -0.271200 -0.520400
vn 0.841300 0.000000 -0.540600
vn 0.809700 0.271200 -0.520400
vn 0.716100 0.524900 -0.460200
vn 0.563800 0.742200 -0.362400
vn 0.361500 0.902900 -0.232400
vn 0.429800 -0.902900 0.000000
vn 0.670200 -0.742200 0.000000
vn 0.851200 -0.524900 -0.000000
vn 0.962500 -0.271200 -0.000000
vn 1.000000 0.000000 -0.000000
vn 0.962500 0.271200 -0.000000
vn 0.851200 0.524900 -0.000000
vn 0.670200 0.742200 0.000000
vn 0.429800 0.902900 0.000000
vn 0.361500 -0.902900 0.232300
vn 0.563800 -0.742200 0.362400
vn 0.716100 -0.524900 0.460200
vn 0.809700 -0.271200 0.520400
vn 0.841300 0.000000 0.540600
vn 0.809700 0.271200 0.520400
vn 0.716100 0.524900 0.460200
vn 0.563800 0.742200 0.362400
vn 0.361500 0.902900 0.232300
vn 0.178500 -0.902900 0.390900
vn 0.278400 -0.742200 0.609700
vn 0.353600 -0.524900 0.774300
vn 0.399800 -0.271200 0.875500
vn 0.415400 0.000000 0.909600
vn 0.399800 0.271200 0.875500
vn 0.353600 0.524900 0.774300
vn 0.278400 0.742200 0.609700
vn 0.178500 0.902900 0.390900
vn -0.061200 -0.902900 0.425400
vn -0.095400 -0.742200 0.663400
vn -0.121100 -0.524900 0.842500
vn -0.137000 -0.271200 0.952700
vn -0.142300 0.000000 0.989800
vn -0.137000 0.271200 0.952700
vn -0.121100 0.524900 0.842500
vn -0.095400 0.742200 0.663400
vn -0.061200 0.902900 0.425400
vn -0.281400 -0.902900 0.324800
vn -0.438900 -0.742200 0.506500
vn -0.557400 -0.524900 0.643300
vn -0.630300 -0.271200 0.727400
vn -0.654900 0.000000 0.755700
vn -0.630300 0.271200 0.727400
vn -0.557400 0.524900 0.643300
vn -0.438900 0.742200 0.506500
vn -0.281400 0.902900 0.324800
vn -0.816700 -0.524900 0.239800
vn -0.923500 -0.271200 0.271200
vn -0.142200 -0.989000 -0.041800
vn -0.643100 -0.742200 -0.188800
vn -0.816700 -0.524900 -0.239800
vn -0.923500 -0.271200 -0.271200
vn -0.959500 -0.000000 -0.281700
vn -0.816700 0.524900 -0.239800
vn -0.643100 0.742200 -0.188800
vn -0.142200 0.989000 -0.041800
vn -0.097000 -0.989000 -0.112000
vn -0.097000 0.989000 -0.112000
vn -0.021100 -0.989000 -0.146700
vn -0.021100 0.989000 -0.146700
vn 0.061600 -0.989000 -0.134800
vn 0.061600 0.989000 -0.134800
vn 0.124700 -0.989000 -0.080100
vn 0.124700 0.989000 -0.080100
vn 0.148200 -0.989000 0.000000
vn 0.148200 0.989000 0.000000
vn 0.124700 -0.989000 0.080100
vn 0.124700 0.989000 0.080100
vn 0.061600 -0.989000 0.134800
vn 0.061600 0.989000 0.134800
vn -0.021100 -0.989000 0.146700
vn -0.021100 0.989000 0.146700
vn -0.097000 -0.989000 0.112000
vn -0.097000 0.989000 0.112000
vn -0.142200 -0.989000 0.041800
vn -0.412400 -0.902900 0.121100
vn -0.643100 -0.742200 0.188800
vn -0.959500 0.000000 0.281700
vn -0.923500 0.271200 0.271200
vn -0.816700 0.524900 0.239800
vn -0.643100 0.742200 0.188800
vn -0.412400 0.902900 0.121100
vn -0.142200 0.989000 0.041800
vn 0.361500 -0.902900 -0.232300
vn 0.361500 0.902900 -0.232300
vn 0.361500 0.902900 0.232400
s off
f 5/1/1 15/2/1 16/3/1
f 3/4/2 10/5/2 11/6/2
f 1/7/3 7/8/3 8/9/3
f 15/2/4 26/10/4 27/11/4
f 15/2/5 14/12/5 25/13/5
f 13/14/6 24/15/6 25/16/6
f 12/17/7 23/18/7 24/15/7
f 11/6/8 22/19/8 23/18/8
f 11/20/9 10/21/9 21/22/9
f 9/23/10 20/24/10 21/22/10
f 8/9/11 19/25/11 20/26/11
f 7/8/12 18/27/12 19/25/12
f 26/10/13 36/28/13 37/29/13
f 26/10/14 25/13/14 35/30/14
f 24/31/15 34/32/15 35/33/15
f 24/31/16 23/34/16 33/35/16
f 22/36/17 32/37/17 33/35/17
f 21/22/18 31/38/18 32/37/18
f 20/24/19 30/39/19 31/38/19
f 19/40/20 29/41/20 30/39/20
f 19/25/21 18/27/21 28/42/21
f 36/28/22 47/43/22 48/44/22
f 35/30/23 46/45/23 47/43/23
f 34/46/24 45/47/24 46/45/24
f 33/35/25 44/48/25 45/49/25
f 32/37/26 43/50/26 44/48/26
f 31/38/27 42/51/27 43/50/27
f 30/39/28 41/52/28 42/51/28
f 29/53/29 40/54/29 41/55/29
f 29/53/30 28/42/30 39/56/30
f 47/43/31 57/57/31 58/58/31
f 46/45/32 56/59/32 57/57/32
f 45/60/33 55/61/33 56/62/33
f 45/60/34 44/63/34 54/64/34
f 43/65/35 53/66/35 54/64/35
f 42/67/36 52/68/36 53/66/36
f 41/69/37 51/70/37 52/68/37
f 40/54/38 50/71/38 51/72/38
f 39/56/39 49/73/39 50/71/39
f 57/57/40 67/74/40 68/75/40
f 56/59/41 66/76/41 67/74/41
f 55/61/42 65/77/42 66/78/42
f 55/61/43 54/64/43 64/79/43
f 53/66/44 63/80/44 64/79/44
f 52/68/45 62/81/45 63/80/45
f 51/70/46 61/82/46 62/81/46
f 50/71/47 60/83/47 61/84/47
f 49/73/48 59/85/48 60/83/48
f 67/74/49 77/86/49 78/87/49
f 66/76/50 76/88/50 77/86/50
f 65/77/51 75/89/51 76/90/51
f 65/77/52 64/79/52 74/91/52
f 63/80/53 73/92/53 74/91/53
f 62/81/54 72/93/54 73/92/54
f 62/81/55 61/82/55 71/94/55
f 61/84/56 60/83/56 70/95/56
f 60/83/57 59/85/57 69/96/57
f 77/86/58 87/97/58 88/98/58
f 76/88/59 86/99/59 87/97/59
f 75/100/60 85/101/60 86/102/60
f 75/100/61 74/91/61 84/103/61
f 73/92/62 83/104/62 84/103/62
f 72/105/63 82/106/63 83/104/63
f 71/107/64 81/108/64 82/106/64
f 71/109/65 70/95/65 80/110/65
f 69/96/66 79/111/66 80/110/66
f 87/97/67 97/112/67 98/113/67
f 87/97/68 86/99/68 96/114/68
f 85/101/69 95/115/69 96/116/69
f 85/101/70 84/103/70 94/117/70
f 83/104/71 93/118/71 94/117/71
f 82/106/72 92/119/72 93/118/72
f 81/108/73 91/120/73 92/119/73
f 80/110/74 90/121/74 91/122/74
f 80/110/75 79/111/75 89/123/75
f 97/112/76 107/124/76 108/125/76
f 97/112/77 96/114/77 106/126/77
f 95/115/78 105/127/78 106/128/78
f 95/115/79 94/117/79 104/129/79
f 93/118/80 103/130/80 104/129/80
f 92/119/81 102/131/81 103/130/81
f 91/120/82 101/132/82 102/131/82
f 91/122/83 90/121/83 100/133/83
f 90/121/84 89/123/84 99/134/84
f 105/135/85 111/136/85 112/137/85
f 105/135/86 104/138/86 110/139/86
f 17/140/87 6/141/87 16/3/87
f 112/142/88 14/12/88 15/2/88
f 111/136/89 13/14/89 14/143/89
f 111/136/90 110/139/90 12/17/90
f 110/139/91 4/144/91 11/6/91
f 109/145/92 9/146/92 10/5/92
f 2/147/93 8/9/93 9/148/93
f 1/7/94 38/149/94 7/8/94
f 17/140/95 16/3/95 27/11/95
f 7/8/96 38/149/96 18/27/96
f 17/140/97 27/11/97 37/29/97
f 18/27/98 38/149/98 28/42/98
f 17/140/99 37/29/99 48/44/99
f 28/42/100 38/149/100 39/56/100
f 17/140/101 48/44/101 58/58/101
f 39/56/102 38/149/102 49/73/102
f 17/140/103 58/58/103 68/75/103
f 49/73/104 38/149/104 59/85/104
f 17/140/105 68/75/105 78/87/105
f 59/85/106 38/149/106 69/96/106
f 17/140/107 78/87/107 88/98/107
f 69/96/108 38/149/108 79/111/108
f 17/140/109 88/98/109 98/113/109
f 79/111/110 38/149/110 89/123/110
f 17/140/111 98/113/111 108/125/111
f 89/123/112 38/149/112 99/134/112
f 17/140/113 108/125/113 6/141/113
f 108/125/114 107/124/114 5/1/114
f 106/126/115 112/142/115 5/1/115
f 104/138/116 103/150/116 4/144/116
f 103/150/117 102/151/117 3/4/117
f 101/152/118 109/145/118 3/4/118
f 101/153/119 100/133/119 2/147/119
f 99/134/120 1/7/120 2/147/120
f 99/134/121 38/149/121 1/7/121
f 6/141/1 5/1/1 16/3/1
f 4/144/2 3/4/2 11/6/2
f 2/147/3 1/7/3 8/9/3
f 16/3/4 15/2/4 27/11/4
f 26/10/5 15/2/5 25/13/5
f 14/143/6 13/14/6 25/16/6
f 13/14/7 12/17/7 24/15/7
f 12/17/8 11/6/8 23/18/8
f 22/36/9 11/20/9 21/22/9
f 10/21/10 9/23/10 21/22/10
f 9/148/11 8/9/11 20/26/11
f 8/9/12 7/8/12 19/25/12
f 27/11/13 26/10/13 37/29/13
f 36/28/14 26/10/14 35/30/14
f 25/154/15 24/31/15 35/33/15
f 34/32/16 24/31/16 33/35/16
f 23/34/17 22/36/17 33/35/17
f 22/36/18 21/22/18 32/37/18
f 21/22/19 20/24/19 31/38/19
f 20/24/20 19/40/20 30/39/20
f 29/53/21 19/25/21 28/42/21
f 37/29/22 36/28/22 48/44/22
f 36/28/23 35/30/23 47/43/23
f 35/30/24 34/46/24 46/45/24
f 34/32/25 33/35/25 45/49/25
f 33/35/26 32/37/26 44/48/26
f 32/37/27 31/38/27 43/50/27
f 31/38/28 30/39/28 42/51/28
f 30/155/29 29/53/29 41/55/29
f 40/54/30 29/53/30 39/56/30
f 48/44/122 47/43/122 58/58/122
f 47/43/32 46/45/32 57/57/32
f 46/156/33 45/60/33 56/62/33
f 55/61/34 45/60/34 54/64/34
f 44/63/35 43/65/35 54/64/35
f 43/65/36 42/67/36 53/66/36
f 42/67/37 41/69/37 52/68/37
f 41/55/38 40/54/38 51/72/38
f 40/54/123 39/56/123 50/71/123
f 58/58/40 57/57/40 68/75/40
f 57/57/41 56/59/41 67/74/41
f 56/62/42 55/61/42 66/78/42
f 65/77/43 55/61/43 64/79/43
f 54/64/44 53/66/44 64/79/44
f 53/66/45 52/68/45 63/80/45
f 52/68/46 51/70/46 62/81/46
f 51/72/47 50/71/47 61/84/47
f 50/71/48 49/73/48 60/83/48
f 68/75/49 67/74/49 78/87/49
f 67/74/50 66/76/50 77/86/50
f 66/78/51 65/77/51 76/90/51
f 75/89/52 65/77/52 74/91/52
f 64/79/53 63/80/53 74/91/53
f 63/80/54 62/81/54 73/92/54
f 72/93/55 62/81/55 71/94/55
f 71/109/56 61/84/56 70/95/56
f 70/95/124 60/83/124 69/96/124
f 78/87/58 77/86/58 88/98/58
f 77/86/59 76/88/59 87/97/59
f 76/157/60 75/100/60 86/102/60
f 85/101/61 75/100/61 84/103/61
f 74/91/62 73/92/62 84/103/62
f 73/92/63 72/105/63 83/104/63
f 72/105/64 71/107/64 82/106/64
f 81/158/65 71/109/65 80/110/65
f 70/95/66 69/96/66 80/110/66
f 88/98/67 87/97/67 98/113/67
f 97/112/68 87/97/68 96/114/68
f 86/102/69 85/101/69 96/116/69
f 95/115/70 85/101/70 94/117/70
f 84/103/71 83/104/71 94/117/71
f 83/104/72 82/106/72 93/118/72
f 82/106/73 81/108/73 92/119/73
f 81/158/74 80/110/74 91/122/74
f 90/121/75 80/110/75 89/123/75
f 98/113/76 97/112/76 108/125/76
f 107/124/77 97/112/77 106/126/77
f 96/116/78 95/115/78 106/128/78
f 105/127/79 95/115/79 104/129/79
f 94/117/80 93/118/80 104/129/80
f 93/118/81 92/119/81 103/130/81
f 92/119/82 91/120/82 102/131/82
f 101/153/83 91/122/83 100/133/83
f 100/133/84 90/121/84 99/134/84
f 106/159/85 105/135/85 112/137/85
f 111/136/86 105/135/86 110/139/86
f 5/1/88 112/142/88 15/2/88
f 112/137/89 111/136/89 14/143/89
f 13/14/90 111/136/90 12/17/90
f 12/17/91 110/139/91 11/6/91
f 3/4/92 109/145/92 10/5/92
f 109/160/93 2/147/93 9/148/93
f 6/141/114 108/125/114 5/1/114
f 107/124/115 106/126/115 5/1/115
f 110/139/116 104/138/116 4/144/116
f 4/144/117 103/150/117 3/4/117
f 102/151/118 101/152/118 3/4/118
f 109/160/119 101/153/119 2/147/119
f 100/133/120 99/134/120 2/147/120
