v -0.026801 0.091276 0.000000
v -0.051431 0.080028 0.000000
v -0.086532 0.039518 0.000000
v -0.094161 0.013538 0.000000
v -0.051431 -0.080028 0.000000
v -0.026801 -0.091276 0.000000
v -0.022546 0.091276 -0.014490
v -0.043266 0.080028 -0.027806
v -0.060481 0.062296 -0.038869
v -0.072796 0.039518 -0.046783
v -0.079213 0.013538 -0.050907
v -0.079213 -0.013538 -0.050907
v -0.072796 -0.039518 -0.046783
v -0.060481 -0.062296 -0.038869
v -0.043266 -0.080028 -0.027806
v -0.022546 -0.091276 -0.014490
v -0.000000 -0.095129 0.000000
v -0.011134 0.091276 -0.024379
v -0.021365 0.080028 -0.046783
v -0.029866 0.062296 -0.065397
v -0.035947 0.039518 -0.078713
v -0.039116 0.013538 -0.085652
v -0.039116 -0.013538 -0.085652
v -0.035947 -0.039518 -0.078713
v -0.029866 -0.062296 -0.065397
v -0.021365 -0.080028 -0.046783
v -0.011134 -0.091276 -0.024379
v 0.003814 0.091276 -0.026528
v 0.007319 0.080028 -0.050907
v 0.010232 0.062296 -0.071162
v 0.012315 0.039518 -0.085652
v 0.013400 0.013538 -0.093202
v 0.013400 -0.013538 -0.093202
v 0.012315 -0.039518 -0.085652
v 0.010232 -0.062296 -0.071162
v 0.007319 -0.080028 -0.050907
v 0.003814 -0.091276 -0.026528
v -0.000000 0.095129 0.000000
v 0.017551 0.091276 -0.020255
v 0.033680 0.080028 -0.038869
v 0.047080 0.062296 -0.054334
v 0.056667 0.039518 -0.065397
v 0.061662 0.013538 -0.071162
v 0.061662 -0.013538 -0.071162
v 0.056667 -0.039518 -0.065397
v 0.047080 -0.062296 -0.054334
v 0.033680 -0.080028 -0.038869
v 0.017551 -0.091276 -0.020255
v 0.025715 0.091276 -0.007551
v 0.049347 0.080028 -0.014490
v 0.068982 0.062296 -0.020255
v 0.083027 0.039518 -0.024379
v 0.090347 0.013538 -0.026528
v 0.090347 -0.013538 -0.026528
v 0.083027 -0.039518 -0.024379
v 0.068982 -0.062296 -0.020255
v 0.049347 -0.080028 -0.014490
v 0.025715 -0.091276 -0.007551
v 0.025715 0.091276 0.007551
v 0.049347 0.080028 0.014490
v 0.068982 0.062296 0.020255
v 0.083027 0.039518 0.024379
v 0.090347 0.013538 0.026528
v 0.090347 -0.013538 0.026528
v 0.083027 -0.039518 0.024379
v 0.068982 -0.062296 0.020255
v 0.049347 -0.080028 0.014490
v 0.025715 -0.091276 0.007551
v 0.017551 0.091276 0.020255
v 0.033680 0.080028 0.038869
v 0.047080 0.062296 0.054334
v 0.056667 0.039518 0.065397
v 0.061662 0.013538 0.071162
v 0.061662 -0.013538 0.071162
v 0.056667 -0.039518 0.065397
v 0.047080 -0.062296 0.054334
v 0.033680 -0.080028 0.038869
v 0.017551 -0.091276 0.020255
v 0.003814 0.091276 0.026528
v 0.007319 0.080028 0.050907
v 0.010232 0.062296 0.071162
v 0.012315 0.039518 0.085652
v 0.013400 0.013538 0.093202
v 0.013400 -0.013538 0.093202
v 0.012315 -0.039518 0.085652
v 0.010232 -0.062296 0.071162
v 0.007319 -0.080028 0.050907
v 0.003814 -0.091276 0.026528
v -0.011134 0.091276 0.024379
v -0.021365 0.080028 0.046783
v -0.029866 0.062296 0.065397
v -0.035947 0.039518 0.078713
v -0.039116 0.013538 0.085652
v -0.039116 -0.013538 0.085652
v -0.035947 -0.039518 0.078713
v -0.029866 -0.062296 0.065397
v -0.021365 -0.080028 0.046783
v -0.011134 -0.091276 0.024379
v -0.022546 0.091276 0.014490
v -0.043266 0.080028 0.027806
v -0.060481 0.062296 0.038869
v -0.072796 0.039518 0.046783
v -0.079213 0.013538 0.050907
v -0.079213 -0.013538 0.050907
v -0.072796 -0.039518 0.046783
v -0.060481 -0.062296 0.038869
v -0.043266 -0.080028 0.027806
v -0.022546 -0.091276 0.014490
v -0.071894 0.062296 0.000000
v -0.094161 -0.013538 0.000000
v -0.086532 -0.039518 0.000000
v -0.071894 -0.062296 0.000000
vt 0.130975 0.296838
vt 0.076422 0.252463
vt 0.128829 0.222111
vt 0.253710 0.462045
vt 0.253710 0.576240
vt 0.188972 0.581273
vt 0.540111 0.228798
vt 0.574309 0.214105
vt 0.615678 0.257700
vt 0.056085 0.187393
vt 0.118231 0.188202
vt 0.032287 0.277037
vt 0.003859 0.186078
vt 0.000000 0.566581
vt 0.056761 0.576240
vt 0.056761 0.672307
vt 0.121500 0.581273
vt 0.121500 0.685809
vt 0.188972 0.685809
vt 0.399406 0.370819
vt 0.479336 0.433241
vt 0.441740 0.485891
vt 0.453418 0.333333
vt 0.519826 0.385196
vt 0.654683 0.200603
vt 0.705479 0.214105
vt 0.594635 0.184351
vt 0.076422 0.122288
vt 0.128829 0.154275
vt 0.032287 0.095068
vt 0.386931 0.587911
vt 0.492872 0.643822
vt 0.462178 0.675470
vt 0.410083 0.538878
vt 0.525363 0.599718
vt 0.557020 0.546730
vt 0.585277 0.489152
vt 0.607845 0.431648
vt 0.559931 0.345646
vt 0.622896 0.378877
vt 0.594635 0.148982
vt 0.130975 0.077817
vt 0.157257 0.131101
vt 0.108546 0.032904
vt 0.000000 0.074822
vt 0.091786 0.000000
vt 0.632346 0.634156
vt 0.591188 0.675470
vt 0.664002 0.581168
vt 0.683592 0.520800
vt 0.689529 0.457942
vt 0.654683 0.132731
vt 0.615678 0.075633
vt 0.650955 0.039413
vt 0.574309 0.119228
vt 0.202425 0.068101
vt 0.208424 0.019321
vt 0.746290 0.346836
vt 0.746290 0.442902
vt 0.689529 0.452562
vt 0.811028 0.333333
vt 0.811028 0.437869
vt 0.878500 0.333333
vt 0.878500 0.437869
vt 0.943239 0.346836
vt 0.943239 0.442903
vt 1.000000 0.372746
vt 1.000000 0.452562
vt 0.550052 0.047438
vt 0.559218 0.000000
vt 0.540111 0.104536
vt 0.268086 0.096223
vt 0.228707 0.140693
vt 0.300210 0.058633
vt 0.746290 0.557097
vt 0.689529 0.547438
vt 0.811028 0.562131
vt 0.878500 0.562131
vt 0.943239 0.557097
vt 1.000000 0.547438
vt 0.478641 0.057097
vt 0.459394 0.013502
vt 0.502898 0.109569
vt 0.307112 0.153256
vt 0.249043 0.170413
vt 0.354763 0.138358
vt 0.746290 0.653164
vt 0.689529 0.627253
vt 0.811028 0.666667
vt 0.878500 0.666667
vt 0.943239 0.653164
vt 1.000000 0.627253
vt 0.424117 0.101544
vt 0.383176 0.075633
vt 0.474485 0.132731
vt 0.307112 0.221091
vt 0.249043 0.205763
vt 0.354763 0.233183
vt 0.746290 0.680169
vt 0.746290 0.776236
vt 0.689529 0.785895
vt 0.811028 0.771202
vt 0.878500 0.771202
vt 0.943239 0.680169
vt 0.943239 0.776236
vt 1.000000 0.706080
vt 1.000000 0.785895
vt 0.403792 0.166667
vt 0.354763 0.166667
vt 0.463893 0.166667
vt 0.268086 0.278192
vt 0.228707 0.235518
vt 0.300210 0.313003
vt 0.746290 0.890431
vt 0.689529 0.880772
vt 0.811028 0.895464
vt 0.878500 0.895464
vt 0.943239 0.890431
vt 1.000000 0.880772
vt 0.424117 0.231789
vt 0.383176 0.257700
vt 0.474485 0.200603
vt 0.202425 0.306429
vt 0.194490 0.250233
vt 0.208424 0.352476
vt 0.746290 0.986498
vt 0.689529 0.960587
vt 0.811028 1.000000
vt 0.878500 1.000000
vt 0.943239 0.986498
vt 1.000000 0.960587
vt 0.478641 0.276236
vt 0.459394 0.319831
vt 0.502898 0.223764
vt 0.056761 0.365978
vt 0.056761 0.462045
vt 0.000000 0.471704
vt 0.121500 0.352476
vt 0.121500 0.457011
vt 0.185262 0.188439
vt 0.157257 0.245235
vt 0.108546 0.339068
vt 0.188972 0.457011
vt 0.310471 0.471704
vt 0.310471 0.566581
vt 0.559218 0.333333
vt 0.550052 0.285895
vt 0.530199 0.166667
vt 0.194490 0.126038
vt 0.188972 0.352476
vt 0.253710 0.365978
vt 0.310471 0.391889
vt 0.000000 0.646396
vt 0.354763 0.417965
vt 0.650955 0.293920
vt 0.374159 0.629017
vt 0.705479 0.119228
vt 0.689529 0.372746
vt 0.689529 0.706080
vt 0.000000 0.391889
vn -0.412359 -0.902940 -0.121079
vn -0.923541 0.271176 -0.271176
vn -0.412359 0.902940 -0.121079
vn -0.281438 -0.902940 -0.324797
vn -0.438907 -0.742154 -0.506526
vn -0.557408 -0.524866 -0.643283
vn -0.630323 -0.271176 -0.727431
vn -0.654861 0.000000 -0.755750
vn -0.630323 0.271176 -0.727431
vn -0.557408 0.524865 -0.643283
vn -0.438907 0.742154 -0.506526
vn -0.281438 0.902940 -0.324796
vn -0.061162 -0.902940 -0.425393
vn -0.095384 -0.742154 -0.663407
vn -0.121136 -0.524865 -0.842521
vn -0.136982 -0.271176 -0.952733
vn -0.142315 0.000000 -0.989821
vn -0.136982 0.271176 -0.952733
vn -0.121136 0.524865 -0.842522
vn -0.095384 0.742154 -0.663407
vn -0.061162 0.902940 -0.425392
vn 0.178532 -0.902940 -0.390930
vn 0.278423 -0.742154 -0.609662
vn 0.353595 -0.524865 -0.774265
vn 0.399849 -0.271176 -0.875548
vn 0.415415 0.000000 -0.909632
vn 0.399849 0.271176 -0.875548
vn 0.353595 0.524865 -0.774266
vn 0.278423 0.742154 -0.609662
vn 0.178532 0.902940 -0.390930
vn 0.361543 -0.902940 -0.232350
vn 0.563832 -0.742154 -0.362353
vn 0.716063 -0.524865 -0.460186
vn 0.809731 -0.271176 -0.520383
vn 0.841253 0.000000 -0.540641
vn 0.809731 0.271177 -0.520383
vn 0.716063 0.524865 -0.460186
vn 0.563833 0.742154 -0.362353
vn 0.361543 0.902940 -0.232350
vn 0.429767 -0.902940 0.000000
vn 0.670229 -0.742154 0.000000
vn 0.851185 -0.524865 -0.000000
vn 0.962530 -0.271176 0.000000
vn 1.000000 0.000000 0.000000
vn 0.962530 0.271176 -0.000000
vn 0.851186 0.524865 -0.000000
vn 0.670229 0.742154 -0.000000
vn 0.429767 0.902940 0.000000
vn 0.361543 -0.902940 0.232350
vn 0.563833 -0.742154 0.362353
vn 0.716063 -0.524866 0.460185
vn 0.809732 -0.271176 0.520383
vn 0.841254 0.000000 0.540641
vn 0.809732 0.271176 0.520383
vn 0.716063 0.524865 0.460185
vn 0.563833 0.742154 0.362353
vn 0.361543 0.902940 0.232349
vn 0.178532 -0.902940 0.390930
vn 0.278423 -0.742154 0.609662
vn 0.353595 -0.524866 0.774265
vn 0.399849 -0.271176 0.875548
vn 0.415415 0.000000 0.909632
vn 0.399850 0.271176 0.875548
vn 0.353595 0.524865 0.774266
vn 0.278423 0.742154 0.609662
vn 0.178532 0.902939 0.390931
vn -0.061162 -0.902940 0.425393
vn -0.095384 -0.742154 0.663407
vn -0.121136 -0.524866 0.842521
vn -0.136982 -0.271176 0.952732
vn -0.142314 0.000000 0.989821
vn -0.136982 0.271176 0.952733
vn -0.121136 0.524865 0.842522
vn -0.095383 0.742154 0.663408
vn -0.061162 0.902940 0.425393
vn -0.281438 -0.902940 0.324797
vn -0.438907 -0.742154 0.506525
vn -0.557408 -0.524865 0.643283
vn -0.630323 -0.271177 0.727432
vn -0.654861 0.000000 0.755750
vn -0.630323 0.271176 0.727432
vn -0.557408 0.524865 0.643283
vn -0.438907 0.742154 0.506526
vn -0.281438 0.902939 0.324797
vn -0.816706 -0.524866 0.239807
vn -0.923540 -0.271176 0.271176
vn -0.142191 -0.988958 -0.041751
vn -0.643080 -0.742154 -0.188825
vn -0.816706 -0.524865 -0.239806
vn -0.923541 -0.271176 -0.271175
vn -0.959493 -0.000002 -0.281733
vn -0.816706 0.524865 -0.239806
vn -0.643081 0.742153 -0.188825
vn -0.142191 0.988958 -0.041752
vn -0.097046 -0.988958 -0.111998
vn -0.097046 0.988958 -0.111997
vn -0.021090 -0.988958 -0.146685
vn -0.021090 0.988958 -0.146685
vn 0.061562 -0.988958 -0.134803
vn 0.061562 0.988958 -0.134802
vn 0.124668 -0.988958 -0.080120
vn 0.124668 0.988958 -0.080119
vn 0.148194 -0.988958 0.000000
vn 0.148194 0.988958 0.000000
vn 0.124668 -0.988958 0.080120
vn 0.124668 0.988958 0.080119
vn 0.061562 -0.988958 0.134802
vn 0.061562 0.988958 0.134802
vn -0.021090 -0.988958 0.146686
vn -0.021090 0.988958 0.146685
vn -0.097046 -0.988958 0.111996
vn -0.097046 0.988958 0.111998
vn -0.142191 -0.988958 0.041752
vn -0.412359 -0.902940 0.121080
vn -0.643081 -0.742154 0.188826
vn -0.959493 0.000000 0.281733
vn -0.923541 0.271176 0.271177
vn -0.816706 0.524866 0.239807
vn -0.643080 0.742154 0.188826
vn -0.412359 0.902940 0.121080
vn -0.142191 0.988958 0.041751
vn -0.412359 -0.902940 -0.121080
vn -0.281438 -0.902940 -0.324796
vn -0.557407 -0.524866 -0.643283
vn -0.630323 -0.271176 -0.727432
vn -0.654861 0.000000 -0.755749
vn -0.630323 0.271176 -0.727432
vn -0.438907 0.742154 -0.506525
vn -0.281438 0.902940 -0.324797
vn -0.121137 -0.524866 -0.842521
vn -0.136983 0.271176 -0.952733
vn -0.121136 0.524865 -0.842521
vn -0.095383 0.742154 -0.663407
vn -0.061162 0.902940 -0.425393
vn 0.178532 0.902939 -0.390931
vn 0.563833 -0.742154 -0.362354
vn 0.716062 -0.524866 -0.460186
vn 0.809731 0.271176 -0.520383
vn 0.716063 -0.524865 0.460185
vn 0.809731 -0.271176 0.520383
vn 0.716063 0.524866 0.460185
vn 0.361543 0.902940 0.232350
vn 0.178532 -0.902939 0.390931
vn 0.353596 -0.524865 0.774265
vn 0.399850 -0.271176 0.875548
vn 0.399849 0.271176 0.875548
vn 0.353595 0.524865 0.774265
vn 0.178532 0.902940 0.390930
vn -0.061162 -0.902939 0.425393
vn -0.095383 -0.742154 0.663407
vn -0.121136 -0.524865 0.842521
vn -0.136982 -0.271176 0.952733
vn -0.142315 0.000000 0.989821
vn -0.095383 0.742154 0.663407
vn -0.438907 -0.742154 0.506526
vn -0.557407 -0.524866 0.643283
vn -0.630323 -0.271176 0.727431
vn -0.281438 0.902940 0.324797
vn -0.643081 -0.742154 -0.188826
vn -0.816707 -0.524865 -0.239806
vn -0.959493 0.000000 -0.281732
vn -0.816706 0.524866 -0.239807
vn -0.643080 0.742154 -0.188825
vn -0.643080 -0.742154 0.188826
vn -0.923540 0.271176 0.271176
vn -0.816706 0.524865 0.239807
vn -0.643081 0.742154 0.188826
s off
f 5/1/1 15/2/1 16/3/1
f 3/4/2 10/5/2 11/6/2
f 1/7/3 7/8/3 8/9/3
f 15/2/4 26/10/4 27/11/4
f 14/12/5 25/13/5 26/10/5
f 14/14/6 13/15/6 24/16/6
f 13/15/7 12/17/7 23/18/7
f 11/6/8 22/19/8 23/18/8
f 10/20/9 21/21/9 22/22/9
f 9/23/10 20/24/10 21/21/10
f 8/9/11 19/25/11 20/26/11
f 7/8/12 18/27/12 19/25/12
f 26/10/13 36/28/13 37/29/13
f 26/10/14 25/13/14 35/30/14
f 24/31/15 34/32/15 35/33/15
f 23/34/16 33/35/16 34/32/16
f 22/22/17 32/36/17 33/35/17
f 21/21/18 31/37/18 32/36/18
f 21/21/19 20/24/19 30/38/19
f 19/39/20 29/40/20 30/38/20
f 19/25/21 18/27/21 28/41/21
f 36/28/22 47/42/22 48/43/22
f 35/30/23 46/44/23 47/42/23
f 34/45/24 45/46/24 46/44/24
f 33/35/25 44/47/25 45/48/25
f 32/36/26 43/49/26 44/47/26
f 32/36/27 31/37/27 42/50/27
f 30/38/28 41/51/28 42/50/28
f 29/52/29 40/53/29 41/54/29
f 28/41/30 39/55/30 40/53/30
f 48/43/31 47/42/31 57/56/31
f 47/42/32 46/44/32 56/57/32
f 45/58/33 55/59/33 56/60/33
f 45/58/34 44/61/34 54/62/34
f 43/63/35 53/64/35 54/62/35
f 42/65/36 52/66/36 53/64/36
f 41/67/37 51/68/37 52/66/37
f 40/53/38 50/69/38 51/70/38
f 40/53/39 39/55/39 49/71/39
f 57/56/40 67/72/40 68/73/40
f 56/57/41 66/74/41 67/72/41
f 55/59/42 65/75/42 66/76/42
f 54/62/43 64/77/43 65/75/43
f 53/64/44 63/78/44 64/77/44
f 52/66/45 62/79/45 63/78/45
f 51/68/46 61/80/46 62/79/46
f 50/69/47 60/81/47 61/82/47
f 50/69/48 49/71/48 59/83/48
f 67/72/49 77/84/49 78/85/49
f 66/74/50 76/86/50 77/84/50
f 65/75/51 75/87/51 76/88/51
f 65/75/52 64/77/52 74/89/52
f 63/78/53 73/90/53 74/89/53
f 62/79/54 72/91/54 73/90/54
f 61/80/55 71/92/55 72/91/55
f 60/81/56 70/93/56 71/94/56
f 60/81/57 59/83/57 69/95/57
f 77/84/58 87/96/58 88/97/58
f 77/84/59 76/86/59 86/98/59
f 75/99/60 85/100/60 86/101/60
f 74/89/61 84/102/61 85/100/61
f 73/90/62 83/103/62 84/102/62
f 72/104/63 82/105/63 83/103/63
f 71/106/64 81/107/64 82/105/64
f 70/93/65 80/108/65 81/109/65
f 70/93/66 69/95/66 79/110/66
f 87/96/67 97/111/67 98/112/67
f 86/98/68 96/113/68 97/111/68
f 85/100/69 95/114/69 96/115/69
f 85/100/70 84/102/70 94/116/70
f 83/103/71 93/117/71 94/116/71
f 82/105/72 92/118/72 93/117/72
f 81/107/73 91/119/73 92/118/73
f 80/108/74 90/120/74 91/121/74
f 80/108/75 79/110/75 89/122/75
f 97/111/76 107/123/76 108/124/76
f 96/113/77 106/125/77 107/123/77
f 95/114/78 105/126/78 106/127/78
f 95/114/79 94/116/79 104/128/79
f 93/117/80 103/129/80 104/128/80
f 92/118/81 102/130/81 103/129/81
f 91/119/82 101/131/82 102/130/82
f 90/120/83 100/132/83 101/133/83
f 90/120/84 89/122/84 99/134/84
f 105/135/85 111/136/85 112/137/85
f 104/138/86 110/139/86 111/136/86
f 17/140/87 6/141/87 16/3/87
f 112/142/88 14/12/88 15/2/88
f 111/136/89 13/15/89 14/14/89
f 111/136/90 110/139/90 12/17/90
f 110/139/91 4/143/91 11/6/91
f 109/144/92 9/145/92 10/5/92
f 109/146/93 2/147/93 8/9/93
f 1/7/94 38/148/94 7/8/94
f 17/140/95 16/3/95 27/11/95
f 7/8/96 38/148/96 18/27/96
f 17/140/97 27/11/97 37/29/97
f 18/27/98 38/148/98 28/41/98
f 17/140/99 37/29/99 48/43/99
f 28/41/100 38/148/100 39/55/100
f 17/140/101 48/43/101 58/149/101
f 39/55/102 38/148/102 49/71/102
f 17/140/103 58/149/103 68/73/103
f 49/71/104 38/148/104 59/83/104
f 17/140/105 68/73/105 78/85/105
f 59/83/106 38/148/106 69/95/106
f 17/140/107 78/85/107 88/97/107
f 69/95/108 38/148/108 79/110/108
f 17/140/109 88/97/109 98/112/109
f 79/110/110 38/148/110 89/122/110
f 17/140/111 98/112/111 108/124/111
f 89/122/112 38/148/112 99/134/112
f 17/140/113 108/124/113 6/141/113
f 108/124/114 107/123/114 5/1/114
f 106/125/115 112/142/115 5/1/115
f 104/138/116 103/150/116 4/143/116
f 102/151/117 3/4/117 4/143/117
f 101/152/118 109/144/118 3/4/118
f 101/133/119 100/132/119 2/147/119
f 99/134/120 1/7/120 2/147/120
f 99/134/121 38/148/121 1/7/121
f 6/141/122 5/1/122 16/3/122
f 4/143/2 3/4/2 11/6/2
f 2/147/3 1/7/3 8/9/3
f 16/3/123 15/2/123 27/11/123
f 15/2/5 14/12/5 26/10/5
f 25/153/124 14/14/124 24/16/124
f 24/16/125 13/15/125 23/18/125
f 12/17/126 11/6/126 23/18/126
f 11/154/127 10/20/127 22/22/127
f 10/20/10 9/23/10 21/21/10
f 9/155/128 8/9/128 20/26/128
f 8/9/129 7/8/129 19/25/129
f 27/11/13 26/10/13 37/29/13
f 36/28/14 26/10/14 35/30/14
f 25/156/130 24/31/130 35/33/130
f 24/31/16 23/34/16 34/32/16
f 23/34/17 22/22/17 33/35/17
f 22/22/131 21/21/131 32/36/131
f 31/37/132 21/21/132 30/38/132
f 20/24/133 19/39/133 30/38/133
f 29/52/134 19/25/134 28/41/134
f 37/29/22 36/28/22 48/43/22
f 36/28/23 35/30/23 47/42/23
f 35/30/24 34/45/24 46/44/24
f 34/32/25 33/35/25 45/48/25
f 33/35/26 32/36/26 44/47/26
f 43/49/27 32/36/27 42/50/27
f 31/37/28 30/38/28 42/50/28
f 30/157/29 29/52/29 41/54/29
f 29/52/135 28/41/135 40/53/135
f 58/149/31 48/43/31 57/56/31
f 57/56/136 47/42/136 56/57/136
f 46/158/137 45/58/137 56/60/137
f 55/59/34 45/58/34 54/62/34
f 44/61/35 43/63/35 54/62/35
f 43/63/138 42/65/138 53/64/138
f 42/65/37 41/67/37 52/66/37
f 41/54/38 40/53/38 51/70/38
f 50/69/39 40/53/39 49/71/39
f 58/149/40 57/56/40 68/73/40
f 57/56/41 56/57/41 67/72/41
f 56/60/42 55/59/42 66/76/42
f 55/59/43 54/62/43 65/75/43
f 54/62/44 53/64/44 64/77/44
f 53/64/45 52/66/45 63/78/45
f 52/66/46 51/68/46 62/79/46
f 51/70/47 50/69/47 61/82/47
f 60/81/48 50/69/48 59/83/48
f 68/73/49 67/72/49 78/85/49
f 67/72/50 66/74/50 77/84/50
f 66/76/139 65/75/139 76/88/139
f 75/87/140 65/75/140 74/89/140
f 64/77/53 63/78/53 74/89/53
f 63/78/54 62/79/54 73/90/54
f 62/79/141 61/80/141 72/91/141
f 61/82/56 60/81/56 71/94/56
f 70/93/142 60/81/142 69/95/142
f 78/85/143 77/84/143 88/97/143
f 87/96/59 77/84/59 86/98/59
f 76/159/144 75/99/144 86/101/144
f 75/99/145 74/89/145 85/100/145
f 74/89/62 73/90/62 84/102/62
f 73/90/146 72/104/146 83/103/146
f 72/104/147 71/106/147 82/105/147
f 71/94/65 70/93/65 81/109/65
f 80/108/148 70/93/148 79/110/148
f 88/97/149 87/96/149 98/112/149
f 87/96/150 86/98/150 97/111/150
f 86/101/151 85/100/151 96/115/151
f 95/114/152 85/100/152 94/116/152
f 84/102/153 83/103/153 94/116/153
f 83/103/72 82/105/72 93/117/72
f 82/105/73 81/107/73 92/118/73
f 81/109/154 80/108/154 91/121/154
f 90/120/75 80/108/75 89/122/75
f 98/112/76 97/111/76 108/124/76
f 97/111/155 96/113/155 107/123/155
f 96/115/156 95/114/156 106/127/156
f 105/126/157 95/114/157 104/128/157
f 94/116/80 93/117/80 104/128/80
f 93/117/81 92/118/81 103/129/81
f 92/118/82 91/119/82 102/130/82
f 91/121/83 90/120/83 101/133/83
f 100/132/158 90/120/158 99/134/158
f 106/160/85 105/135/85 112/137/85
f 105/135/86 104/138/86 111/136/86
f 5/1/159 112/142/159 15/2/159
f 112/137/160 111/136/160 14/14/160
f 13/15/90 111/136/90 12/17/90
f 12/17/161 110/139/161 11/6/161
f 3/4/162 109/144/162 10/5/162
f 9/155/163 109/146/163 8/9/163
f 6/141/114 108/124/114 5/1/114
f 107/123/164 106/125/164 5/1/164
f 110/139/116 104/138/116 4/143/116
f 103/150/165 102/151/165 4/143/165
f 102/151/166 101/152/166 3/4/166
f 109/146/167 101/133/167 2/147/167
f 100/132/120 99/134/120 2/147/120
