# Blender v2.74 (sub 0) OBJ File: 'bouteillevin.blend'
# www.blender.org
o bouteilledevin_Cylinder
v 0.003353 0.003593 -0.077183
v 0.003353 0.400521 -0.027154
v 0.017640 0.003593 -0.075775
v 0.007880 0.400521 -0.026708
v 0.031379 0.003593 -0.071608
v 0.012233 0.400521 -0.025387
v 0.044040 0.003593 -0.064840
v 0.016245 0.400521 -0.023243
v 0.055137 0.003593 -0.055733
v 0.019762 0.400521 -0.020357
v 0.064245 0.003593 -0.044635
v 0.022648 0.400521 -0.016841
v 0.071013 0.003593 -0.031974
v 0.024792 0.400521 -0.012829
v 0.075180 0.003593 -0.018236
v 0.026113 0.400521 -0.008476
v 0.076587 0.003593 -0.003948
v 0.026558 0.400521 -0.003948
v 0.075180 0.003593 0.010339
v 0.026113 0.400521 0.000579
v 0.071013 0.003593 0.024077
v 0.024792 0.400521 0.004932
v 0.064245 0.003593 0.036738
v 0.022648 0.400521 0.008944
v 0.055137 0.003593 0.047836
v 0.019762 0.400521 0.012460
v 0.044040 0.003593 0.056944
v 0.016245 0.400521 0.015346
v 0.031379 0.003593 0.063711
v 0.012233 0.400521 0.017491
v 0.017640 0.003593 0.067879
v 0.007880 0.400521 0.018811
v 0.003353 0.003593 0.069286
v 0.003353 0.400521 0.019257
v -0.010934 0.003593 0.067879
v -0.001174 0.400521 0.018811
v -0.024673 0.003593 0.063711
v -0.005527 0.400521 0.017491
v -0.037334 0.003593 0.056944
v -0.009539 0.400521 0.015346
v -0.048431 0.003593 0.047836
v -0.013056 0.400521 0.012460
v -0.057539 0.003593 0.036738
v -0.015942 0.400521 0.008944
v -0.064307 0.003593 0.024077
v -0.018086 0.400521 0.004932
v -0.068474 0.003593 0.010339
v -0.019406 0.400521 0.000579
v -0.069881 0.003593 -0.003948
v -0.019852 0.400521 -0.003948
v -0.068474 0.003593 -0.018236
v -0.019406 0.400521 -0.008476
v -0.064306 0.003593 -0.031974
v -0.018086 0.400521 -0.012829
v -0.057539 0.003593 -0.044635
v -0.015942 0.400521 -0.016841
v -0.048431 0.003593 -0.055733
v -0.013056 0.400521 -0.020357
v -0.037334 0.003593 -0.064840
v -0.009539 0.400521 -0.023243
v -0.024672 0.003593 -0.071608
v -0.005527 0.400521 -0.025387
v -0.010934 0.003593 -0.075775
v -0.001174 0.400521 -0.026708
v 0.003353 0.019125 -0.070103
v 0.016259 0.019125 -0.068832
v 0.028669 0.019125 -0.065067
v 0.040107 0.019125 -0.058954
v 0.050131 0.019125 -0.050727
v 0.058359 0.019125 -0.040702
v 0.064472 0.019125 -0.029265
v 0.068237 0.019125 -0.016855
v 0.069508 0.019125 -0.003948
v 0.068237 0.019125 0.008958
v 0.064472 0.019125 0.021368
v 0.058359 0.019125 0.032805
v 0.050131 0.019125 0.042830
v 0.040107 0.019125 0.051057
v 0.028669 0.019125 0.057171
v 0.016259 0.019125 0.060935
v 0.003353 0.019125 0.062206
v -0.009553 0.019125 0.060935
v -0.021963 0.019125 0.057171
v -0.033401 0.019125 0.051057
v -0.043425 0.019125 0.042830
v -0.051653 0.019125 0.032805
v -0.057766 0.019125 0.021368
v -0.061530 0.019125 0.008958
v -0.062802 0.019125 -0.003948
v -0.061530 0.019125 -0.016855
v -0.057766 0.019125 -0.029265
v -0.051652 0.019125 -0.040702
v -0.043425 0.019125 -0.050727
v -0.033400 0.019125 -0.058954
v -0.021963 0.019125 -0.065067
v -0.009553 0.019125 -0.068832
v 0.003353 0.279168 -0.031520
v 0.008732 0.279168 -0.030990
v 0.013904 0.279168 -0.029421
v 0.018671 0.279168 -0.026873
v 0.022849 0.279168 -0.023444
v 0.026278 0.279168 -0.019266
v 0.028826 0.279168 -0.014500
v 0.030395 0.279168 -0.009327
v 0.030925 0.279168 -0.003948
v 0.030395 0.279168 0.001431
v 0.028826 0.279168 0.006603
v 0.026278 0.279168 0.011370
v 0.022849 0.279168 0.015548
v 0.018671 0.279168 0.018976
v 0.013904 0.279168 0.021524
v 0.008732 0.279168 0.023093
v 0.003353 0.279168 0.023623
v -0.002026 0.279168 0.023093
v -0.007198 0.279168 0.021524
v -0.011965 0.279168 0.018976
v -0.016143 0.279168 0.015548
v -0.019572 0.279168 0.011369
v -0.022120 0.279168 0.006603
v -0.023689 0.279168 0.001431
v -0.024218 0.279168 -0.003948
v -0.023689 0.279168 -0.009327
v -0.022120 0.279168 -0.014500
v -0.019572 0.279168 -0.019266
v -0.016143 0.279168 -0.023444
v -0.011965 0.279168 -0.026873
v -0.007198 0.279168 -0.029421
v -0.002026 0.279168 -0.030990
v 0.016259 0.255885 -0.068832
v 0.028669 0.255885 -0.065067
v 0.040107 0.255885 -0.058954
v 0.050131 0.255885 -0.050727
v 0.058359 0.255885 -0.040702
v 0.064472 0.255885 -0.029265
v 0.068237 0.255885 -0.016855
v 0.069508 0.255885 -0.003948
v 0.068237 0.255885 0.008958
v 0.064472 0.255885 0.021368
v 0.058359 0.255885 0.032805
v 0.050131 0.255885 0.042830
v 0.040107 0.255885 0.051057
v 0.028669 0.255885 0.057171
v 0.016259 0.255885 0.060935
v 0.003353 0.255885 0.062206
v -0.009553 0.255885 0.060935
v -0.021963 0.255885 0.057171
v -0.033401 0.255885 0.051057
v -0.043425 0.255885 0.042830
v -0.051653 0.255885 0.032805
v -0.057766 0.255885 0.021368
v -0.061530 0.255885 0.008958
v -0.062802 0.255885 -0.003948
v -0.061530 0.255885 -0.016855
v -0.057766 0.255885 -0.029265
v -0.051652 0.255885 -0.040702
v -0.043425 0.255885 -0.050727
v -0.033400 0.255885 -0.058954
v -0.021963 0.255885 -0.065067
v -0.009553 0.255885 -0.068832
v 0.003353 0.255885 -0.070103
vt 0.000000 0.000000
vt 1.000000 0.000000
vt 1.000000 1.000000
vt 0.000000 1.000000
vt 0.500000 1.000000
vt 0.853553 0.853553
vt 0.500000 0.000000
vt 0.146447 0.853554
vt 0.402456 0.990393
vt 0.222215 0.915735
vt 0.308659 0.961940
vt 0.038060 0.691342
vt 0.084266 0.777786
vt 0.000000 0.500000
vt 0.009607 0.597546
vt 0.038060 0.308659
vt 0.009607 0.402455
vt 0.084265 0.222215
vt 0.308658 0.038060
vt 0.222215 0.084265
vt 0.146446 0.146447
vt 0.402455 0.009607
vt 0.853553 0.146447
vt 0.597545 0.009607
vt 0.777785 0.084265
vt 0.691342 0.038060
vt 0.961940 0.308658
vt 0.915735 0.222215
vt 0.990393 0.402455
vt 0.961940 0.691342
vt 0.990393 0.597545
vt 1.000000 0.500000
vt 0.915735 0.777785
vt 0.691342 0.961940
vt 0.777785 0.915735
vt 0.597545 0.990393
vn 0.000000 0.520600 -0.853800
vn 0.000000 0.698600 -0.715400
vn 0.139600 0.698600 -0.701700
vn 0.273800 0.698600 -0.661000
vn 0.326700 0.520600 -0.788800
vn 0.397500 0.698600 -0.594900
vn 0.474300 0.520600 -0.709900
vn 0.505900 0.698700 -0.505900
vn 0.594900 0.698600 -0.397500
vn 0.709900 0.520600 -0.474300
vn 0.661000 0.698600 -0.273800
vn 0.788800 0.520600 -0.326700
vn 0.701700 0.698600 -0.139600
vn 0.715400 0.698600 0.000000
vn 0.853800 0.520600 0.000000
vn 0.701700 0.698600 0.139600
vn 0.837400 0.520600 0.166500
vn 0.661000 0.698600 0.273800
vn 0.788800 0.520600 0.326700
vn 0.594900 0.698600 0.397500
vn 0.709900 0.520600 0.474300
vn 0.505900 0.698600 0.505900
vn 0.603700 0.520600 0.603700
vn 0.397500 0.698600 0.594900
vn 0.474300 0.520600 0.709900
vn 0.273800 0.698700 0.661000
vn 0.326700 0.520600 0.788800
vn 0.139600 0.698600 0.701700
vn 0.166500 0.520600 0.837400
vn 0.000000 0.698600 0.715400
vn -0.139600 0.698600 0.701700
vn -0.166500 0.520600 0.837400
vn -0.273800 0.698600 0.661000
vn -0.326700 0.520600 0.788800
vn -0.397500 0.698700 0.594800
vn -0.474300 0.520600 0.709900
vn -0.505900 0.698600 0.505900
vn -0.603700 0.520600 0.603700
vn -0.594900 0.698600 0.397500
vn -0.709900 0.520600 0.474300
vn -0.661000 0.698600 0.273800
vn -0.788800 0.520600 0.326700
vn -0.701700 0.698600 0.139600
vn -0.837400 0.520600 0.166500
vn -0.715400 0.698600 0.000000
vn -0.853800 0.520600 0.000000
vn -0.701700 0.698600 -0.139600
vn -0.837400 0.520600 -0.166500
vn -0.661000 0.698600 -0.273800
vn -0.594900 0.698600 -0.397500
vn -0.709900 0.520600 -0.474300
vn -0.505900 0.698600 -0.505900
vn -0.397500 0.698600 -0.594900
vn -0.474300 0.520600 -0.709900
vn -0.273800 0.698600 -0.661000
vn -0.326700 0.520600 -0.788800
vn -0.139600 0.698600 -0.701700
vn 0.000000 -0.518300 -0.855200
vn 0.604700 -0.518300 -0.604700
vn 0.000000 -0.518300 0.855200
vn -0.327200 -0.518300 -0.790100
vn -0.373700 0.215000 -0.902200
vn -0.190500 0.215000 -0.957800
vn 0.000000 0.215000 -0.976600
vn -0.475100 -0.518300 -0.711100
vn -0.542600 0.215000 -0.812000
vn -0.690500 0.215000 -0.690500
vn -0.812000 0.215000 -0.542600
vn -0.604700 -0.518300 -0.604700
vn -0.790100 -0.518300 -0.327200
vn -0.902200 0.215000 -0.373700
vn -0.957800 0.215000 -0.190500
vn -0.976600 0.215000 0.000000
vn -0.838700 -0.518300 -0.166800
vn -0.957800 0.215000 0.190500
vn -0.855200 -0.518300 0.000000
vn -0.902200 0.215000 0.373700
vn -0.838700 -0.518300 0.166800
vn -0.812000 0.215000 0.542600
vn -0.790100 -0.518300 0.327200
vn -0.604700 -0.518300 0.604700
vn -0.690500 0.215000 0.690500
vn -0.475100 -0.518300 0.711100
vn -0.542600 0.215000 0.812000
vn -0.373700 0.215000 0.902200
vn -0.166800 -0.518300 0.838700
vn -0.190500 0.215000 0.957800
vn 0.000000 0.215000 0.976600
vn 0.190500 0.215000 0.957800
vn 0.373700 0.215000 0.902200
vn 0.166800 -0.518300 0.838700
vn 0.542600 0.215000 0.812000
vn 0.327200 -0.518300 0.790100
vn 0.604700 -0.518300 0.604700
vn 0.690500 0.215000 0.690500
vn 0.711100 -0.518300 0.475100
vn 0.812000 0.215000 0.542600
vn 0.790100 -0.518300 0.327200
vn 0.902200 0.215000 0.373700
vn 0.957800 0.215000 0.190500
vn 0.855200 -0.518300 0.000000
vn 0.976600 0.215000 0.000000
vn 0.957800 0.215000 -0.190500
vn 0.790100 -0.518300 -0.327200
vn 0.902200 0.215000 -0.373700
vn 0.812000 0.215000 -0.542600
vn 0.690500 0.215000 -0.690500
vn 0.711100 -0.518300 -0.475100
vn 0.542600 0.215000 -0.812000
vn 0.327200 -0.518300 -0.790100
vn 0.373700 0.215000 -0.902200
vn 0.190500 0.215000 -0.957800
vn -0.166500 0.520600 -0.837400
vn -0.171200 0.478900 -0.861000
vn 0.000000 0.478900 -0.877900
vn -0.487700 0.478900 -0.729900
vn -0.603700 0.520600 -0.603700
vn -0.620700 0.478900 -0.620700
vn -0.788800 0.520600 -0.326700
vn -0.729900 0.478900 -0.487700
vn -0.861000 0.478900 -0.171200
vn -0.877900 0.478900 0.000000
vn -0.811000 0.478900 0.335900
vn -0.729900 0.478900 0.487700
vn -0.487700 0.478900 0.729900
vn -0.171200 0.478900 0.861000
vn 0.000000 0.520600 0.853800
vn 0.171200 0.478900 0.861000
vn 0.335900 0.478900 0.811000
vn 0.487700 0.478900 0.729900
vn 0.729900 0.478900 0.487700
vn 0.811000 0.478900 0.335900
vn 0.877900 0.478900 0.000000
vn 0.837400 0.520600 -0.166500
vn 0.861000 0.478900 -0.171200
vn 0.729900 0.478900 -0.487700
vn 0.620700 0.478900 -0.620700
vn 0.603700 0.520600 -0.603700
vn 0.487700 0.478900 -0.729900
vn 0.335900 0.478900 -0.811000
vn 0.166500 0.520600 -0.837400
vn 0.171200 0.478900 -0.861000
vn 0.811000 0.478900 -0.335900
vn 0.861000 0.478900 0.171200
vn 0.620700 0.478900 0.620700
vn 0.000000 0.478900 0.877900
vn -0.335900 0.478900 0.811000
vn -0.620700 0.478900 0.620700
vn -0.861000 0.478900 0.171200
vn -0.811000 0.478900 -0.335900
vn -0.335900 0.478900 -0.811000
vn -0.166800 -0.518300 -0.838700
vn -0.711100 -0.518300 -0.475100
vn -0.711100 -0.518300 0.475100
vn -0.327200 -0.518300 0.790100
vn 0.475100 -0.518300 0.711100
vn 0.838700 -0.518300 0.166800
vn 0.838700 -0.518300 -0.166800
vn 0.475100 -0.518300 -0.711100
vn 0.166800 -0.518300 -0.838700
s 1
f 97/1/1 2/2/2 4/3/3
f 4/2/3 6/3/4 99/4/5
f 99/1/5 6/2/4 8/3/6
f 100/1/7 8/2/6 10/3/8
f 10/2/8 12/3/9 102/4/10
f 12/2/9 14/3/11 103/4/12
f 103/1/12 14/2/11 16/3/13
f 16/2/13 18/3/14 105/4/15
f 18/2/14 20/3/16 106/4/17
f 20/2/16 22/3/18 107/4/19
f 22/2/18 24/3/20 108/4/21
f 24/2/20 26/3/22 109/4/23
f 26/2/22 28/3/24 110/4/25
f 28/2/24 30/3/26 111/4/27
f 30/2/26 32/3/28 112/4/29
f 112/1/29 32/2/28 34/3/30
f 34/2/30 36/3/31 114/4/32
f 36/2/31 38/3/33 115/4/34
f 38/2/33 40/3/35 116/4/36
f 40/2/35 42/3/37 117/4/38
f 42/2/37 44/3/39 118/4/40
f 44/2/39 46/3/41 119/4/42
f 46/2/41 48/3/43 120/4/44
f 48/2/43 50/3/45 121/4/46
f 50/2/45 52/3/47 122/4/48
f 122/1/48 52/2/47 54/3/49
f 54/2/49 56/3/50 124/4/51
f 124/1/51 56/2/50 58/3/52
f 58/2/52 60/3/53 126/4/54
f 60/2/53 62/3/55 127/4/56
f 4/5/3 60/6/53 36/7/31
f 64/2/57 2/3/2 97/4/1
f 127/1/56 62/2/55 64/3/57
f 1/5/58 9/6/59 33/7/60
f 61/1/61 95/2/62 96/3/63
f 96/2/63 65/3/64 1/4/58
f 59/1/65 94/2/66 95/3/62
f 93/2/67 94/3/66 59/4/65
f 92/2/68 93/3/67 57/4/69
f 53/1/70 91/2/71 92/3/68
f 90/2/72 91/3/71 53/4/70
f 89/2/73 90/3/72 51/4/74
f 88/2/75 89/3/73 49/4/76
f 87/2/77 88/3/75 47/4/78
f 86/2/79 87/3/77 45/4/80
f 41/1/81 85/2/82 86/3/79
f 39/1/83 84/2/84 85/3/82
f 83/2/85 84/3/84 39/4/83
f 35/1/86 82/2/87 83/3/85
f 33/1/60 81/2/88 82/3/87
f 80/2/89 81/3/88 33/4/60
f 79/2/90 80/3/89 31/4/91
f 78/2/92 79/3/90 29/4/93
f 25/1/94 77/2/95 78/3/92
f 23/1/96 76/2/97 77/3/95
f 21/1/98 75/2/99 76/3/97
f 74/2/100 75/3/99 21/4/98
f 17/1/101 73/2/102 74/3/100
f 72/2/103 73/3/102 17/4/101
f 13/1/104 71/2/105 72/3/103
f 70/2/106 71/3/105 13/4/104
f 69/2/107 70/3/106 11/4/108
f 68/2/109 69/3/107 9/4/59
f 5/1/110 67/2/111 68/3/109
f 66/2/112 67/3/111 5/4/110
f 1/1/58 65/2/64 66/3/112
f 127/2/56 128/3/113 159/4/114
f 128/2/113 97/3/1 160/4/115
f 157/1/116 126/2/54 127/3/56
f 125/2/117 126/3/54 157/4/116
f 124/2/51 125/3/117 156/4/118
f 123/2/119 124/3/51 155/4/120
f 153/1/121 122/2/48 123/3/119
f 121/2/46 122/3/48 153/4/121
f 120/2/44 121/3/46 152/4/122
f 150/1/123 119/2/42 120/3/44
f 118/2/40 119/3/42 150/4/123
f 117/2/38 118/3/40 149/4/124
f 147/1/125 116/2/36 117/3/38
f 115/2/34 116/3/36 147/4/125
f 145/1/126 114/2/32 115/3/34
f 113/2/127 114/3/32 145/4/126
f 143/1/128 112/2/29 113/3/127
f 142/1/129 111/2/27 112/3/29
f 141/1/130 110/2/25 111/3/27
f 109/2/23 110/3/25 141/4/130
f 139/1/131 108/2/21 109/3/23
f 107/2/19 108/3/21 139/4/131
f 106/2/17 107/3/19 138/4/132
f 136/1/133 105/2/15 106/3/17
f 104/2/134 105/3/15 136/4/133
f 103/2/12 104/3/134 135/4/135
f 133/1/136 102/2/10 103/3/12
f 132/1/137 101/2/138 102/3/10
f 131/1/139 100/2/7 101/3/138
f 130/1/140 99/2/5 100/3/7
f 98/2/141 99/3/5 130/4/140
f 97/2/1 98/3/141 129/4/142
f 160/2/115 129/3/142 66/4/112
f 129/2/142 130/3/140 67/4/111
f 130/2/140 131/3/139 68/4/109
f 131/2/139 132/3/137 69/4/107
f 132/2/137 133/3/136 70/4/106
f 133/2/136 134/3/143 71/4/105
f 134/2/143 135/3/135 72/4/103
f 135/2/135 136/3/133 73/4/102
f 136/2/133 137/3/144 74/4/100
f 137/2/144 138/3/132 75/4/99
f 138/2/132 139/3/131 76/4/97
f 139/2/131 140/3/145 77/4/95
f 140/2/145 141/3/130 78/4/92
f 141/2/130 142/3/129 79/4/90
f 142/2/129 143/3/128 80/4/89
f 143/2/128 144/3/146 81/4/88
f 144/2/146 145/3/126 82/4/87
f 145/2/126 146/3/147 83/4/85
f 146/2/147 147/3/125 84/4/84
f 147/2/125 148/3/148 85/4/82
f 148/2/148 149/3/124 86/4/79
f 149/2/124 150/3/123 87/4/77
f 150/2/123 151/3/149 88/4/75
f 151/2/149 152/3/122 89/4/73
f 152/2/122 153/3/121 90/4/72
f 153/2/121 154/3/150 91/4/71
f 154/2/150 155/3/120 92/4/68
f 155/2/120 156/3/118 93/4/67
f 156/2/118 157/3/116 94/4/66
f 157/2/116 158/3/151 95/4/62
f 159/2/114 160/3/115 65/4/64
f 158/2/151 159/3/114 96/4/63
f 98/4/141 97/1/1 4/3/3
f 98/1/141 4/2/3 99/4/5
f 100/4/7 99/1/5 8/3/6
f 101/4/138 100/1/7 10/3/8
f 101/1/138 10/2/8 102/4/10
f 102/1/10 12/2/9 103/4/12
f 104/4/134 103/1/12 16/3/13
f 104/1/134 16/2/13 105/4/15
f 105/1/15 18/2/14 106/4/17
f 106/1/17 20/2/16 107/4/19
f 107/1/19 22/2/18 108/4/21
f 108/1/21 24/2/20 109/4/23
f 109/1/23 26/2/22 110/4/25
f 110/1/25 28/2/24 111/4/27
f 111/1/27 30/2/26 112/4/29
f 113/4/127 112/1/29 34/3/30
f 113/1/127 34/2/30 114/4/32
f 114/1/32 36/2/31 115/4/34
f 115/1/34 38/2/33 116/4/36
f 116/1/36 40/2/35 117/4/38
f 117/1/38 42/2/37 118/4/40
f 118/1/40 44/2/39 119/4/42
f 119/1/42 46/2/41 120/4/44
f 120/1/44 48/2/43 121/4/46
f 121/1/46 50/2/45 122/4/48
f 123/4/119 122/1/48 54/3/49
f 123/1/119 54/2/49 124/4/51
f 125/4/117 124/1/51 58/3/52
f 125/1/117 58/2/52 126/4/54
f 126/1/54 60/2/53 127/4/56
f 12/8/9 6/9/4 4/5/3
f 12/8/9 10/10/8 8/11/6
f 16/12/13 14/13/11 12/8/9
f 20/14/16 18/15/14 16/12/13
f 24/16/20 22/17/18 20/14/16
f 20/14/16 26/18/22 24/16/20
f 32/19/28 30/20/26 28/21/24
f 28/21/24 34/22/30 32/19/28
f 44/23/39 38/24/33 36/7/31
f 44/23/39 42/25/37 40/26/35
f 48/27/43 46/28/41 44/23/39
f 44/23/39 50/29/45 48/27/43
f 56/30/50 54/31/49 52/32/47
f 52/32/47 58/33/52 56/30/50
f 64/34/57 62/35/55 60/6/53
f 4/5/3 2/36/2 64/34/57
f 12/8/9 8/11/6 6/9/4
f 20/14/16 16/12/13 12/8/9
f 28/21/24 26/18/22 20/14/16
f 36/7/31 34/22/30 28/21/24
f 44/23/39 40/26/35 38/24/33
f 52/32/47 50/29/45 44/23/39
f 60/6/53 58/33/52 52/32/47
f 4/5/3 64/34/57 60/6/53
f 36/7/31 12/8/9 4/5/3
f 36/7/31 28/21/24 20/14/16
f 52/32/47 44/23/39 36/7/31
f 36/7/31 60/6/53 52/32/47
f 36/7/31 20/14/16 12/8/9
f 128/1/113 64/2/57 97/4/1
f 128/4/113 127/1/56 64/3/57
f 61/11/61 63/9/152 1/5/58
f 1/5/58 59/10/65 61/11/61
f 53/12/70 55/13/153 57/8/69
f 49/14/76 51/15/74 53/12/70
f 41/21/81 47/17/78 49/14/76
f 41/21/81 43/18/154 45/16/80
f 37/19/155 39/20/83 41/21/81
f 33/7/60 35/22/86 37/19/155
f 25/23/94 31/24/91 33/7/60
f 25/23/94 27/25/156 29/26/93
f 17/32/101 23/28/96 25/23/94
f 17/32/101 19/29/157 21/27/98
f 13/30/104 15/31/158 17/32/101
f 9/6/59 11/33/108 13/30/104
f 5/34/110 7/35/159 9/6/59
f 1/5/58 3/36/160 5/34/110
f 57/8/69 59/10/65 1/5/58
f 49/14/76 53/12/70 57/8/69
f 41/21/81 45/16/80 47/17/78
f 49/14/76 37/19/155 41/21/81
f 25/23/94 29/26/93 31/24/91
f 17/32/101 21/27/98 23/28/96
f 9/6/59 13/30/104 17/32/101
f 1/5/58 5/34/110 9/6/59
f 33/7/60 57/8/69 1/5/58
f 33/7/60 37/19/155 49/14/76
f 17/32/101 25/23/94 33/7/60
f 33/7/60 9/6/59 17/32/101
f 33/7/60 49/14/76 57/8/69
f 63/4/152 61/1/61 96/3/63
f 63/1/152 96/2/63 1/4/58
f 61/4/61 59/1/65 95/3/62
f 57/1/69 93/2/67 59/4/65
f 55/1/153 92/2/68 57/4/69
f 55/4/153 53/1/70 92/3/68
f 51/1/74 90/2/72 53/4/70
f 49/1/76 89/2/73 51/4/74
f 47/1/78 88/2/75 49/4/76
f 45/1/80 87/2/77 47/4/78
f 43/1/154 86/2/79 45/4/80
f 43/4/154 41/1/81 86/3/79
f 41/4/81 39/1/83 85/3/82
f 37/1/155 83/2/85 39/4/83
f 37/4/155 35/1/86 83/3/85
f 35/4/86 33/1/60 82/3/87
f 31/1/91 80/2/89 33/4/60
f 29/1/93 79/2/90 31/4/91
f 27/1/156 78/2/92 29/4/93
f 27/4/156 25/1/94 78/3/92
f 25/4/94 23/1/96 77/3/95
f 23/4/96 21/1/98 76/3/97
f 19/1/157 74/2/100 21/4/98
f 19/4/157 17/1/101 74/3/100
f 15/1/158 72/2/103 17/4/101
f 15/4/158 13/1/104 72/3/103
f 11/1/108 70/2/106 13/4/104
f 9/1/59 69/2/107 11/4/108
f 7/1/159 68/2/109 9/4/59
f 7/4/159 5/1/110 68/3/109
f 3/1/160 66/2/112 5/4/110
f 3/4/160 1/1/58 66/3/112
f 158/1/151 127/2/56 159/4/114
f 159/1/114 128/2/113 160/4/115
f 158/4/151 157/1/116 127/3/56
f 156/1/118 125/2/117 157/4/116
f 155/1/120 124/2/51 156/4/118
f 154/1/150 123/2/119 155/4/120
f 154/4/150 153/1/121 123/3/119
f 152/1/122 121/2/46 153/4/121
f 151/1/149 120/2/44 152/4/122
f 151/4/149 150/1/123 120/3/44
f 149/1/124 118/2/40 150/4/123
f 148/1/148 117/2/38 149/4/124
f 148/4/148 147/1/125 117/3/38
f 146/1/147 115/2/34 147/4/125
f 146/4/147 145/1/126 115/3/34
f 144/1/146 113/2/127 145/4/126
f 144/4/146 143/1/128 113/3/127
f 143/4/128 142/1/129 112/3/29
f 142/4/129 141/1/130 111/3/27
f 140/1/145 109/2/23 141/4/130
f 140/4/145 139/1/131 109/3/23
f 138/1/132 107/2/19 139/4/131
f 137/1/144 106/2/17 138/4/132
f 137/4/144 136/1/133 106/3/17
f 135/1/135 104/2/134 136/4/133
f 134/1/143 103/2/12 135/4/135
f 134/4/143 133/1/136 103/3/12
f 133/4/136 132/1/137 102/3/10
f 132/4/137 131/1/139 101/3/138
f 131/4/139 130/1/140 100/3/7
f 129/1/142 98/2/141 130/4/140
f 160/1/115 97/2/1 129/4/142
f 65/1/64 160/2/115 66/4/112
f 66/1/112 129/2/142 67/4/111
f 67/1/111 130/2/140 68/4/109
f 68/1/109 131/2/139 69/4/107
f 69/1/107 132/2/137 70/4/106
f 70/1/106 133/2/136 71/4/105
f 71/1/105 134/2/143 72/4/103
f 72/1/103 135/2/135 73/4/102
f 73/1/102 136/2/133 74/4/100
f 74/1/100 137/2/144 75/4/99
f 75/1/99 138/2/132 76/4/97
f 76/1/97 139/2/131 77/4/95
f 77/1/95 140/2/145 78/4/92
f 78/1/92 141/2/130 79/4/90
f 79/1/90 142/2/129 80/4/89
f 80/1/89 143/2/128 81/4/88
f 81/1/88 144/2/146 82/4/87
f 82/1/87 145/2/126 83/4/85
f 83/1/85 146/2/147 84/4/84
f 84/1/84 147/2/125 85/4/82
f 85/1/82 148/2/148 86/4/79
f 86/1/79 149/2/124 87/4/77
f 87/1/77 150/2/123 88/4/75
f 88/1/75 151/2/149 89/4/73
f 89/1/73 152/2/122 90/4/72
f 90/1/72 153/2/121 91/4/71
f 91/1/71 154/2/150 92/4/68
f 92/1/68 155/2/120 93/4/67
f 93/1/67 156/2/118 94/4/66
f 94/1/66 157/2/116 95/4/62
f 96/1/63 159/2/114 65/4/64
f 95/1/62 158/2/151 96/4/63
