o Cube
v 0.003659 0.006836 -0.586934
v 0.003659 0.006836 -0.007408
v 0.000000 0.006836 -0.007408
v 0.000000 0.006836 -0.586934
v 0.003659 0.801139 -0.586934
v 0.003658 0.801139 -0.007408
v 0.000000 0.801139 -0.007408
v 0.000000 0.801139 -0.586934
v 0.003658 0.006836 0.000000
v -0.000000 0.006836 0.000000
v 0.003658 0.801139 0.000000
v -0.000000 0.801139 -0.000000
v 0.003659 0.006836 -0.600000
v 0.000000 0.006836 -0.600000
v 0.003659 0.801139 -0.599999
v 0.000000 0.801139 -0.600000
v 0.003659 0.810000 -0.586934
v 0.003658 0.810000 -0.007408
v 0.000000 0.810000 -0.007408
v 0.000000 0.810000 -0.586934
v 0.003658 0.810000 0.000000
v -0.000000 0.810000 -0.000000
v 0.003659 0.810000 -0.599999
v 0.000000 0.810000 -0.600000
v 0.003659 0.000000 -0.586934
v 0.003659 0.000000 -0.007408
v 0.000000 0.000000 -0.007408
v 0.000000 0.000000 -0.586934
v 0.003658 0.000000 0.000000
v -0.000000 0.000000 0.000000
v 0.003659 0.000000 -0.600000
v 0.000000 0.000000 -0.600000
v 0.010000 0.006836 -0.586934
v 0.010000 0.006836 -0.007408
v 0.010000 0.801139 -0.586934
v 0.009999 0.801139 -0.007407
v 0.009999 0.006836 0.000000
v 0.009999 0.801139 0.000000
v 0.010000 0.006836 -0.600000
v 0.010000 0.801139 -0.599999
v 0.010000 0.810000 -0.586934
v 0.009999 0.810000 -0.007407
v 0.009999 0.810000 0.000000
v 0.010000 0.810000 -0.599999
v 0.010000 0.000000 -0.586934
v 0.010000 0.000000 -0.007408
v 0.009999 0.000000 0.000000
v 0.010000 0.000000 -0.600000
vt 0.905251 0.553273
vt 0.910528 0.554634
vt 0.909515 0.556649
vt 0.540985 0.579767
vt 0.536660 0.580828
vt 0.535493 0.579188
vt 0.494713 0.633716
vt 0.003640 0.633716
vt 0.003641 0.003784
vt 0.539064 0.587996
vt 0.532596 0.586972
vt 0.539675 0.933743
vt 0.909260 0.564710
vt 0.919094 0.561714
vt 0.926096 0.555335
vt 0.925829 0.914303
vt 0.539312 0.944792
vt 0.539992 0.940034
vt 0.908471 0.914057
vt 0.908362 0.907036
vt 0.532673 0.940576
vt 0.529590 0.943793
vt 0.522055 0.940215
vt 0.905358 0.557355
vt 0.915148 0.563224
vt 0.939381 0.532032
vt 0.938693 0.935581
vt 0.932617 0.929131
vt 0.914815 0.914515
vt 0.917967 0.917004
vt 0.915129 0.924708
vt 0.533182 0.933804
vt 0.528579 0.934796
vt 0.534351 0.938841
vt 0.529295 0.585990
vt 0.909838 0.918022
vt 0.534318 0.952070
vt 0.932682 0.538716
vt 0.515545 0.566890
vt 0.918975 0.908472
vt 0.914771 0.907294
vt 0.912773 0.912421
vt 0.522724 0.581710
vt 0.533781 0.577098
vt 0.509419 0.967968
vt 0.516159 0.961205
vt 0.537466 0.570731
vt 0.907938 0.546990
vt 0.911743 0.551166
vt 0.540376 0.576765
vt 0.509419 0.560364
vt 0.494713 0.003784
vn 0.000037 0.000000 -1.000000
vn 0.000029 0.000000 -1.000000
vn 1.000000 0.000000 0.000001
vn -1.000000 0.000000 -0.000017
vn -1.000000 -0.000000 -0.000000
vn 0.000000 -1.000000 0.000000
vn -0.000076 0.000000 1.000000
vn -1.000000 -0.000000 -0.000023
vn 0.000000 1.000000 0.000002
vn 0.000041 0.000000 -1.000000
vn 0.000000 1.000000 0.000000
vn -0.000016 0.000000 1.000000
vn 0.000000 -0.000000 1.000000
vn -0.000019 0.000000 1.000000
vn 0.000014 0.000000 -1.000000
vn 1.000000 0.000000 0.000017
vn 1.000000 0.000000 0.000021
vn 1.000000 0.000000 0.000000
vn 0.000000 0.000000 -1.000000
vn 0.000024 0.000000 -1.000000
vn 0.000074 0.000000 -1.000000
vn 0.000057 0.000000 -1.000000
vn 0.000021 0.000000 -1.000000
vn -0.000012 -0.000000 1.000000
vn 0.000017 0.000000 -1.000000
s off
f 13/1/1 31/2/1 32/3/1
f 16/4/2 24/5/2 23/6/2
f 5/7/3 6/8/3 2/9/3
f 8/10/4 20/11/4 24/5/4
f 7/12/5 8/10/5 4/13/5
f 25/14/6 45/15/6 46/16/6
f 11/17/7 12/18/7 10/19/7
f 7/12/8 3/20/8 10/19/8
f 21/21/9 43/22/9 42/23/9
f 14/24/4 32/3/4 28/25/4
f 13/1/10 14/24/10 16/4/10
f 8/10/4 16/4/4 14/24/4
f 1/26/11 2/27/11 34/28/11
f 29/29/12 47/30/12 37/31/12
f 20/11/11 19/32/11 18/33/11
f 19/32/11 22/34/11 21/21/11
f 17/35/11 23/6/11 24/5/11
f 12/18/8 22/34/8 19/32/8
f 9/36/12 37/31/12 38/37/12
f 11/17/7 21/21/7 22/34/7
f 7/12/5 19/32/5 20/11/5
f 1/26/13 33/38/13 35/39/13
f 26/40/6 27/41/6 28/25/6
f 26/40/6 29/29/6 30/42/6
f 25/14/6 28/25/6 32/3/6
f 17/35/9 41/43/9 44/44/9
f 3/20/8 27/41/8 30/42/8
f 10/19/14 30/42/14 29/29/14
f 4/13/5 28/25/5 27/41/5
f 6/45/15 36/46/15 34/28/15
f 40/47/16 44/44/16 41/43/16
f 34/28/17 36/46/17 38/37/17
f 33/38/16 39/48/16 40/47/16
f 33/38/16 45/15/16 48/49/16
f 36/46/17 42/23/17 43/22/17
f 35/39/3 41/43/3 42/23/3
f 37/31/17 47/30/17 46/16/17
f 34/28/18 46/16/18 45/15/18
f 23/6/19 44/44/19 40/47/19
f 11/17/12 38/37/12 43/22/12
f 25/14/6 31/2/6 48/49/6
f 13/1/19 39/48/19 48/49/19
f 15/50/20 40/47/20 39/48/20
f 5/51/6 35/39/6 36/46/6
f 17/35/11 18/33/11 42/23/11
f 29/29/6 26/40/6 46/16/6
f 14/24/21 13/1/21 32/3/21
f 15/50/22 16/4/22 23/6/22
f 1/52/18 5/7/18 2/9/18
f 16/4/4 8/10/4 24/5/4
f 3/20/5 7/12/5 4/13/5
f 26/40/6 25/14/6 46/16/6
f 9/36/14 11/17/14 10/19/14
f 12/18/8 7/12/8 10/19/8
f 18/33/11 21/21/11 42/23/11
f 4/13/4 14/24/4 28/25/4
f 15/50/23 13/1/23 16/4/23
f 4/13/4 8/10/4 14/24/4
f 33/38/11 1/26/11 34/28/11
f 9/36/12 29/29/12 37/31/12
f 17/35/11 20/11/11 18/33/11
f 18/33/11 19/32/11 21/21/11
f 20/11/11 17/35/11 24/5/11
f 7/12/8 12/18/8 19/32/8
f 11/17/12 9/36/12 38/37/12
f 12/18/7 11/17/7 22/34/7
f 8/10/5 7/12/5 20/11/5
f 5/51/24 1/26/24 35/39/24
f 25/14/6 26/40/6 28/25/6
f 27/41/6 26/40/6 30/42/6
f 31/2/6 25/14/6 32/3/6
f 23/6/11 17/35/11 44/44/11
f 10/19/8 3/20/8 30/42/8
f 9/36/14 10/19/14 29/29/14
f 3/20/5 4/13/5 27/41/5
f 2/27/15 6/45/15 34/28/15
f 35/39/16 40/47/16 41/43/16
f 37/31/17 34/28/17 38/37/17
f 35/39/16 33/38/16 40/47/16
f 39/48/16 33/38/16 48/49/16
f 38/37/17 36/46/17 43/22/17
f 36/46/3 35/39/3 42/23/3
f 34/28/17 37/31/17 46/16/17
f 33/38/18 34/28/18 45/15/18
f 15/50/25 23/6/25 40/47/25
f 21/21/12 11/17/12 43/22/12
f 45/15/6 25/14/6 48/49/6
f 31/2/19 13/1/19 48/49/19
f 13/1/19 15/50/19 39/48/19
f 6/45/6 5/51/6 36/46/6
f 41/43/11 17/35/11 42/23/11
f 47/30/6 29/29/6 46/16/6
