o Cylinder
v -0.000000 0.000000 -0.025000
v 0.001064 0.079158 -0.025000
v 0.004806 -0.000108 -0.024520
v 0.005870 0.079050 -0.024520
v 0.009427 -0.000212 -0.023097
v 0.010492 0.078946 -0.023097
v 0.013686 -0.000308 -0.020787
v 0.014751 0.078850 -0.020787
v 0.017419 -0.000392 -0.017678
v 0.018484 0.078766 -0.017678
v 0.020483 -0.000461 -0.013889
v 0.021547 0.078697 -0.013889
v 0.022760 -0.000512 -0.009567
v 0.023824 0.078646 -0.009567
v 0.024161 -0.000544 -0.004877
v 0.025226 0.078614 -0.004877
v 0.024635 -0.000555 0.000000
v 0.025699 0.078604 0.000000
v 0.024161 -0.000544 0.004877
v 0.025226 0.078614 0.004877
v 0.022760 -0.000512 0.009567
v 0.023824 0.078646 0.009567
v 0.020483 -0.000461 0.013889
v 0.021547 0.078697 0.013889
v 0.017419 -0.000392 0.017678
v 0.018484 0.078766 0.017678
v 0.013686 -0.000308 0.020787
v 0.014751 0.078850 0.020787
v 0.009427 -0.000212 0.023097
v 0.010492 0.078946 0.023097
v 0.004806 -0.000108 0.024520
v 0.005870 0.079050 0.024520
v -0.000000 0.000000 0.025000
v 0.001064 0.079158 0.025000
v -0.004806 0.000108 0.024520
v -0.003742 0.079267 0.024520
v -0.009427 0.000212 0.023097
v -0.008363 0.079371 0.023097
v -0.013686 0.000308 0.020787
v -0.012622 0.079467 0.020787
v -0.017419 0.000392 0.017678
v -0.016355 0.079551 0.017678
v -0.020483 0.000461 0.013889
v -0.019419 0.079620 0.013889
v -0.022760 0.000512 0.009567
v -0.021695 0.079671 0.009567
v -0.024161 0.000544 0.004877
v -0.023097 0.079702 0.004877
v -0.024635 0.000555 -0.000000
v -0.023571 0.079713 -0.000000
v -0.024161 0.000544 -0.004877
v -0.023097 0.079702 -0.004877
v -0.022760 0.000512 -0.009567
v -0.021695 0.079671 -0.009567
v -0.020483 0.000461 -0.013889
v -0.019419 0.079620 -0.013889
v -0.017419 0.000392 -0.017678
v -0.016355 0.079551 -0.017678
v -0.013686 0.000308 -0.020787
v -0.012622 0.079467 -0.020787
v -0.009427 0.000212 -0.023097
v -0.008363 0.079371 -0.023097
v -0.004806 0.000108 -0.024520
v -0.003742 0.079267 -0.024520
v 0.001294 0.089379 -0.008189
v 0.002869 0.089344 -0.008031
v 0.004382 0.089310 -0.007565
v 0.005777 0.089278 -0.006809
v 0.007000 0.089251 -0.005790
v 0.008004 0.089228 -0.004549
v 0.008749 0.089211 -0.003134
v 0.009208 0.089201 -0.001598
v 0.009363 0.089198 0.000000
v 0.009208 0.089201 0.001598
v 0.008749 0.089211 0.003134
v 0.008004 0.089228 0.004549
v 0.007000 0.089251 0.005790
v 0.005777 0.089278 0.006809
v 0.004382 0.089310 0.007565
v 0.002869 0.089344 0.008031
v 0.001294 0.089379 0.008189
v -0.000280 0.089415 0.008031
v -0.001793 0.089449 0.007565
v -0.003189 0.089480 0.006809
v -0.004411 0.089508 0.005790
v -0.005415 0.089530 0.004549
v -0.006160 0.089547 0.003134
v -0.006620 0.089558 0.001598
v -0.006775 0.089561 -0.000000
v -0.006620 0.089558 -0.001598
v -0.006160 0.089547 -0.003134
v -0.005415 0.089530 -0.004549
v -0.004411 0.089508 -0.005790
v -0.003189 0.089480 -0.006809
v -0.001793 0.089449 -0.007565
v -0.000280 0.089415 -0.008031
v 0.001533 0.099991 -0.008189
v 0.003107 0.099955 -0.008031
v 0.004621 0.099921 -0.007565
v 0.006016 0.099890 -0.006809
v 0.007239 0.099862 -0.005790
v 0.008242 0.099840 -0.004549
v 0.008988 0.099823 -0.003134
v 0.009447 0.099813 -0.001598
v 0.009602 0.099809 0.000000
v 0.009447 0.099813 0.001598
v 0.008988 0.099823 0.003134
v 0.008242 0.099840 0.004549
v 0.007239 0.099862 0.005790
v 0.006016 0.099890 0.006809
v 0.004621 0.099921 0.007565
v 0.003107 0.099955 0.008031
v 0.001533 0.099991 0.008189
v -0.000041 0.100026 0.008031
v -0.001555 0.100060 0.007565
v -0.002950 0.100092 0.006809
v -0.004172 0.100119 0.005790
v -0.005176 0.100142 0.004549
v -0.005921 0.100159 0.003134
v -0.006381 0.100169 0.001598
v -0.006536 0.100173 -0.000000
v -0.006381 0.100169 -0.001598
v -0.005921 0.100159 -0.003134
v -0.005176 0.100142 -0.004549
v -0.004172 0.100119 -0.005790
v -0.002950 0.100092 -0.006809
v -0.001555 0.100060 -0.007565
v -0.000041 0.100026 -0.008031
vt 0.563837 0.780289
vt 0.561478 0.779758
vt 0.561478 0.196563
vt 0.554490 0.779247
vt 0.554490 0.196052
vt 0.543142 0.778776
vt 0.543142 0.195581
vt 0.527870 0.778363
vt 0.527870 0.195168
vt 0.509262 0.778024
vt 0.509262 0.194830
vt 0.488031 0.777772
vt 0.488031 0.194578
vt 0.464995 0.777617
vt 0.464995 0.194423
vt 0.441038 0.777565
vt 0.441038 0.194370
vt 0.417081 0.777617
vt 0.417081 0.194423
vt 0.394045 0.777772
vt 0.394045 0.194578
vt 0.372815 0.778024
vt 0.372815 0.194830
vt 0.354206 0.778363
vt 0.354206 0.195168
vt 0.338934 0.778776
vt 0.338934 0.195581
vt 0.327587 0.779247
vt 0.327587 0.196052
vt 0.320599 0.779758
vt 0.320599 0.196563
vt 0.318239 0.780289
vt 0.318239 0.197095
vt 0.320599 0.780821
vt 0.320599 0.197626
vt 0.327587 0.781332
vt 0.327587 0.198137
vt 0.338935 0.781803
vt 0.338935 0.198609
vt 0.354206 0.782216
vt 0.354206 0.199022
vt 0.372815 0.782555
vt 0.372815 0.199360
vt 0.394045 0.782807
vt 0.394045 0.199612
vt 0.417081 0.782962
vt 0.417081 0.199767
vt 0.441038 0.783014
vt 0.464995 0.782962
vt 0.464995 0.199767
vt 0.488031 0.782807
vt 0.488031 0.199612
vt 0.509262 0.782555
vt 0.509262 0.199360
vt 0.527870 0.782216
vt 0.527870 0.199022
vt 0.543142 0.781803
vt 0.543142 0.198609
vt 0.554490 0.781332
vt 0.554490 0.198137
vt 0.418692 0.856339
vt 0.425646 0.856421
vt 0.561478 0.780821
vt 0.563837 0.197095
vt 0.561478 0.197626
vt 0.441038 0.856489
vt 0.441038 0.934674
vt 0.448885 0.934657
vt 0.425646 0.854772
vt 0.478199 0.855255
vt 0.474482 0.855101
vt 0.407595 0.855101
vt 0.463384 0.856339
vt 0.400816 0.855597
vt 0.401589 0.855771
vt 0.463384 0.854855
vt 0.456430 0.854772
vt 0.478199 0.855938
vt 0.407595 0.856093
vt 0.412597 0.856228
vt 0.441038 0.854704
vt 0.433191 0.856472
vt 0.418692 0.854855
vt 0.448885 0.856472
vt 0.469480 0.854966
vt 0.403878 0.855255
vt 0.469480 0.856228
vt 0.403878 0.855938
vt 0.448885 0.854721
vt 0.480487 0.855771
vt 0.433191 0.854721
vt 0.480487 0.855423
vt 0.412597 0.854966
vt 0.456430 0.856421
vt 0.401589 0.855423
vt 0.474482 0.856093
vt 0.481260 0.855597
vt 0.474482 0.934278
vt 0.469480 0.934413
vt 0.469480 0.933151
vt 0.478199 0.933440
vt 0.474482 0.933286
vt 0.407595 0.933286
vt 0.425646 0.934606
vt 0.433191 0.934657
vt 0.481260 0.933782
vt 0.418692 0.933040
vt 0.480487 0.933956
vt 0.412597 0.934413
vt 0.418692 0.934524
vt 0.433191 0.932907
vt 0.425646 0.932957
vt 0.403878 0.934123
vt 0.407595 0.934278
vt 0.448885 0.932907
vt 0.463384 0.934524
vt 0.400816 0.933782
vt 0.463384 0.933040
vt 0.456430 0.932957
vt 0.403878 0.933440
vt 0.401589 0.933608
vt 0.480487 0.933608
vt 0.412597 0.933151
vt 0.478199 0.934123
vt 0.441038 0.932889
vt 0.401589 0.933956
vt 0.456430 0.934606
vt 0.441038 0.199819
vn 0.099426 -0.001337 -0.995044
vn 0.294134 -0.003955 -0.955756
vn 0.476683 -0.006409 -0.879052
vn 0.639825 -0.008602 -0.768473
vn 0.777426 -0.010452 -0.628888
vn 0.884656 -0.011894 -0.466092
vn 0.958008 -0.012880 -0.286451
vn 0.995231 -0.013381 -0.096619
vn 0.995232 -0.013381 0.096619
vn 0.958008 -0.012880 0.286451
vn 0.884656 -0.011894 0.466092
vn 0.777425 -0.010452 0.628888
vn 0.639824 -0.008602 0.768473
vn 0.476683 -0.006409 0.879052
vn 0.294133 -0.003955 0.955756
vn 0.099426 -0.001337 0.995044
vn -0.099426 0.001337 0.995044
vn -0.294133 0.003955 0.955756
vn -0.476683 0.006409 0.879052
vn -0.639825 0.008602 0.768472
vn -0.777426 0.010452 0.628887
vn -0.884656 0.011894 0.466092
vn -0.958009 0.012880 0.286449
vn -0.995232 0.013381 0.096619
vn -0.995231 0.013381 -0.096621
vn -0.958008 0.012880 -0.286452
vn -0.884655 0.011894 -0.466093
vn -0.777425 0.010452 -0.628889
vn -0.639823 0.008602 -0.768474
vn -0.476682 0.006409 -0.879052
vn -0.445849 0.860916 0.245036
vn -0.099426 0.001337 -0.995044
vn -0.294132 0.003955 -0.955756
vn -0.022510 -0.999747 0.000000
vn -0.995069 0.022404 -0.096625
vn 0.484144 0.839976 0.245042
vn -0.505141 0.861534 -0.050910
vn 0.268283 0.846717 -0.459451
vn 0.268286 0.846717 0.459449
vn -0.388702 0.860237 -0.330005
vn -0.032633 0.854214 0.518895
vn 0.484144 0.839976 -0.245041
vn -0.134274 0.856250 -0.498806
vn -0.315809 0.859256 0.402422
vn 0.543405 0.837925 0.050908
vn -0.485136 0.861335 0.150815
vn 0.427027 0.841871 0.330003
vn -0.485137 0.861335 -0.150810
vn 0.354165 0.844171 -0.402421
vn 0.172676 0.849338 0.498806
vn -0.315808 0.859257 -0.402421
vn -0.134277 0.856248 0.498807
vn 0.523413 0.838627 -0.150810
vn -0.032632 0.854215 -0.518895
vn -0.388702 0.860239 0.330001
vn 0.523413 0.838627 0.150810
vn -0.505142 0.861534 0.050901
vn 0.172680 0.849338 -0.498805
vn 0.354161 0.844172 0.402422
vn -0.445848 0.860915 -0.245042
vn 0.427025 0.841871 -0.330004
vn 0.071045 0.851880 0.518896
vn -0.229903 0.857933 -0.459451
vn -0.229904 0.857933 0.459451
vn 0.071044 0.851880 -0.518895
vn 0.543406 0.837925 -0.050907
vn 0.022510 0.999747 0.000000
vn 0.476591 -0.010731 -0.879060
vn 0.476590 -0.010731 0.879060
vn -0.957850 0.021566 0.286460
vn 0.099406 -0.002238 -0.995044
vn 0.777286 -0.017501 0.628904
vn -0.099404 0.002238 -0.995045
vn -0.777287 0.017501 0.628902
vn 0.957849 -0.021566 0.286461
vn -0.476590 0.010731 -0.879060
vn -0.476592 0.010731 0.879059
vn 0.995069 -0.022404 -0.096623
vn -0.777286 0.017501 -0.628904
vn -0.099407 0.002238 0.995044
vn 0.884504 -0.019915 -0.466107
vn -0.957849 0.021566 -0.286462
vn 0.639705 -0.014403 -0.768485
vn 0.294074 -0.006621 0.955760
vn -0.995069 0.022404 0.096623
vn 0.294075 -0.006621 -0.955759
vn 0.639704 -0.014403 0.768486
vn -0.884504 0.019915 0.466108
vn 0.884504 -0.019915 0.466107
vn -0.294075 0.006621 -0.955760
vn -0.639705 0.014403 0.768486
vn 0.995069 -0.022404 0.096623
vn -0.639703 0.014403 -0.768487
vn -0.294075 0.006621 0.955759
vn 0.957849 -0.021566 -0.286462
vn -0.884503 0.019915 -0.466109
vn 0.777286 -0.017501 -0.628904
vn 0.099406 -0.002238 0.995044
vn 0.099425 -0.001337 -0.995044
vn 0.476684 -0.006409 -0.879052
vn 0.639824 -0.008602 -0.768473
vn 0.884656 -0.011894 -0.466093
vn 0.958008 -0.012880 -0.286450
vn 0.995231 -0.013381 0.096619
vn 0.777426 -0.010452 0.628888
vn 0.294134 -0.003955 0.955756
vn 0.099425 -0.001337 0.995044
vn -0.099427 0.001337 0.995044
vn -0.294134 0.003955 0.955756
vn -0.476685 0.006409 0.879051
vn -0.639824 0.008602 0.768473
vn -0.958009 0.012880 0.286450
vn -0.995231 0.013381 -0.096620
vn -0.884656 0.011894 -0.466093
vn -0.445848 0.860916 0.245038
vn -0.294131 0.003955 -0.955757
vn 0.484145 0.839977 0.245034
vn -0.995069 0.022404 -0.096624
vn -0.505142 0.861533 -0.050918
vn 0.268286 0.846716 -0.459450
vn 0.268282 0.846716 0.459452
vn -0.388700 0.860236 -0.330009
vn -0.032632 0.854215 0.518895
vn 0.484145 0.839976 -0.245040
vn -0.134277 0.856248 -0.498807
vn -0.315809 0.859256 0.402423
vn 0.543406 0.837925 0.050911
vn -0.485137 0.861335 0.150812
vn 0.427025 0.841871 0.330005
vn -0.485137 0.861335 -0.150811
vn 0.354162 0.844172 -0.402421
vn 0.172679 0.849339 0.498804
vn -0.315807 0.859254 -0.402427
vn -0.134275 0.856250 0.498805
vn 0.523413 0.838627 -0.150812
vn -0.032630 0.854215 -0.518896
vn -0.388703 0.860236 0.330005
vn 0.523413 0.838626 0.150818
vn -0.505141 0.861534 0.050913
vn 0.172677 0.849338 -0.498806
vn 0.354165 0.844171 0.402421
vn -0.445849 0.860915 -0.245041
vn 0.427027 0.841871 -0.330003
vn 0.071046 0.851880 0.518895
vn -0.229903 0.857932 -0.459453
vn -0.229904 0.857933 0.459450
vn 0.071045 0.851880 -0.518895
vn 0.543405 0.837925 -0.050911
vn 0.022510 0.999747 -0.000025
vn 0.022509 0.999747 -0.000040
vn 0.022509 0.999747 0.000000
vn 0.022510 0.999747 0.000016
vn 0.022510 0.999747 -0.000009
vn 0.022510 0.999747 0.000010
vn 0.022510 0.999747 -0.000016
vn 0.476590 -0.010731 -0.879060
vn 0.476591 -0.010731 0.879060
vn 0.022510 0.999747 0.000020
vn 0.022510 0.999747 0.000009
vn 0.022510 0.999747 0.000040
vn 0.022510 0.999747 -0.000002
vn 0.022510 0.999747 -0.000008
vn 0.022509 0.999747 0.000059
vn 0.022510 0.999747 0.000014
vn 0.022509 0.999747 -0.000017
vn 0.022509 0.999747 0.000017
vn 0.022510 0.999747 -0.000006
vn 0.022510 0.999747 0.000004
vn 0.099405 -0.002238 -0.995044
vn -0.099405 0.002238 -0.995045
vn -0.777287 0.017501 0.628903
vn -0.476589 0.010731 -0.879061
vn -0.099406 0.002238 0.995044
vn 0.884505 -0.019915 -0.466106
vn 0.639704 -0.014403 -0.768486
vn 0.294075 -0.006621 0.955759
vn 0.294075 -0.006621 -0.955760
vn 0.639705 -0.014403 0.768485
vn -0.884504 0.019915 0.466107
vn 0.884504 -0.019915 0.466108
vn -0.294076 0.006621 0.955759
vn 0.099407 -0.002238 0.995044
s off
f 2/1/1 4/2/1 3/3/1
f 4/2/2 6/4/2 5/5/2
f 6/4/3 8/6/3 7/7/3
f 8/6/4 10/8/4 9/9/4
f 10/8/5 12/10/5 11/11/5
f 12/10/6 14/12/6 13/13/6
f 14/12/7 16/14/7 15/15/7
f 16/14/8 18/16/8 17/17/8
f 17/17/9 18/16/9 20/18/9
f 19/19/10 20/18/10 22/20/10
f 21/21/11 22/20/11 24/22/11
f 23/23/12 24/22/12 26/24/12
f 25/25/13 26/24/13 28/26/13
f 27/27/14 28/26/14 30/28/14
f 29/29/15 30/28/15 32/30/15
f 31/31/16 32/30/16 34/32/16
f 33/33/17 34/32/17 36/34/17
f 35/35/18 36/34/18 38/36/18
f 37/37/19 38/36/19 40/38/19
f 39/39/20 40/38/20 42/40/20
f 41/41/21 42/40/21 44/42/21
f 43/43/22 44/42/22 46/44/22
f 45/45/23 46/44/23 48/46/23
f 47/47/24 48/46/24 50/48/24
f 50/48/25 52/49/25 51/50/25
f 52/49/26 54/51/26 53/52/26
f 54/51/27 56/53/27 55/54/27
f 56/53/28 58/55/28 57/56/28
f 58/55/29 60/57/29 59/58/29
f 60/57/30 62/59/30 61/60/30
f 44/42/31 86/61/31 87/62/31
f 64/63/32 2/1/32 1/64/32
f 62/59/33 64/63/33 63/65/33
f 7/7/34 59/58/34 61/60/34
f 89/66/35 121/67/35 122/68/35
f 24/22/36 22/20/36 75/69/36
f 52/49/37 50/48/37 89/66/37
f 6/4/38 67/70/38 68/71/38
f 30/28/39 28/26/39 78/72/39
f 58/55/40 56/53/40 92/73/40
f 34/32/41 81/74/41 82/75/41
f 12/10/42 70/76/42 71/77/42
f 64/63/43 62/59/43 95/78/43
f 40/38/44 84/79/44 85/80/44
f 20/18/45 18/16/45 73/81/45
f 46/44/46 87/62/46 88/82/46
f 26/24/47 24/22/47 76/83/47
f 54/51/48 52/49/48 90/84/48
f 8/6/49 68/71/49 69/85/49
f 32/30/50 30/28/50 79/86/50
f 60/57/51 58/55/51 93/87/51
f 36/34/52 82/75/52 83/88/52
f 14/12/53 71/77/53 72/89/53
f 2/1/54 64/63/54 96/90/54
f 42/40/55 85/80/55 86/61/55
f 22/20/56 20/18/56 74/91/56
f 48/46/57 88/82/57 89/66/57
f 4/2/58 66/92/58 67/70/58
f 28/26/59 26/24/59 77/93/59
f 56/53/60 54/51/60 91/94/60
f 10/8/61 69/85/61 70/76/61
f 34/32/62 32/30/62 80/95/62
f 62/59/63 60/57/63 94/96/63
f 38/36/64 83/88/64 84/79/64
f 2/1/65 65/97/65 66/92/65
f 16/14/66 72/89/66 73/81/66
f 126/98/67 125/99/67 101/100/67
f 67/70/68 99/101/68 100/102/68
f 79/86/69 78/72/69 110/103/69
f 87/62/70 119/104/70 120/105/70
f 66/92/71 65/97/71 97/106/71
f 77/93/72 76/83/72 108/107/72
f 96/90/73 128/108/73 97/106/73
f 85/80/74 117/109/74 118/110/74
f 74/91/75 106/111/75 107/112/75
f 95/78/76 94/96/76 126/98/76
f 83/88/77 115/113/77 116/114/77
f 73/81/78 72/89/78 104/115/78
f 93/87/79 92/73/79 124/116/79
f 82/75/80 81/74/80 113/117/80
f 70/76/81 102/118/81 103/119/81
f 91/94/82 90/84/82 122/68/82
f 69/85/83 68/71/83 100/102/83
f 79/86/84 111/120/84 112/121/84
f 89/66/85 88/82/85 120/105/85
f 67/70/86 66/92/86 98/122/86
f 77/93/87 109/123/87 110/103/87
f 87/62/88 86/61/88 118/110/88
f 76/83/89 75/69/89 107/112/89
f 95/78/90 127/124/90 128/108/90
f 84/79/91 116/114/91 117/109/91
f 73/81/92 105/125/92 106/111/92
f 93/87/93 125/99/93 126/98/93
f 83/88/94 82/75/94 114/126/94
f 71/77/95 103/119/95 104/115/95
f 91/94/96 123/127/96 124/116/96
f 69/85/97 101/100/97 102/118/97
f 81/74/98 80/95/98 112/121/98
f 1/64/99 2/1/99 3/3/99
f 3/3/2 4/2/2 5/5/2
f 5/5/100 6/4/100 7/7/100
f 7/7/101 8/6/101 9/9/101
f 9/9/5 10/8/5 11/11/5
f 11/11/102 12/10/102 13/13/102
f 13/13/103 14/12/103 15/15/103
f 15/15/8 16/14/8 17/17/8
f 19/19/104 17/17/104 20/18/104
f 21/21/10 19/19/10 22/20/10
f 23/23/11 21/21/11 24/22/11
f 25/25/105 23/23/105 26/24/105
f 27/27/13 25/25/13 28/26/13
f 29/29/14 27/27/14 30/28/14
f 31/31/106 29/29/106 32/30/106
f 33/33/107 31/31/107 34/32/107
f 35/35/108 33/33/108 36/34/108
f 37/37/109 35/35/109 38/36/109
f 39/39/110 37/37/110 40/38/110
f 41/41/111 39/39/111 42/40/111
f 43/43/21 41/41/21 44/42/21
f 45/45/22 43/43/22 46/44/22
f 47/47/112 45/45/112 48/46/112
f 49/128/24 47/47/24 50/48/24
f 49/128/113 50/48/113 51/50/113
f 51/50/26 52/49/26 53/52/26
f 53/52/114 54/51/114 55/54/114
f 55/54/28 56/53/28 57/56/28
f 57/56/29 58/55/29 59/58/29
f 59/58/30 60/57/30 61/60/30
f 46/44/115 44/42/115 87/62/115
f 63/65/32 64/63/32 1/64/32
f 61/60/116 62/59/116 63/65/116
f 63/65/34 1/64/34 3/3/34
f 37/37/34 39/39/34 29/29/34
f 11/11/34 55/54/34 9/9/34
f 76/83/117 24/22/117 75/69/117
f 19/19/34 47/47/34 17/17/34
f 23/23/34 45/45/34 21/21/34
f 39/39/34 41/41/34 27/27/34
f 31/31/34 37/37/34 29/29/34
f 31/31/34 33/33/34 35/35/34
f 41/41/34 25/25/34 27/27/34
f 43/43/34 23/23/34 41/41/34
f 13/13/34 15/15/34 53/52/34
f 51/50/34 15/15/34 49/128/34
f 55/54/34 13/13/34 53/52/34
f 59/58/34 7/7/34 57/56/34
f 63/65/34 5/5/34 61/60/34
f 31/31/34 35/35/34 37/37/34
f 23/23/34 25/25/34 41/41/34
f 23/23/34 43/43/34 45/45/34
f 63/65/34 3/3/34 5/5/34
f 5/5/34 7/7/34 61/60/34
f 55/54/34 11/11/34 13/13/34
f 47/47/34 19/19/34 21/21/34
f 39/39/34 27/27/34 29/29/34
f 47/47/34 49/128/34 17/17/34
f 55/54/34 57/56/34 9/9/34
f 49/128/34 15/15/34 17/17/34
f 90/84/118 89/66/118 122/68/118
f 57/56/34 7/7/34 9/9/34
f 45/45/34 47/47/34 21/21/34
f 15/15/34 51/50/34 53/52/34
f 90/84/119 52/49/119 89/66/119
f 8/6/120 6/4/120 68/71/120
f 79/86/121 30/28/121 78/72/121
f 93/87/122 58/55/122 92/73/122
f 36/34/123 34/32/123 82/75/123
f 14/12/124 12/10/124 71/77/124
f 96/90/125 64/63/125 95/78/125
f 42/40/126 40/38/126 85/80/126
f 74/91/127 20/18/127 73/81/127
f 48/46/128 46/44/128 88/82/128
f 77/93/129 26/24/129 76/83/129
f 91/94/130 54/51/130 90/84/130
f 10/8/131 8/6/131 69/85/131
f 80/95/132 32/30/132 79/86/132
f 94/96/133 60/57/133 93/87/133
f 38/36/134 36/34/134 83/88/134
f 16/14/135 14/12/135 72/89/135
f 65/97/136 2/1/136 96/90/136
f 44/42/137 42/40/137 86/61/137
f 75/69/138 22/20/138 74/91/138
f 50/48/139 48/46/139 89/66/139
f 6/4/140 4/2/140 67/70/140
f 78/72/141 28/26/141 77/93/141
f 92/73/142 56/53/142 91/94/142
f 12/10/143 10/8/143 70/76/143
f 81/74/144 34/32/144 80/95/144
f 95/78/145 62/59/145 94/96/145
f 40/38/146 38/36/146 84/79/146
f 4/2/147 2/1/147 66/92/147
f 18/16/148 16/14/148 73/81/148
f 116/114/149 115/113/149 111/120/149
f 127/124/150 98/122/150 128/108/150
f 110/103/151 109/123/151 116/114/151
f 118/110/152 117/109/152 109/123/152
f 121/67/153 105/125/153 122/68/153
f 119/104/154 107/112/154 120/105/154
f 102/118/155 101/100/155 125/99/155
f 68/71/156 67/70/156 100/102/156
f 98/122/151 97/106/151 128/108/151
f 111/120/157 79/86/157 110/103/157
f 127/124/158 99/101/158 98/122/158
f 124/116/67 123/127/67 102/118/67
f 105/125/159 121/67/159 106/111/159
f 103/119/67 123/127/67 104/115/67
f 100/102/149 99/101/149 127/124/149
f 112/121/160 111/120/160 115/113/160
f 114/126/150 112/121/150 115/113/150
f 107/112/161 119/104/161 118/110/161
f 120/105/162 107/112/162 106/111/162
f 100/102/151 126/98/151 101/100/151
f 114/126/163 113/117/163 112/121/163
f 109/123/162 117/109/162 116/114/162
f 124/116/164 102/118/164 125/99/164
f 126/98/165 100/102/165 127/124/165
f 105/125/67 104/115/67 122/68/67
f 108/107/67 107/112/67 118/110/67
f 110/103/166 116/114/166 111/120/166
f 123/127/167 103/119/167 102/118/167
f 104/115/168 123/127/168 122/68/168
f 108/107/67 118/110/67 109/123/67
f 121/67/67 120/105/67 106/111/67
f 88/82/70 87/62/70 120/105/70
f 98/122/169 66/92/169 97/106/169
f 109/123/72 77/93/72 108/107/72
f 65/97/170 96/90/170 97/106/170
f 86/61/171 85/80/171 118/110/171
f 75/69/75 74/91/75 107/112/75
f 127/124/172 95/78/172 126/98/172
f 84/79/77 83/88/77 116/114/77
f 105/125/78 73/81/78 104/115/78
f 125/99/79 93/87/79 124/116/79
f 114/126/173 82/75/173 113/117/173
f 71/77/174 70/76/174 103/119/174
f 123/127/82 91/94/82 122/68/82
f 101/100/175 69/85/175 100/102/175
f 80/95/176 79/86/176 112/121/176
f 121/67/85 89/66/85 120/105/85
f 99/101/177 67/70/177 98/122/177
f 78/72/178 77/93/178 110/103/178
f 119/104/179 87/62/179 118/110/179
f 108/107/180 76/83/180 107/112/180
f 96/90/90 95/78/90 128/108/90
f 85/80/91 84/79/91 117/109/91
f 74/91/92 73/81/92 106/111/92
f 94/96/93 93/87/93 126/98/93
f 115/113/181 83/88/181 114/126/181
f 72/89/95 71/77/95 104/115/95
f 92/73/96 91/94/96 124/116/96
f 70/76/97 69/85/97 102/118/97
f 113/117/182 81/74/182 112/121/182
