v -0.053118 0.181434 -0.038894
v -0.058359 -0.108957 -0.027773
v 0.003498 -0.106561 0.063934
v 0.008739 0.183830 0.052814
v -0.041726 0.180935 -0.046564
v -0.046967 -0.109456 -0.035444
v 0.014890 -0.107061 0.056263
v 0.020131 0.183330 0.045143
vt 0.657395 0.986100
vt 0.931594 0.986100
vt 0.931594 0.267196
vt 0.007385 0.994229
vt 0.007385 0.219393
vt 0.302918 0.219394
vt 0.461456 0.147522
vt 0.461455 0.171224
vt 0.962739 0.171224
vt 0.268444 0.089773
vt 0.268444 0.135643
vt -0.101573 0.135643
vt 0.962739 0.147522
vt -0.101574 0.089773
vt 0.657395 0.267196
vt 0.302917 0.994229
vn 0.828900 -0.036300 -0.558200
vn -0.828900 0.036300 0.558200
vn 0.559100 0.021600 0.828800
vn 0.018000 0.999100 -0.038300
vn -0.559100 -0.021600 -0.828800
vn -0.018000 -0.999100 0.038300
f 1/1/1 4/2/1 3/3/1
f 5/4/2 6/5/2 7/6/2
f 2/7/3 6/8/3 5/9/3
f 3/10/4 7/11/4 6/12/4
f 3/7/5 4/13/5 8/9/5
f 8/11/6 4/10/6 1/14/6
f 2/15/1 1/1/1 3/3/1
f 8/16/2 5/4/2 7/6/2
f 1/13/3 2/7/3 5/9/3
f 2/14/4 3/10/4 6/12/4
f 7/8/5 3/7/5 8/9/5
f 5/12/6 8/11/6 1/14/6