o Cube
v -0.019071 -0.000000 -0.050000
v -0.019071 -0.000000 0.050000
v 0.019071 -0.000000 0.050000
v 0.019071 -0.000000 -0.050000
v -0.019071 0.004728 -0.050000
v -0.019071 0.004728 0.050000
v 0.019071 0.004728 0.050000
v 0.019071 0.004728 -0.050000
vt 0.931594 0.986100
vt 0.931594 0.267196
vt 0.657395 0.267196
vt 0.007385 0.219393
vt 0.302918 0.219394
vt 0.302917 0.994229
vt 0.962739 0.147522
vt 0.461456 0.147522
vt 0.461455 0.171224
vt -0.101574 0.089773
vt 0.268444 0.089773
vt 0.268444 0.135643
vt 0.962739 0.171224
vt 0.268443 0.089773
vt 0.657395 0.986100
vt 0.007385 0.994229
vt -0.101573 0.135643
vt 0.461456 0.171224
vt -0.101574 0.135643
vn 0.000000 -1.000000 -0.000000
vn 0.000000 1.000000 -0.000000
vn -1.000000 0.000001 0.000000
vn 0.000000 0.000002 1.000000
vn 1.000000 -0.000002 -0.000000
vn -0.000000 0.000004 -1.000000
vn -1.000000 -0.000001 0.000000
vn 0.000001 -0.000006 1.000000
vn 1.000000 -0.000001 -0.000000
vn -0.000000 0.000005 -1.000000
s off
f 4/1/1 3/2/1 2/3/1
f 6/4/2 7/5/2 8/6/2
f 1/7/3 2/8/3 6/9/3
f 2/10/4 3/11/4 7/12/4
f 3/8/5 4/7/5 8/13/5
f 8/12/6 4/14/6 1/10/6
f 1/15/1 4/1/1 2/3/1
f 5/16/2 6/4/2 8/6/2
f 5/13/7 1/7/7 6/9/7
f 6/17/8 2/10/8 7/12/8
f 7/18/9 3/8/9 8/13/9
f 5/19/10 8/12/10 1/10/10
