v -0.625000 0.000000 0.750000
v 0.625000 0.000000 0.750000
v -0.625000 0.000000 -0.750000
v 0.625000 0.000000 -0.750000
v -0.535813 0.000000 0.750000
v 0.519136 0.000000 0.750000
v 0.519136 0.310979 0.852958
v -0.535813 0.310979 0.852958
v 0.519136 0.775530 1.000227
v -0.535813 0.065406 0.750000
v 0.519136 0.065406 0.750000
v -0.535813 0.775530 1.000227
v -0.535813 0.268915 0.750000
v 0.519136 0.268915 0.750000
v 0.519136 0.556017 1.000227
v -0.535813 0.310979 0.750000
v 0.519136 0.310979 0.750000
v -0.535813 0.556017 1.000227
v -0.535813 0.502533 0.750000
v 0.519136 0.502533 0.750000
v 0.519136 1.336894 0.763182
v -0.535813 0.556017 0.750000
v 0.519136 0.556017 0.750000
v -0.535813 1.336894 0.763182
v -0.535813 0.775530 0.750000
v 0.519136 0.775530 0.750000
v 0.519136 1.135994 0.763182
v -0.535813 0.839751 0.750000
v 0.519136 0.839751 0.750000
v -0.535813 1.135994 0.763182
v -0.535813 1.077368 0.750000
v 0.519136 1.077368 0.750000
v 0.519136 1.657518 0.769524
v -0.535813 1.135994 0.750000
v 0.519136 1.135994 0.750000
v -0.535813 1.657518 0.769524
v -0.535813 1.336894 0.750000
v 0.519136 1.336894 0.750000
v 0.519136 1.420785 0.769524
v -0.535813 1.420785 0.750000
v 0.519136 1.420785 0.750000
v -0.625000 1.727665 -0.750000
v 0.625000 1.727665 -0.750000
v -0.535813 1.420785 0.769524
v -0.535813 1.657518 0.750000
v 0.519136 1.657518 0.750000
v 0.625000 1.727665 0.750000
v -0.625000 1.727665 0.750000
v -0.535813 1.727665 0.750000
v 0.519136 1.727665 0.750000
v -0.535813 0.502533 0.852958
v 0.519136 0.502533 0.852958
v -0.535813 0.556017 -0.035095
v 0.519136 0.556017 -0.035095
vt 0.000241 0.331079
vt 0.283041 0.331079
vt 0.283041 0.658457
vt 0.400696 0.291541
vt 0.389554 0.291710
vt 0.389809 0.030356
vt 0.554201 0.846000
vt 0.554201 0.852896
vt 0.277458 0.852896
vt 0.831407 0.767863
vt 0.831407 0.776632
vt 0.554675 0.776632
vt 0.549964 0.659032
vt 0.549960 0.669400
vt 0.277474 0.669306
vt 0.549947 0.707759
vt 0.549944 0.717223
vt 0.277458 0.717129
vt 0.261744 0.835610
vt 0.261744 0.848605
vt 0.000266 0.848602
vt 0.831407 0.755880
vt 0.831407 0.767381
vt 0.554675 0.767381
vt 0.401337 0.324884
vt 0.066491 0.315771
vt 0.201624 0.289077
vt 0.722407 0.003812
vt 0.999758 0.003811
vt 0.999759 0.324881
vt 0.608058 0.328616
vt 0.280580 0.655996
vt 0.607912 0.322904
vt 0.893219 0.658457
vt 0.610419 0.658457
vt 0.610419 0.331079
vt 0.722408 0.324883
vt 0.299385 0.032171
vt 0.258927 0.032984
vt 0.401336 0.003813
vt 0.000241 0.658457
vt 0.400767 0.030568
vt 0.277458 0.846000
vt 0.554675 0.767863
vt 0.277478 0.658938
vt 0.277461 0.707665
vt 0.000266 0.835606
vt 0.554675 0.755880
vt 0.305561 0.289549
vt 0.341947 0.290414
vt 0.249678 0.289004
vt 0.273273 0.289234
vt 0.215350 0.289056
vt 0.113085 0.289655
vt 0.125868 0.289571
vt 0.156482 0.289372
vt 0.165415 0.289314
vt 0.066322 0.289960
vt 0.077011 0.289890
vt 0.607958 0.328618
vt 0.607958 0.655996
vt 0.280580 0.328618
vt 0.893219 0.331079
vt 0.243785 0.033230
vt 0.000536 0.000241
vt 0.016514 0.033490
vt 0.000241 0.033346
vt 0.129578 0.034343
vt 0.081816 0.034072
vt 0.199079 0.033958
vt 0.170442 0.034117
vt 0.352300 0.031109
vt 0.309243 0.031974
vt 0.344548 0.031265
vt 0.876424 0.814113
vt 0.876424 0.847478
vt 0.599688 0.847478
vt 0.576700 0.814113
vt 0.576700 0.845518
vt 0.299964 0.845518
vt 0.599207 0.845518
vt 0.827186 0.698233
vt 0.827186 0.720739
vt 0.550450 0.720739
vt 0.277458 0.722460
vt 0.554193 0.722460
vt 0.554193 0.777160
vt 0.277458 0.814113
vt 0.299964 0.814113
vt 0.000241 0.831043
vt 0.261719 0.831046
vt 0.277458 0.777642
vt 0.332158 0.777642
vt 0.332158 0.813631
vt 0.663593 0.813631
vt 0.608893 0.813631
vt 0.608893 0.777642
vt 0.549969 0.721979
vt 0.277483 0.721885
vt 0.834292 0.722460
vt 0.834292 0.755398
vt 0.557556 0.755399
vt 0.554675 0.722461
vt 0.557556 0.722461
vt 0.837174 0.755398
vt 0.835722 0.697751
vt 0.831454 0.697751
vt 0.831454 0.658938
vt 0.261753 0.853169
vt 0.000275 0.853166
vt 0.554718 0.697751
vt 0.276976 0.830561
vt 0.000241 0.830561
vt 0.000241 0.658939
vt 0.550450 0.658938
vt 0.554718 0.658938
vt 0.599688 0.814113
vt 0.599207 0.814113
vt 0.550450 0.698233
vt 0.277458 0.777160
vt 0.277458 0.845518
vt 0.277458 0.813631
vt 0.663593 0.777642
vt 0.554675 0.755399
vt 0.837173 0.722460
vt 0.835722 0.658938
vt 0.276976 0.658938
vt 0.550450 0.697751
vn -1.000000 0.000000 0.000000
vn 0.000000 0.000000 1.000000
vn 0.000000 0.000000 -1.000000
vn 0.000000 1.000000 0.000000
vn 1.000000 0.000000 0.000000
vn 0.000000 -1.000000 0.000000
f 1/1/1 48/2/1 42/3/1
f 6/4/2 11/5/2 10/6/2
f 14/7/2 17/8/2 16/9/2
f 20/10/2 23/11/2 22/12/2
f 26/13/2 29/14/2 28/15/2
f 32/16/2 35/17/2 34/18/2
f 38/19/2 41/20/2 40/21/2
f 46/22/2 50/23/2 49/24/2
f 2/25/2 47/26/2 29/27/2
f 3/28/3 42/29/3 43/30/3
f 50/31/4 42/32/4 49/33/4
f 4/34/5 43/35/5 47/36/5
f 3/28/6 4/37/6 6/4/6
f 22/38/2 25/39/2 1/40/2
f 3/41/1 1/1/1 42/3/1
f 5/42/2 6/4/2 10/6/2
f 13/43/2 14/7/2 16/9/2
f 19/44/2 20/10/2 22/12/2
f 25/45/2 26/13/2 28/15/2
f 31/46/2 32/16/2 34/18/2
f 37/47/2 38/19/2 40/21/2
f 45/48/2 46/22/2 49/24/2
f 2/25/2 17/49/2 14/50/2
f 11/5/2 6/4/2 2/25/2
f 2/25/2 14/50/2 11/5/2
f 2/25/2 23/51/2 20/52/2
f 2/25/2 29/27/2 26/53/2
f 47/26/2 41/54/2 38/55/2
f 2/25/2 26/53/2 23/51/2
f 47/26/2 38/55/2 35/56/2
f 2/25/2 20/52/2 17/49/2
f 47/26/2 35/56/2 32/57/2
f 47/26/2 50/58/2 46/59/2
f 32/57/2 29/27/2 47/26/2
f 47/26/2 46/59/2 41/54/2
f 4/37/3 3/28/3 43/30/3
f 50/31/4 47/60/4 43/61/4
f 43/61/4 42/32/4 50/31/4
f 49/33/4 42/32/4 48/62/4
f 2/63/5 4/34/5 47/36/5
f 5/42/6 1/40/6 3/28/6
f 3/28/6 6/4/6 5/42/6
f 6/4/6 4/37/6 2/25/6
f 1/40/2 5/42/2 10/6/2
f 25/39/2 28/64/2 1/40/2
f 48/65/2 45/66/2 49/67/2
f 48/65/2 37/68/2 40/69/2
f 48/65/2 28/64/2 31/70/2
f 48/65/2 34/71/2 37/68/2
f 40/69/2 45/66/2 48/65/2
f 1/40/2 10/6/2 13/72/2
f 1/40/2 19/73/2 22/38/2
f 1/40/2 13/72/2 16/74/2
f 31/70/2 34/71/2 48/65/2
f 48/65/2 1/40/2 28/64/2
f 1/40/2 16/74/2 19/73/2
f 11/75/2 14/76/2 13/77/2
f 7/78/2 52/79/2 51/80/2
f 29/14/2 32/16/2 31/46/2
f 20/81/5 52/79/5 7/78/5
f 17/82/6 7/83/6 8/84/6
f 18/85/4 15/86/4 23/87/4
f 16/88/1 8/89/1 51/80/1
f 37/47/4 24/90/4 21/91/4
f 22/92/1 18/93/1 12/94/1
f 26/95/5 9/96/5 15/97/5
f 35/17/6 27/98/6 30/99/6
f 15/97/2 9/96/2 12/94/2
f 27/100/2 21/101/2 24/102/2
f 34/103/1 30/104/1 24/102/1
f 38/105/5 21/101/5 27/100/5
f 46/106/5 33/107/5 39/108/5
f 41/20/6 39/109/6 44/110/6
f 39/108/2 33/107/2 36/111/2
f 54/112/4 53/113/4 22/114/4
f 40/115/1 44/116/1 36/111/1
f 10/117/2 11/75/2 13/77/2
f 8/89/2 7/78/2 51/80/2
f 28/15/2 29/14/2 31/46/2
f 17/118/5 20/81/5 7/78/5
f 16/119/6 17/82/6 8/84/6
f 22/120/4 18/85/4 23/87/4
f 19/121/1 16/88/1 51/80/1
f 38/19/4 37/47/4 21/91/4
f 25/122/1 22/92/1 12/94/1
f 23/123/5 26/95/5 15/97/5
f 34/18/6 35/17/6 30/99/6
f 18/93/2 15/97/2 12/94/2
f 30/104/2 27/100/2 24/102/2
f 37/124/1 34/103/1 24/102/1
f 35/125/5 38/105/5 27/100/5
f 41/126/5 46/106/5 39/108/5
f 40/21/6 41/20/6 44/110/6
f 44/116/2 39/108/2 36/111/2
f 23/127/4 54/112/4 22/114/4
f 45/128/1 40/115/1 36/111/1
