v 0.999998 0.000000 -1.000000
v -1.000002 0.000000 -1.000000
v -3.000002 0.000000 -1.000000
v 2.999998 0.000000 -1.000000
v 0.999998 0.000000 1.000000
v -1.000002 0.000000 1.000000
v -3.000002 0.000000 1.000000
v 2.999998 0.000000 1.000000
v 0.999998 0.000000 3.000000
v -1.000002 0.000000 3.000000
v -3.000002 0.000000 3.000000
v 2.999998 0.000000 3.000000
v 0.999998 0.000000 -3.000000
v -1.000002 0.000000 -3.000000
v -3.000002 0.000000 -3.000000
v 2.999998 0.000000 -3.000000
v 0.999998 0.000000 -5.000000
v -1.000002 0.000000 -5.000000
v -3.000002 0.000000 -5.000000
v 2.999998 0.000000 -5.000000
v 0.999998 0.000000 5.000000
v -1.000002 0.000000 5.000000
v -3.000002 0.000000 5.000000
v 2.999998 0.000000 5.000000
v -5.000002 0.000000 1.000000
v -5.000002 0.000000 -1.000000
v -5.000002 0.000000 3.000000
v -5.000002 0.000000 -3.000000
v -5.000002 0.000000 -5.000000
v -5.000002 0.000000 5.000000
v 4.999998 0.000000 1.000000
v 4.999998 0.000000 -1.000000
v 4.999998 0.000000 3.000000
v 4.999998 0.000000 -3.000000
v 4.999998 0.000000 -5.000000
v 4.999998 0.000000 5.000000
v -1.000002 1.000000 1.000000
v 6.999998 0.000001 -1.000000
v 6.999998 0.000001 1.000000
v 6.999998 0.000001 3.000000
v 6.999998 0.000001 -3.000000
v 6.999998 0.000001 -5.000000
v 6.999998 0.000001 5.000000
v -7.000001 0.000000 -1.000000
v -7.000001 0.000000 1.000000
v -7.000001 0.000000 3.000000
v -7.000001 0.000000 -3.000000
v -7.000001 0.000000 -5.000000
v -7.000001 0.000000 5.000000
v 0.999998 1.000000 -1.000000
v -1.000002 1.000000 -1.000000
v -3.000002 0.999999 1.000000
v -3.000002 0.999999 -1.000000
v 2.999998 1.000000 -1.000000
v 0.999998 1.000000 1.000000
v 2.999998 1.000000 1.000000
v 0.999998 1.000000 3.000000
v -1.000002 1.000000 3.000000
v -3.000002 0.999999 3.000000
v 2.999998 1.000000 3.000000
v 0.999998 1.000000 -3.000000
v -1.000002 1.000000 -3.000000
v -3.000002 0.999999 -3.000000
v 2.999998 1.000000 -3.000000
v 0.999998 1.000000 -5.000000
v -1.000002 1.000000 -5.000000
v -3.000002 0.999999 -5.000000
v 2.999998 1.000000 -5.000000
v 0.999998 1.000000 5.000000
v -1.000002 1.000000 5.000000
v -3.000002 0.999999 5.000000
v 2.999998 1.000000 5.000000
v -5.000002 0.999999 1.000000
v -5.000002 0.999999 -1.000000
v -5.000002 0.999999 3.000000
v -5.000002 0.999999 -3.000000
v -5.000002 0.999999 -5.000000
v -5.000002 0.999999 5.000000
v 4.999998 1.000000 1.000000
v 4.999998 1.000000 -1.000000
v 4.999998 1.000000 3.000000
v 4.999998 1.000000 -3.000000
v 4.999998 1.000000 -5.000000
v 4.999998 1.000000 5.000000
v 6.999998 1.000000 -1.000000
v 6.999998 1.000000 1.000000
v 6.999998 1.000000 3.000000
v 6.999998 1.000000 -3.000000
v 6.999998 1.000000 -5.000000
v 6.999998 1.000000 5.000000
v -7.000001 0.999999 -1.000000
v -7.000001 0.999999 1.000000
v -7.000001 0.999999 3.000000
v -7.000001 0.999999 -3.000000
v -7.000001 0.999999 -5.000000
v -7.000001 0.999999 5.000000
v 4.000000 1.000000 -0.750000
v 3.469670 1.000000 -0.530330
v 4.000000 1.000000 0.750000
v 4.530330 1.000000 0.530330
v 4.750000 1.000000 0.000000
v 3.469670 8.000000 -0.530330
v 3.250000 8.000000 0.000000
v 4.000000 8.000000 0.750000
v 4.530330 8.000000 -0.530330
v 3.250000 1.000000 0.000000
v 3.469670 1.000000 0.530330
v 4.530330 1.000000 -0.530330
v 4.000000 8.000000 -0.750000
v 3.469670 8.000000 0.530330
v 4.530330 8.000000 0.530330
v 4.750000 8.000000 0.000000
v 0.000000 1.000000 -0.750000
v -0.530330 1.000000 -0.530330
v -0.750000 1.000000 0.000000
v -0.530330 1.000000 0.530330
v 0.000000 1.000000 0.750000
v 0.530330 1.000000 0.530330
v 0.750000 1.000000 0.000000
v 0.530330 1.000000 -0.530330
v 0.000000 8.000000 -0.750000
v -0.530330 8.000000 -0.530330
v -0.750000 8.000000 0.000000
v -0.530330 8.000000 0.530330
v 0.000000 8.000000 0.750000
v 0.530330 8.000000 0.530330
v 0.750000 8.000000 0.000000
v 0.530330 8.000000 -0.530330
v -4.000000 1.000000 -0.750000
v -4.530331 1.000000 -0.530330
v -4.750000 1.000000 0.000000
v -4.530331 1.000000 0.530330
v -4.000000 1.000000 0.750000
v -3.469670 1.000000 0.530330
v -3.250000 1.000000 0.000000
v -3.469670 1.000000 -0.530330
v -4.000000 8.000000 -0.750000
v -4.530331 8.000000 -0.530330
v -4.750000 8.000000 0.000000
v -4.530331 8.000000 0.530330
v -4.000000 8.000000 0.750000
v -3.469670 8.000000 0.530330
v -3.250000 8.000000 0.000000
v -3.469670 8.000000 -0.530330
vt 0.272727 0.363736
vt 0.363636 0.363736
vt 0.363636 0.454670
vt 0.454545 0.363736
vt 0.454545 0.454670
vt 0.363636 0.181868
vt 0.454545 0.181868
vt 0.454545 0.272802
vt 0.818182 0.181868
vt 0.818182 0.272802
vt 0.727273 0.272802
vt 0.090909 0.363736
vt 0.000000 0.363736
vt 0.000000 0.272802
vt 0.000000 0.181868
vt 0.000000 0.090934
vt 0.090909 0.090934
vt 0.363636 0.090934
vt 0.454545 0.090934
vt 0.272727 0.181868
vt 0.272727 0.090934
vt 0.090909 0.454670
vt 0.090909 0.545604
vt 0.000000 0.545604
vt 0.363636 0.545604
vt 0.272727 0.545604
vt 0.090909 0.636537
vt 0.000000 0.636538
vt 0.454545 0.545604
vt 0.454545 0.636537
vt 0.363636 0.636537
vt 0.272727 0.636537
vt 0.000000 0.000000
vt 0.090909 0.000000
vt 0.363636 0.000000
vt 0.454545 0.000000
vt 0.818182 0.363736
vt 0.727273 0.363736
vt 0.909091 0.181868
vt 0.909091 0.272802
vt 0.545455 0.363736
vt 0.545455 0.545604
vt 0.909091 0.545604
vt 0.818182 0.545604
vt 0.818182 0.454670
vt 0.727273 0.545604
vt 0.727273 0.454670
vt 0.636364 0.545604
vt 0.636364 0.454670
vt 0.545455 0.090934
vt 0.545455 0.181868
vt 0.727273 0.090934
vt 0.818182 0.090934
vt 0.545455 0.000000
vt 0.818182 0.000000
vt 0.909091 0.000000
vt 0.909091 0.090934
vt 0.727273 0.000000
vt 0.545455 0.636537
vt 0.909091 0.636537
vt 0.818182 0.636537
vt 0.623562 0.727198
vt 0.623562 0.636538
vt 0.669016 0.636538
vt 0.850835 0.727472
vt 0.850835 0.636538
vt 0.896289 0.636538
vt 0.714471 0.818405
vt 0.714471 0.727471
vt 0.759926 0.727471
vt 0.623562 0.908519
vt 0.669016 0.908519
vt 0.669016 0.999453
vt 0.181818 0.181868
vt 0.181818 0.090934
vt 0.623562 0.817859
vt 0.669016 0.727198
vt 0.090909 0.272802
vt 0.181818 0.272802
vt 0.578107 1.000000
vt 0.578107 0.909339
vt 0.623562 0.909339
vt 0.578107 0.818405
vt 0.578107 0.727472
vt 0.623562 0.727471
vt 0.941744 0.909339
vt 0.941744 0.818406
vt 0.987198 0.818406
vt 0.805380 1.000000
vt 0.805380 0.909339
vt 0.850835 0.909339
vt 0.272727 0.454670
vt 0.181818 0.545604
vt 0.090909 0.181868
vt 0.805380 0.727472
vt 0.805380 0.636538
vt 0.272727 0.272802
vt 0.850835 0.818406
vt 0.896289 0.818406
vt 0.714471 0.909339
vt 0.759926 0.818406
vt 0.896289 0.909339
vt 0.714471 0.636538
vt 0.759926 0.636538
vt 0.363636 0.272802
vt 0.941744 1.000000
vt 0.987198 0.909339
vt 0.805380 0.818406
vt 0.181818 0.363736
vt 0.669017 0.818405
vt 0.669017 0.727472
vt 0.623562 0.818405
vt 0.896289 0.727472
vt 0.941744 0.636538
vt 0.181818 0.636537
vt 0.714471 1.000000
vt 0.759926 0.909339
vt 0.181818 0.454670
vt 0.954545 0.181868
vt 0.954545 0.090934
vt 1.000000 0.090934
vt 0.954545 0.272802
vt 0.954545 0.363736
vt 1.000000 0.181868
vt 1.000000 0.272528
vt 0.954545 0.272528
vt 0.987198 0.727471
vt 0.941744 0.727471
vt 0.636364 0.363736
vt 0.669016 0.817859
vt 0.554848 0.636538
vt 0.554848 0.954806
vt 0.530041 0.954806
vt 0.385695 0.636538
vt 0.385695 0.954806
vt 0.361589 0.954806
vt 0.361589 0.636538
vt 0.337483 0.954806
vt 0.144636 0.954806
vt 0.144636 0.636538
vt 0.168742 0.636538
vt 0.168742 0.954806
vt 0.192847 0.636538
vt 0.096424 0.954806
vt 0.096424 0.636538
vt 0.120530 0.636538
vt 0.120530 0.954806
vt 0.578107 0.636538
vt 0.578107 0.954806
vt 0.457166 0.954806
vt 0.457166 0.636538
vt 0.481974 0.636538
vt 0.337483 0.636538
vt 0.313377 0.954806
vt 0.313377 0.636538
vt 0.289271 0.954806
vt 0.192848 0.954806
vt 0.216953 0.636538
vt 0.216953 0.954806
vt 0.241059 0.636538
vt 0.000000 0.954806
vt 0.024106 0.636538
vt 0.024106 0.954806
vt 0.048212 0.636538
vt 0.433907 0.954806
vt 0.433907 0.636538
vt 0.181818 0.000000
vt 0.272727 0.000000
vt 0.636364 0.272802
vt 0.545455 0.272802
vt 0.545455 0.454670
vt 0.909091 0.363736
vt 0.909091 0.454670
vt 0.636364 0.090934
vt 0.636364 0.181868
vt 0.727273 0.181868
vt 0.636364 0.000000
vt 0.636364 0.636537
vt 0.727273 0.636537
vt 0.896289 1.000000
vt 0.954545 0.000000
vt 1.000000 0.000000
vt 0.850835 1.000000
vt 0.954545 0.545604
vt 0.669017 0.909339
vt 0.669017 1.000000
vt 0.759926 1.000000
vt 0.505233 0.954806
vt 0.505233 0.636538
vt 0.530040 0.636538
vt 0.409801 0.954806
vt 0.409801 0.636538
vt 0.241059 0.954806
vt 0.265165 0.636538
vt 0.265165 0.954806
vt 0.289271 0.636538
vt 0.048212 0.954806
vt 0.072318 0.636538
vt 0.072318 0.954806
vt 0.481974 0.954806
vt 0.000000 0.454670
vt 0.623562 0.999453
vt 0.623562 1.000000
vt 0.987198 1.000000
vt 0.987198 0.636538
vt 0.954545 0.454670
vt 0.954545 0.636538
vn 0.000000 -1.000000 0.000000
vn -0.000000 1.000000 0.000000
vn 0.000000 0.000000 -1.000000
vn 1.000000 0.000000 0.000000
vn 0.000000 0.000000 1.000000
vn -1.000000 0.000000 0.000000
vn 0.382700 0.000000 -0.923900
vn 0.923900 0.000000 -0.382700
vn 0.923900 0.000000 0.382700
vn 0.382700 0.000000 0.923900
vn -0.382700 0.000000 0.923900
vn -0.923900 0.000000 0.382700
vn -0.923900 0.000000 -0.382700
vn -0.382700 0.000000 -0.923900
f 1/1/1 13/2/1 16/3/1
f 13/2/1 17/4/1 20/5/1
f 15/6/1 19/7/1 18/8/1
f 64/9/2 61/10/2 50/11/2
f 9/12/1 21/13/1 22/14/1
f 23/15/1 30/16/1 27/17/1
f 15/6/1 28/18/1 29/19/1
f 3/20/1 26/21/1 28/18/1
f 12/22/1 33/23/1 36/24/1
f 16/3/1 34/25/1 32/26/1
f 33/23/1 40/27/1 43/28/1
f 35/29/1 42/30/1 41/31/1
f 34/25/1 41/31/1 38/32/1
f 30/16/1 49/33/1 46/34/1
f 28/18/1 47/35/1 48/36/1
f 61/10/2 62/37/2 51/38/2
f 68/39/2 65/40/2 61/10/2
f 71/5/2 70/4/2 58/41/2
f 75/42/2 78/29/2 71/5/2
f 77/43/2 76/44/2 63/45/2
f 76/44/2 74/46/2 53/47/2
f 74/46/2 73/48/2 52/49/2
f 84/19/2 81/50/2 60/51/2
f 80/52/2 82/53/2 64/9/2
f 90/36/2 87/54/2 81/50/2
f 88/55/2 89/56/2 83/57/2
f 85/58/2 88/55/2 82/53/2
f 93/59/2 96/30/2 78/29/2
f 95/60/2 94/61/2 76/44/2
f 67/62/3 66/63/3 18/64/3
f 57/65/4 69/66/4 21/67/4
f 90/68/5 84/69/5 36/70/5
f 28/71/5 76/72/5 94/73/5
f 7/74/1 25/75/1 26/21/1
f 77/76/3 67/62/3 19/77/3
f 9/12/1 10/78/1 6/79/1
f 65/80/3 68/81/3 20/82/3
f 93/83/6 92/84/6 45/85/6
f 82/86/6 83/87/6 35/88/6
f 91/89/3 74/90/3 26/91/3
f 4/92/1 32/26/1 31/93/1
f 10/78/1 11/94/1 7/74/1
f 68/95/4 64/96/4 16/66/4
f 6/79/1 2/97/1 1/1/1
f 61/91/6 65/98/6 17/99/6
f 94/100/6 95/68/6 48/101/6
f 74/102/6 76/99/6 28/87/6
f 84/69/5 72/103/5 24/104/5
f 2/97/1 14/105/1 13/2/1
f 83/106/3 89/86/3 42/107/3
f 72/90/6 60/108/6 12/98/6
f 12/22/1 9/12/1 5/109/1
f 10/78/1 22/14/1 23/15/1
f 86/110/4 87/111/4 40/69/4
f 96/81/6 93/83/6 46/112/6
f 85/113/5 80/67/5 32/114/5
f 31/93/1 39/115/1 40/27/1
f 88/70/4 85/104/4 38/96/4
f 64/116/3 82/100/3 34/117/3
f 3/20/1 15/6/1 14/105/1
f 8/118/1 31/93/1 33/23/1
f 80/119/4 79/120/4 31/121/4
f 89/101/4 88/70/4 41/95/4
f 30/40/5 78/122/5 96/123/5
f 75/124/3 59/125/3 11/126/3
f 4/127/5 54/128/5 50/114/5
f 50/11/2 51/38/2 37/129/2
f 87/111/4 90/64/4 43/103/4
f 95/71/3 77/76/3 29/130/3
f 71/119/5 78/122/5 30/40/5
f 113/131/7 121/132/7 128/133/7
f 120/134/8 128/135/8 127/136/8
f 119/137/9 127/136/9 126/138/9
f 118/139/10 126/140/10 125/141/10
f 117/142/11 125/141/11 124/143/11
f 116/144/12 124/145/12 123/146/12
f 115/147/13 123/146/13 122/140/13
f 114/148/14 122/149/14 121/132/14
f 129/150/7 137/151/7 144/152/7
f 136/153/8 144/138/8 143/154/8
f 135/155/9 143/154/9 142/156/9
f 134/157/10 142/143/10 141/158/10
f 133/159/11 141/158/11 140/160/11
f 132/161/12 140/28/12 139/162/12
f 131/163/13 139/162/13 138/164/13
f 130/165/14 138/166/14 137/151/14
f 27/17/1 46/34/1 45/167/1
f 25/75/1 45/167/1 44/168/1
f 55/169/2 57/170/2 60/51/2
f 52/49/2 59/171/2 58/41/2
f 37/129/2 58/41/2 57/170/2
f 62/37/2 63/45/2 53/47/2
f 66/172/2 67/173/2 63/45/2
f 70/4/2 69/8/2 57/170/2
f 81/50/2 79/174/2 56/175/2
f 79/174/2 80/52/2 54/176/2
f 87/54/2 86/177/2 79/174/2
f 92/178/2 93/59/2 75/42/2
f 91/179/2 92/178/2 73/48/2
f 55/180/3 56/102/3 8/86/3
f 92/84/6 91/148/6 44/63/6
f 22/57/5 70/120/5 71/119/5
f 73/117/4 75/101/4 27/108/4
f 53/120/4 52/181/4 7/182/4
f 59/173/6 52/172/6 7/123/6
f 52/183/3 37/91/3 6/102/3
f 66/98/4 62/65/4 14/113/4
f 2/184/5 51/43/5 53/173/5
f 52/99/5 73/113/5 25/128/5
f 56/185/6 54/110/6 4/68/6
f 79/186/3 86/185/3 39/100/3
f 62/187/3 61/117/3 13/90/3
f 50/108/4 55/95/4 5/65/4
f 12/128/5 60/127/5 57/88/5
f 37/60/6 51/43/6 2/184/6
f 69/181/5 70/120/5 22/57/5
f 97/188/7 109/189/7 105/190/7
f 108/166/8 105/165/8 112/191/8
f 101/192/9 112/191/9 111/135/9
f 100/193/10 111/160/10 104/194/10
f 99/195/11 104/194/11 110/196/11
f 107/197/12 110/164/12 103/198/12
f 106/199/13 103/198/13 102/145/13
f 98/200/14 102/152/14 109/189/14
f 4/92/1 1/1/1 16/3/1
f 16/3/1 13/2/1 20/5/1
f 14/105/1 15/6/1 18/8/1
f 54/176/2 64/9/2 50/11/2
f 10/78/1 9/12/1 22/14/1
f 11/94/1 23/15/1 27/17/1
f 19/7/1 15/6/1 29/19/1
f 15/6/1 3/20/1 28/18/1
f 24/201/1 12/22/1 36/24/1
f 4/92/1 16/3/1 32/26/1
f 36/24/1 33/23/1 43/28/1
f 34/25/1 35/29/1 41/31/1
f 32/26/1 34/25/1 38/32/1
f 27/17/1 30/16/1 46/34/1
f 29/19/1 28/18/1 48/36/1
f 50/11/2 61/10/2 51/38/2
f 64/9/2 68/39/2 61/10/2
f 59/171/2 71/5/2 58/41/2
f 59/171/2 75/42/2 71/5/2
f 67/173/2 77/43/2 63/45/2
f 63/45/2 76/44/2 53/47/2
f 53/47/2 74/46/2 52/49/2
f 72/7/2 84/19/2 60/51/2
f 54/176/2 80/52/2 64/9/2
f 84/19/2 90/36/2 81/50/2
f 82/53/2 88/55/2 83/57/2
f 80/52/2 85/58/2 82/53/2
f 75/42/2 93/59/2 78/29/2
f 77/43/2 95/60/2 76/44/2
f 19/77/3 67/62/3 18/64/3
f 9/113/4 57/65/4 21/67/4
f 43/101/5 90/68/5 36/70/5
f 47/202/5 28/71/5 94/73/5
f 3/20/1 7/74/1 26/21/1
f 29/130/3 77/76/3 19/77/3
f 5/109/1 9/12/1 6/79/1
f 17/203/3 65/80/3 20/82/3
f 46/112/6 93/83/6 45/85/6
f 34/107/6 82/86/6 35/88/6
f 44/183/3 91/89/3 26/91/3
f 8/118/1 4/92/1 31/93/1
f 6/79/1 10/78/1 7/74/1
f 20/65/4 68/95/4 16/66/4
f 5/109/1 6/79/1 1/1/1
f 13/102/6 61/91/6 17/99/6
f 47/117/6 94/100/6 48/101/6
f 26/86/6 74/102/6 28/87/6
f 36/70/5 84/69/5 24/104/5
f 1/1/1 2/97/1 13/2/1
f 35/204/3 83/106/3 42/107/3
f 24/91/6 72/90/6 12/98/6
f 8/118/1 12/22/1 5/109/1
f 11/94/1 10/78/1 23/15/1
f 39/68/4 86/110/4 40/69/4
f 49/82/6 96/81/6 46/112/6
f 38/128/5 85/113/5 32/114/5
f 33/23/1 31/93/1 40/27/1
f 41/95/4 88/70/4 38/96/4
f 16/187/3 64/116/3 34/117/3
f 2/97/1 3/20/1 14/105/1
f 12/22/1 8/118/1 33/23/1
f 32/124/4 80/119/4 31/121/4
f 42/108/4 89/101/4 41/95/4
f 49/172/5 30/40/5 96/123/5
f 27/119/3 75/124/3 11/126/3
f 1/205/5 4/127/5 50/114/5
f 55/169/2 50/11/2 37/129/2
f 40/69/4 87/111/4 43/103/4
f 48/72/3 95/71/3 29/130/3
f 23/39/5 71/119/5 30/40/5
f 120/190/7 113/131/7 128/133/7
f 119/137/8 120/134/8 127/136/8
f 118/153/9 119/137/9 126/138/9
f 117/142/10 118/139/10 125/141/10
f 116/157/11 117/142/11 124/143/11
f 115/147/12 116/144/12 123/146/12
f 114/139/13 115/147/13 122/140/13
f 113/131/14 114/148/14 121/132/14
f 136/200/7 129/150/7 144/152/7
f 135/155/8 136/153/8 143/154/8
f 134/196/9 135/155/9 142/156/9
f 133/159/10 134/157/10 141/158/10
f 132/193/11 133/159/11 140/160/11
f 131/163/12 132/161/12 139/162/12
f 130/197/13 131/163/13 138/164/13
f 129/150/14 130/165/14 137/151/14
f 25/75/1 27/17/1 45/167/1
f 26/21/1 25/75/1 44/168/1
f 56/175/2 55/169/2 60/51/2
f 37/129/2 52/49/2 58/41/2
f 55/169/2 37/129/2 57/170/2
f 51/38/2 62/37/2 53/47/2
f 62/37/2 66/172/2 63/45/2
f 58/41/2 70/4/2 57/170/2
f 60/51/2 81/50/2 56/175/2
f 56/175/2 79/174/2 54/176/2
f 81/50/2 87/54/2 79/174/2
f 73/48/2 92/178/2 75/42/2
f 74/46/2 91/179/2 73/48/2
f 5/106/3 55/180/3 8/86/3
f 45/85/6 92/84/6 44/63/6
f 23/39/5 22/57/5 71/119/5
f 25/90/4 73/117/4 27/108/4
f 3/121/4 53/120/4 7/182/4
f 11/206/6 59/173/6 7/123/6
f 7/180/3 52/183/3 6/102/3
f 18/99/4 66/98/4 14/113/4
f 3/206/5 2/184/5 53/173/5
f 7/87/5 52/99/5 25/128/5
f 8/100/6 56/185/6 4/68/6
f 31/116/3 79/186/3 39/100/3
f 14/89/3 62/187/3 13/90/3
f 1/98/4 50/108/4 5/65/4
f 9/87/5 12/128/5 57/88/5
f 6/207/6 37/60/6 2/184/6
f 21/56/5 69/181/5 22/57/5
f 108/133/7 97/188/7 105/190/7
f 101/192/8 108/166/8 112/191/8
f 100/134/9 101/192/9 111/135/9
f 99/195/10 100/193/10 104/194/10
f 107/156/11 99/195/11 110/196/11
f 106/199/12 107/197/12 103/198/12
f 98/144/13 106/199/13 102/145/13
f 97/188/14 98/200/14 109/189/14