v -0.300000 1.000000 0.150000
v -0.300000 1.000000 -0.150000
v -0.300000 0.000000 -0.150000
v 0.300000 1.000000 -0.150000
v 0.300000 0.000000 -0.150000
v 0.300000 1.000000 0.150000
v 0.300000 -0.000000 0.150000
v -0.300000 -0.000000 0.150000
v 0.000000 0.000000 0.000000
v 0.000000 0.108750 0.000000
v 0.000000 0.217500 0.000000
v 0.000000 0.326250 0.000000
v 0.000000 0.435000 0.000000
v 0.000000 0.543750 0.000000
v 0.000000 0.652500 0.000000
v 0.000000 0.761250 0.000000
v 0.000000 0.870000 0.000000
v 0.000000 0.978750 0.000000
v 0.000000 1.000000 0.000000
vn -1.000000 -0.000000 0.000000
vn 0.000000 0.000000 -1.000000
vn 1.000000 0.000000 0.000000
vn 0.000000 -0.000000 1.000000
vn 0.000000 -1.000000 -0.000000
vn 0.000000 1.000000 0.000000
vn -0.447200 0.000000 0.894400
s off
f 1//1 2//1 3//1
f 4//2 5//2 3//2
f 4//3 6//3 7//3
f 1//4 8//4 7//4
f 3//5 5//5 7//5
f 2//6 1//6 4//6
f 8//1 1//1 3//1
f 2//2 4//2 3//2
f 5//3 4//3 7//3
f 6//4 1//4 7//4
f 8//5 3//5 7//5
f 4//6 1//6 6//6
f 19//7 2//7 18//7
f 18//7 2//7 17//7
f 17//7 2//7 16//7
f 16//7 2//7 15//7
f 15//7 2//7 14//7
f 14//7 2//7 13//7
f 13//7 2//7 12//7
f 12//7 2//7 11//7
f 11//7 2//7 10//7
f 10//7 2//7 9//7
