v -0.005339 0.003604 -0.124040
v -0.005339 0.402357 -0.124040
v 0.020017 0.003604 -0.121543
v 0.020017 0.402357 -0.121543
v 0.044398 0.003604 -0.114147
v 0.044398 0.402357 -0.114147
v 0.066869 0.003604 -0.102136
v 0.066869 0.402357 -0.102136
v 0.086564 0.003604 -0.085973
v 0.086564 0.402357 -0.085973
v 0.102728 0.003604 -0.066277
v 0.102728 0.402357 -0.066277
v 0.114738 0.003604 -0.043807
v 0.114738 0.402357 -0.043807
v 0.122134 0.003604 -0.019425
v 0.122134 0.402357 -0.019425
v 0.124632 0.003604 0.005931
v 0.124632 0.402357 0.005931
v 0.122134 0.003604 0.031287
v 0.122134 0.402357 0.031287
v 0.114738 0.003604 0.055668
v 0.114738 0.402357 0.055668
v 0.102728 0.003604 0.078138
v 0.102728 0.402357 0.078138
v 0.086564 0.003604 0.097834
v 0.086564 0.402357 0.097834
v 0.066869 0.003604 0.113997
v 0.066869 0.402357 0.113997
v 0.044398 0.003604 0.126008
v 0.044398 0.402357 0.126008
v 0.020017 0.003604 0.133404
v 0.020017 0.402357 0.133404
v -0.005339 0.003604 0.135901
v -0.005339 0.402357 0.135901
v -0.030695 0.003604 0.133404
v -0.030695 0.402357 0.133404
v -0.055077 0.003604 0.126008
v -0.055077 0.402357 0.126008
v -0.077547 0.003604 0.113997
v -0.077547 0.402357 0.113997
v -0.097242 0.003604 0.097834
v -0.097242 0.402357 0.097834
v -0.113406 0.003604 0.078138
v -0.113406 0.402357 0.078138
v -0.125417 0.003604 0.055668
v -0.125417 0.402357 0.055668
v -0.132813 0.003604 0.031287
v -0.132813 0.402357 0.031287
v -0.135310 0.003604 0.005930
v -0.135310 0.402357 0.005930
v -0.132813 0.003604 -0.019426
v -0.132813 0.402357 -0.019426
v -0.125416 0.003604 -0.043807
v -0.125416 0.402357 -0.043807
v -0.113406 0.003604 -0.066277
v -0.113406 0.402357 -0.066277
v -0.097242 0.003604 -0.085973
v -0.097242 0.402357 -0.085973
v -0.077547 0.003604 -0.102136
v -0.077547 0.402357 -0.102136
v -0.055077 0.003604 -0.114147
v -0.055077 0.402357 -0.114147
v -0.030695 0.003604 -0.121543
v -0.030695 0.402357 -0.121543
v -0.006789 0.389602 -0.181198
v -0.006789 0.447314 -0.181198
v 0.030756 0.389602 -0.177500
v 0.030756 0.447314 -0.177500
v 0.066858 0.389602 -0.166548
v 0.066858 0.447314 -0.166548
v 0.100130 0.389602 -0.148764
v 0.100130 0.447314 -0.148764
v 0.129293 0.389602 -0.124831
v 0.129293 0.447314 -0.124831
v 0.153227 0.389602 -0.095667
v 0.153227 0.447314 -0.095667
v 0.171011 0.389602 -0.062396
v 0.171011 0.447314 -0.062396
v 0.181963 0.389602 -0.026293
v 0.181963 0.447314 -0.026293
v 0.185661 0.389602 0.011252
v 0.185661 0.447314 0.011252
v 0.181963 0.389602 0.048796
v 0.181963 0.447314 0.048796
v 0.171011 0.389602 0.084899
v 0.171011 0.447314 0.084899
v 0.153227 0.389602 0.118171
v 0.153227 0.447314 0.118171
v 0.129293 0.389602 0.147334
v 0.129293 0.447314 0.147334
v 0.100130 0.389602 0.171267
v 0.100130 0.447314 0.171267
v 0.066858 0.389602 0.189051
v 0.066858 0.447314 0.189051
v 0.030756 0.389602 0.200003
v 0.030756 0.447314 0.200003
v -0.006789 0.389602 0.203701
v -0.006789 0.447314 0.203701
v -0.044334 0.389602 0.200003
v -0.044334 0.447314 0.200003
v -0.080436 0.389602 0.189051
v -0.080436 0.447314 0.189051
v -0.113708 0.389602 0.171267
v -0.113708 0.447314 0.171267
v -0.142871 0.389602 0.147334
v -0.142871 0.447314 0.147334
v -0.166804 0.389602 0.118170
v -0.166804 0.447314 0.118170
v -0.184588 0.389602 0.084898
v -0.184588 0.447314 0.084898
v -0.195540 0.389602 0.048796
v -0.195540 0.447314 0.048796
v -0.199238 0.389602 0.011251
v -0.199238 0.447314 0.011251
v -0.195540 0.389602 -0.026294
v -0.195540 0.447314 -0.026294
v -0.184588 0.389602 -0.062396
v -0.184588 0.447314 -0.062396
v -0.166804 0.389602 -0.095668
v -0.166804 0.447314 -0.095668
v -0.142871 0.389602 -0.124831
v -0.142871 0.447314 -0.124831
v -0.113707 0.389602 -0.148764
v -0.113707 0.447314 -0.148764
v -0.080435 0.389602 -0.166548
v -0.080435 0.447314 -0.166548
v -0.044333 0.389602 -0.177500
v -0.044333 0.447314 -0.177500
vt 0.208751 0.740260
vt 0.208812 0.743380
vt 0.205403 0.578582
vt 0.203408 0.742949
vt 0.203408 0.578734
vt 0.199327 0.745920
vt 0.199327 0.578879
vt 0.193235 0.748610
vt 0.193235 0.579010
vt 0.190152 0.486549
vt 0.190152 0.314790
vt 0.180735 0.488274
vt 0.180735 0.314874
vt 0.170234 0.489352
vt 0.170234 0.314926
vt 0.159155 0.489719
vt 0.159155 0.314944
vt 0.148051 0.489352
vt 0.148051 0.314926
vt 0.137478 0.488274
vt 0.137478 0.314874
vt 0.127946 0.486549
vt 0.127946 0.314790
vt 0.119884 0.484279
vt 0.119884 0.314679
vt 0.108786 0.745920
vt 0.108786 0.578879
vt 0.104507 0.742949
vt 0.104507 0.578734
vt 0.102303 0.739837
vt 0.102303 0.578582
vt 0.102156 0.736717
vt 0.102156 0.578430
vt 0.103962 0.733710
vt 0.107371 0.581827
vt 0.107551 0.730919
vt 0.107551 0.578148
vt 0.112711 0.728430
vt 0.112711 0.578026
vt 0.119201 0.726311
vt 0.119201 0.577923
vt 0.126766 0.724614
vt 0.126766 0.577840
vt 0.135142 0.723376
vt 0.135142 0.577780
vt 0.144065 0.722624
vt 0.144065 0.577743
vt 0.153269 0.722372
vt 0.153269 0.577731
vt 0.162491 0.722624
vt 0.162491 0.577743
vt 0.171464 0.723376
vt 0.171464 0.577780
vt 0.179923 0.724614
vt 0.179923 0.577840
vt 0.187601 0.726311
vt 0.187601 0.577923
vt 0.194233 0.728430
vt 0.197643 0.581570
vt 0.202969 0.734462
vt 0.199559 0.578148
vt 0.774416 0.586828
vt 0.668064 0.643674
vt 0.530824 0.386916
vt 0.203335 0.733710
vt 0.205341 0.578430
vt 0.206744 0.581827
vt 0.341663 0.950159
vt 0.364172 0.927650
vt 0.341663 0.905141
vt 0.344342 0.957132
vt 0.350472 0.956528
vt 0.350441 0.955982
vt 0.356365 0.954740
vt 0.356235 0.954225
vt 0.361797 0.951837
vt 0.361574 0.951371
vt 0.366558 0.947930
vt 0.366255 0.947529
vt 0.370465 0.943169
vt 0.370096 0.942849
vt 0.373369 0.937737
vt 0.372950 0.937509
vt 0.375157 0.931843
vt 0.374708 0.931715
vt 0.375760 0.925714
vt 0.375301 0.925690
vt 0.375157 0.919584
vt 0.374708 0.919664
vt 0.373369 0.913691
vt 0.372950 0.913870
vt 0.370465 0.908259
vt 0.370096 0.908530
vt 0.366558 0.903498
vt 0.366255 0.903850
vt 0.361797 0.899590
vt 0.361574 0.900009
vt 0.356365 0.896687
vt 0.356235 0.897155
vt 0.350472 0.894899
vt 0.350441 0.895397
vt 0.344342 0.894296
vt 0.344415 0.894804
vt 0.338213 0.894899
vt 0.338389 0.895397
vt 0.332319 0.896687
vt 0.332595 0.897155
vt 0.326887 0.899591
vt 0.327256 0.900009
vt 0.322126 0.903498
vt 0.322575 0.903850
vt 0.318219 0.908259
vt 0.318734 0.908530
vt 0.315316 0.913691
vt 0.315880 0.913870
vt 0.313528 0.919584
vt 0.314122 0.919664
vt 0.312924 0.925714
vt 0.313529 0.925690
vt 0.313528 0.931843
vt 0.314122 0.931715
vt 0.315316 0.937737
vt 0.315880 0.937509
vt 0.318219 0.943169
vt 0.318734 0.942849
vt 0.322126 0.947930
vt 0.322575 0.947529
vt 0.326887 0.951837
vt 0.327256 0.951371
vt 0.332319 0.954740
vt 0.332596 0.954225
vt 0.338213 0.956528
vt 0.344415 0.956576
vt 0.338390 0.955982
vt 0.345545 0.983990
vt 0.403993 0.925542
vt 0.386874 0.884213
vt 0.803396 0.532610
vt 0.791576 0.561146
vt 0.809422 0.502316
vt 0.791576 0.412598
vt 0.803396 0.441134
vt 0.809422 0.471428
vt 0.752575 0.365075
vt 0.774416 0.386916
vt 0.637177 0.330069
vt 0.726893 0.347915
vt 0.668064 0.330070
vt 0.698357 0.336095
vt 0.578346 0.347915
vt 0.606882 0.336095
vt 0.552665 0.365075
vt 0.501844 0.441134
vt 0.513664 0.412598
vt 0.495818 0.502315
vt 0.495818 0.471428
vt 0.513664 0.561145
vt 0.501844 0.532609
vt 0.530824 0.586827
vt 0.606882 0.637648
vt 0.578346 0.625828
vt 0.552664 0.608667
vt 0.637176 0.643674
vt 0.726894 0.625828
vt 0.698357 0.637648
vt 0.752575 0.608668
vt 0.333049 0.948446
vt 0.337272 0.949727
vt 0.325747 0.943566
vt 0.329158 0.946366
vt 0.320867 0.936264
vt 0.322947 0.940155
vt 0.319154 0.927650
vt 0.319586 0.932041
vt 0.325747 0.911733
vt 0.319586 0.923259
vt 0.322947 0.915144
vt 0.320867 0.919036
vt 0.333049 0.906854
vt 0.329158 0.908934
vt 0.337272 0.905573
vt 0.357579 0.911733
vt 0.346054 0.905573
vt 0.354169 0.908934
vt 0.350277 0.906854
vt 0.362459 0.919036
vt 0.360379 0.915144
vt 0.363740 0.923258
vt 0.357579 0.943566
vt 0.363740 0.932041
vt 0.360379 0.940155
vt 0.362459 0.936264
vt 0.350277 0.948446
vt 0.354169 0.946366
vt 0.346054 0.949727
vt 0.323178 0.979541
vt 0.334142 0.982867
vt 0.313073 0.974140
vt 0.287097 0.925542
vt 0.296947 0.958014
vt 0.304216 0.966871
vt 0.288220 0.936945
vt 0.291546 0.947909
vt 0.291546 0.903175
vt 0.288220 0.914139
vt 0.304216 0.884213
vt 0.296947 0.893070
vt 0.323178 0.871543
vt 0.313073 0.876944
vt 0.334142 0.868217
vt 0.356947 0.868217
vt 0.345545 0.867094
vt 0.378017 0.876944
vt 0.367912 0.871543
vt 0.394143 0.893070
vt 0.402870 0.914139
vt 0.399544 0.903175
vt 0.386874 0.966871
vt 0.402870 0.936944
vt 0.394143 0.958014
vt 0.399544 0.947909
vt 0.378017 0.974140
vt 0.356947 0.982867
vt 0.367912 0.979541
vn 0.098000 0.000000 -0.995200
vn 0.290300 0.000000 -0.956900
vn 0.471400 0.000000 -0.881900
vn 0.634400 0.000000 -0.773000
vn 0.773000 0.000000 -0.634400
vn 0.881900 0.000000 -0.471400
vn 0.956900 0.000000 -0.290300
vn 0.995200 0.000000 -0.098000
vn 0.995200 0.000000 0.098000
vn 0.956900 0.000000 0.290300
vn 0.881900 0.000000 0.471400
vn 0.773000 0.000000 0.634400
vn 0.634400 0.000000 0.773000
vn 0.471400 0.000000 0.881900
vn 0.290300 0.000000 0.956900
vn 0.098000 0.000000 0.995200
vn -0.098000 0.000000 0.995200
vn -0.290300 0.000000 0.956900
vn -0.471400 0.000000 0.881900
vn -0.634400 0.000000 0.773000
vn -0.773000 0.000000 0.634400
vn -0.881900 0.000000 0.471400
vn -0.956900 0.000000 0.290300
vn -0.995200 0.000000 0.098000
vn -0.995200 0.000000 -0.098000
vn -0.956900 0.000000 -0.290300
vn -0.881900 0.000000 -0.471400
vn -0.773000 0.000000 -0.634400
vn -0.634400 0.000000 -0.773000
vn -0.471400 0.000000 -0.881900
vn 0.000000 1.000000 0.000000
vn -0.098000 0.000000 -0.995200
vn -0.290300 0.000000 -0.956900
vn 0.000000 -1.000000 0.000000
s off
f 2/1/1 4/2/1 3/3/1
f 4/2/2 6/4/2 5/5/2
f 6/4/3 8/6/3 7/7/3
f 8/6/4 10/8/4 9/9/4
f 10/8/5 12/10/5 11/11/5
f 12/10/6 14/12/6 13/13/6
f 14/12/7 16/14/7 15/15/7
f 16/14/8 18/16/8 17/17/8
f 18/16/9 20/18/9 19/19/9
f 20/18/10 22/20/10 21/21/10
f 22/20/11 24/22/11 23/23/11
f 24/22/12 26/24/12 25/25/12
f 26/24/13 28/26/13 27/27/13
f 28/26/14 30/28/14 29/29/14
f 30/28/15 32/30/15 31/31/15
f 32/30/16 34/32/16 33/33/16
f 34/32/17 36/34/17 35/35/17
f 36/34/18 38/36/18 37/37/18
f 38/36/19 40/38/19 39/39/19
f 40/38/20 42/40/20 41/41/20
f 42/40/21 44/42/21 43/43/21
f 44/42/22 46/44/22 45/45/22
f 46/44/23 48/46/23 47/47/23
f 48/46/24 50/48/24 49/49/24
f 50/48/25 52/50/25 51/51/25
f 52/50/26 54/52/26 53/53/26
f 54/52/27 56/54/27 55/55/27
f 56/54/28 58/56/28 57/57/28
f 58/56/29 60/58/29 59/59/29
f 60/58/30 62/60/30 61/61/30
f 4/62/31 60/63/31 36/64/31
f 64/65/32 2/1/32 1/66/32
f 62/60/33 64/65/33 63/67/33
f 1/68/34 17/69/34 33/70/34
f 66/71/1 68/72/1 67/73/1
f 68/72/2 70/74/2 69/75/2
f 70/74/3 72/76/3 71/77/3
f 72/76/4 74/78/4 73/79/4
f 74/78/5 76/80/5 75/81/5
f 76/80/6 78/82/6 77/83/6
f 78/82/7 80/84/7 79/85/7
f 80/84/8 82/86/8 81/87/8
f 82/86/9 84/88/9 83/89/9
f 84/88/10 86/90/10 85/91/10
f 86/90/11 88/92/11 87/93/11
f 88/92/12 90/94/12 89/95/12
f 90/94/13 92/96/13 91/97/13
f 92/96/14 94/98/14 93/99/14
f 94/98/15 96/100/15 95/101/15
f 96/100/16 98/102/16 97/103/16
f 98/102/17 100/104/17 99/105/17
f 100/104/18 102/106/18 101/107/18
f 102/106/19 104/108/19 103/109/19
f 104/108/20 106/110/20 105/111/20
f 106/110/21 108/112/21 107/113/21
f 108/112/22 110/114/22 109/115/22
f 110/114/23 112/116/23 111/117/23
f 112/116/24 114/118/24 113/119/24
f 114/118/25 116/120/25 115/121/25
f 116/120/26 118/122/26 117/123/26
f 118/122/27 120/124/27 119/125/27
f 120/124/28 122/126/28 121/127/28
f 122/126/29 124/128/29 123/129/29
f 124/128/30 126/130/30 125/131/30
f 68/72/31 124/128/31 100/104/31
f 128/132/32 66/71/32 65/133/32
f 126/130/33 128/132/33 127/134/33
f 65/135/34 81/136/34 89/137/34
f 1/66/1 2/1/1 3/3/1
f 3/3/2 4/2/2 5/5/2
f 5/5/3 6/4/3 7/7/3
f 7/7/4 8/6/4 9/9/4
f 9/9/5 10/8/5 11/11/5
f 11/11/6 12/10/6 13/13/6
f 13/13/7 14/12/7 15/15/7
f 15/15/8 16/14/8 17/17/8
f 17/17/9 18/16/9 19/19/9
f 19/19/10 20/18/10 21/21/10
f 21/21/11 22/20/11 23/23/11
f 23/23/12 24/22/12 25/25/12
f 25/25/13 26/24/13 27/27/13
f 27/27/14 28/26/14 29/29/14
f 29/29/15 30/28/15 31/31/15
f 31/31/16 32/30/16 33/33/16
f 33/33/17 34/32/17 35/35/17
f 35/35/18 36/34/18 37/37/18
f 37/37/19 38/36/19 39/39/19
f 39/39/20 40/38/20 41/41/20
f 41/41/21 42/40/21 43/43/21
f 43/43/22 44/42/22 45/45/22
f 45/45/23 46/44/23 47/47/23
f 47/47/24 48/46/24 49/49/24
f 49/49/25 50/48/25 51/51/25
f 51/51/26 52/50/26 53/53/26
f 53/53/27 54/52/27 55/55/27
f 55/55/28 56/54/28 57/57/28
f 57/57/29 58/56/29 59/59/29
f 59/59/30 60/58/30 61/61/30
f 8/138/31 6/139/31 4/62/31
f 4/62/31 10/140/31 8/138/31
f 16/141/31 14/142/31 12/143/31
f 20/144/31 18/145/31 16/141/31
f 28/146/31 22/147/31 20/144/31
f 28/146/31 26/148/31 24/149/31
f 32/150/31 30/151/31 28/146/31
f 36/64/31 34/152/31 32/150/31
f 40/153/31 38/154/31 36/64/31
f 44/155/31 42/156/31 40/153/31
f 48/157/31 46/158/31 44/155/31
f 44/155/31 50/159/31 48/157/31
f 56/160/31 54/161/31 52/162/31
f 52/162/31 58/163/31 56/160/31
f 64/164/31 62/165/31 60/63/31
f 4/62/31 2/166/31 64/164/31
f 12/143/31 10/140/31 4/62/31
f 4/62/31 16/141/31 12/143/31
f 28/146/31 24/149/31 22/147/31
f 36/64/31 32/150/31 28/146/31
f 52/162/31 40/153/31 36/64/31
f 52/162/31 50/159/31 44/155/31
f 60/63/31 58/163/31 52/162/31
f 4/62/31 64/164/31 60/63/31
f 20/144/31 16/141/31 4/62/31
f 4/62/31 28/146/31 20/144/31
f 52/162/31 44/155/31 40/153/31
f 36/64/31 60/63/31 52/162/31
f 36/64/31 28/146/31 4/62/31
f 63/67/32 64/65/32 1/66/32
f 61/61/33 62/60/33 63/67/33
f 61/167/34 63/168/34 1/68/34
f 57/169/34 59/170/34 61/167/34
f 53/171/34 55/172/34 57/169/34
f 49/173/34 51/174/34 53/171/34
f 41/175/34 47/176/34 49/173/34
f 41/175/34 43/177/34 45/178/34
f 37/179/34 39/180/34 41/175/34
f 33/70/34 35/181/34 37/179/34
f 25/182/34 31/183/34 33/70/34
f 25/182/34 27/184/34 29/185/34
f 21/186/34 23/187/34 25/182/34
f 17/69/34 19/188/34 21/186/34
f 9/189/34 15/190/34 17/69/34
f 9/189/34 11/191/34 13/192/34
f 5/193/34 7/194/34 9/189/34
f 9/189/34 3/195/34 5/193/34
f 49/173/34 61/167/34 1/68/34
f 49/173/34 53/171/34 57/169/34
f 41/175/34 45/178/34 47/176/34
f 49/173/34 37/179/34 41/175/34
f 25/182/34 29/185/34 31/183/34
f 33/70/34 21/186/34 25/182/34
f 9/189/34 13/192/34 15/190/34
f 1/68/34 3/195/34 9/189/34
f 49/173/34 57/169/34 61/167/34
f 33/70/34 37/179/34 49/173/34
f 17/69/34 21/186/34 33/70/34
f 1/68/34 9/189/34 17/69/34
f 33/70/34 49/173/34 1/68/34
f 65/133/1 66/71/1 67/73/1
f 67/73/2 68/72/2 69/75/2
f 69/75/3 70/74/3 71/77/3
f 71/77/4 72/76/4 73/79/4
f 73/79/5 74/78/5 75/81/5
f 75/81/6 76/80/6 77/83/6
f 77/83/7 78/82/7 79/85/7
f 79/85/8 80/84/8 81/87/8
f 81/87/9 82/86/9 83/89/9
f 83/89/10 84/88/10 85/91/10
f 85/91/11 86/90/11 87/93/11
f 87/93/12 88/92/12 89/95/12
f 89/95/13 90/94/13 91/97/13
f 91/97/14 92/96/14 93/99/14
f 93/99/15 94/98/15 95/101/15
f 95/101/16 96/100/16 97/103/16
f 97/103/17 98/102/17 99/105/17
f 99/105/18 100/104/18 101/107/18
f 101/107/19 102/106/19 103/109/19
f 103/109/20 104/108/20 105/111/20
f 105/111/21 106/110/21 107/113/21
f 107/113/22 108/112/22 109/115/22
f 109/115/23 110/114/23 111/117/23
f 111/117/24 112/116/24 113/119/24
f 113/119/25 114/118/25 115/121/25
f 115/121/26 116/120/26 117/123/26
f 117/123/27 118/122/27 119/125/27
f 119/125/28 120/124/28 121/127/28
f 121/127/29 122/126/29 123/129/29
f 123/129/30 124/128/30 125/131/30
f 72/76/31 70/74/31 68/72/31
f 76/80/31 74/78/31 72/76/31
f 80/84/31 78/82/31 76/80/31
f 84/88/31 82/86/31 80/84/31
f 88/92/31 86/90/31 84/88/31
f 92/96/31 90/94/31 88/92/31
f 100/104/31 94/98/31 92/96/31
f 100/104/31 98/102/31 96/100/31
f 104/108/31 102/106/31 100/104/31
f 108/112/31 106/110/31 104/108/31
f 112/116/31 110/114/31 108/112/31
f 116/120/31 114/118/31 112/116/31
f 120/124/31 118/122/31 116/120/31
f 124/128/31 122/126/31 120/124/31
f 128/132/31 126/130/31 124/128/31
f 68/72/31 66/71/31 128/132/31
f 76/80/31 72/76/31 68/72/31
f 84/88/31 80/84/31 76/80/31
f 100/104/31 88/92/31 84/88/31
f 100/104/31 96/100/31 94/98/31
f 108/112/31 104/108/31 100/104/31
f 100/104/31 112/116/31 108/112/31
f 124/128/31 120/124/31 116/120/31
f 68/72/31 128/132/31 124/128/31
f 84/88/31 76/80/31 68/72/31
f 100/104/31 92/96/31 88/92/31
f 116/120/31 112/116/31 100/104/31
f 100/104/31 124/128/31 116/120/31
f 100/104/31 84/88/31 68/72/31
f 127/134/32 128/132/32 65/133/32
f 125/131/33 126/130/33 127/134/33
f 125/196/34 127/197/34 65/135/34
f 65/135/34 123/198/34 125/196/34
f 113/199/34 119/200/34 121/201/34
f 113/199/34 115/202/34 117/203/34
f 109/204/34 111/205/34 113/199/34
f 105/206/34 107/207/34 109/204/34
f 101/208/34 103/209/34 105/206/34
f 105/206/34 99/210/34 101/208/34
f 89/137/34 95/211/34 97/212/34
f 89/137/34 91/213/34 93/214/34
f 81/136/34 87/215/34 89/137/34
f 81/136/34 83/216/34 85/217/34
f 73/218/34 79/219/34 81/136/34
f 73/218/34 75/220/34 77/221/34
f 65/135/34 71/222/34 73/218/34
f 65/135/34 67/223/34 69/224/34
f 121/201/34 123/198/34 65/135/34
f 113/199/34 117/203/34 119/200/34
f 97/212/34 109/204/34 113/199/34
f 97/212/34 99/210/34 105/206/34
f 89/137/34 93/214/34 95/211/34
f 81/136/34 85/217/34 87/215/34
f 73/218/34 77/221/34 79/219/34
f 65/135/34 69/224/34 71/222/34
f 113/199/34 121/201/34 65/135/34
f 97/212/34 105/206/34 109/204/34
f 65/135/34 89/137/34 97/212/34
f 65/135/34 73/218/34 81/136/34
f 97/212/34 113/199/34 65/135/34
