v 0.001433 0.000347 -0.020503
v 0.001433 0.061694 -0.020503
v 0.005334 0.000347 -0.020118
v 0.005334 0.061694 -0.020118
v 0.009085 0.000347 -0.018980
v 0.009085 0.061694 -0.018980
v 0.012542 0.000347 -0.017133
v 0.012542 0.061694 -0.017133
v 0.015572 0.000347 -0.014646
v 0.015572 0.061694 -0.014646
v 0.018059 0.000347 -0.011616
v 0.018059 0.061694 -0.011616
v 0.019907 0.000347 -0.008159
v 0.019907 0.061694 -0.008159
v 0.021044 0.000347 -0.004408
v 0.021044 0.061694 -0.004408
v 0.021429 0.000347 -0.000507
v 0.021429 0.061694 -0.000507
v 0.021044 0.000347 0.003394
v 0.021044 0.061694 0.003394
v 0.019907 0.000347 0.007145
v 0.019907 0.061694 0.007145
v 0.018059 0.000347 0.010602
v 0.018059 0.061694 0.010602
v 0.015572 0.000347 0.013632
v 0.015572 0.061694 0.013632
v 0.012542 0.000347 0.016119
v 0.012542 0.061694 0.016119
v 0.009085 0.000347 0.017966
v 0.009085 0.061694 0.017966
v 0.005334 0.000347 0.019104
v 0.005334 0.061694 0.019104
v 0.001433 0.000347 0.019488
v 0.001433 0.061694 0.019488
v -0.002468 0.000347 0.019104
v -0.002468 0.061694 0.019104
v -0.006219 0.000347 0.017966
v -0.006219 0.061694 0.017966
v -0.009676 0.000347 0.016119
v -0.009676 0.061694 0.016119
v -0.012706 0.000347 0.013632
v -0.012706 0.061694 0.013632
v -0.015193 0.000347 0.010602
v -0.015193 0.061694 0.010602
v -0.017040 0.000347 0.007145
v -0.017040 0.061694 0.007145
v -0.018178 0.000347 0.003394
v -0.018178 0.061694 0.003394
v -0.018562 0.000347 -0.000507
v -0.018562 0.061694 -0.000507
v -0.018178 0.000347 -0.004408
v -0.018178 0.061694 -0.004408
v -0.017040 0.000347 -0.008159
v -0.017040 0.061694 -0.008159
v -0.015192 0.000347 -0.011616
v -0.015192 0.061694 -0.011616
v -0.012706 0.000347 -0.014646
v -0.012706 0.061694 -0.014646
v -0.009676 0.000347 -0.017133
v -0.009676 0.061694 -0.017133
v -0.006219 0.000347 -0.018980
v -0.006219 0.061694 -0.018980
v -0.002468 0.000347 -0.020118
v -0.002468 0.061694 -0.020118
v 0.001210 0.059731 -0.029296
v 0.001210 0.068610 -0.029296
v 0.006986 0.059731 -0.028727
v 0.006986 0.068610 -0.028727
v 0.012540 0.059731 -0.027042
v 0.012540 0.068610 -0.027042
v 0.017659 0.059731 -0.024306
v 0.017659 0.068610 -0.024306
v 0.022146 0.059731 -0.020624
v 0.022146 0.068610 -0.020624
v 0.025828 0.059731 -0.016137
v 0.025828 0.068610 -0.016137
v 0.028564 0.059731 -0.011019
v 0.028564 0.068610 -0.011019
v 0.030249 0.059731 -0.005465
v 0.030249 0.068610 -0.005465
v 0.030818 0.059731 0.000312
v 0.030818 0.068610 0.000312
v 0.030249 0.059731 0.006088
v 0.030249 0.068610 0.006088
v 0.028564 0.059731 0.011642
v 0.028564 0.068610 0.011642
v 0.025828 0.059731 0.016761
v 0.025828 0.068610 0.016761
v 0.022146 0.059731 0.021247
v 0.022146 0.068610 0.021247
v 0.017659 0.059731 0.024929
v 0.017659 0.068610 0.024929
v 0.012540 0.059731 0.027665
v 0.012540 0.068610 0.027665
v 0.006986 0.059731 0.029350
v 0.006986 0.068610 0.029350
v 0.001210 0.059731 0.029919
v 0.001210 0.068610 0.029919
v -0.004566 0.059731 0.029350
v -0.004566 0.068610 0.029350
v -0.010120 0.059731 0.027665
v -0.010120 0.068610 0.027665
v -0.015239 0.059731 0.024929
v -0.015239 0.068610 0.024929
v -0.019726 0.059731 0.021247
v -0.019726 0.068610 0.021247
v -0.023408 0.059731 0.016761
v -0.023408 0.068610 0.016761
v -0.026144 0.059731 0.011642
v -0.026144 0.068610 0.011642
v -0.027829 0.059731 0.006088
v -0.027829 0.068610 0.006088
v -0.028397 0.059731 0.000312
v -0.028397 0.068610 0.000312
v -0.027828 0.059731 -0.005465
v -0.027828 0.068610 -0.005465
v -0.026144 0.059731 -0.011019
v -0.026144 0.068610 -0.011019
v -0.023408 0.059731 -0.016138
v -0.023408 0.068610 -0.016138
v -0.019726 0.059731 -0.020624
v -0.019726 0.068610 -0.020624
v -0.015239 0.059731 -0.024306
v -0.015239 0.068610 -0.024306
v -0.010120 0.059731 -0.027042
v -0.010120 0.068610 -0.027042
v -0.004566 0.059731 -0.028727
v -0.004566 0.068610 -0.028727
vt 0.889945 0.983349
vt 0.914573 0.983349
vt 0.914573 0.596051
vt 0.938254 0.983349
vt 0.938254 0.596051
vt 0.960079 0.983349
vt 0.960079 0.596051
vt 0.979208 0.983349
vt 0.979208 0.596051
vt 0.979133 0.983349
vt 0.960004 0.983349
vt 0.960004 0.596051
vt 0.938179 0.983349
vt 0.938179 0.596051
vt 0.914498 0.983349
vt 0.914498 0.596051
vt 0.889870 0.596051
vt 0.865243 0.983349
vt 0.865243 0.596051
vt 0.841562 0.983349
vt 0.841562 0.596051
vt 0.819737 0.983349
vt 0.819737 0.596051
vt 0.800607 0.983349
vt 0.800607 0.596051
vt 0.982043 0.559569
vt 0.962913 0.559569
vt 0.962913 0.172272
vt 0.941088 0.559569
vt 0.941088 0.172272
vt 0.917407 0.559569
vt 0.917407 0.172272
vt 0.892780 0.559569
vt 0.892780 0.172272
vt 0.868152 0.559569
vt 0.868152 0.172272
vt 0.844471 0.559569
vt 0.844471 0.172272
vt 0.822646 0.559569
vt 0.822646 0.172272
vt 0.803517 0.559569
vt 0.803517 0.172272
vt 0.803442 0.559569
vt 0.844396 0.559569
vt 0.844396 0.172272
vt 0.868078 0.559569
vt 0.868078 0.172272
vt 0.892705 0.559569
vt 0.892705 0.172272
vt 0.917333 0.559569
vt 0.917333 0.172272
vt 0.941014 0.559569
vt 0.941014 0.172272
vt 0.962839 0.559569
vt 0.962839 0.172272
vt 0.981968 0.172272
vt 0.800682 0.983349
vt 0.819812 0.983349
vt 0.819812 0.596051
vt 0.609848 0.423135
vt 0.461410 0.323951
vt 0.560593 0.175512
vt 0.865318 0.983349
vt 0.865318 0.596051
vt 0.579864 0.999207
vt 0.706100 0.872971
vt 0.579864 0.746734
vt 0.539876 0.713596
vt 0.576342 0.713596
vt 0.576342 0.657542
vt 0.611407 0.713596
vt 0.611407 0.657542
vt 0.643723 0.713596
vt 0.643723 0.657542
vt 0.672049 0.713596
vt 0.672049 0.657542
vt 0.415740 0.713596
vt 0.387415 0.713596
vt 0.387415 0.657542
vt 0.639888 0.713596
vt 0.607572 0.713596
vt 0.607572 0.657542
vt 0.572507 0.713596
vt 0.572507 0.657542
vt 0.536041 0.713596
vt 0.536041 0.657542
vt 0.499575 0.713596
vt 0.499575 0.657542
vt 0.464510 0.713596
vt 0.464510 0.657542
vt 0.432194 0.713596
vt 0.432194 0.657542
vt 0.403868 0.713596
vt 0.403868 0.657542
vt 0.415323 0.715013
vt 0.386998 0.715013
vt 0.386998 0.658959
vt 0.539876 0.657542
vt 0.503410 0.713596
vt 0.503410 0.657542
vt 0.468345 0.713596
vt 0.468345 0.657542
vt 0.436029 0.713596
vt 0.436029 0.657542
vt 0.407703 0.713596
vt 0.407703 0.657542
vt 0.656342 0.713596
vt 0.684668 0.713596
vt 0.684668 0.657542
vt 0.639889 0.657542
vt 0.668214 0.713596
vt 0.668214 0.657542
vt 0.660177 0.713596
vt 0.688503 0.713596
vt 0.688503 0.657542
vt 0.233350 0.987530
vt 0.013555 0.840668
vt 0.160418 0.620872
vt 0.225230 0.526240
vt 0.357403 0.471492
vt 0.225230 0.152399
vt 0.979133 0.596051
vt 0.803442 0.172272
vt 0.800682 0.596051
vt 0.690183 0.369457
vt 0.633530 0.415951
vt 0.674484 0.388586
vt 0.655354 0.404286
vt 0.709032 0.274696
vt 0.701848 0.347632
vt 0.711458 0.299323
vt 0.709032 0.323951
vt 0.655354 0.194361
vt 0.701848 0.251015
vt 0.674484 0.210060
vt 0.690183 0.229190
vt 0.609848 0.175512
vt 0.633530 0.182696
vt 0.585221 0.173087
vt 0.515087 0.194361
vt 0.536912 0.182696
vt 0.480259 0.229190
vt 0.495958 0.210061
vt 0.468593 0.251015
vt 0.458984 0.299323
vt 0.461409 0.274696
vt 0.515087 0.404286
vt 0.468593 0.347632
vt 0.495958 0.388586
vt 0.480259 0.369457
vt 0.560593 0.423135
vt 0.536912 0.415951
vt 0.585221 0.425560
vt 0.531555 0.989598
vt 0.555236 0.996782
vt 0.509730 0.977933
vt 0.463236 0.921279
vt 0.474902 0.943104
vt 0.490601 0.962234
vt 0.453627 0.872971
vt 0.456052 0.897598
vt 0.463236 0.824662
vt 0.456052 0.848343
vt 0.490601 0.783708
vt 0.474901 0.802837
vt 0.509730 0.768009
vt 0.555236 0.749159
vt 0.531555 0.756343
vt 0.669127 0.783708
vt 0.604491 0.749159
vt 0.649997 0.768008
vt 0.628172 0.756343
vt 0.696491 0.824662
vt 0.684826 0.802837
vt 0.703675 0.848343
vt 0.696491 0.921279
vt 0.703675 0.897598
vt 0.669127 0.962234
vt 0.684826 0.943104
vt 0.628172 0.989598
vt 0.649997 0.977933
vt 0.604491 0.996782
vt 0.415740 0.657542
vt 0.415323 0.658959
vt 0.656342 0.657542
vt 0.660177 0.657542
vt 0.300731 0.959620
vt 0.268415 0.976893
vt 0.352303 0.908048
vt 0.329057 0.936374
vt 0.380213 0.840667
vt 0.369576 0.875732
vt 0.380213 0.767735
vt 0.383804 0.804201
vt 0.352303 0.700354
vt 0.369576 0.732670
vt 0.300731 0.648782
vt 0.329057 0.672028
vt 0.268415 0.631509
vt 0.196884 0.617281
vt 0.233350 0.620872
vt 0.093037 0.648782
vt 0.125353 0.631509
vt 0.064711 0.672029
vt 0.013555 0.767735
vt 0.024192 0.732670
vt 0.041465 0.700354
vt 0.009964 0.804201
vt 0.041466 0.908049
vt 0.024192 0.875733
vt 0.093037 0.959620
vt 0.064712 0.936374
vt 0.160418 0.987530
vt 0.125353 0.976893
vt 0.196884 0.991121
vt 0.153699 0.512011
vt 0.188764 0.522648
vt 0.121383 0.494738
vt 0.038310 0.339319
vt 0.069812 0.443167
vt 0.093058 0.471492
vt 0.041902 0.375786
vt 0.052539 0.410851
vt 0.052538 0.267788
vt 0.041902 0.302853
vt 0.093058 0.207147
vt 0.069812 0.235472
vt 0.153699 0.166627
vt 0.121383 0.183901
vt 0.188764 0.155991
vt 0.296762 0.166627
vt 0.261697 0.155991
vt 0.357403 0.207147
vt 0.329078 0.183901
vt 0.412151 0.339319
vt 0.380649 0.235472
vt 0.408559 0.302853
vt 0.397922 0.267788
vt 0.408559 0.375786
vt 0.380649 0.443167
vt 0.397922 0.410851
vt 0.296762 0.512011
vt 0.329078 0.494738
vt 0.261697 0.522648
vn 0.098000 0.000000 -0.995200
vn 0.290300 0.000000 -0.956900
vn 0.471400 0.000000 -0.881900
vn 0.634400 0.000000 -0.773000
vn 0.773000 0.000000 -0.634400
vn 0.881900 0.000000 -0.471400
vn 0.956900 0.000000 -0.290300
vn 0.995200 0.000000 -0.098000
vn 0.995200 0.000000 0.098000
vn 0.956900 0.000000 0.290300
vn 0.881900 0.000000 0.471400
vn 0.773000 0.000000 0.634400
vn 0.634400 0.000000 0.773000
vn 0.471400 0.000000 0.881900
vn 0.290300 0.000000 0.956900
vn 0.098000 0.000000 0.995200
vn -0.098000 0.000000 0.995200
vn -0.290300 0.000000 0.956900
vn -0.471400 0.000000 0.881900
vn -0.634400 0.000000 0.773000
vn -0.773000 0.000000 0.634400
vn -0.881900 0.000000 0.471400
vn -0.956900 0.000000 0.290300
vn -0.995200 0.000000 0.098000
vn -0.995200 0.000000 -0.098000
vn -0.956900 0.000000 -0.290300
vn -0.881900 0.000000 -0.471400
vn -0.773000 0.000000 -0.634400
vn -0.634400 0.000000 -0.773000
vn -0.471400 0.000000 -0.881900
vn 0.000000 1.000000 0.000000
vn -0.098000 0.000000 -0.995200
vn -0.290300 0.000000 -0.956900
vn 0.000000 -1.000000 -0.000000
s off
f 2/1/1 4/2/1 3/3/1
f 4/2/2 6/4/2 5/5/2
f 6/4/3 8/6/3 7/7/3
f 8/6/4 10/8/4 9/9/4
f 10/10/5 12/11/5 11/12/5
f 12/11/6 14/13/6 13/14/6
f 14/13/7 16/15/7 15/16/7
f 16/15/8 18/1/8 17/17/8
f 18/1/9 20/18/9 19/19/9
f 20/18/10 22/20/10 21/21/10
f 22/20/11 24/22/11 23/23/11
f 24/22/12 26/24/12 25/25/12
f 26/26/13 28/27/13 27/28/13
f 28/27/14 30/29/14 29/30/14
f 30/29/15 32/31/15 31/32/15
f 32/31/16 34/33/16 33/34/16
f 34/33/17 36/35/17 35/36/17
f 36/35/18 38/37/18 37/38/18
f 38/37/19 40/39/19 39/40/19
f 40/39/20 42/41/20 41/42/20
f 42/43/21 44/39/21 43/40/21
f 44/39/22 46/44/22 45/45/22
f 46/44/23 48/46/23 47/47/23
f 48/46/24 50/48/24 49/49/24
f 50/48/25 52/50/25 51/51/25
f 52/50/26 54/52/26 53/53/26
f 54/52/27 56/54/27 55/55/27
f 56/54/28 58/26/28 57/56/28
f 58/57/29 60/58/29 59/59/29
f 60/58/30 62/20/30 61/21/30
f 4/60/31 52/61/31 36/62/31
f 64/63/32 2/1/32 1/17/32
f 62/20/33 64/63/33 63/64/33
f 1/65/34 17/66/34 33/67/34
f 66/68/1 68/69/1 67/70/1
f 68/69/2 70/71/2 69/72/2
f 70/71/3 72/73/3 71/74/3
f 72/73/4 74/75/4 73/76/4
f 74/77/5 76/78/5 75/79/5
f 76/80/6 78/81/6 77/82/6
f 78/81/7 80/83/7 79/84/7
f 80/83/8 82/85/8 81/86/8
f 82/85/9 84/87/9 83/88/9
f 84/87/10 86/89/10 85/90/10
f 86/89/11 88/91/11 87/92/11
f 88/91/12 90/93/12 89/94/12
f 90/95/13 92/96/13 91/97/13
f 92/73/14 94/71/14 93/72/14
f 94/71/15 96/69/15 95/70/15
f 96/69/16 98/68/16 97/98/16
f 98/68/17 100/99/17 99/100/17
f 100/99/18 102/101/18 101/102/18
f 102/101/19 104/103/19 103/104/19
f 104/103/20 106/105/20 105/106/20
f 106/107/21 108/108/21 107/109/21
f 108/91/22 110/89/22 109/90/22
f 110/89/23 112/87/23 111/88/23
f 112/87/24 114/85/24 113/86/24
f 114/85/25 116/83/25 115/84/25
f 116/83/26 118/81/26 117/82/26
f 118/81/27 120/80/27 119/110/27
f 120/80/28 122/111/28 121/112/28
f 122/113/29 124/114/29 123/115/29
f 124/103/30 126/101/30 125/102/30
f 68/116/31 116/117/31 100/118/31
f 128/99/32 66/68/32 65/98/32
f 126/101/33 128/99/33 127/100/33
f 65/119/34 73/120/34 97/121/34
f 1/17/1 2/1/1 3/3/1
f 3/3/2 4/2/2 5/5/2
f 5/5/3 6/4/3 7/7/3
f 7/7/4 8/6/4 9/9/4
f 9/122/5 10/10/5 11/12/5
f 11/12/6 12/11/6 13/14/6
f 13/14/7 14/13/7 15/16/7
f 15/16/8 16/15/8 17/17/8
f 17/17/9 18/1/9 19/19/9
f 19/19/10 20/18/10 21/21/10
f 21/21/11 22/20/11 23/23/11
f 23/23/12 24/22/12 25/25/12
f 25/56/13 26/26/13 27/28/13
f 27/28/14 28/27/14 29/30/14
f 29/30/15 30/29/15 31/32/15
f 31/32/16 32/31/16 33/34/16
f 33/34/17 34/33/17 35/36/17
f 35/36/18 36/35/18 37/38/18
f 37/38/19 38/37/19 39/40/19
f 39/40/20 40/39/20 41/42/20
f 41/123/21 42/43/21 43/40/21
f 43/40/22 44/39/22 45/45/22
f 45/45/23 46/44/23 47/47/23
f 47/47/24 48/46/24 49/49/24
f 49/49/25 50/48/25 51/51/25
f 51/51/26 52/50/26 53/53/26
f 53/53/27 54/52/27 55/55/27
f 55/55/28 56/54/28 57/56/28
f 57/124/29 58/57/29 59/59/29
f 59/59/30 60/58/30 61/21/30
f 12/125/31 6/126/31 4/60/31
f 12/125/31 10/127/31 8/128/31
f 20/129/31 14/130/31 12/125/31
f 20/129/31 18/131/31 16/132/31
f 28/133/31 22/134/31 20/129/31
f 28/133/31 26/135/31 24/136/31
f 32/137/31 30/138/31 28/133/31
f 36/62/31 34/139/31 32/137/31
f 40/140/31 38/141/31 36/62/31
f 44/142/31 42/143/31 40/140/31
f 52/61/31 46/144/31 44/142/31
f 52/61/31 50/145/31 48/146/31
f 60/147/31 54/148/31 52/61/31
f 60/147/31 58/149/31 56/150/31
f 64/151/31 62/152/31 60/147/31
f 60/147/31 2/153/31 64/151/31
f 12/125/31 8/128/31 6/126/31
f 20/129/31 16/132/31 14/130/31
f 28/133/31 24/136/31 22/134/31
f 36/62/31 32/137/31 28/133/31
f 52/61/31 40/140/31 36/62/31
f 52/61/31 48/146/31 46/144/31
f 60/147/31 56/150/31 54/148/31
f 4/60/31 2/153/31 60/147/31
f 20/129/31 12/125/31 4/60/31
f 36/62/31 28/133/31 20/129/31
f 52/61/31 44/142/31 40/140/31
f 4/60/31 60/147/31 52/61/31
f 36/62/31 20/129/31 4/60/31
f 63/64/32 64/63/32 1/17/32
f 61/21/33 62/20/33 63/64/33
f 61/154/34 63/155/34 1/65/34
f 1/65/34 59/156/34 61/154/34
f 53/157/34 55/158/34 57/159/34
f 49/160/34 51/161/34 53/157/34
f 45/162/34 47/163/34 49/160/34
f 41/164/34 43/165/34 45/162/34
f 33/67/34 39/166/34 41/164/34
f 33/67/34 35/167/34 37/168/34
f 25/169/34 31/170/34 33/67/34
f 25/169/34 27/171/34 29/172/34
f 21/173/34 23/174/34 25/169/34
f 17/66/34 19/175/34 21/173/34
f 13/176/34 15/177/34 17/66/34
f 9/178/34 11/179/34 13/176/34
f 5/180/34 7/181/34 9/178/34
f 1/65/34 3/182/34 5/180/34
f 57/159/34 59/156/34 1/65/34
f 1/65/34 53/157/34 57/159/34
f 33/67/34 45/162/34 49/160/34
f 33/67/34 37/168/34 39/166/34
f 25/169/34 29/172/34 31/170/34
f 33/67/34 21/173/34 25/169/34
f 1/65/34 13/176/34 17/66/34
f 1/65/34 5/180/34 9/178/34
f 49/160/34 53/157/34 1/65/34
f 33/67/34 41/164/34 45/162/34
f 17/66/34 21/173/34 33/67/34
f 1/65/34 9/178/34 13/176/34
f 33/67/34 49/160/34 1/65/34
f 65/98/1 66/68/1 67/70/1
f 67/70/2 68/69/2 69/72/2
f 69/72/3 70/71/3 71/74/3
f 71/74/4 72/73/4 73/76/4
f 73/183/5 74/77/5 75/79/5
f 75/110/6 76/80/6 77/82/6
f 77/82/7 78/81/7 79/84/7
f 79/84/8 80/83/8 81/86/8
f 81/86/9 82/85/9 83/88/9
f 83/88/10 84/87/10 85/90/10
f 85/90/11 86/89/11 87/92/11
f 87/92/12 88/91/12 89/94/12
f 89/184/13 90/95/13 91/97/13
f 91/74/14 92/73/14 93/72/14
f 93/72/15 94/71/15 95/70/15
f 95/70/16 96/69/16 97/98/16
f 97/98/17 98/68/17 99/100/17
f 99/100/18 100/99/18 101/102/18
f 101/102/19 102/101/19 103/104/19
f 103/104/20 104/103/20 105/106/20
f 105/185/21 106/107/21 107/109/21
f 107/92/22 108/91/22 109/90/22
f 109/90/23 110/89/23 111/88/23
f 111/88/24 112/87/24 113/86/24
f 113/86/25 114/85/25 115/84/25
f 115/84/26 116/83/26 117/82/26
f 117/82/27 118/81/27 119/110/27
f 119/110/28 120/80/28 121/112/28
f 121/186/29 122/113/29 123/115/29
f 123/104/30 124/103/30 125/102/30
f 72/187/31 70/188/31 68/116/31
f 76/189/31 74/190/31 72/187/31
f 80/191/31 78/192/31 76/189/31
f 84/193/31 82/194/31 80/191/31
f 88/195/31 86/196/31 84/193/31
f 92/197/31 90/198/31 88/195/31
f 100/118/31 94/199/31 92/197/31
f 100/118/31 98/200/31 96/201/31
f 104/202/31 102/203/31 100/118/31
f 100/118/31 106/204/31 104/202/31
f 112/205/31 110/206/31 108/207/31
f 116/117/31 114/208/31 112/205/31
f 120/209/31 118/210/31 116/117/31
f 124/211/31 122/212/31 120/209/31
f 128/213/31 126/214/31 124/211/31
f 68/116/31 66/215/31 128/213/31
f 76/189/31 72/187/31 68/116/31
f 84/193/31 80/191/31 76/189/31
f 100/118/31 88/195/31 84/193/31
f 100/118/31 96/201/31 94/199/31
f 108/207/31 106/204/31 100/118/31
f 100/118/31 112/205/31 108/207/31
f 68/116/31 120/209/31 116/117/31
f 68/116/31 128/213/31 124/211/31
f 100/118/31 76/189/31 68/116/31
f 100/118/31 92/197/31 88/195/31
f 116/117/31 112/205/31 100/118/31
f 68/116/31 124/211/31 120/209/31
f 100/118/31 84/193/31 76/189/31
f 127/100/32 128/99/32 65/98/32
f 125/102/33 126/101/33 127/100/33
f 125/216/34 127/217/34 65/119/34
f 65/119/34 123/218/34 125/216/34
f 113/219/34 119/220/34 121/221/34
f 113/219/34 115/222/34 117/223/34
f 109/224/34 111/225/34 113/219/34
f 105/226/34 107/227/34 109/224/34
f 101/228/34 103/229/34 105/226/34
f 97/121/34 99/230/34 101/228/34
f 93/231/34 95/232/34 97/121/34
f 89/233/34 91/234/34 93/231/34
f 81/235/34 87/236/34 89/233/34
f 81/235/34 83/237/34 85/238/34
f 73/120/34 79/239/34 81/235/34
f 73/120/34 75/240/34 77/241/34
f 69/242/34 71/243/34 73/120/34
f 73/120/34 67/244/34 69/242/34
f 121/221/34 123/218/34 65/119/34
f 113/219/34 117/223/34 119/220/34
f 105/226/34 109/224/34 113/219/34
f 113/219/34 101/228/34 105/226/34
f 81/235/34 93/231/34 97/121/34
f 81/235/34 85/238/34 87/236/34
f 73/120/34 77/241/34 79/239/34
f 65/119/34 67/244/34 73/120/34
f 113/219/34 121/221/34 65/119/34
f 97/121/34 101/228/34 113/219/34
f 81/235/34 89/233/34 93/231/34
f 97/121/34 73/120/34 81/235/34
f 97/121/34 113/219/34 65/119/34
