v 3.000000 0.000000 -4.500000
v 3.000000 0.000000 0.000000
v -3.000000 0.000000 4.500000
v -3.000000 0.000000 0.000000
v 3.000000 3.000000 -4.500000
v 2.999999 3.000000 0.000000
v -3.000000 3.000000 4.500000
v -3.000000 3.000000 0.000000
v -7.000000 -0.000000 4.500000
v -7.000000 -0.000000 0.000000
v -7.000000 3.000000 4.500000
v -7.000000 3.000000 0.000000
v 7.000000 0.000000 -4.499999
v 7.000000 0.000000 0.000001
v 7.000001 3.000000 -4.499999
v 6.999999 3.000000 0.000001
vt 0.097564 0.767949
vt 0.089690 0.623898
vt 0.355253 0.767949
vt 0.394625 0.718733
vt 0.182215 0.606180
vt 0.136937 0.718733
vt 0.566418 0.911999
vt 0.566418 0.718733
vt 0.593102 0.311013
vt 0.593102 0.446664
vt 0.864404 0.446664
vt 0.133521 0.682032
vt 0.133521 0.875298
vt 0.305314 0.875298
vt 0.610820 0.332730
vt 0.610820 0.197079
vt 0.882121 0.197079
vt 0.856222 0.131868
vt 0.856222 0.267519
vt 0.652746 0.267519
vt 0.671724 0.531561
vt 0.671724 0.395910
vt 0.852592 0.395910
vt 0.482736 0.153523
vt 0.482736 0.289174
vt 0.663604 0.289174
vt 0.425602 0.823592
vt 0.425602 0.630326
vt 0.597394 0.630326
vt 0.673631 0.267704
vt 0.673631 0.403354
vt 0.877108 0.403354
vt 0.846317 0.354385
vt 0.846317 0.218734
vt 0.665449 0.218734
vt 0.866126 0.427162
vt 0.866126 0.562813
vt 0.685259 0.562813
vt 0.576261 0.701537
vt 0.576261 0.894803
vt 0.404469 0.894803
vt 0.298163 0.874595
vt 0.394626 0.911999
vt 0.864404 0.311013
vt 0.305314 0.682032
vt 0.882121 0.332730
vt 0.652746 0.131868
vt 0.852592 0.531561
vt 0.663604 0.153523
vt 0.597394 0.823592
vt 0.877108 0.267704
vt 0.665449 0.354385
vt 0.685259 0.427162
vt 0.404469 0.701537
vn 0.000000 1.000000 0.000000
vn 0.000000 -1.000000 0.000000
vn -0.600000 -0.000000 -0.800000
vn 0.600000 0.000000 0.800000
vn 1.000000 0.000000 0.000000
vn 0.000000 0.000000 1.000000
vn -0.000000 0.000000 -1.000000
vn -1.000000 -0.000000 -0.000000
f 4/1/1 3/2/1 2/3/1
f 6/4/2 7/5/2 8/6/2
f 15/7/2 16/8/2 6/4/2
f 3/9/3 7/10/3 6/11/3
f 11/12/2 12/13/2 8/14/2
f 8/15/4 4/16/4 1/17/4
f 10/18/5 12/19/5 11/20/5
f 12/21/6 10/22/6 4/23/6
f 9/24/7 11/25/7 7/26/7
f 10/27/1 9/28/1 3/29/1
f 14/30/8 16/31/8 15/32/8
f 16/33/7 14/34/7 2/35/7
f 13/36/6 15/37/6 5/38/6
f 14/39/1 13/40/1 1/41/1
f 1/42/1 4/1/1 2/3/1
f 5/43/2 6/4/2 8/6/2
f 5/43/2 15/7/2 6/4/2
f 2/44/3 3/9/3 6/11/3
f 7/45/2 11/12/2 8/14/2
f 5/46/4 8/15/4 1/17/4
f 9/47/5 10/18/5 11/20/5
f 8/48/6 12/21/6 4/23/6
f 3/49/7 9/24/7 7/26/7
f 4/50/1 10/27/1 3/29/1
f 13/51/8 14/30/8 15/32/8
f 6/52/7 16/33/7 2/35/7
f 1/53/6 13/36/6 5/38/6
f 2/54/1 14/39/1 1/41/1
