v -1.000000 0.000000 3.622603
v -1.000000 0.000000 -3.622603
v 5.000000 0.000000 -1.000000
v 5.000000 0.000000 1.000000
v -1.000000 2.740000 3.622603
v -1.000000 2.740000 -3.622603
v 5.000000 2.740000 -1.000000
v 5.000000 2.740000 1.000000
v 7.500000 0.000000 -1.000000
v 7.500000 0.000000 1.000000
v 7.500000 2.740000 -1.000000
v 7.500000 2.740000 1.000000
v -1.000000 0.200000 3.622603
v -1.000000 2.740000 0.000000
v -1.000000 0.200000 -3.622603
v -1.000000 0.000000 0.000000
v -1.000000 0.200000 0.000000
v -1.200000 0.200000 3.622603
v -1.200000 0.200000 -3.622603
v -1.200000 0.200000 0.000000
v -1.200000 0.400000 3.622603
v -1.200000 0.400000 -3.622603
v -1.200000 0.400000 0.000000
v -1.400000 0.400000 3.622603
v -1.400000 0.400000 -3.622603
v -1.400000 0.400000 0.000000
v -1.400000 0.600000 3.622603
v -1.400000 0.600000 -3.622603
v -1.400000 0.600000 0.000000
v -1.600000 0.600000 3.622603
v -1.600000 0.600000 -3.622603
v -1.600000 0.600000 0.000000
v -1.600000 0.800000 3.622603
v -1.600000 0.800000 -3.622603
v -1.600000 0.800000 0.000000
v -1.800000 0.800000 3.622603
v -1.800000 0.800000 -3.622603
v -1.800000 0.800000 0.000000
v -1.800000 1.000000 3.622603
v -1.800000 1.000000 -3.622603
v -1.800000 1.000000 0.000000
v -4.000000 1.000000 3.622603
v -4.000000 1.000000 -3.622603
v -4.000000 1.000000 0.000000
v -4.000000 2.740000 3.622603
v -4.000000 2.740000 -3.622603
v -4.000000 2.740000 0.000000
v -1.800000 2.740000 3.622603
v -1.800000 2.740000 -3.622603
v -1.800000 2.740000 0.000000
v -1.600000 2.740000 3.622603
v -1.600000 2.740000 -3.622603
v -1.600000 2.740000 0.000000
v -1.400000 2.740000 3.622603
v -1.400000 2.740000 -3.622603
v -1.400000 2.740000 0.000000
v -1.200000 2.740000 3.622603
v -1.200000 2.740000 -3.622603
v -1.200000 2.740000 0.000000
v 19.000000 0.000000 -1.000000
v 19.000000 0.000000 1.000000
v 19.000000 2.740000 -1.000000
v 19.000000 2.740000 1.000000
v 8.388138 2.740000 3.012781
v 9.875000 0.000000 4.754455
v 10.944466 0.000000 5.278952
v 8.388138 0.000000 3.012781
v 14.250000 0.000000 -5.750000
v 12.250000 0.000000 -5.750000
v 14.250000 2.740000 -5.750000
v 12.250000 2.740000 -5.750000
v 14.250000 0.000000 5.750000
v 12.250000 0.000000 5.750000
v 14.250000 2.740000 5.750000
v 12.250000 2.740000 5.750000
v 9.875000 2.740000 4.754455
v 10.944466 2.740000 5.278952
v 8.388138 0.000000 -3.012781
v 9.875000 0.000000 -4.754455
v 10.944466 0.000000 -5.278952
v 8.388138 2.740000 -3.012781
v 9.875000 2.740000 -4.754455
v 10.944466 2.740000 -5.278952
v 18.111864 2.740000 -3.012781
v 16.625000 2.740000 -4.754455
v 15.555534 2.740000 -5.278952
v 18.111864 0.000000 -3.012781
v 16.625000 0.000000 -4.754455
v 15.555534 0.000000 -5.278952
v 18.111864 0.000000 3.012781
v 16.625000 0.000000 4.754455
v 15.555534 0.000000 5.278952
v 18.111864 2.740000 3.012781
v 16.625000 2.740000 4.754455
v 15.555534 2.740000 5.278952
v 8.650000 3.872555 -0.800000
v 8.650000 3.872555 0.800000
v 17.850000 3.872555 -0.800000
v 17.850000 3.872555 0.800000
v 9.360510 3.872555 2.410225
v 14.050000 3.872555 -4.600000
v 12.450000 3.872555 -4.600000
v 14.050000 3.872555 4.600000
v 12.450000 3.872555 4.600000
v 10.550000 3.872555 3.803564
v 11.405573 3.872555 4.223162
v 9.360510 3.872555 -2.410225
v 10.550000 3.872555 -3.803564
v 11.405573 3.872555 -4.223162
v 17.139492 3.872555 -2.410225
v 15.950000 3.872555 -3.803564
v 15.094427 3.872555 -4.223162
v 17.139492 3.872555 2.410225
v 15.950000 3.872555 3.803564
v 15.094427 3.872555 4.223162
v 10.145000 4.919635 -0.540000
v 10.145000 4.919635 0.540000
v 16.355001 4.919635 -0.540000
v 16.355001 4.919635 0.540000
v 10.624595 4.919635 1.626902
v 13.790000 4.919635 -3.105000
v 12.710000 4.919635 -3.105000
v 13.790000 4.919635 3.105000
v 12.710000 4.919635 3.105000
v 11.427500 4.919635 2.567406
v 12.005012 4.919635 2.850635
v 10.624595 4.919635 -1.626902
v 11.427500 4.919635 -2.567406
v 12.005012 4.919635 -2.850635
v 15.875406 4.919635 -1.626902
v 15.072500 4.919635 -2.567406
v 14.494988 4.919635 -2.850635
v 15.875406 4.919635 1.626902
v 15.072500 4.919635 2.567406
v 14.494988 4.919635 2.850635
v 13.250000 4.807784 0.000000
vt 0.649906 0.000889
vt 0.656353 0.001026
vt 0.654745 0.076463
vt 0.014354 0.757163
vt 0.334456 0.757163
vt 0.334456 0.891106
vt 0.235264 0.419610
vt 0.137495 0.419603
vt 0.137503 0.297392
vt 0.186408 0.004087
vt 0.235272 0.297399
vt 0.610241 0.175711
vt 0.854734 0.069323
vt 0.854491 0.216833
vt 0.456667 0.622423
vt 0.456667 0.756367
vt 0.334456 0.756367
vt 0.508308 0.256983
vt 0.508442 0.175543
vt 0.456667 0.757163
vt 0.456667 0.891106
vt 0.320268 0.595409
vt 0.320268 0.577931
vt 0.636847 0.577931
vt 0.730290 0.001086
vt 0.730287 0.046732
vt 0.672574 0.046728
vt 0.999051 0.067738
vt 0.993804 0.062491
vt 0.999055 0.001105
vt 0.003685 0.577931
vt 0.003685 0.560453
vt 0.320268 0.560453
vt 0.636847 0.560453
vt 0.003685 0.542975
vt 0.320268 0.542975
vt 0.636847 0.542975
vt 0.003685 0.525497
vt 0.320268 0.525497
vt 0.636847 0.525497
vt 0.003685 0.508019
vt 0.320268 0.508019
vt 0.636847 0.508019
vt 0.003685 0.490541
vt 0.320268 0.490541
vt 0.636847 0.490541
vt 0.003685 0.473063
vt 0.320268 0.473063
vt 0.636847 0.473063
vt 0.003685 0.455584
vt 0.320268 0.455585
vt 0.636847 0.455586
vt 0.003685 0.438106
vt 0.320268 0.438107
vt 0.636847 0.438108
vt 0.507005 0.606669
vt 0.594958 0.606663
vt 0.594968 0.751489
vt 0.507015 0.751495
vt 0.594978 0.896316
vt 0.825323 0.001093
vt 0.825320 0.046739
vt 0.920356 0.001100
vt 0.976407 0.364546
vt 0.886824 0.364398
vt 0.887067 0.216887
vt 0.976650 0.217035
vt 0.887309 0.069377
vt 0.878680 0.364385
vt 0.878923 0.216874
vt 0.879166 0.069363
vt 0.870536 0.364371
vt 0.870779 0.216860
vt 0.871022 0.069350
vt 0.862392 0.364358
vt 0.862635 0.216847
vt 0.862878 0.069336
vt 0.854248 0.364345
vt 0.978069 0.001104
vt 0.978065 0.046750
vt 0.983312 0.051997
vt 0.983315 0.001104
vt 0.988558 0.057244
vt 0.988562 0.001104
vt 0.993809 0.001105
vt 0.667331 0.001082
vt 0.667327 0.051974
vt 0.661496 0.062400
vt 0.662084 0.001081
vt 0.352737 0.927451
vt 0.396397 0.927451
vt 0.396397 0.987264
vt 0.154761 0.927451
vt 0.154761 0.987265
vt 0.124463 0.987265
vt 0.228718 0.987265
vt 0.198420 0.987265
vt 0.198420 0.927451
vt 0.700665 0.987265
vt 0.650674 0.987265
vt 0.650674 0.927451
vt 0.550714 0.927451
vt 0.550714 0.987264
vt 0.520416 0.987264
vt 0.594374 0.927451
vt 0.594374 0.987264
vt 0.748691 0.987265
vt 0.700665 0.927451
vt 0.624671 0.987265
vt 0.624671 0.927451
vt 0.048470 0.927451
vt 0.048470 0.987265
vt 0.000444 0.987265
vt 0.098460 0.927451
vt 0.098460 0.987265
vt 0.124463 0.927451
vt 0.352737 0.987265
vt 0.304712 0.987265
vt 0.304711 0.927451
vt 0.254721 0.987265
vt 0.254721 0.927451
vt 0.228718 0.927451
vt 0.444423 0.927451
vt 0.444423 0.987264
vt 0.494413 0.927451
vt 0.494413 0.987264
vt 0.520416 0.927451
vt 0.676081 0.445087
vt 0.712874 0.425274
vt 0.738013 0.461905
vt 0.809541 0.535482
vt 0.813396 0.494196
vt 0.858794 0.492204
vt 0.910383 0.609879
vt 0.877626 0.587342
vt 0.895895 0.549922
vt 0.839225 0.535890
vt 0.835035 0.577354
vt 0.789526 0.579085
vt 0.930271 0.501295
vt 0.904500 0.468864
vt 0.931426 0.439132
vt 0.951365 0.690419
vt 0.935133 0.646554
vt 0.971748 0.627133
vt 0.654676 0.389264
vt 0.696352 0.381251
vt 0.898748 0.519763
vt 0.869836 0.532082
vt 0.943520 0.413615
vt 0.982104 0.429938
vt 0.880494 0.482628
vt 0.717876 0.569715
vt 0.743621 0.602314
vt 0.716552 0.632043
vt 0.753160 0.522050
vt 0.770788 0.484623
vt 0.767732 0.588598
vt 0.749557 0.551279
vt 0.709639 0.492569
vt 0.951905 0.390571
vt 0.665727 0.641135
vt 0.704369 0.657590
vt 0.695911 0.680669
vt 0.682015 0.608251
vt 0.846708 0.449395
vt 0.876332 0.433888
vt 0.893377 0.414167
vt 0.900432 0.397073
vt 0.790014 0.444349
vt 0.768982 0.429246
vt 0.903839 0.696830
vt 0.894518 0.666761
vt 0.801444 0.622017
vt 0.787388 0.628413
vt 0.747513 0.674267
vt 0.742769 0.689981
vt 0.858027 0.627338
vt 0.830617 0.621041
vt 0.753560 0.404802
vt 0.771739 0.637450
vt 0.754618 0.657158
vt 0.817533 0.450511
vt 0.860731 0.442960
vt 0.905134 0.381380
vt 0.879213 0.642266
vt 0.744124 0.374680
vt 0.822649 0.696830
vt 0.825377 0.374680
vt 0.772408 0.940354
vt 0.772408 0.810184
vt 0.980785 0.940354
vt 0.014354 0.622423
vt 0.334456 0.622423
vt 0.648160 0.082773
vt 0.654608 0.082910
vt 0.014354 0.891106
vt 0.363497 0.004099
vt 0.009318 0.004075
vt 0.610107 0.257150
vt 0.636847 0.595409
vt 0.672577 0.001082
vt 0.993804 0.067737
vt 0.507025 0.896322
vt 0.920352 0.046745
vt 0.976892 0.069524
vt 0.978065 0.051996
vt 0.983311 0.057243
vt 0.988558 0.062490
vt 0.672574 0.051974
vt 0.667226 0.062455
vt 0.661193 0.076600
vt 0.003685 0.595410
vt 0.748690 0.927451
vt 0.000444 0.927451
vt 0.938844 0.579899
vt 0.778622 0.539020
vt 0.965935 0.462775
vt 0.992769 0.682634
vt 0.993061 0.400850
vt 0.654676 0.670271
vt 0.753375 0.896872
vt 0.827189 0.989311
vt 0.804271 0.977980
vt 0.926004 0.989311
vt 0.898026 0.999487
vt 0.855167 0.999487
vt 0.948922 0.977980
vt 0.999818 0.853666
vt 0.999818 0.896872
vt 0.980785 0.810184
vt 0.926004 0.761228
vt 0.948922 0.772559
vt 0.827190 0.761228
vt 0.855167 0.751052
vt 0.898027 0.751052
vt 0.804271 0.772559
vt 0.753375 0.853666
vt 0.014354 0.756367
vn 0.000000 0.000000 1.000000
vn -0.400500 0.000000 0.916300
vn 0.000000 1.000000 0.000000
vn 0.000000 -1.000000 0.000000
vn 0.000000 0.000000 -1.000000
vn 1.000000 0.000000 0.000000
vn -1.000000 0.000000 0.000000
vn 0.339400 0.000000 0.940600
vn -0.339400 0.000000 0.940600
vn 0.760500 0.000000 -0.649300
vn -0.339400 0.000000 -0.940600
vn 0.914900 0.000000 -0.403700
vn 0.339400 0.000000 -0.940600
vn 0.440300 0.000000 -0.897800
vn 0.914900 0.000000 0.403700
vn 0.760500 0.000000 0.649300
vn 0.440300 0.000000 0.897800
vn -0.914900 0.000000 0.403700
vn -0.760500 0.000000 0.649300
vn -0.440300 0.000000 0.897800
vn -0.914900 0.000000 -0.403700
vn -0.760500 0.000000 -0.649300
vn -0.440300 0.000000 -0.897800
vn -0.646800 -0.707200 -0.285400
vn -0.538200 -0.706500 0.459500
vn 0.701700 -0.712500 0.000000
vn 0.538200 -0.706500 -0.459500
vn 0.000000 -0.712500 0.701700
vn 0.538200 -0.706500 0.459500
vn -0.538200 -0.706500 -0.459500
vn -0.308800 -0.712800 0.629700
vn 0.238200 -0.712400 0.660100
vn -0.238200 -0.712400 0.660100
vn 0.000000 -0.712500 -0.701700
vn -0.646800 -0.707200 0.285400
vn 0.308800 -0.712800 -0.629700
vn -0.701700 -0.712500 0.000000
vn 0.646800 -0.707200 -0.285400
vn 0.308800 -0.712800 0.629700
vn 0.238200 -0.712400 -0.660100
vn 0.646800 -0.707200 0.285400
vn -0.308800 -0.712800 -0.629700
vn -0.238200 -0.712400 -0.660100
vn -0.252500 -0.819300 0.514800
vn 0.000000 -0.819100 0.573700
vn 0.194700 -0.819000 0.539700
vn -0.530100 -0.815000 0.233900
vn -0.573700 -0.819100 0.000000
vn 0.441200 -0.814500 0.376700
vn 0.252500 -0.819300 -0.514800
vn -0.252500 -0.819300 -0.514800
vn 0.530100 -0.815000 -0.233900
vn -0.530100 -0.815000 -0.233900
vn 0.000000 -0.819100 -0.573700
vn -0.194700 -0.819000 -0.539700
vn -0.441200 -0.814500 0.376700
vn -0.194700 -0.819000 0.539700
vn 0.252500 -0.819300 0.514800
vn 0.573700 -0.819100 0.000000
vn 0.530100 -0.815000 0.233900
vn 0.441200 -0.814500 -0.376700
vn -0.441200 -0.814500 -0.376700
vn 0.194700 -0.819000 -0.539700
vn -0.027800 -0.999300 0.023800
vn 0.027800 -0.999300 0.023800
vn -0.012200 -0.999400 0.033900
vn 0.015800 -0.999400 -0.032300
vn 0.000000 -0.999400 -0.036000
vn -0.012200 -0.999400 -0.033900
vn 0.033400 -0.999300 -0.014800
vn 0.036000 -0.999400 0.000000
vn -0.027800 -0.999300 -0.023800
vn -0.015800 -0.999400 0.032300
vn 0.015800 -0.999400 0.032300
vn -0.033400 -0.999300 0.014800
vn 0.033400 -0.999300 0.014800
vn 0.000000 -0.999400 0.036000
vn 0.012200 -0.999400 0.033900
vn 0.027800 -0.999300 -0.023800
vn 0.012200 -0.999400 -0.033900
vn -0.015800 -0.999400 -0.032300
vn -0.036000 -0.999400 0.000000
vn -0.033400 -0.999300 -0.014800
vn -0.400500 0.000000 -0.916300
vn 0.760600 0.000000 -0.649300
vn 0.760600 0.000000 0.649300
f 6/1/1 58/2/1 22/3/1
f 2/4/2 3/5/2 7/6/2
f 10/7/3 9/8/3 3/9/3
f 16/10/3 4/11/3 3/9/3
f 8/12/4 5/13/4 14/14/4
f 12/15/5 10/16/5 4/17/5
f 11/18/4 12/19/4 8/12/4
f 9/20/1 11/21/1 7/6/1
f 16/22/6 17/23/6 13/24/6
f 46/25/1 43/26/1 40/27/1
f 13/28/5 21/29/5 5/30/5
f 15/31/3 19/32/3 20/33/3
f 17/23/3 20/33/3 18/34/3
f 19/32/6 22/35/6 23/36/6
f 20/33/6 23/36/6 21/37/6
f 22/35/3 25/38/3 26/39/3
f 23/36/3 26/39/3 24/40/3
f 25/38/6 28/41/6 29/42/6
f 26/39/6 29/42/6 27/43/6
f 28/41/3 31/44/3 32/45/3
f 29/42/3 32/45/3 30/46/3
f 31/44/6 34/47/6 35/48/6
f 32/45/6 35/48/6 33/49/6
f 34/47/3 37/50/3 38/51/3
f 35/48/3 38/51/3 36/52/3
f 37/50/6 40/53/6 41/54/6
f 38/51/6 41/54/6 39/55/6
f 40/56/3 43/57/3 44/58/3
f 41/59/3 44/58/3 42/60/3
f 43/26/6 46/25/6 47/61/6
f 44/62/6 47/61/6 45/63/6
f 46/64/4 49/65/4 50/66/4
f 47/67/4 50/66/4 48/68/4
f 49/65/4 52/69/4 53/70/4
f 50/66/4 53/70/4 51/71/4
f 52/69/4 55/72/4 56/73/4
f 53/70/4 56/73/4 54/74/4
f 55/72/4 58/75/4 59/76/4
f 56/73/4 59/76/4 57/77/4
f 14/14/4 5/13/4 57/77/4
f 59/76/4 58/75/4 6/78/4
f 45/63/5 48/79/5 39/80/5
f 33/81/5 39/80/5 51/82/5
f 27/83/5 33/81/5 54/84/5
f 21/29/5 27/83/5 57/85/5
f 52/86/1 40/27/1 34/87/1
f 28/88/1 55/89/1 34/87/1
f 22/3/1 58/2/1 28/88/1
f 15/31/6 17/23/6 16/22/6
f 60/90/7 61/91/7 63/92/7
f 69/93/8 71/94/8 83/95/8
f 86/96/9 70/97/9 68/98/9
f 71/94/1 69/93/1 68/98/1
f 64/99/10 76/100/10 65/101/10
f 72/102/11 74/103/11 95/104/11
f 72/102/5 73/105/5 75/106/5
f 12/107/12 64/99/12 67/108/12
f 77/109/13 75/106/13 73/105/13
f 76/100/14 77/109/14 66/110/14
f 78/111/15 81/112/15 11/113/15
f 79/114/16 82/115/16 81/112/16
f 80/116/17 83/95/17 82/115/17
f 62/117/18 84/118/18 87/119/18
f 84/118/19 85/120/19 88/121/19
f 85/120/20 86/96/20 89/122/20
f 90/123/21 93/124/21 63/92/21
f 91/125/22 94/126/22 93/124/22
f 92/127/23 95/104/23 94/126/23
f 93/128/24 113/129/24 99/130/24
f 84/131/25 110/132/25 111/133/25
f 96/134/26 97/135/26 12/136/26
f 64/137/27 100/138/27 105/139/27
f 70/140/28 101/141/28 102/142/28
f 108/143/29 107/144/29 81/145/29
f 93/128/30 94/146/30 114/147/30
f 86/148/31 85/149/31 111/133/31
f 102/142/32 109/150/32 83/151/32
f 86/148/33 112/152/33 101/141/33
f 75/153/34 104/154/34 103/155/34
f 84/131/35 62/156/35 98/157/35
f 105/139/36 106/158/36 77/159/36
f 63/160/37 99/130/37 98/157/37
f 97/135/38 100/138/38 64/137/38
f 83/151/39 109/150/39 108/161/39
f 77/159/40 106/158/40 104/154/40
f 81/145/41 107/144/41 96/134/41
f 95/162/42 115/163/42 114/164/42
f 95/162/43 74/165/43 103/155/43
f 112/152/44 111/133/44 131/166/44
f 121/167/45 122/168/45 102/142/45
f 122/168/46 129/169/46 109/150/46
f 110/132/47 98/157/47 118/170/47
f 99/130/48 119/171/48 118/170/48
f 128/172/49 127/173/49 107/144/49
f 125/174/50 126/175/50 106/158/50
f 115/163/51 135/176/51 134/177/51
f 117/178/52 120/179/52 100/138/52
f 113/129/53 133/180/53 119/171/53
f 124/181/54 123/182/54 103/155/54
f 115/163/55 103/155/55 123/182/55
f 110/132/56 130/183/56 131/166/56
f 112/152/57 132/184/57 121/167/57
f 109/150/58 129/169/58 128/185/58
f 116/186/59 117/178/59 97/135/59
f 107/144/60 127/173/60 116/186/60
f 100/138/61 120/179/61 125/174/61
f 113/129/62 114/147/62 134/187/62
f 106/158/63 126/175/63 124/181/63
f 120/179/64 136/188/64 125/174/64
f 133/180/65 134/187/65 136/189/65
f 126/175/66 136/188/66 124/181/66
f 132/184/67 131/166/67 136/189/67
f 121/167/68 136/189/68 122/168/68
f 122/168/69 136/189/69 129/169/69
f 130/183/70 118/170/70 136/189/70
f 118/170/71 119/171/71 136/189/71
f 128/172/72 136/188/72 127/173/72
f 125/174/73 136/188/73 126/175/73
f 134/177/74 135/176/74 136/188/74
f 117/178/75 136/188/75 120/179/75
f 119/171/76 133/180/76 136/189/76
f 124/181/77 136/188/77 123/182/77
f 135/176/78 123/182/78 136/188/78
f 131/166/79 130/183/79 136/189/79
f 121/167/80 132/184/80 136/189/80
f 129/169/81 136/189/81 128/185/81
f 116/186/82 136/188/82 117/178/82
f 127/173/83 136/188/83 116/186/83
f 78/190/3 67/191/3 87/192/3
f 5/193/84 8/194/84 4/17/84
f 22/3/1 15/195/1 6/1/1
f 15/195/1 22/3/1 19/196/1
f 6/197/2 2/4/2 7/6/2
f 4/11/3 10/7/3 3/9/3
f 4/11/3 16/10/3 1/198/3
f 16/10/3 3/9/3 2/199/3
f 14/14/4 7/200/4 8/12/4
f 7/200/4 14/14/4 6/78/4
f 8/194/5 12/15/5 4/17/5
f 7/200/4 11/18/4 8/12/4
f 3/5/1 9/20/1 7/6/1
f 1/201/6 16/22/6 13/24/6
f 49/202/1 46/25/1 40/27/1
f 21/29/5 13/28/5 18/203/5
f 21/29/5 57/85/5 5/30/5
f 17/23/3 15/31/3 20/33/3
f 13/24/3 17/23/3 18/34/3
f 20/33/6 19/32/6 23/36/6
f 18/34/6 20/33/6 21/37/6
f 23/36/3 22/35/3 26/39/3
f 21/37/3 23/36/3 24/40/3
f 26/39/6 25/38/6 29/42/6
f 24/40/6 26/39/6 27/43/6
f 29/42/3 28/41/3 32/45/3
f 27/43/3 29/42/3 30/46/3
f 32/45/6 31/44/6 35/48/6
f 30/46/6 32/45/6 33/49/6
f 35/48/3 34/47/3 38/51/3
f 33/49/3 35/48/3 36/52/3
f 38/51/6 37/50/6 41/54/6
f 36/52/6 38/51/6 39/55/6
f 41/59/3 40/56/3 44/58/3
f 39/204/3 41/59/3 42/60/3
f 44/62/6 43/26/6 47/61/6
f 42/205/6 44/62/6 45/63/6
f 47/67/4 46/64/4 50/66/4
f 45/206/4 47/67/4 48/68/4
f 50/66/4 49/65/4 53/70/4
f 48/68/4 50/66/4 51/71/4
f 53/70/4 52/69/4 56/73/4
f 51/71/4 53/70/4 54/74/4
f 56/73/4 55/72/4 59/76/4
f 54/74/4 56/73/4 57/77/4
f 59/76/4 14/14/4 57/77/4
f 14/14/4 59/76/4 6/78/4
f 42/205/5 45/63/5 39/80/5
f 39/80/5 33/81/5 36/207/5
f 39/80/5 48/79/5 51/82/5
f 33/81/5 27/83/5 30/208/5
f 33/81/5 51/82/5 54/84/5
f 27/83/5 21/29/5 24/209/5
f 27/83/5 54/84/5 57/85/5
f 40/27/1 52/86/1 49/202/1
f 40/27/1 37/210/1 34/87/1
f 34/87/1 31/211/1 28/88/1
f 55/89/1 52/86/1 34/87/1
f 28/88/1 25/212/1 22/3/1
f 58/2/1 55/89/1 28/88/1
f 2/213/6 15/31/6 16/22/6
f 62/117/7 60/90/7 63/92/7
f 80/116/8 69/93/8 83/95/8
f 89/122/9 86/96/9 68/98/9
f 70/97/1 71/94/1 68/98/1
f 67/108/85 64/99/85 65/101/85
f 92/127/11 72/102/11 95/104/11
f 74/103/5 72/102/5 75/106/5
f 10/214/12 12/107/12 67/108/12
f 66/110/13 77/109/13 73/105/13
f 65/101/14 76/100/14 66/110/14
f 9/215/15 78/111/15 11/113/15
f 78/111/86 79/114/86 81/112/86
f 79/114/17 80/116/17 82/115/17
f 60/90/18 62/117/18 87/119/18
f 87/119/19 84/118/19 88/121/19
f 88/121/20 85/120/20 89/122/20
f 61/91/21 90/123/21 63/92/21
f 90/123/22 91/125/22 93/124/22
f 91/125/23 92/127/23 94/126/23
f 63/160/24 93/128/24 99/130/24
f 85/149/25 84/131/25 111/133/25
f 11/216/26 96/134/26 12/136/26
f 76/217/27 64/137/27 105/139/27
f 71/218/28 70/140/28 102/142/28
f 82/219/29 108/143/29 81/145/29
f 113/129/30 93/128/30 114/147/30
f 112/152/31 86/148/31 111/133/31
f 71/218/32 102/142/32 83/151/32
f 70/140/33 86/148/33 101/141/33
f 74/165/34 75/153/34 103/155/34
f 110/132/35 84/131/35 98/157/35
f 76/217/36 105/139/36 77/159/36
f 62/156/37 63/160/37 98/157/37
f 12/136/38 97/135/38 64/137/38
f 82/220/39 83/151/39 108/161/39
f 75/153/40 77/159/40 104/154/40
f 11/216/41 81/145/41 96/134/41
f 94/221/42 95/162/42 114/164/42
f 115/163/43 95/162/43 103/155/43
f 132/184/44 112/152/44 131/166/44
f 101/141/45 121/167/45 102/142/45
f 102/142/46 122/168/46 109/150/46
f 130/183/47 110/132/47 118/170/47
f 98/157/48 99/130/48 118/170/48
f 108/143/49 128/172/49 107/144/49
f 105/139/50 125/174/50 106/158/50
f 114/164/51 115/163/51 134/177/51
f 97/135/52 117/178/52 100/138/52
f 99/130/53 113/129/53 119/171/53
f 104/154/54 124/181/54 103/155/54
f 135/176/55 115/163/55 123/182/55
f 111/133/56 110/132/56 131/166/56
f 101/141/57 112/152/57 121/167/57
f 108/161/58 109/150/58 128/185/58
f 96/134/59 116/186/59 97/135/59
f 96/134/60 107/144/60 116/186/60
f 105/139/61 100/138/61 125/174/61
f 133/180/62 113/129/62 134/187/62
f 104/154/63 106/158/63 124/181/63
f 67/191/3 78/190/3 9/222/3
f 78/190/3 80/223/3 79/224/3
f 89/225/3 68/226/3 69/227/3
f 87/192/3 88/228/3 89/225/3
f 61/229/3 60/230/3 87/192/3
f 87/192/3 90/231/3 61/229/3
f 90/231/3 92/232/3 91/233/3
f 66/234/3 73/235/3 72/236/3
f 67/191/3 65/237/3 66/234/3
f 9/222/3 10/238/3 67/191/3
f 87/192/3 89/225/3 78/190/3
f 80/223/3 89/225/3 69/227/3
f 67/191/3 90/231/3 87/192/3
f 66/234/3 72/236/3 92/232/3
f 92/232/3 67/191/3 66/234/3
f 78/190/3 89/225/3 80/223/3
f 67/191/3 92/232/3 90/231/3
f 1/239/84 5/193/84 4/17/84
