v 6.527778 -0.000001 -11.000000
v -9.472221 0.000001 10.000000
v 6.527778 -0.000001 10.000000
v 6.527778 -0.000001 -0.327940
v -3.092053 0.000000 -3.000000
v 1.010450 -0.000000 -0.327940
v -3.092053 0.000000 -0.327940
v 6.527778 -0.000001 -0.630266
v -2.847220 0.000000 -11.000000
v 2.152780 -0.000000 -0.327940
v -3.092040 0.000000 -5.500000
v 1.010450 -0.000000 -0.630266
v -2.847222 0.000000 -3.000002
v 2.152778 -0.000000 -0.630266
v -2.847222 0.000000 -0.630268
v -2.847220 0.000000 -5.500000
v 6.527778 2.999999 -11.000000
v -9.472221 3.000001 10.000000
v 6.527778 2.999999 10.000000
v 6.527778 2.999999 -0.327940
v 6.527778 2.999999 -0.630266
v -2.847220 3.000000 -11.000000
v 2.152780 3.000000 -0.327940
v -3.092040 3.000000 -5.500000
v -2.847220 3.000000 -5.500000
v -3.092053 3.000000 -0.327940
v -2.847222 3.000000 -0.630268
v -3.092053 2.250000 -5.500000
v -2.847222 3.000000 -5.503323
v -3.092053 2.250000 -3.000000
v -2.847222 2.250000 -3.000002
v -2.847222 2.250000 -5.503323
v 1.010450 2.000000 -0.630266
v 1.010450 2.000000 -0.327940
v 2.152780 3.000000 -0.630266
v 2.152780 2.000000 -0.630266
v 2.152780 2.000000 -0.327940
v -1.051623 0.000000 -6.525462
v -0.475232 0.000000 -6.525462
v -1.051623 1.000000 -9.778665
v -0.475232 1.000000 -6.525462
v -1.051623 1.000000 -6.525462
v -1.475230 0.000000 -6.089908
v -1.475232 0.000000 -5.581037
v -1.475230 1.000000 -6.089908
v -1.475232 1.000000 -5.581037
v -2.847219 0.000000 -6.089914
v -2.847221 0.000000 -5.581043
v -2.847219 1.000000 -6.089914
v -2.847221 1.000000 -5.581043
v -1.051623 0.000000 -9.778665
v -0.475232 0.000000 -9.778665
v -0.475232 1.000000 -9.778665
v 3.900371 0.000000 -0.630266
v 3.900371 0.000000 -9.689104
v 3.900371 1.000000 -9.689104
v 4.476761 0.000000 -9.689104
v 4.476761 0.000000 -0.630266
v 3.900371 1.000000 -0.630266
v 4.476761 1.000000 -9.689104
v 4.476761 1.000000 -0.630266
v 3.799307 0.987688 -9.792489
v 3.799307 0.987688 -0.630266
v 4.577826 0.987688 -9.792489
v 4.577826 0.987688 -0.630266
v 3.799307 1.116557 -9.792489
v 3.799307 1.116557 -0.630266
v 4.577826 1.116557 -9.792489
v 4.577826 1.116557 -0.630266
v -1.077036 1.007756 -9.897249
v -0.424144 1.007756 -6.510700
v -1.077036 1.007756 -6.617458
v -1.522567 1.007756 -6.159361
v -1.475900 1.007756 -5.508228
v -2.850202 1.007756 -6.160202
v -2.849906 1.007756 -5.507399
v -0.424144 1.007756 -9.897249
v -1.077036 1.131100 -9.897249
v -0.424144 1.131100 -6.510700
v -1.077036 1.131100 -6.617458
v -1.522567 1.131100 -6.159361
v -1.475900 1.131100 -5.508228
v -2.850202 1.131100 -6.160202
v -2.849906 1.131100 -5.507399
v -0.424144 1.131100 -9.897249
v -3.092040 0.000000 -11.492830
v -3.092040 3.000000 -11.492830
v -9.472221 0.000001 -13.464457
v -9.472221 3.000001 -13.464457
v 0.090127 0.000000 -11.492830
v 0.090127 3.000000 -11.492830
v 0.090127 0.000000 -13.464457
v 0.090127 3.000000 -13.464457
vt 0.083182 0.343707
vt 0.092631 0.344020
vt 0.091582 0.380321
vt 0.751398 0.052230
vt 0.845953 0.052230
vt 0.845953 0.225579
vt 0.391116 0.750355
vt 0.391116 0.655801
vt 0.398833 0.655801
vt 0.505445 0.764997
vt 0.505445 0.670443
vt 0.832279 0.670443
vt 0.800927 0.861093
vt 0.800927 0.955648
vt 0.505445 0.955648
vt 0.818401 0.598422
vt 0.912955 0.598422
vt 0.912955 0.736313
vt 0.504674 0.764997
vt 0.000385 0.764998
vt 0.000385 0.670443
vt 0.505445 0.860322
vt 0.505445 0.765768
vt 0.830962 0.765768
vt 0.897005 0.406736
vt 0.991554 0.407657
vt 0.967189 0.482113
vt 0.906016 0.575118
vt 0.906016 0.669672
vt 0.776713 0.638154
vt 0.696826 0.769604
vt 0.625911 0.769604
vt 0.625910 0.761887
vt 0.547010 0.769606
vt 0.547115 0.761890
vt 0.542314 0.108266
vt 0.458096 0.037351
vt 0.542314 0.013712
vt 0.174247 0.669683
vt 0.174247 0.633679
vt 0.183775 0.633679
vt 0.192988 0.860323
vt 0.192988 0.765768
vt 0.202517 0.765768
vt 0.336089 0.011358
vt 0.214503 0.042876
vt 0.178499 0.011358
vt 0.174247 0.732719
vt 0.183775 0.669683
vt 0.801698 0.955648
vt 0.801698 0.861093
vt 0.939589 0.861093
vt 0.467860 0.908276
vt 0.486302 0.963296
vt 0.421562 0.976404
vt 0.918657 0.177488
vt 0.969651 0.158234
vt 0.979746 0.195238
vt 0.885274 0.111441
vt 0.934459 0.082409
vt 0.859968 0.816739
vt 0.858358 0.812993
vt 0.878936 0.812993
vt 0.108296 0.023365
vt 0.102853 0.299022
vt 0.072423 0.298422
vt 0.974464 0.363236
vt 0.922823 0.361612
vt 0.878135 0.848257
vt 0.859968 0.848257
vt 0.208297 0.925630
vt 0.350113 0.939234
vt 0.352139 0.987848
vt 0.410458 0.929888
vt 0.351774 0.990224
vt 0.196366 0.967768
vt 0.203642 0.965781
vt 0.424072 0.979167
vt 0.011972 0.242783
vt 0.015163 0.014505
vt 0.040363 0.014857
vt 0.035202 0.295967
vt 0.017035 0.295967
vt 0.017035 0.264449
vt 0.013850 0.261167
vt 0.038387 0.261167
vt 0.035202 0.264449
vt 0.013850 0.257106
vt 0.038387 0.257106
vt 0.044429 0.010842
vt 0.041156 0.243171
vt 0.067613 0.298297
vt 0.073117 0.019498
vt 0.077866 0.022764
vt 0.119721 0.549626
vt 0.125011 0.260899
vt 0.149544 0.261349
vt 0.048484 0.010913
vt 0.045211 0.243242
vt 0.062747 0.298184
vt 0.068251 0.019385
vt 0.858358 0.809106
vt 0.878936 0.809106
vt 0.351819 0.996256
vt 0.195536 0.973459
vt 0.425783 0.985621
vt 0.920290 0.371855
vt 0.923817 0.213322
vt 0.913984 0.178188
vt 0.875889 0.109734
vt 0.491605 0.971080
vt 0.926339 0.206929
vt 0.009376 0.910853
vt 0.029948 0.911199
vt 0.029200 0.953036
vt 0.043393 0.967326
vt 0.146751 0.969110
vt 0.146396 0.989685
vt 0.039674 0.987843
vt 0.008655 0.954153
vt 0.914994 0.371751
vt 0.917748 0.214216
vt 0.907454 0.180996
vt 0.869595 0.113251
vt 0.539172 0.990265
vt 0.469948 0.990934
vt 0.470951 0.984333
vt 0.794648 0.550514
vt 0.578287 0.378075
vt 0.510508 0.378244
vt 0.000386 0.860323
vt 0.000385 0.765768
vt 0.189268 0.765768
vt 0.504674 0.860323
vt 0.203288 0.860323
vt 0.203288 0.765768
vt 0.968929 0.669672
vt 0.906787 0.669672
vt 0.906787 0.575118
vt 0.685258 0.104166
vt 0.584962 0.104166
vt 0.584962 0.009612
vt 0.000385 0.669672
vt 0.000385 0.575118
vt 0.739938 0.575118
vt 0.081760 0.379986
vt 0.751398 0.225579
vt 0.398833 0.750355
vt 0.832279 0.764997
vt 0.505445 0.861093
vt 0.818401 0.736313
vt 0.504674 0.670443
vt 0.830962 0.860322
vt 0.990057 0.561239
vt 0.966420 0.561009
vt 0.896277 0.481421
vt 0.740709 0.669672
vt 0.740709 0.638154
vt 0.776713 0.575118
vt 0.696826 0.761888
vt 0.379301 0.013712
vt 0.458096 0.108266
vt 0.379301 0.037351
vt 0.202517 0.860323
vt 0.336089 0.105912
vt 0.178499 0.042876
vt 0.214503 0.105912
vt 0.183775 0.732719
vt 0.939589 0.955648
vt 0.878135 0.816739
vt 0.037171 0.243136
vt 0.144254 0.550075
vt 0.536039 0.982292
vt 0.437710 0.236229
vt 0.437415 0.117616
vt 0.157407 0.118313
vt 0.437787 0.267199
vt 0.445984 0.267179
vt 0.446245 0.371767
vt 0.510492 0.371607
vt 0.438065 0.378425
vt 0.578271 0.371438
vt 0.158488 0.552099
vt 0.445907 0.236209
vt 0.726752 0.116895
vt 0.445611 0.117595
vt 0.727385 0.371066
vt 0.794002 0.291263
vt 0.740548 0.291397
vt 0.740763 0.377670
vt 0.189268 0.860323
vt 0.504674 0.765768
vt 0.968929 0.575118
vt 0.685258 0.009612
vt 0.739938 0.669672
vt 0.000000 0.000000
vn -0.000000 -1.000000 0.000000
vn -1.000000 0.000000 0.000000
vn 0.000000 0.000000 -1.000000
vn 1.000000 0.000000 0.000000
vn -0.000000 0.000000 1.000000
vn 0.000000 1.000000 0.000000
vn 0.716900 0.000000 0.697200
vn 0.000000 0.997900 0.065300
vn -0.686600 0.000000 -0.727000
vn -0.150100 0.988700 0.000000
vn -0.101300 0.989200 -0.106300
vn 0.000000 0.993000 -0.118300
vn -0.120900 0.992700 0.000000
vn 0.120900 0.992700 0.000000
vn -0.689900 0.000000 -0.723900
vn 0.291900 0.956500 0.000000
vn -0.000100 0.994000 0.109700
vn -0.000100 0.994500 -0.104700
vn 0.067200 0.995600 0.065400
vn -0.000600 0.000000 1.000000
vn -0.000600 0.000000 -1.000000
vn -0.114600 0.986000 -0.121400
vn -0.000000 0.993800 0.111000
vn 0.000000 0.994400 -0.105900
s off
f 14/1/1 10/2/1 6/3/1
f 16/4/2 25/5/2 22/6/2
f 11/7/3 24/8/3 25/9/3
f 1/10/4 17/11/4 21/12/4
f 9/13/3 22/14/3 17/15/3
f 10/16/3 23/17/3 20/18/3
f 2/19/5 3/20/5 19/21/5
f 4/22/4 20/23/4 19/24/4
f 15/25/2 27/26/2 31/27/2
f 7/28/3 26/29/3 34/30/3
f 13/31/5 31/32/5 30/33/5
f 31/32/6 32/34/6 28/35/6
f 7/36/4 30/37/4 26/38/4
f 34/39/6 37/40/6 36/41/6
f 14/42/4 35/43/4 23/44/4
f 27/45/5 33/46/5 35/47/5
f 6/48/2 34/39/2 33/49/2
f 8/50/5 21/51/5 35/52/5
f 48/53/3 50/54/3 46/55/3
f 45/56/7 43/57/7 38/58/7
f 49/59/5 47/60/5 43/57/5
f 53/61/8 77/62/8 70/63/8
f 57/64/2 58/65/2 61/66/2
f 38/58/4 51/67/4 40/68/4
f 51/69/5 52/70/5 53/61/5
f 52/71/2 39/72/2 41/73/2
f 44/74/9 46/55/9 41/73/9
f 71/75/10 77/76/10 53/77/10
f 46/55/11 74/78/11 71/75/11
f 54/79/4 55/80/4 56/81/4
f 55/82/5 57/83/5 60/84/5
f 64/85/12 62/86/12 56/87/12
f 68/88/5 66/89/5 62/86/5
f 56/81/13 62/90/13 63/91/13
f 65/92/14 64/93/14 60/94/14
f 67/95/1 66/96/1 68/97/1
f 66/98/4 67/99/4 63/91/4
f 69/100/2 68/101/2 64/93/2
f 85/102/5 78/103/5 70/63/5
f 79/104/2 85/105/2 77/76/2
f 82/106/15 79/104/15 71/75/15
f 40/68/16 70/107/16 72/108/16
f 73/109/17 75/110/17 49/59/17
f 50/54/18 76/111/18 74/78/18
f 42/112/19 72/108/19 73/109/19
f 84/113/1 83/114/1 81/115/1
f 80/116/1 78/117/1 85/118/1
f 79/119/1 82/120/1 81/115/1
f 78/121/4 80/122/4 72/108/4
f 81/123/20 83/124/20 75/110/20
f 84/125/21 82/126/21 74/127/21
f 80/122/7 81/123/7 73/109/7
f 88/128/1 11/129/1 5/130/1
f 86/131/4 87/132/4 24/133/4
f 89/134/3 93/135/3 92/136/3
f 90/137/4 92/138/4 93/139/4
f 86/140/5 90/141/5 91/142/5
f 89/143/2 88/144/2 2/145/2
f 12/146/1 14/1/1 6/3/1
f 9/147/2 16/4/2 22/6/2
f 16/148/3 11/7/3 25/9/3
f 8/149/4 1/10/4 21/12/4
f 1/150/3 9/13/3 17/15/3
f 4/151/3 10/16/3 20/18/3
f 18/152/5 2/19/5 19/21/5
f 3/153/4 4/22/4 19/24/4
f 29/154/2 32/155/2 31/27/2
f 31/27/2 13/156/2 15/25/2
f 27/26/2 29/154/2 31/27/2
f 23/157/3 37/158/3 34/30/3
f 34/30/3 6/159/3 7/28/3
f 34/30/3 26/29/3 23/157/3
f 5/160/5 13/31/5 30/33/5
f 30/33/6 31/32/6 28/35/6
f 30/37/4 24/161/4 26/38/4
f 30/37/4 7/36/4 5/162/4
f 30/37/4 28/163/4 24/161/4
f 33/49/6 34/39/6 36/41/6
f 10/164/4 14/42/4 23/44/4
f 33/46/5 27/45/5 15/165/5
f 33/46/5 36/166/5 35/47/5
f 15/165/5 12/167/5 33/46/5
f 12/168/2 6/48/2 33/49/2
f 14/169/5 8/50/5 35/52/5
f 44/74/3 48/53/3 46/55/3
f 42/112/7 45/56/7 38/58/7
f 45/56/5 49/59/5 43/57/5
f 40/170/8 53/61/8 70/63/8
f 60/94/2 57/64/2 61/66/2
f 42/112/4 38/58/4 40/68/4
f 40/170/5 51/69/5 53/61/5
f 53/77/2 52/71/2 41/73/2
f 39/72/9 44/74/9 41/73/9
f 41/73/10 71/75/10 53/77/10
f 41/73/22 46/55/22 71/75/22
f 59/171/4 54/79/4 56/81/4
f 56/87/5 55/82/5 60/84/5
f 60/84/12 64/85/12 56/87/12
f 64/85/5 68/88/5 62/86/5
f 59/171/13 56/81/13 63/91/13
f 61/66/14 65/92/14 60/94/14
f 69/172/1 67/95/1 68/97/1
f 62/90/4 66/98/4 63/91/4
f 65/92/2 69/100/2 64/93/2
f 77/62/5 85/102/5 70/63/5
f 71/75/2 79/104/2 77/76/2
f 74/78/15 82/106/15 71/75/15
f 42/112/16 40/68/16 72/108/16
f 45/56/23 73/109/23 49/59/23
f 46/55/24 50/54/24 74/78/24
f 45/56/19 42/112/19 73/109/19
f 82/120/1 84/113/1 81/115/1
f 79/119/1 80/116/1 85/118/1
f 80/116/1 79/119/1 81/115/1
f 70/107/4 78/121/4 72/108/4
f 73/109/20 81/123/20 75/110/20
f 76/173/21 84/125/21 74/127/21
f 72/108/7 80/122/7 73/109/7
f 10/174/1 4/175/1 3/176/1
f 3/176/1 6/177/1 10/174/1
f 12/178/1 15/179/1 13/180/1
f 7/181/1 6/177/1 3/176/1
f 16/182/1 12/178/1 13/180/1
f 7/181/1 3/176/1 2/183/1
f 16/182/1 14/184/1 12/178/1
f 5/130/1 7/181/1 2/183/1
f 1/185/1 8/186/1 14/184/1
f 5/130/1 2/183/1 88/128/1
f 11/129/1 13/180/1 5/130/1
f 16/182/1 9/187/1 1/185/1
f 92/188/1 90/189/1 86/190/1
f 16/182/1 1/185/1 14/184/1
f 88/128/1 92/188/1 86/190/1
f 11/129/1 16/182/1 13/180/1
f 88/128/1 86/190/1 11/129/1
f 11/191/4 86/131/4 24/133/4
f 88/192/3 89/134/3 92/136/3
f 91/193/4 90/137/4 93/139/4
f 87/194/5 86/140/5 91/142/5
f 18/195/2 89/143/2 2/145/2
f 18/196/6 23/196/6 24/196/6
f 23/196/6 18/196/6 19/196/6
f 87/196/6 93/196/6 89/196/6
f 17/196/6 22/196/6 25/196/6
f 87/196/6 91/196/6 93/196/6
f 35/196/6 17/196/6 25/196/6
f 24/196/6 87/196/6 89/196/6
f 23/196/6 25/196/6 24/196/6
f 19/196/6 20/196/6 23/196/6
f 35/196/6 21/196/6 17/196/6
f 24/196/6 89/196/6 18/196/6
f 23/196/6 35/196/6 25/196/6
