v 1.666667 -0.000000 -5.000000
v -1.666667 0.000000 -5.000000
v -5.000000 0.000001 5.000000
v 5.000000 -0.000000 -5.000000
v -5.000000 0.000001 -5.000000
v 1.666667 -0.000000 5.000000
v 5.000000 -0.000001 6.000001
v 1.666667 -0.000000 6.000001
v -5.000000 3.750001 5.000000
v -1.666667 3.750001 -5.000000
v 1.666667 3.750000 -5.000000
v 5.000000 3.750000 -5.000000
v -5.000000 3.750001 -5.000000
v 1.666667 3.750001 -7.000000
v -1.666667 3.750001 -7.000000
v 1.666667 3.750000 -5.400001
v 1.666667 3.750000 -5.800001
v 1.666667 3.750001 -6.200000
v 1.666667 3.750001 -6.600000
v -1.666667 3.750001 -6.600000
v -1.666667 3.750001 -6.200000
v -1.666667 3.750001 -5.800000
v -1.666667 3.750001 -5.400000
v 3.666667 3.750000 -11.000001
v 3.666667 3.750000 -7.000000
v -3.666667 3.750001 -11.000001
v -3.666667 3.750001 -7.000000
v 1.666667 3.750000 5.000000
v 5.000000 3.750000 6.000001
v 1.666667 3.750000 6.000001
v -1.666667 0.200000 -5.000000
v 1.666667 0.200000 -5.000000
v 1.666667 0.200000 -5.400001
v -1.666667 0.200000 -5.400000
v 1.666667 0.400000 -5.400001
v 1.666667 0.400000 -5.800001
v -1.666667 0.400000 -5.800000
v -1.666667 0.400000 -5.400000
v 1.666667 0.600000 -5.800001
v 1.666667 0.600000 -6.200000
v -1.666667 0.600000 -6.200000
v -1.666667 0.600000 -5.800000
v 1.666667 0.800000 -6.200001
v 1.666667 0.800000 -6.600000
v -1.666667 0.800000 -6.600000
v -1.666667 0.800000 -6.200001
v -1.666667 1.000000 -7.000000
v 1.666667 1.000000 -6.600000
v -1.666667 1.000000 -6.600000
v 1.666667 1.000000 -7.000000
v 3.666667 1.000000 -11.000001
v 3.666667 1.000000 -7.000000
v -3.666667 1.000001 -11.000001
v -3.666667 1.000001 -7.000000
vt 0.442166 0.712230
vt 0.570291 0.712230
vt 0.570291 0.719918
vt 0.086339 0.097112
vt 0.086339 0.000160
vt 0.370731 0.000160
vt 0.004707 0.716991
vt 0.004703 0.378538
vt 0.131623 0.378536
vt 0.004699 0.101622
vt 0.131619 0.101620
vt 0.131620 0.193926
vt 0.131627 0.716989
vt 0.131630 0.901600
vt 0.004710 0.901602
vt 0.655123 0.000159
vt 0.655123 0.097111
vt 0.482764 0.097111
vt 0.482764 0.000160
vt 0.456910 0.097111
vt 0.913661 0.000159
vt 0.913661 0.097111
vt 0.570291 0.627668
vt 0.570291 0.643043
vt 0.442166 0.643043
vt 0.131631 0.993905
vt 0.456910 0.000160
vt 0.370731 0.097111
vt 0.570291 0.650730
vt 0.570291 0.666105
vt 0.442166 0.666105
vt 0.570291 0.673793
vt 0.570291 0.689168
vt 0.442166 0.689168
vt 0.570291 0.696855
vt 0.578398 0.856742
vt 0.996474 0.856741
vt 0.996474 0.996100
vt 0.000160 0.097112
vt 0.000159 0.005331
vt 0.514876 0.512724
vt 0.473001 0.162021
vt 0.520082 0.101725
vt 0.999841 0.005330
vt 0.570291 0.619980
vt 0.442166 0.627668
vt 0.297264 0.377351
vt 0.267333 0.377322
vt 0.267531 0.171548
vt 0.570291 0.735293
vt 0.442166 0.735293
vt 0.248421 0.780986
vt 0.425271 0.780986
vt 0.531382 0.993207
vt 0.237615 0.156554
vt 0.237402 0.377293
vt 0.207699 0.141560
vt 0.207472 0.377264
vt 0.177782 0.126565
vt 0.177541 0.377236
vt 0.144993 0.111595
vt 0.174921 0.111301
vt 0.431126 0.512724
vt 0.389251 0.512724
vt 0.389251 0.203895
vt 0.347376 0.224833
vt 0.347376 0.203896
vt 0.305501 0.224833
vt 0.347376 0.512724
vt 0.575775 0.281289
vt 0.998638 0.140335
vt 0.998638 0.281289
vt 0.473001 0.512724
vt 0.431126 0.182958
vt 0.218581 0.736383
vt 0.354653 0.720054
vt 0.354653 0.736383
vt 0.442166 0.719918
vt 0.004700 0.193927
vt 0.004711 0.993907
vt 0.442166 0.650730
vt 0.442166 0.673793
vt 0.442166 0.696855
vt 0.996474 0.717383
vt 0.578398 0.578024
vt 0.996474 0.578024
vt 0.536591 0.996100
vt 0.536591 0.856742
vt 0.000159 0.000160
vt 0.473772 0.101138
vt 0.999841 0.097111
vt 0.999841 0.000159
vt 0.442166 0.619980
vt 0.297462 0.171577
vt 0.142311 0.993207
vt 0.142310 0.780986
vt 0.531382 0.780986
vt 0.267546 0.156582
vt 0.237629 0.141588
vt 0.207713 0.126594
vt 0.147610 0.377207
vt 0.389251 0.182958
vt 0.305501 0.512724
vt 0.998638 0.422243
vt 0.998638 0.563197
vt 0.575775 0.563197
vt 0.533489 0.140335
vt 0.533489 0.281289
vt 0.431126 0.162021
vt 0.436297 0.524110
vt 0.436297 0.687397
vt 0.354653 0.687397
vt 0.218581 0.687397
vt 0.136937 0.524110
vt 0.218581 0.703726
vt 0.136937 0.687397
vt 0.218581 0.720054
vt 0.354653 0.703726
vt 0.218581 0.752712
vt 0.354653 0.752712
vt 0.354653 0.769040
vt 0.218581 0.769040
vn 0.000000 -0.000000 1.000000
vn -1.000000 0.000000 0.000000
vn 0.000000 0.000000 -1.000000
vn 1.000000 0.000000 0.000000
vn 0.000000 1.000000 0.000000
vn 0.000000 -1.000000 0.000000
f 45/1/1 44/2/1 48/3/1
f 12/4/2 4/5/2 7/6/2
f 53/7/1 51/8/1 24/9/1
f 50/10/3 14/11/3 25/12/3
f 26/13/4 27/14/4 54/15/4
f 3/16/3 9/17/3 28/18/3
f 25/12/2 24/9/2 51/8/2
f 6/19/4 28/18/4 30/20/4
f 5/21/4 13/22/4 9/17/4
f 32/23/5 33/24/5 34/25/5
f 54/15/3 27/14/3 15/26/3
f 8/27/3 30/20/3 29/28/3
f 35/29/5 36/30/5 37/31/5
f 39/32/5 40/33/5 41/34/5
f 37/31/1 36/30/1 39/32/1
f 43/35/5 44/2/5 45/1/5
f 41/34/1 40/33/1 43/35/1
f 28/36/6 11/37/6 12/38/6
f 12/4/1 11/39/1 32/40/1
f 11/41/2 35/42/2 32/43/2
f 31/44/1 13/22/1 5/21/1
f 1/45/1 32/23/1 31/46/1
f 15/47/4 20/48/4 49/49/4
f 34/25/1 33/24/1 35/29/1
f 48/3/5 50/50/5 47/51/5
f 47/52/5 50/53/5 51/54/5
f 46/55/4 49/49/4 21/56/4
f 42/57/4 46/55/4 22/58/4
f 38/59/4 42/57/4 23/60/4
f 31/61/4 34/62/4 38/59/4
f 17/63/2 18/64/2 43/65/2
f 43/65/2 48/66/2 44/67/2
f 50/68/2 48/66/2 19/69/2
f 6/70/5 4/71/5 1/72/5
f 16/73/2 39/74/2 35/42/2
f 22/75/6 18/76/6 17/77/6
f 49/78/1 45/1/1 48/3/1
f 29/28/2 12/4/2 7/6/2
f 26/13/1 53/7/1 24/9/1
f 52/79/3 50/10/3 25/12/3
f 53/7/4 26/13/4 54/15/4
f 6/19/3 3/16/3 28/18/3
f 52/79/2 25/12/2 51/8/2
f 8/27/4 6/19/4 30/20/4
f 3/16/4 5/21/4 9/17/4
f 31/46/5 32/23/5 34/25/5
f 47/80/3 54/15/3 15/26/3
f 7/6/3 8/27/3 29/28/3
f 38/81/5 35/29/5 37/31/5
f 42/82/5 39/32/5 41/34/5
f 42/82/1 37/31/1 39/32/1
f 46/83/5 43/35/5 45/1/5
f 46/83/1 41/34/1 43/35/1
f 10/84/6 9/85/6 13/86/6
f 29/87/6 30/88/6 28/36/6
f 28/36/6 12/38/6 29/87/6
f 28/36/6 10/84/6 11/37/6
f 10/84/6 28/36/6 9/85/6
f 32/40/1 4/5/1 12/4/1
f 4/5/1 32/40/1 1/89/1
f 35/42/2 11/41/2 16/73/2
f 35/42/2 33/90/2 32/43/2
f 13/22/1 31/44/1 10/91/1
f 31/44/1 5/21/1 2/92/1
f 2/93/1 1/45/1 31/46/1
f 47/94/4 15/47/4 49/49/4
f 38/81/1 34/25/1 35/29/1
f 49/78/5 48/3/5 47/51/5
f 53/95/5 54/96/5 47/52/5
f 47/52/5 51/54/5 53/95/5
f 51/54/5 50/53/5 52/97/5
f 49/49/4 46/55/4 45/98/4
f 49/49/4 20/48/4 21/56/4
f 46/55/4 42/57/4 41/99/4
f 46/55/4 21/56/4 22/58/4
f 42/57/4 38/59/4 37/100/4
f 42/57/4 22/58/4 23/60/4
f 38/59/4 10/101/4 31/61/4
f 10/101/4 38/59/4 23/60/4
f 43/65/2 39/74/2 17/63/2
f 39/74/2 43/65/2 40/102/2
f 48/66/2 43/65/2 18/64/2
f 18/64/2 19/69/2 48/66/2
f 14/103/2 50/68/2 19/69/2
f 2/104/5 5/105/5 3/106/5
f 6/70/5 1/72/5 2/104/5
f 6/70/5 7/107/5 4/71/5
f 2/104/5 3/106/5 6/70/5
f 6/70/5 8/108/5 7/107/5
f 39/74/2 16/73/2 17/63/2
f 39/74/2 36/109/2 35/42/2
f 24/110/6 25/111/6 14/112/6
f 15/113/6 26/114/6 24/110/6
f 14/112/6 20/115/6 15/113/6
f 15/113/6 27/116/6 26/114/6
f 21/117/6 19/118/6 18/76/6
f 15/113/6 24/110/6 14/112/6
f 18/76/6 22/75/6 21/117/6
f 19/118/6 20/115/6 14/112/6
f 23/119/6 22/75/6 17/77/6
f 23/119/6 16/120/6 11/121/6
f 11/121/6 10/122/6 23/119/6
f 19/118/6 21/117/6 20/115/6
f 23/119/6 17/77/6 16/120/6
