v -0.057519 0.001668 0.057692
v 0.000000 0.001668 0.057692
v -0.110090 0.181668 0.102564
v 0.057519 0.001668 0.057692
v 0.110090 0.181668 0.102564
v 0.000000 0.181668 0.102564
v -0.057519 0.001668 -0.057692
v -0.057519 0.001668 0.000000
v 0.000000 0.001668 0.000000
v 0.000000 0.001668 -0.057692
v -0.110090 0.181668 -0.102564
v -0.110090 0.181668 0.000000
v 0.057519 0.001668 -0.057692
v 0.057519 0.001668 0.000000
v 0.110090 0.181668 -0.102564
v 0.110090 0.181668 0.000000
v 0.000000 0.181668 0.000000
v 0.000000 0.181668 -0.102564
vt 0.623470 0.025615
vt 0.800662 0.025615
vt 0.800662 0.349578
vt 0.348470 0.615455
vt 0.439292 0.294966
vt 0.538664 0.294966
vt 0.118411 0.785843
vt 0.118411 0.885215
vt 0.018740 0.885215
vt 0.190388 0.177386
vt 0.000194 0.177386
vt 0.000194 0.000194
vt 0.628470 0.982306
vt 0.705991 0.658343
vt 0.805662 0.658343
vt 0.383082 0.409966
vt 0.292259 0.730455
vt 0.192888 0.730455
vt 0.380582 0.000194
vt 0.380582 0.177386
vt 0.977854 0.025615
vt 0.900333 0.349578
vt 0.093517 0.730455
vt 0.002694 0.409966
vt 0.218081 0.885214
vt 0.000194 0.354578
vt 0.982854 0.982306
vt 0.805662 0.982306
vt 0.118411 0.984586
vt 0.380582 0.354578
vt 0.638035 0.294966
vt 0.728858 0.615455
vt 0.700991 0.349578
vt 0.538664 0.615455
vt 0.018740 0.785843
vt 0.190388 0.000194
vt 0.192888 0.409966
vt 0.218081 0.785843
vt 0.190388 0.354578
vt 0.905333 0.658343
vt 0.018740 0.984586
vt 0.218082 0.984586
vn -0.959898 -0.280348 0.000000
vn 0.000000 -0.241885 0.970305
vn 0.000000 -1.000000 0.000000
vn 0.000000 1.000000 0.000000
vn 0.959899 -0.280348 0.000000
vn 0.000000 -0.241885 -0.970305
vn -0.959899 -0.280348 0.000000
vn 0.959898 -0.280348 0.000000
s off
f 3/1/1 12/2/1 8/3/1
f 3/4/2 1/5/2 2/6/2
f 8/7/3 9/8/3 2/9/3
f 17/10/4 12/11/4 3/12/4
f 5/13/5 4/14/5 14/15/5
f 15/16/6 13/17/6 10/18/6
f 5/19/4 16/20/4 17/10/4
f 11/21/7 7/22/7 8/3/7
f 10/18/6 7/23/6 11/24/6
f 10/25/3 9/8/3 8/7/3
f 11/26/4 12/11/4 17/10/4
f 15/27/8 16/28/8 14/15/8
f 2/9/3 9/8/3 14/29/3
f 14/29/3 9/8/3 10/25/3
f 17/10/4 16/20/4 15/30/4
f 2/6/2 4/31/2 5/32/2
f 1/33/1 3/1/1 8/3/1
f 6/34/2 3/4/2 2/6/2
f 1/35/3 8/7/3 2/9/3
f 6/36/4 17/10/4 3/12/4
f 16/28/8 5/13/8 14/15/8
f 18/37/6 15/16/6 10/18/6
f 6/36/4 5/19/4 17/10/4
f 12/2/1 11/21/1 8/3/1
f 18/37/6 10/18/6 11/24/6
f 7/38/3 10/25/3 8/7/3
f 18/39/4 11/26/4 17/10/4
f 13/40/8 15/27/8 14/15/8
f 4/41/3 2/9/3 14/29/3
f 13/42/3 14/29/3 10/25/3
f 18/39/4 17/10/4 15/30/4
f 6/34/2 2/6/2 5/32/2