# Blender v2.70 (sub 0) OBJ File: 'SalleCarree4x4.blend'
# www.blender.org
o Cube
v 1.999999 0.000000 -1.999999
v 1.999999 0.000000 2.000000
v -1.999999 0.000000 1.999999
v -1.999998 0.000000 -2.000000
v 2.000000 2.740000 -1.999998
v 1.999998 2.740000 2.000001
v -2.000000 2.740000 1.999999
v -1.999999 2.740000 -2.000000
vt 0.666467 0.333533
vt 0.333533 0.333533
vt 0.333533 0.666467
vt 0.333133 0.000200
vt 0.000200 0.000200
vt 0.000200 0.333134
vt 0.666467 0.000200
vt 0.333533 0.000200
vt 0.333533 0.333134
vt 0.333134 0.666866
vt 0.000200 0.666867
vt 0.000200 0.999800
vt 0.666467 0.999800
vt 0.666467 0.666867
vt 0.333533 0.666867
vt 0.333134 0.333533
vt 0.000200 0.333533
vt 0.000200 0.666467
vt 0.666467 0.666467
vt 0.333134 0.333134
vt 0.666467 0.333134
vt 0.333134 0.999800
vt 0.333533 0.999800
vt 0.333134 0.666467
vn 0.000000 1.000000 0.000000
vn 0.000000 -1.000000 0.000000
vn -1.000000 -0.000001 0.000000
vn 0.000000 -0.000000 -1.000000
vn 1.000000 0.000000 0.000000
vn -0.000000 -0.000000 1.000000
vn -1.000000 0.000000 -0.000001
s off
f 4/1/1 3/2/1 2/3/1
f 6/4/2 7/5/2 8/6/2
f 1/7/3 2/8/3 6/9/3
f 2/10/4 3/11/4 7/12/4
f 4/13/5 8/14/5 7/15/5
f 5/16/6 8/17/6 4/18/6
f 1/19/1 4/1/1 2/3/1
f 5/20/2 6/4/2 8/6/2
f 5/21/7 1/7/7 6/9/7
f 6/22/4 2/10/4 7/12/4
f 3/23/5 4/13/5 7/15/5
f 1/24/6 5/16/6 4/18/6
